<svg xmlns="http://www.w3.org/2000/svg" viewBox="0 0 64 64">
	<style>
		.isolate{isolation:isolate;}.base{fill:#b7cde1;}.mix-blend-multiply{mix-blend-mode:multiply;}.primary{fill:#ffb036};
	</style>
	<g class="isolate">
		<g id="Layer_1" data-name="Layer 1">
			<path class="base" d="M27.05,48.91a.86.86,0,0,0,.23-.33,1,1,0,0,0,.08-.39,1.1,1.1,0,0,0-.08-.4.94.94,0,0,0-.23-.33l-2.48-2.6a1,1,0,0,0-1.41,0l-6.7,6.7a1,1,0,0,1-.33.22.94.94,0,0,1-.76,0,1,1,0,0,1-.33-.22L8.35,44.84A1,1,0,0,0,8,44.62a1,1,0,0,0-.38-.07,1.05,1.05,0,0,0-.71.29L4.3,47.48a.83.83,0,0,0-.22.33,1,1,0,0,0-.08.38,1,1,0,0,0,.08.39.83.83,0,0,0,.22.33l7.1,7.29c.38.39.7.73.69.74l.7.72.11.11c.39.4,1,1,1.47,1.39l.62.54a1.14,1.14,0,0,0,.75.28,1.12,1.12,0,0,0,.74-.28l.49-.47,1.44-1.41.12-.13c.4-.4.71-.72.7-.72s.32-.35.7-.74Z" />
			<path class="base" d="M19.82,43c0-19.72,31.45-6.82,31.45-25.3V7A.94.94,0,0,0,51,6.29a1.06,1.06,0,0,0-.33-.22A1,1,0,0,0,50.28,6H44.17a1,1,0,0,0-.39.07,1.06,1.06,0,0,0-.33.22,1,1,0,0,0-.22.31.94.94,0,0,0-.07.37V17.68c0,8.75-30.44-.16-30.44,25.3V52.7h7.1Z" />
			<g class="mix-blend-multiply">
				<path class="primary fill-rule" d="M28.06,30.61c8,1.62,16.11,3.28,16.11,13.64v4L40.83,45a1,1,0,0,0-1.41,0l-2.48,2.58a1,1,0,0,0-.23.33,1,1,0,0,0,0,.79.9.9,0,0,0,.23.32l7.13,7.29c.38.39.71.73.7.73s.3.32.7.72l.12.13L47,59.26l.49.46a1.12,1.12,0,0,0,.74.28,1.14,1.14,0,0,0,.75-.28l.62-.53c.46-.38,1.08-1,1.47-1.38l.11-.11.7-.72s.31-.34.69-.73L59.67,49a.87.87,0,0,0,.22-.32A1,1,0,0,0,60,48.3a1,1,0,0,0-.3-.71L57,45a1,1,0,0,0-.71-.28,1,1,0,0,0-.38.07.93.93,0,0,0-.33.21l-4.38,4.35V44.25c0-16.6-12.09-19.08-21-20.9-5.24-1.06-9.41-1.93-9.41-5.28V7a1,1,0,0,0-.29-.7A1,1,0,0,0,19.83,6h-6.1a1,1,0,0,0-.71.29,1,1,0,0,0-.29.7V18.07C12.72,27.49,20.33,29,28.06,30.61Z" />
			</g>
		</g>
	</g>
</svg>
