<svg viewBox="0 0 64 64" fill="none" xmlns="http://www.w3.org/2000/svg">
    <defs>
        <style>
            .base {
                fill: #cce4ff
            }

            .primary {
                fill: #fea442
            }

            .secondary {
                fill: #1482ff;
            }

            .tertiary {
                fill: #6D67CE
            }

            .mix-blend-multiply {
                mix-blend-mode: multiply
            }
        </style>
    </defs>
    <g clip-path="url(#clip0_3160_9553)">
        <path
            d="M30.6666 1.33336L1.33333 30.6667C0.596954 31.403 0.596954 32.597 1.33333 33.3333L30.6666 62.6666C31.403 63.403 32.5969 63.403 33.3333 62.6666L62.6666 33.3333C63.403 32.597 63.403 31.403 62.6666 30.6667L33.3333 1.33336C32.5969 0.59698 31.403 0.596978 30.6666 1.33336Z"
            class="base" />
        <g class="mix-blend-multiply">
            <path
                d="M33.4643 56.2254L31.8165 57.9352L30.1691 56.225L8.67791 33.915L7.03124 32.2056L8.67829 30.4965L19.9483 18.8024L19.6472 18.49C19.045 17.8651 19.423 16.7949 20.2718 16.7218L22.7631 16.5073C22.8973 16.4834 23.033 16.4718 23.1687 16.4724L25.1483 16.302C25.7644 16.2489 26.2789 16.7828 26.2278 17.4221L25.8232 22.4821C25.7528 23.3628 24.7214 23.7551 24.1191 23.1302L23.2432 22.2212L13.6202 32.2063L31.8173 51.0968L33.2271 49.6339C34.137 48.6898 35.6121 48.6898 36.522 49.6339C37.4318 50.5779 37.4318 52.1086 36.522 53.0527L33.4643 56.2254Z"
                class="secondary" />
        </g>
        <g class="mix-blend-multiply">
            <path
                d="M37.3502 48.1251C37.3096 48.6337 37.7188 49.0583 38.209 49.0161L43.9672 48.5204C44.6424 48.4623 44.9431 47.611 44.4641 47.1139L43.2337 45.8372L55.0183 33.6093L56.7061 31.8579L55.0183 30.1066L33.5377 7.81776L31.8499 6.06641L30.1621 7.81776L26.5948 11.5192C25.6626 12.4865 25.6626 14.0547 26.5948 15.0219C27.527 15.9892 29.0383 15.9892 29.9705 15.0219L31.8499 13.0718L49.9548 31.8579L39.8581 42.3345L39.1835 41.6346C38.7044 41.1375 37.884 41.4495 37.828 42.1501L37.3502 48.1251Z"
                class="tertiary" />
        </g>
        <path
            d="M32.0006 41C34.0827 40.9999 36.1003 40.2778 37.7097 38.957C39.3191 37.6361 40.4207 35.7981 40.827 33.7561C41.2332 31.7141 40.919 29.5944 39.9376 27.7581C38.9563 25.9218 37.3687 24.4826 35.4453 23.6856C33.5219 22.8885 31.3816 22.783 29.3891 23.387C27.3966 23.991 25.6752 25.2672 24.518 26.998C23.3609 28.7289 22.8396 30.8074 23.0431 32.8795C23.2465 34.9515 24.1621 36.889 25.6338 38.3617C27.3226 40.0501 29.6126 40.999 32.0006 41Z"
            class="primary" />
        <path
            d="M36.8629 27H28V28.3886H30.7943C32.0972 28.3886 32.92 29.0228 33.1429 30.0686H28V31.2857H33.1429C32.92 32.3314 32.08 32.9486 30.7943 32.9486H28V34.3371H30.9658L33.4515 39H35.2515L32.5772 34.1143C33.7772 33.6857 34.5829 32.64 34.7715 31.2857H36.8629V30.0686H34.7715C34.6686 29.3314 34.3772 28.7143 33.8629 28.2171H36.8629V27Z"
            fill="white" />
    </g>
    <defs>
        <clipPath id="clip0_3160_9553">
            <rect width="64" height="64" fill="white" />
        </clipPath>
    </defs>
</svg>