<svg viewBox="0 0 64 64" fill="none" xmlns="http://www.w3.org/2000/svg">
    <defs>
        <style>
            .isolate {
                isolation: isolate;
            }

            .base {
                fill: #b7cde1;
            }

            .mix-blend-multiply {
                mix-blend-mode: multiply;
            }
        </style>
    </defs>
    <path d="M15 36H9V52H15V36Z" fill="white" />
    <path d="M28 36H22V52H28V36Z" fill="white" />
    <path d="M42 36H36V52H42V36Z" fill="white" />
    <path d="M55 36H49V52H55V36Z" fill="white" />
    <path
        d="M58 51.9998H6C4.89543 51.9998 4 52.8952 4 53.9998V57.9998C4 59.1043 4.89543 59.9998 6 59.9998H58C59.1046 59.9998 60 59.1043 60 57.9998V53.9998C60 52.8952 59.1046 51.9998 58 51.9998Z"
        class="base"
    />
    <path
        d="M58 35.9997H6C5.46957 35.9997 4.96086 35.789 4.58579 35.4139C4.21071 35.0389 4 34.5302 4 33.9997V30.9997C3.99988 30.6807 4.07606 30.3663 4.22219 30.0828C4.36831 29.7992 4.58014 29.5547 4.84 29.3697L30.84 10.7997C31.1787 10.5586 31.5842 10.429 32 10.429C32.4158 10.429 32.8213 10.5586 33.16 10.7997L59.16 29.3697C59.4199 29.5547 59.6317 29.7992 59.7778 30.0828C59.9239 30.3663 60.0001 30.6807 60 30.9997V33.9997C60 34.5302 59.7893 35.0389 59.4142 35.4139C59.0391 35.789 58.5304 35.9997 58 35.9997Z"
        class="base"
    />
    <g class="mix-blend-multiply">
        <path d="M15 33H9V55H15V33Z" class="base" />
    </g>
    <g class="mix-blend-multiply">
        <path d="M28 33H22V55H28V33Z" class="base" />
    </g>
    <g class="mix-blend-multiply">
        <path d="M42 33H36V55H42V33Z" class="base" />
    </g>
    <g class="mix-blend-multiply">
        <path d="M55 33H49V55H55V33Z" class="base" />
    </g>
</svg>
