<svg viewBox="0 0 64 64" fill="none" xmlns="http://www.w3.org/2000/svg">
    <defs>
        <style>
            .mix-blend-multiply {
                mix-blend-mode: multiply;
            }

            .secondary {
                fill: #36a168;
            }

            .base {
                fill: #b7cde1;
            }

            .primary {
                fill: #b7cde1;
            }

            .tertiary {
                fill: #ffffff
            }
        </style>
    </defs>
    <path d="M15 36H9V52H15V36Z" fill="white" />
    <path d="M28 36H22V52H28V36Z" fill="white" />
    <path d="M42 36H36V52H42V36Z" fill="white" />
    <path d="M55 36H49V52H55V36Z" fill="white" />
    <path
        d="M58 51.9998H6C4.89543 51.9998 4 52.8952 4 53.9998V57.9998C4 59.1043 4.89543 59.9998 6 59.9998H58C59.1046 59.9998 60 59.1043 60 57.9998V53.9998C60 52.8952 59.1046 51.9998 58 51.9998Z"
        class="base" />
    <path
        d="M58 35.9997H6C5.46957 35.9997 4.96086 35.789 4.58579 35.4139C4.21071 35.0389 4 34.5302 4 33.9997V30.9997C3.99988 30.6807 4.07606 30.3663 4.22219 30.0828C4.36831 29.7992 4.58014 29.5547 4.84 29.3697L30.84 10.7997C31.1787 10.5586 31.5842 10.429 32 10.429C32.4158 10.429 32.8213 10.5586 33.16 10.7997L59.16 29.3697C59.4199 29.5547 59.6317 29.7992 59.7778 30.0828C59.9239 30.3663 60.0001 30.6807 60 30.9997V33.9997C60 34.5302 59.7893 35.0389 59.4142 35.4139C59.0391 35.789 58.5304 35.9997 58 35.9997Z"
        class="base" />
    <g class="mix-blend-multiply">
        <path d="M15 33H9V55H15V33Z" class="primary" />
    </g>
    <g class="mix-blend-multiply">
        <path d="M28 33H22V55H28V33Z" class="primary" />
    </g>
    <g class="mix-blend-multiply">
        <path d="M42 33H36V55H42V33Z" class="primary" />
    </g>
    <g class="mix-blend-multiply">
        <path d="M55 33H49V55H55V33Z" class="primary" />
    </g>
    <path
        d="M59.08 6.47983C59.2019 6.47565 59.3234 6.49658 59.437 6.54134C59.5505 6.58609 59.6536 6.65371 59.7399 6.73998C59.8261 6.82626 59.8937 6.92936 59.9385 7.04287C59.9833 7.15639 60.0042 7.27789 60 7.39983C59.8815 11.1092 58.8561 14.733 57.0135 17.9545C55.1709 21.176 52.5672 23.8971 49.43 25.8798C49.3003 25.9584 49.1516 25.9999 49 25.9999C48.8484 25.9999 48.6997 25.9584 48.57 25.8798C45.4328 23.8971 42.8291 21.176 40.9865 17.9545C39.1439 14.733 38.1185 11.1092 38 7.39983C37.9958 7.27789 38.0168 7.15639 38.0615 7.04287C38.1063 6.92936 38.1739 6.82626 38.2602 6.73998C38.3464 6.65371 38.4495 6.58609 38.563 6.54134C38.6766 6.49658 38.7981 6.47565 38.92 6.47983H39.27C40.9071 6.47965 42.5372 6.2679 44.12 5.84983C45.6648 5.44654 47.1555 4.85899 48.56 4.09983C48.695 4.02631 48.8463 3.98779 49 3.98779C49.1537 3.98779 49.305 4.02631 49.44 4.09983C50.8341 4.85879 52.3148 5.44639 53.85 5.84983C55.4325 6.26934 57.0629 6.48111 58.7 6.47983H59.08Z"
        fill="white" />
    <g class="mix-blend-multiply">
        <path
            d="M59.08 6.47983C59.2019 6.47565 59.3234 6.49658 59.437 6.54134C59.5505 6.58609 59.6536 6.65371 59.7399 6.73998C59.8261 6.82626 59.8937 6.92936 59.9385 7.04287C59.9833 7.15639 60.0042 7.27789 60 7.39983C59.8815 11.1092 58.8561 14.733 57.0135 17.9545C55.1709 21.176 52.5672 23.8971 49.43 25.8798C49.3003 25.9584 49.1516 25.9999 49 25.9999C48.8484 25.9999 48.6997 25.9584 48.57 25.8798C45.4328 23.8971 42.8291 21.176 40.9865 17.9545C39.1439 14.733 38.1185 11.1092 38 7.39983C37.9958 7.27789 38.0168 7.15639 38.0615 7.04287C38.1063 6.92936 38.1739 6.82626 38.2602 6.73998C38.3464 6.65371 38.4495 6.58609 38.563 6.54134C38.6766 6.49658 38.7981 6.47565 38.92 6.47983H39.27C40.9071 6.47965 42.5372 6.2679 44.12 5.84983C45.6648 5.44654 47.1555 4.85899 48.56 4.09983C48.695 4.02631 48.8463 3.98779 49 3.98779C49.1537 3.98779 49.305 4.02631 49.44 4.09983C50.8341 4.85879 52.3148 5.44639 53.85 5.84983C55.4325 6.26934 57.0629 6.48111 58.7 6.47983H59.08Z"
            class="secondary" />
    </g>
    <path fill-rule="evenodd" clip-rule="evenodd"
        d="M47.35 15.3199C47.4433 15.4167 47.5551 15.4936 47.6788 15.5462C47.8025 15.5988 47.9356 15.6259 48.07 15.6259C48.2044 15.6259 48.3375 15.5988 48.4612 15.5462C48.5849 15.4936 48.6967 15.4167 48.79 15.3199L52.7 11.2299C52.7692 11.156 52.8528 11.0971 52.9457 11.0569C53.0386 11.0166 53.1388 10.9958 53.24 10.9958C53.3412 10.9958 53.4414 11.0166 53.5343 11.0569C53.6271 11.0971 53.7108 11.156 53.78 11.2299C53.9205 11.3845 53.9984 11.5859 53.9984 11.7949C53.9984 12.0038 53.9205 12.2053 53.78 12.3599L48.61 17.7699C48.5408 17.8435 48.4571 17.902 48.3641 17.9415C48.2712 17.9811 48.171 18.001 48.07 17.9999C47.9692 17.9993 47.8696 17.9786 47.7769 17.9391C47.6842 17.8996 47.6003 17.8421 47.53 17.7699L45.22 15.3499C45.0795 15.1953 45.0016 14.9938 45.0016 14.7849C45.0016 14.5759 45.0795 14.3745 45.22 14.2199C45.2892 14.146 45.3729 14.0871 45.4657 14.0469C45.5586 14.0066 45.6588 13.9859 45.76 13.9859C45.8612 13.9859 45.9614 14.0066 46.0543 14.0469C46.1472 14.0871 46.2308 14.146 46.3 14.2199L47.35 15.3199Z"
        class="tertiary" />
</svg>