<svg viewBox="0 0 64 64" fill="none" xmlns="http://www.w3.org/2000/svg">
    <defs>
        <style>
            .base {
                fill: #b7cde1;
            }

            .mix-blend-multiply {
                mix-blend-mode: multiply;
            }

            .primary {
                fill: #feb452;
            }

            .secondary {
                fill: #ffffff;
            }

            .tertiary {
                fill: #42CACD
            }
        </style>
    </defs>
    <path
        d="M47 30C48.9778 30 50.9112 29.4135 52.5557 28.3147C54.2002 27.2159 55.4819 25.6541 56.2388 23.8268C56.9957 21.9996 57.1937 19.9889 56.8078 18.0491C56.422 16.1093 55.4696 14.3275 54.0711 12.9289C52.6725 11.5304 50.8907 10.578 48.9509 10.1922C47.0111 9.8063 45.0004 10.0043 43.1732 10.7612C41.3459 11.5181 39.7841 12.7998 38.6853 14.4443C37.5865 16.0888 37 18.0222 37 20C37 22.6522 38.0536 25.1957 39.9289 27.0711C41.8043 28.9464 44.3478 30 47 30Z"
        fill="white" />
    <path d="M15 36H9V52H15V36Z" fill="white" />
    <path d="M28 36H22V52H28V36Z" fill="white" />
    <path d="M42 36H36V52H42V36Z" fill="white" />
    <path d="M55 36H49V52H55V36Z" fill="white" />
    <path
        d="M58 52H6C4.89543 52 4 52.8954 4 54V58C4 59.1046 4.89543 60 6 60H58C59.1046 60 60 59.1046 60 58V54C60 52.8954 59.1046 52 58 52Z"
        class="base" />
    <path
        d="M58 36H6C5.46957 36 4.96086 35.7893 4.58579 35.4142C4.21071 35.0391 4 34.5304 4 34V31C3.99988 30.681 4.07606 30.3666 4.22219 30.083C4.36831 29.7995 4.58014 29.555 4.84 29.37L30.84 10.8C31.1787 10.5588 31.5842 10.4292 32 10.4292C32.4158 10.4292 32.8213 10.5588 33.16 10.8L59.16 29.37C59.4199 29.555 59.6317 29.7995 59.7778 30.083C59.9239 30.3666 60.0001 30.681 60 31V34C60 34.5304 59.7893 35.0391 59.4142 35.4142C59.0391 35.7893 58.5304 36 58 36Z"
        class="base" />
    <g class="mix-blend-multiply">
        <path d="M15 33H9V55H15V33Z" class="base" />
    </g>
    <g class="mix-blend-multiply">
        <path d="M28 33H22V55H28V33Z" class="base" />
    </g>
    <g class="mix-blend-multiply">
        <path d="M42 33H36V55H42V33Z" class="base" />
    </g>
    <g class="mix-blend-multiply">
        <path d="M55 33H49V55H55V33Z" class="base" />
    </g>
    <g class="mix-blend-multiply">
        <path
            d="M47 30C48.9778 30 50.9112 29.4135 52.5557 28.3147C54.2002 27.2159 55.4819 25.6541 56.2388 23.8268C56.9957 21.9996 57.1937 19.9889 56.8078 18.0491C56.422 16.1093 55.4696 14.3275 54.0711 12.9289C52.6725 11.5304 50.8907 10.578 48.9509 10.1922C47.0111 9.8063 45.0004 10.0043 43.1732 10.7612C41.3459 11.5181 39.7841 12.7998 38.6853 14.4443C37.5865 16.0888 37 18.0222 37 20C37 22.6522 38.0536 25.1957 39.9289 27.0711C41.8043 28.9464 44.3478 30 47 30Z"
            class="primary" />
    </g>
    <path fill-rule="evenodd" clip-rule="evenodd"
        d="M42.7441 14.7617H53.1904V15.9469H48.7507C49.3213 16.5122 49.6893 17.2329 49.8028 18.0069H53.168V19.1921H49.7804C49.6446 19.9192 49.2836 20.5919 48.7433 21.125C48.4008 21.4699 47.9901 21.7479 47.5345 21.9434L50.7281 27.1427H49.2357L46.2511 22.3102H46.0944H42.7142V21.1039H46.0571C46.7791 21.1027 47.4712 20.8313 47.9822 20.349C48.3202 20.0289 48.5623 19.6296 48.6836 19.1921H42.7142V18.0069H48.6836C48.5693 17.5183 48.3106 17.0706 47.9374 16.7159C47.4257 16.2355 46.7334 15.9665 46.0123 15.9681H42.7142V14.7899L42.7441 14.7617Z"
        class="secondary" />
    <rect x="57" y="4" width="3" height="11" rx="1.5" class="tertiary" />
    <rect x="52" width="3" height="10" rx="1.5" class="tertiary" />
</svg>