<svg width="64" height="64" viewBox="0 0 64 64" fill="none" xmlns="http://www.w3.org/2000/svg">
    <defs>
        <style>
            .base {
                fill: #b7cde1
            }

            .primary {
                fill: #42CACD
            }

            .secondary {
                fill: #FEB452;
            }

            .mix-blend-multiply {
                mix-blend-mode: multiply
            }
        </style>
    </defs>
    <path d="M15 36H9V52H15V36Z" fill="white" />
    <path d="M28 36H22V52H28V36Z" fill="white" />
    <path d="M42 36H36V52H42V36Z" fill="white" />
    <path d="M55 36H49V52H55V36Z" fill="white" />
    <path
        d="M58 51.9998H6C4.89543 51.9998 4 52.8952 4 53.9998V57.9998C4 59.1043 4.89543 59.9998 6 59.9998H58C59.1046 59.9998 60 59.1043 60 57.9998V53.9998C60 52.8952 59.1046 51.9998 58 51.9998Z"
        class="base" />
    <path
        d="M58 35.9997H6C5.46957 35.9997 4.96086 35.789 4.58579 35.4139C4.21071 35.0389 4 34.5302 4 33.9997V30.9997C3.99988 30.6807 4.07606 30.3663 4.22219 30.0828C4.36831 29.7992 4.58014 29.5547 4.84 29.3697L30.84 10.7997C31.1787 10.5586 31.5842 10.429 32 10.429C32.4158 10.429 32.8213 10.5586 33.16 10.7997L59.16 29.3697C59.4199 29.5547 59.6317 29.7992 59.7778 30.0828C59.9239 30.3663 60.0001 30.6807 60 30.9997V33.9997C60 34.5302 59.7893 35.0389 59.4142 35.4139C59.0391 35.789 58.5304 35.9997 58 35.9997Z"
        class="base" />
    <g class="mix-blend-multiply">
        <path d="M15 33H9V55H15V33Z" class="base" />
    </g>
    <g class="mix-blend-multiply">
        <path d="M28 33H22V55H28V33Z" class="base" />
    </g>
    <g class="mix-blend-multiply">
        <path d="M42 33H36V55H42V33Z" class="base" />
    </g>
    <g class="mix-blend-multiply">
        <path d="M55 33H49V55H55V33Z" class="base" />
    </g>
    <path
        d="M52.1204 13.1149L53.2789 11L54.432 13.1149L56.5579 14.2789L54.432 15.4375L53.2789 17.5579L52.1204 15.4375L50 14.2789L52.1204 13.1149Z"
        class="primary" />
    <path
        d="M5.83082 37.4192L7.37192 34.5884L8.91848 37.4192L11.7438 38.9548L8.91302 40.5014L7.37192 43.3322L5.83628 40.5014L3 38.9548L5.83082 37.4192Z"
        class="secondary" />
    <g class="mix-blend-multiply" opacity="0.8">
        <path fill-rule="evenodd" clip-rule="evenodd"
            d="M57.377 48.6724C57.3806 50.3923 56.874 52.0746 55.9212 53.5063C54.9685 54.938 53.6123 56.0547 52.0247 56.7151C50.4371 57.3755 48.6892 57.5499 47.0024 57.2161C45.3157 56.8823 43.7658 56.0555 42.5492 54.8403C41.3324 53.6249 40.5037 52.0758 40.1675 50.3892C39.8316 48.7024 40.0033 46.9539 40.6614 45.3649C41.3194 43.776 42.434 42.418 43.864 41.463C45.294 40.5079 46.9751 39.9988 48.6946 40C49.834 39.9978 50.9628 40.2203 52.0161 40.6547C53.0694 41.0892 54.0269 41.727 54.8338 42.5317C56.4606 44.1588 57.3753 46.3652 57.377 48.6663V48.6724Z"
            class="primary" />
    </g>
    <g class="mix-blend-multiply" opacity="0.8">
        <path fill-rule="evenodd" clip-rule="evenodd"
            d="M57.377 48.6724C57.3806 50.3923 56.874 52.0746 55.9212 53.5063C54.9685 54.938 53.6123 56.0547 52.0247 56.7151C50.4371 57.3755 48.6892 57.5499 47.0024 57.2161C45.3157 56.8823 43.7658 56.0555 42.5492 54.8403C41.3324 53.6249 40.5037 52.0758 40.1675 50.3892C39.8316 48.7024 40.0033 46.9539 40.6614 45.3649C41.3194 43.776 42.434 42.418 43.864 41.463C45.294 40.5079 46.9751 39.9988 48.6946 40C49.834 39.9978 50.9628 40.2203 52.0161 40.6547C53.0694 41.0892 54.0269 41.727 54.8338 42.5317C56.4606 44.1588 57.3753 46.3652 57.377 48.6663V48.6724Z"
            class="primary" />
    </g>
    <path fill-rule="evenodd" clip-rule="evenodd"
        d="M50.0274 46.342C49.7419 46.224 49.4359 46.1633 49.127 46.1638C48.7478 46.1644 48.4398 45.8574 48.4393 45.4782C48.4389 45.0988 48.7458 44.791 49.1251 44.7905C49.6148 44.7897 50.0999 44.8858 50.5524 45.0731C51.005 45.2602 51.4161 45.5349 51.7626 45.8814C52.1089 46.2278 52.3836 46.6392 52.5711 47.092C52.7584 47.5448 52.8549 48.03 52.8549 48.5202C52.8549 48.8993 52.5475 49.2067 52.1682 49.2067C51.789 49.2067 51.4815 48.8993 51.4815 48.5202C51.4816 48.2103 51.4205 47.9034 51.3022 47.6172C51.1837 47.3311 51.01 47.0711 50.7913 46.8524C50.5726 46.6337 50.313 46.4602 50.0274 46.342Z"
        class="primary" />
    <path fill-rule="evenodd" clip-rule="evenodd"
        d="M53.9022 55.5804C52.1471 56.9016 49.9549 57.5086 47.7687 57.2786C45.5825 57.0488 43.5652 55.9991 42.1242 54.3417C40.6833 52.6844 39.9261 50.5429 40.0057 48.3497C40.0852 46.1566 40.9956 44.0752 42.5528 42.5263C44.11 40.9773 46.1981 40.0761 48.3953 40.0046C50.5924 39.9331 52.7347 40.6969 54.3897 42.1414C56.0447 43.5858 57.0888 45.6036 57.3111 47.7868C57.5334 49.9702 56.9175 52.1564 55.5878 53.9039L61.8839 60.1771C61.9577 60.2519 61.9994 60.3526 62 60.4576C61.9991 60.5607 61.9574 60.6594 61.8839 60.7318L60.7358 61.8841C60.6609 61.9578 60.5601 61.9995 60.4549 62C60.3515 61.9992 60.2527 61.9575 60.18 61.8841L53.9022 55.5804ZM54.7511 48.6487C54.755 49.8575 54.3989 51.0402 53.7281 52.0464C53.0571 53.0527 52.1016 53.8371 50.9832 54.3001C49.8637 54.7579 48.6346 54.8788 47.4472 54.6477C46.3162 54.4171 45.2738 53.8713 44.4407 53.0734C43.6078 52.2756 43.0184 51.2582 42.7409 50.1396C42.4633 49.021 42.5092 47.8466 42.8731 46.7529C43.237 45.6592 43.9038 44.6907 44.7965 43.96C45.6891 43.2293 46.7711 42.7662 47.9166 42.6242C49.0623 42.4823 50.2247 42.6675 51.2692 43.1581C52.3138 43.649 53.1975 44.4252 53.8181 45.3969C54.4388 46.3688 54.7706 47.4962 54.7755 48.6487H54.7511Z"
        class="primary" />
</svg>