<svg viewBox="0 0 64 64" fill="none" xmlns="http://www.w3.org/2000/svg">
    <defs>
        <style>
            .isolate {
                isolation: isolate;
            }

            .base {
                fill: #b7cde1;
            }

            .mix-blend-multiply {
                mix-blend-mode: multiply;
            }

            .secondary {
                fill: #feb452;
            }
        </style>
    </defs>
    <path d="M15 36H9V52H15V36Z" fill="white" />
    <path d="M28 36H22V52H28V36Z" fill="white" />
    <path d="M42 36H36V52H42V36Z" fill="white" />
    <path d="M55 36H49V52H55V36Z" fill="white" />
    <path
        d="M39.16 18.5399C39.2085 18.1232 39.1607 17.7009 39.0203 17.3056C38.8799 16.9103 38.6505 16.5526 38.35 16.2599C37.6575 15.7966 36.8314 15.5752 36 15.6299V13.3699C36.8409 13.4306 37.6764 13.1934 38.36 12.6999C38.6459 12.4244 38.8662 12.0881 39.0047 11.7159C39.1432 11.3438 39.1962 10.9453 39.16 10.5499V7.65989C39.1126 6.69299 39.4303 5.74359 40.05 4.99989C40.3977 4.65492 40.8145 4.38746 41.2729 4.21511C41.7314 4.04275 42.2212 3.96941 42.71 3.99989H46V6.47989H44.29C43.9214 6.4786 43.5534 6.50871 43.19 6.56989C42.929 6.62313 42.6851 6.73991 42.48 6.90989C42.2885 7.09773 42.1564 7.33765 42.1 7.59989C42.0185 7.97412 41.9849 8.35719 42 8.73989V11.3199C42.0327 11.7234 41.9772 12.1292 41.8373 12.5091C41.6974 12.889 41.4765 13.2339 41.19 13.5199C40.5912 14.0163 39.847 14.3041 39.07 14.3399V14.5699C39.8546 14.5988 40.603 14.9074 41.18 15.4399C41.4656 15.7352 41.6861 16.0872 41.8274 16.473C41.9686 16.8588 42.0274 17.27 42 17.6799V20.2599C41.9902 20.6435 42.0306 21.0267 42.12 21.3999C42.1764 21.6621 42.3085 21.9021 42.5 22.0899C42.7053 22.2656 42.9539 22.383 43.22 22.4299C43.5862 22.4956 43.958 22.5257 44.33 22.5199H46V24.9999H42.71C42.2354 25.0309 41.7595 24.9673 41.3097 24.8128C40.8599 24.6583 40.4453 24.416 40.09 24.0999C39.7577 23.7319 39.5038 23.3 39.3439 22.8306C39.184 22.3613 39.1215 21.8643 39.16 21.3699V18.5399Z"
        fill="white"
    />
    <path
        d="M56.86 21.3698C56.8986 21.8642 56.836 22.3612 56.6761 22.8306C56.5162 23.2999 56.2623 23.7318 55.93 24.0998C55.5747 24.4159 55.1601 24.6582 54.7103 24.8127C54.2605 24.9672 53.7846 25.0308 53.31 24.9998H50V22.5198H51.71C52.082 22.5256 52.4538 22.4955 52.82 22.4298C53.0861 22.3829 53.3347 22.2655 53.54 22.0898C53.7315 21.902 53.8636 21.662 53.92 21.3998C53.996 21.0249 54.0229 20.6417 54 20.2598V17.6798C53.9726 17.2699 54.0314 16.8587 54.1726 16.4729C54.3139 16.0871 54.5344 15.7352 54.82 15.4398C55.415 14.8916 56.1911 14.5819 57 14.5698V14.3398C56.223 14.304 55.4788 14.0162 54.88 13.5198C54.5935 13.2338 54.3726 12.8889 54.2327 12.509C54.0928 12.1291 54.0373 11.7233 54.07 11.3198V8.73981C54.0809 8.35557 54.0371 7.97174 53.94 7.59981C53.8761 7.33825 53.7411 7.09945 53.55 6.90981C53.3449 6.73982 53.101 6.62304 52.84 6.56981C52.4831 6.50989 52.1219 6.47978 51.76 6.47981H50V3.99981H53.31C53.8038 3.96499 54.2993 4.03621 54.7632 4.20868C55.2272 4.38116 55.6489 4.65091 56 4.99981C56.6269 5.75124 56.9451 6.71274 56.89 7.68981V10.5798C56.8538 10.9752 56.9068 11.3737 57.0453 11.7459C57.1838 12.118 57.4041 12.4543 57.69 12.7298C58.3728 13.2249 59.2089 13.4623 60.05 13.3998V15.6598C59.2186 15.6051 58.3925 15.8266 57.7 16.2898C57.3995 16.5825 57.1701 16.9403 57.0297 17.3356C56.8893 17.7309 56.8415 18.1531 56.89 18.5698L56.86 21.3698Z"
        fill="white"
    />
    <path
        d="M58 51.9998H6C4.89543 51.9998 4 52.8952 4 53.9998V57.9998C4 59.1043 4.89543 59.9998 6 59.9998H58C59.1046 59.9998 60 59.1043 60 57.9998V53.9998C60 52.8952 59.1046 51.9998 58 51.9998Z"
        class="base"
    />
    <path
        d="M58 35.9997H6C5.46957 35.9997 4.96086 35.789 4.58579 35.4139C4.21071 35.0389 4 34.5302 4 33.9997V30.9997C3.99988 30.6807 4.07606 30.3663 4.22219 30.0828C4.36831 29.7992 4.58014 29.5547 4.84 29.3697L30.84 10.7997C31.1787 10.5586 31.5842 10.429 32 10.429C32.4158 10.429 32.8213 10.5586 33.16 10.7997L59.16 29.3697C59.4199 29.5547 59.6317 29.7992 59.7778 30.0828C59.9239 30.3663 60.0001 30.6807 60 30.9997V33.9997C60 34.5302 59.7893 35.0389 59.4142 35.4139C59.0391 35.789 58.5304 35.9997 58 35.9997Z"
        class="base"
    />
    <g class="mix-blend-multiply">
        <path d="M15 33H9V55H15V33Z" class="base primary" />
    </g>
    <g class="mix-blend-multiply">
        <path d="M28 33H22V55H28V33Z" class="base primary" />
    </g>
    <g class="mix-blend-multiply">
        <path d="M42 33H36V55H42V33Z" class="base primary" />
    </g>
    <g class="mix-blend-multiply">
        <path d="M55 33H49V55H55V33Z" class="base primary" />
    </g>
    <g class="mix-blend-multiply">
        <path
            d="M39.16 18.5399C39.2085 18.1232 39.1607 17.7009 39.0203 17.3056C38.8799 16.9103 38.6505 16.5526 38.35 16.2599C37.6575 15.7966 36.8314 15.5752 36 15.6299V13.3699C36.8409 13.4306 37.6764 13.1934 38.36 12.6999C38.6459 12.4244 38.8662 12.0881 39.0047 11.7159C39.1432 11.3438 39.1962 10.9453 39.16 10.5499V7.65989C39.1126 6.69299 39.4303 5.74359 40.05 4.99989C40.3977 4.65492 40.8145 4.38746 41.2729 4.21511C41.7314 4.04275 42.2212 3.96941 42.71 3.99989H46V6.47989H44.29C43.9214 6.4786 43.5534 6.50871 43.19 6.56989C42.929 6.62313 42.6851 6.73991 42.48 6.90989C42.2885 7.09773 42.1564 7.33765 42.1 7.59989C42.0185 7.97412 41.9849 8.35719 42 8.73989V11.3199C42.0327 11.7234 41.9772 12.1292 41.8373 12.5091C41.6974 12.889 41.4765 13.2339 41.19 13.5199C40.5912 14.0163 39.847 14.3041 39.07 14.3399V14.5699C39.8546 14.5988 40.603 14.9074 41.18 15.4399C41.4656 15.7352 41.6861 16.0872 41.8274 16.473C41.9686 16.8588 42.0274 17.27 42 17.6799V20.2599C41.9902 20.6435 42.0306 21.0267 42.12 21.3999C42.1764 21.6621 42.3085 21.9021 42.5 22.0899C42.7053 22.2656 42.9539 22.383 43.22 22.4299C43.5862 22.4956 43.958 22.5257 44.33 22.5199H46V24.9999H42.71C42.2354 25.0309 41.7595 24.9673 41.3097 24.8128C40.8599 24.6583 40.4453 24.416 40.09 24.0999C39.7577 23.7319 39.5038 23.3 39.3439 22.8306C39.184 22.3613 39.1215 21.8643 39.16 21.3699V18.5399Z"
            class="secondary"
        />
    </g>
    <g class="mix-blend-multiply">
        <path
            d="M56.86 21.3698C56.8986 21.8642 56.836 22.3612 56.6761 22.8306C56.5162 23.2999 56.2623 23.7318 55.93 24.0998C55.5747 24.4159 55.1601 24.6582 54.7103 24.8127C54.2605 24.9672 53.7846 25.0308 53.31 24.9998H50V22.5198H51.71C52.082 22.5256 52.4538 22.4955 52.82 22.4298C53.0861 22.3829 53.3347 22.2655 53.54 22.0898C53.7315 21.902 53.8636 21.662 53.92 21.3998C53.996 21.0249 54.0229 20.6417 54 20.2598V17.6798C53.9726 17.2699 54.0314 16.8587 54.1726 16.4729C54.3139 16.0871 54.5344 15.7352 54.82 15.4398C55.415 14.8916 56.1911 14.5819 57 14.5698V14.3398C56.223 14.304 55.4788 14.0162 54.88 13.5198C54.5935 13.2338 54.3726 12.8889 54.2327 12.509C54.0928 12.1291 54.0373 11.7233 54.07 11.3198V8.73981C54.0809 8.35557 54.0371 7.97174 53.94 7.59981C53.8761 7.33825 53.7411 7.09945 53.55 6.90981C53.3449 6.73982 53.101 6.62304 52.84 6.56981C52.4831 6.50989 52.1219 6.47978 51.76 6.47981H50V3.99981H53.31C53.8038 3.96499 54.2993 4.03621 54.7632 4.20868C55.2272 4.38116 55.6489 4.65091 56 4.99981C56.6269 5.75124 56.9451 6.71274 56.89 7.68981V10.5798C56.8538 10.9752 56.9068 11.3737 57.0453 11.7459C57.1838 12.118 57.4041 12.4543 57.69 12.7298C58.3728 13.2249 59.2089 13.4623 60.05 13.3998V15.6598C59.2186 15.6051 58.3925 15.8266 57.7 16.2898C57.3995 16.5825 57.1701 16.9403 57.0297 17.3356C56.8893 17.7309 56.8415 18.1531 56.89 18.5698L56.86 21.3698Z"
            class="secondary"
        />
    </g>
</svg>
