<svg viewBox="0 0 64 64" fill="none" xmlns="http://www.w3.org/2000/svg">
    <style>
        .mix-blend-multiply {
            mix-blend-mode: multiply;
        }

        .primary {
            fill: #42cacd;
        }

        .base {
            fill: #b7cde1;
        }

        .secondary {
            fill: #ffffff;
        }
    </style>
    <path
        d="M47.001 46C50.0083 45.9998 52.9226 44.9569 55.2473 43.049C57.572 41.1411 59.1633 38.4862 59.7502 35.5366C60.337 32.587 59.883 29.5252 58.4655 26.8728C57.0481 24.2205 54.7549 22.1415 51.9766 20.9903C49.1983 19.839 46.1068 19.6866 43.2287 20.559C40.3507 21.4315 37.8641 23.2748 36.1927 25.7749C34.5213 28.2751 33.7684 31.2774 34.0622 34.2704C34.3561 37.2633 35.6786 40.0619 37.8044 42.1892C40.2438 44.628 43.5516 45.9986 47.001 46Z"
        fill="white"
    />
    <path
        d="M47.001 46C50.0083 45.9998 52.9226 44.9569 55.2473 43.049C57.572 41.1411 59.1633 38.4862 59.7502 35.5366C60.337 32.587 59.883 29.5252 58.4655 26.8728C57.0481 24.2205 54.7549 22.1415 51.9766 20.9903C49.1983 19.839 46.1068 19.6866 43.2287 20.559C40.3507 21.4315 37.8641 23.2748 36.1927 25.7749C34.5213 28.2751 33.7684 31.2774 34.0622 34.2704C34.3561 37.2633 35.6786 40.0619 37.8044 42.1892C40.2438 44.628 43.5516 45.9986 47.001 46Z"
        fill="white"
    />
    <path
        d="M29.5 21H5.5C4.67157 21 4 21.6716 4 22.5C4 23.3284 4.67157 24 5.5 24H29.5C30.3284 24 31 23.3284 31 22.5C31 21.6716 30.3284 21 29.5 21Z"
        fill="white"
    />
    <path
        d="M21.5 28H5.5C4.67157 28 4 28.6716 4 29.5C4 30.3284 4.67157 31 5.5 31H21.5C22.3284 31 23 30.3284 23 29.5C23 28.6716 22.3284 28 21.5 28Z"
        fill="white"
    />
    <path
        fill-rule="evenodd"
        clip-rule="evenodd"
        d="M44.19 60.0002H11V6.13024C11 6.03738 11.0258 5.94636 11.0746 5.86737C11.1235 5.78839 11.1933 5.72455 11.2764 5.68303C11.3594 5.6415 11.4524 5.62392 11.5449 5.63226C11.6374 5.6406 11.7257 5.67453 11.8 5.73024L17.23 9.87024C17.404 10.0024 17.6165 10.074 17.835 10.074C18.0535 10.074 18.266 10.0024 18.44 9.87024L24.06 5.58024C24.234 5.44804 24.4465 5.37646 24.665 5.37646C24.8835 5.37646 25.096 5.44804 25.27 5.58024L30.89 9.87024C31.0648 10.0048 31.2793 10.0778 31.5 10.0778C31.7206 10.0778 31.9351 10.0048 32.11 9.87024L37.73 5.58024C37.904 5.44804 38.1165 5.37646 38.335 5.37646C38.5535 5.37646 38.766 5.44804 38.94 5.58024L44.56 9.87024C44.734 10.0024 44.9465 10.074 45.165 10.074C45.3835 10.074 45.596 10.0024 45.77 9.87024L51.2 5.73024C51.2743 5.67453 51.3626 5.6406 51.4551 5.63226C51.5475 5.62392 51.6405 5.6415 51.7236 5.68303C51.8066 5.72455 51.8765 5.78839 51.9253 5.86737C51.9741 5.94636 52 6.03738 52 6.13024V52.3202C51.9815 54.3739 51.1486 56.3363 49.6842 57.7763C48.2198 59.2164 46.2437 60.0162 44.19 60.0002Z"
        class="base"
    />
    <path
        fill-rule="evenodd"
        clip-rule="evenodd"
        d="M35.68 52V46H4.99996C4.73474 46 4.48039 46.1054 4.29285 46.2929C4.10531 46.4804 3.99996 46.7348 3.99996 47V52C3.97873 53.0296 4.16056 54.0533 4.53507 55.0127C4.90958 55.972 5.46942 56.8481 6.18261 57.591C6.89581 58.334 7.74839 58.9291 8.69164 59.3424C9.63489 59.7558 10.6503 59.9792 11.68 60H43.36C42.3303 59.9792 41.3149 59.7558 40.3716 59.3424C39.4284 58.9291 38.5758 58.334 37.8626 57.591C37.1494 56.8481 36.5896 55.972 36.2151 55.0127C35.8406 54.0533 35.6587 53.0296 35.68 52Z"
        class="base"
    />
    <g class="mix-blend-multiply">
        <path
            fill-rule="evenodd"
            clip-rule="evenodd"
            d="M35.68 52V47C35.68 46.7348 35.5746 46.4804 35.3871 46.2929C35.1995 46.1054 34.9452 46 34.68 46H11V60H43.36C42.3303 59.9792 41.3149 59.7558 40.3716 59.3424C39.4284 58.9291 38.5758 58.334 37.8626 57.591C37.1494 56.8481 36.5896 55.972 36.2151 55.0127C35.8406 54.0533 35.6587 53.0296 35.68 52Z"
            class="base"
        />
    </g>
    <g class="mix-blend-multiply">
        <path
            d="M47.001 46C50.0083 45.9998 52.9226 44.9569 55.2473 43.049C57.572 41.1411 59.1633 38.4862 59.7502 35.5366C60.337 32.587 59.883 29.5252 58.4655 26.8728C57.0481 24.2205 54.7549 22.1415 51.9766 20.9903C49.1983 19.839 46.1068 19.6866 43.2287 20.559C40.3507 21.4315 37.8641 23.2748 36.1927 25.7749C34.5213 28.2751 33.7684 31.2774 34.0622 34.2704C34.3561 37.2633 35.6786 40.0619 37.8044 42.1892C40.2438 44.628 43.5516 45.9986 47.001 46Z"
            class="primary"
        />
    </g>
    <path
        d="M51.2286 39.4571C52.4594 39.4571 53.4572 38.4594 53.4572 37.2286C53.4572 35.9978 52.4594 35 51.2286 35C49.9978 35 49 35.9978 49 37.2286C49 38.4594 49.9978 39.4571 51.2286 39.4571Z"
        class="secondary"
    />
    <path
        d="M42.2286 30.4571C43.4594 30.4571 44.4572 29.4594 44.4572 28.2286C44.4572 26.9978 43.4594 26 42.2286 26C40.9978 26 40 26.9978 40 28.2286C40 29.4594 40.9978 30.4571 42.2286 30.4571Z"
        class="secondary"
    />
    <path
        d="M51.2233 26.0607L40.0607 37.2233C39.4749 37.8091 39.4749 38.7588 40.0607 39.3446C40.6464 39.9304 41.5962 39.9304 42.182 39.3446L53.3446 28.182C53.9304 27.5962 53.9304 26.6465 53.3446 26.0607C52.7588 25.4749 51.809 25.4749 51.2233 26.0607Z"
        class="secondary"
    />
    <g class="mix-blend-multiply">
        <path
            d="M29.5 21H5.5C4.67157 21 4 21.6716 4 22.5C4 23.3284 4.67157 24 5.5 24H29.5C30.3284 24 31 23.3284 31 22.5C31 21.6716 30.3284 21 29.5 21Z"
            class="base"
        />
    </g>
    <g class="mix-blend-multiply">
        <path
            d="M21.5 28H5.5C4.67157 28 4 28.6716 4 29.5C4 30.3284 4.67157 31 5.5 31H21.5C22.3284 31 23 30.3284 23 29.5C23 28.6716 22.3284 28 21.5 28Z"
            class="base"
        />
    </g>
</svg>
