<svg xmlns="http://www.w3.org/2000/svg" viewBox="0 0 64 64" fill="none">
    <defs>
        <style>
            .primary {
                fill: #42cacd;
            }

            .secondary {
                fill: #feb452;
            }

            .base {
                fill: #a9cde3;
            }

            .mix-blend-multiply {
                mix-blend-mode: multiply;
            }
        </style>
    </defs>
    <g id="Layer_1" data-name="Layer 1">
        <rect fill="none" width="64" height="64" />
        <path class="primary" d="M48,0V12H43V0l2.5,2.4Z" />
        <path class="secondary" d="M41,0V12H36V0l2.5,2.4Z" />
        <path
            class="base"
            d="M50.52,7H13.4a2.35,2.35,0,0,0-1.7.61,2.32,2.32,0,0,0-.78,1.63V61.76A2.38,2.38,0,0,0,13.4,64H50.52A2.38,2.38,0,0,0,53,61.76V9.24a2.32,2.32,0,0,0-.78-1.63A2.35,2.35,0,0,0,50.52,7Z"
        />
        <path
            class="primary"
            d="M13.4,54.9H53v7a2,2,0,0,1-.19.83,2.08,2.08,0,0,1-.53.68,2.75,2.75,0,0,1-1.76.63H13.4a2.67,2.67,0,0,1-1.75-.63,2,2,0,0,1-.53-.67,2.07,2.07,0,0,1-.2-.84V57a2.07,2.07,0,0,1,.2-.84,2,2,0,0,1,.53-.67,2.67,2.67,0,0,1,1.75-.63Z"
        />
        <path
            class="primary"
            d="M50.73,7a2.27,2.27,0,0,1,.86.16,2.3,2.3,0,0,1,.74.48,2.23,2.23,0,0,1,.49.73,2.11,2.11,0,0,1,.18.86V54.9H50.73Z"
        />
        <g class="mix-blend-multiply">
            <path class="primary" d="M39,21H23a1,1,0,0,0-1,1v2a1,1,0,0,0,1,1H39a1,1,0,0,0,1-1V22A1,1,0,0,0,39,21Z" />
        </g>
    </g>
</svg>
