<svg viewBox="0 0 64 64" fill="none" xmlns="http://www.w3.org/2000/svg">
    <defs>
        <style>
            .base {
                fill: #cde7d9;
            }

            .primary {
                fill: #1482ff;
            }

            .secondary {
                fill: #ffffff;
            }

            .tertiary {
                fill: #36a168;
            }

            .mix-blend-multiply {
                mix-blend-mode: multiply;
            }
        </style>
    </defs>
    <path d="M27 19H5C3.89543 19 3 19.8954 3 21V39C3 40.1046 3.89543 41 5 41H27V19Z" fill="white" />
    <path
        fill-rule="evenodd"
        clip-rule="evenodd"
        d="M32.8572 11.8283V21.9496H59.044C59.2703 21.9496 59.4874 21.8597 59.6475 21.6996C59.8076 21.5395 59.8975 21.3224 59.8975 21.0961V11.8283C59.9156 10.9495 59.7604 10.0757 59.4408 9.25691C59.1211 8.43808 58.6433 7.69025 58.0345 7.05614C57.4258 6.42203 56.6981 5.91407 55.8929 5.56127C55.0878 5.20847 54.2211 5.01775 53.3423 5H26.302C27.1808 5.01775 28.0476 5.20847 28.8527 5.56127C29.6578 5.91407 30.3855 6.42203 30.9942 7.05614C31.603 7.69025 32.0808 8.43808 32.4005 9.25691C32.7201 10.0757 32.8753 10.9495 32.8572 11.8283Z"
        fill="white"
    />
    <path
        fill-rule="evenodd"
        clip-rule="evenodd"
        d="M32.8572 11.8283V21.9496H59.044C59.2703 21.9496 59.4874 21.8597 59.6475 21.6996C59.8076 21.5395 59.8975 21.3224 59.8975 21.0961V11.8283C59.9156 10.9495 59.7604 10.0757 59.4408 9.25691C59.1211 8.43808 58.6433 7.69025 58.0345 7.05614C57.4258 6.42203 56.6981 5.91407 55.8929 5.56127C55.0878 5.20847 54.2211 5.01775 53.3423 5H26.302C27.1808 5.01775 28.0476 5.20847 28.8527 5.56127C29.6578 5.91407 30.3855 6.42203 30.9942 7.05614C31.603 7.69025 32.0808 8.43808 32.4005 9.25691C32.7201 10.0757 32.8753 10.9495 32.8572 11.8283Z"
        class="tertiary"
    />
    <path
        fill-rule="evenodd"
        clip-rule="evenodd"
        d="M47.0959 11.8283V16.9496H20.6374C20.4111 16.9496 20.194 16.8597 20.0339 16.6996C19.8738 16.5395 19.7839 16.3224 19.7839 16.0961V11.8283C19.7658 10.9495 19.921 10.0757 20.2406 9.25691C20.5603 8.43808 21.0381 7.69025 21.6469 7.05614C22.2556 6.42204 22.9833 5.91407 23.7884 5.56127C24.5936 5.20847 25.4603 5.01775 26.3391 5H53.6511C52.7723 5.01775 51.9056 5.20847 51.1004 5.56127C50.2953 5.91407 49.5676 6.42204 48.9589 7.05614C48.3501 7.69025 47.8723 8.43808 47.5526 9.25691C47.233 10.0757 47.0778 10.9495 47.0959 11.8283Z"
        class="base"
    />
    <path
        fill-rule="evenodd"
        clip-rule="evenodd"
        d="M18.7653 5.0002H47.0945V58.9806C47.0945 59.0599 47.0724 59.1376 47.0307 59.205C46.9891 59.2724 46.9295 59.3269 46.8586 59.3624C46.7877 59.3978 46.7083 59.4128 46.6294 59.4057C46.5504 59.3986 46.4751 59.3696 46.4116 59.3221L41.7769 55.7884C41.6284 55.6755 41.447 55.6145 41.2605 55.6145C41.074 55.6145 40.8926 55.6755 40.7441 55.7884L35.9472 59.4501C35.7987 59.5629 35.6173 59.624 35.4308 59.624C35.2443 59.624 35.0629 59.5629 34.9144 59.4501L30.1175 55.7884C29.9682 55.6735 29.7852 55.6112 29.5968 55.6112C29.4085 55.6112 29.2254 55.6735 29.0762 55.7884L24.2792 59.4501C24.1307 59.5629 23.9494 59.624 23.7628 59.624C23.5763 59.624 23.395 59.5629 23.2465 59.4501L18.4495 55.7884C18.301 55.6755 18.1197 55.6145 17.9331 55.6145C17.7466 55.6145 17.5653 55.6755 17.4167 55.7884L12.782 59.3221C12.7186 59.3696 12.6432 59.3986 12.5643 59.4057C12.4853 59.4128 12.406 59.3978 12.3351 59.3624C12.2642 59.3269 12.2046 59.2724 12.1629 59.205C12.1212 59.1376 12.0992 59.0599 12.0992 58.9806V11.5554C12.1149 9.8025 12.8259 8.12751 14.0758 6.8984C15.3257 5.66928 17.0124 4.98656 18.7653 5.0002Z"
        class="base"
    />
    <g class="mix-blend-multiply">
        <path d="M27 19H5C3.89543 19 3 19.8954 3 21V39C3 40.1046 3.89543 41 5 41H27V19Z" class="primary" />
    </g>
    <path
        d="M27 16V44C27 44.5523 27.4477 45 28 45C28.5523 45 29 44.5523 29 44V16C29 15.4477 28.5523 15 28 15C27.4477 15 27 15.4477 27 16Z"
        class="primary"
    />
    <path
        d="M17.34 23H7V24.62H10.26C11.78 24.62 12.74 25.36 13 26.58H7V28H13C12.74 29.22 11.76 29.94 10.26 29.94H7V31.56H10.46L13.36 37H15.46L12.34 31.3C13.74 30.8 14.68 29.58 14.9 28H17.34V26.58H14.9C14.78 25.72 14.44 25 13.84 24.42H17.34V23Z"
        class="secondary"
    />
</svg>
