<svg viewBox="0 0 64 64" fill="none" xmlns="http://www.w3.org/2000/svg">
    <defs>
        <style>
            .mix-blend-multiply {
                mix-blend-mode: multiply;
            }

            .base {
                fill: #b7cde1;
            }

            .primary {
                fill: #36a168;
            }

            .secondary {
                fill: #42cacd;
            }
        </style>
    </defs>
    <path
        d="M4.10396 42C4.03634 42.0949 4 42.2085 4 42.325C4 42.4415 4.03634 42.5551 4.10396 42.65C4.17617 42.7668 4.28026 42.8604 4.40396 42.92C4.52888 42.9498 4.65904 42.9498 4.78396 42.92H59.214C59.3383 42.9545 59.4696 42.9545 59.594 42.92C59.7117 42.8797 59.8134 42.8025 59.884 42.7C59.9611 42.6112 60.0037 42.4976 60.004 42.38C60.0062 42.2622 59.9712 42.1467 59.904 42.05L57.394 36.92C57.2387 36.6496 57.0144 36.4253 56.744 36.27C56.4588 36.1098 56.1406 36.0174 55.814 36H8.18396C7.85734 36.0174 7.53911 36.1098 7.25396 36.27C6.98632 36.4255 6.7653 36.65 6.61396 36.92L4.10396 42Z"
        fill="white"
    />
    <path
        d="M54.5234 36.0023H9.47662C9.29102 35.9904 9.1054 36.0252 8.93049 36.1046C8.75557 36.1841 8.59483 36.3066 8.45753 36.4651C8.32024 36.6236 8.20911 36.815 8.13058 37.0282C8.05205 37.2414 8.00767 37.4722 8 37.7072V58.2928C8.00767 58.5278 8.05205 58.7586 8.13058 58.9718C8.20911 59.185 8.32024 59.3764 8.45753 59.5349C8.59483 59.6934 8.75557 59.8159 8.93049 59.8954C9.1054 59.9748 9.29102 60.0096 9.47662 59.9977H54.5234C54.8976 60.0183 55.263 59.8505 55.5397 59.531C55.8164 59.2115 55.9819 58.7663 56 58.2928V37.7072C55.9819 37.2337 55.8164 36.7885 55.5397 36.469C55.263 36.1495 54.8976 35.9817 54.5234 36.0023Z"
        class="base"
    />
    <g class="mix-blend-multiply">
        <path
            d="M4.10396 42C4.03634 42.0949 4 42.2085 4 42.325C4 42.4415 4.03634 42.5551 4.10396 42.65C4.17617 42.7668 4.28026 42.8604 4.40396 42.92C4.52888 42.9498 4.65904 42.9498 4.78396 42.92H59.214C59.3383 42.9545 59.4696 42.9545 59.594 42.92C59.7117 42.8797 59.8134 42.8025 59.884 42.7C59.9611 42.6112 60.0037 42.4976 60.004 42.38C60.0062 42.2622 59.9712 42.1467 59.904 42.05L57.394 36.92C57.2387 36.6496 57.0144 36.4253 56.744 36.27C56.4588 36.1098 56.1406 36.0174 55.814 36H8.18396C7.85734 36.0174 7.53911 36.1098 7.25396 36.27C6.98632 36.4255 6.7653 36.65 6.61396 36.92L4.10396 42Z"
            class="base"
        />
    </g>
    <path d="M50.58 10.58L52 8L53.41 10.58L56 12L53.39 13.39L52 16L50.6 13.42L48 12L50.58 10.58Z" class="secondary" />
    <path
        d="M9.935 22.935L11 21L12.0575 22.935L14 24L12.0425 25.0425L11 27L9.95 25.065L8 24L9.935 22.935Z"
        class="secondary"
    />
    <path
        d="M21.875 30.8827V30H46.375V30.8827C46.375 31.179 46.2696 31.4632 46.0821 31.6727C45.8946 31.8823 45.6402 32 45.375 32H22.875C22.6098 32 22.3554 31.8823 22.1679 31.6727C21.9804 31.4632 21.875 31.179 21.875 30.8827Z"
        class="primary"
    />
    <path
        d="M18.375 15.5V5.02587C18.375 4.75379 18.4804 4.49286 18.6679 4.30047C18.8554 4.10808 19.1098 4 19.375 4L41.875 4C42.1402 4 42.3946 4.10808 42.5821 4.30047C42.7696 4.49286 42.875 4.75379 42.875 5.02587V15.5L18.375 15.5Z"
        class="primary"
    />
    <path
        d="M21.875 30V19.5259C21.875 19.2538 21.9804 18.9929 22.1679 18.8005C22.3554 18.6081 22.6098 18.5 22.875 18.5H45.375C45.6402 18.5 45.8946 18.6081 46.0821 18.8005C46.2696 18.9929 46.375 19.2538 46.375 19.5259V30H21.875Z"
        class="primary"
    />
    <path
        fill-rule="evenodd"
        clip-rule="evenodd"
        d="M35.125 7.04395H39.875V7.61895H37.875C38.1444 7.89014 38.3197 8.24067 38.375 8.61895H39.875V9.18895H38.335C38.2648 9.54333 38.0907 9.86881 37.835 10.1239C37.6779 10.291 37.4892 10.4252 37.28 10.5189L38.74 13.0189H38.07L36.705 10.6889H35.11V10.1039H36.635C36.9635 10.103 37.2782 9.97171 37.51 9.73895C37.6676 9.58558 37.78 9.39186 37.835 9.17895H35.125V8.60895H37.875C37.8168 8.3287 37.6646 8.07675 37.4437 7.89487C37.2227 7.71298 36.9461 7.6121 36.66 7.60895H35.11V7.05894L35.125 7.04395Z"
        fill="white"
    />
    <path
        fill-rule="evenodd"
        clip-rule="evenodd"
        d="M38.625 21.5449H43.375V22.1199H41.375C41.6444 22.3911 41.8197 22.7416 41.875 23.1199H43.375V23.6899H41.835C41.7648 24.0443 41.5907 24.3698 41.335 24.6249C41.1779 24.792 40.9892 24.9262 40.78 25.0199L42.24 27.5199H41.57L40.205 25.1899H38.61V24.6049H40.135C40.4635 24.604 40.7782 24.4727 41.01 24.2399C41.1676 24.0866 41.28 23.8928 41.335 23.6799H38.625V23.1099H41.375C41.3168 22.8297 41.1646 22.5777 40.9437 22.3958C40.7227 22.214 40.4461 22.1131 40.16 22.1099H38.61V21.5599L38.625 21.5449Z"
        fill="white"
    />
    <path opacity="0.5" d="M27.875 18.5H24.375V32H27.875V18.5Z" fill="white" />
    <path
        d="M18.375 16.3827V15.5L42.875 15.5V16.3827C42.875 16.679 42.7696 16.9632 42.5821 17.1727C42.3946 17.3823 42.1402 17.5 41.875 17.5H19.375C19.1098 17.5 18.8554 17.3823 18.6679 17.1727C18.4804 16.9632 18.375 16.679 18.375 16.3827Z"
        class="primary"
    />
    <g class="mix-blend-multiply">
        <path
            d="M21.875 30.8827V30H46.375V30.8827C46.375 31.179 46.2696 31.4632 46.0821 31.6727C45.8946 31.8823 45.6402 32 45.375 32H22.875C22.6098 32 22.3554 31.8823 22.1679 31.6727C21.9804 31.4632 21.875 31.179 21.875 30.8827Z"
            class="primary"
        />
    </g>
    <g class="mix-blend-multiply">
        <path
            d="M18.375 16.3827V15.5L42.875 15.5V16.3827C42.875 16.679 42.7696 16.9632 42.5821 17.1727C42.3946 17.3823 42.1402 17.5 41.875 17.5H19.375C19.1098 17.5 18.8554 17.3823 18.6679 17.1727C18.4804 16.9632 18.375 16.679 18.375 16.3827Z"
            class="primary"
        />
    </g>
    <path opacity="0.5" d="M24.375 4H20.875V17.5H24.375V4Z" fill="white" />
</svg>
