<svg viewBox="0 0 64 64" fill="none" xmlns="http://www.w3.org/2000/svg">
    <style>
        .isolate {
            isolation: isolate;
        }

        .base {
            fill: #b7cde1;
        }

        .mix-blend-multiply {
            mix-blend-mode: multiply;
        }

        .primary {
            fill: #42CACD
        }
    </style>
    <path
        d="M20.1883 51.3308C20.2505 50.7811 20.1896 50.2245 20.0101 49.7013C19.8239 49.1762 19.5189 48.7014 19.119 48.3136C18.2033 47.691 17.1045 47.395 16 47.4734V44.4309C17.1141 44.5094 18.2209 44.1989 19.1317 43.5525C19.5104 43.1842 19.8019 42.7357 19.9848 42.2401C20.1676 41.7444 20.2371 41.2141 20.1883 40.6881V36.869C20.1017 35.5678 20.5265 34.2843 21.3722 33.2917C21.8264 32.8243 22.3786 32.4634 22.989 32.2351C23.6089 32.0353 24.2625 31.9617 24.9113 32.0187H29.2778V35.3159H26.9991C26.5084 35.3028 26.0178 35.3412 25.5351 35.4304C25.1838 35.4904 24.857 35.6494 24.593 35.8887C24.3374 36.1329 24.1602 36.4475 24.0838 36.7926C23.9779 37.3031 23.9352 37.8248 23.9565 38.3457V41.7957C23.9993 42.3313 23.9255 42.8699 23.7401 43.3742C23.5692 43.8939 23.2768 44.3652 22.8872 44.7491C22.0936 45.4126 21.1066 45.8012 20.0737 45.8567V46.1495C21.1133 46.1887 22.1055 46.5945 22.8744 47.2952C23.2322 47.6629 23.5172 48.0948 23.7146 48.5683C23.903 49.0766 23.9853 49.6182 23.9565 50.1596V53.6604C23.9416 54.1706 23.9973 54.6804 24.122 55.1753C24.1853 55.5261 24.3593 55.8473 24.6185 56.0919C24.885 56.3326 25.2176 56.4878 25.5733 56.5375C26.0606 56.6246 26.5549 56.6673 27.05 56.6648H29.2651V59.8983H24.9113C24.2811 59.9356 23.6497 59.8491 23.0527 59.6437C22.4559 59.4575 21.902 59.1546 21.4232 58.7526C20.9754 58.2654 20.6368 57.6881 20.4302 57.0594C20.2166 56.4337 20.1343 55.7707 20.1883 55.1117V51.3308Z"
        fill="white" />
    <path
        d="M43.6632 55.0471C43.7108 55.7049 43.6223 56.3654 43.4033 56.9875C43.1843 57.6095 42.8394 58.1798 42.3902 58.6626C41.9206 59.0858 41.3708 59.4105 40.7734 59.6174C40.1764 59.8227 39.545 59.9092 38.9148 59.872H34.561V56.6003H36.827C37.3221 56.6027 37.8164 56.5601 38.3037 56.473C38.6594 56.4233 38.992 56.2681 39.2585 56.0274C39.5169 55.7803 39.6945 55.4608 39.7677 55.1108C39.8601 54.6329 39.8943 54.1456 39.8696 53.6595V50.1968C39.8325 49.6504 39.9095 49.1022 40.0958 48.5872C40.2821 48.0721 40.5736 47.6015 40.9517 47.2052C41.7411 46.4807 42.77 46.0728 43.8415 46.0595V45.7667C42.812 45.713 41.8285 45.324 41.0408 44.6591C40.653 44.3033 40.345 43.8694 40.1369 43.3861C39.9344 42.8899 39.8432 42.3554 39.8696 41.8202V38.383C39.8872 37.8761 39.8271 37.3695 39.6913 36.8808C39.6181 36.5309 39.4406 36.2113 39.1821 35.9642C38.9166 35.7272 38.5905 35.5685 38.2401 35.5059C37.7652 35.423 37.2836 35.3847 36.8015 35.3914H34.561V32.0178H38.9148C39.5641 31.9701 40.216 32.0657 40.8243 32.2979C41.4318 32.5261 41.9831 32.8821 42.4411 33.3418C43.2794 34.3285 43.7036 35.6012 43.625 36.8936V40.7127C43.5778 41.2391 43.6473 41.7694 43.8287 42.2658C44.0136 42.7489 44.3052 43.1841 44.6817 43.5388C45.59 44.1671 46.6867 44.4637 47.7879 44.379V47.3834C46.6834 47.305 45.5846 47.601 44.6689 48.2236C44.272 48.6088 43.9673 49.0789 43.7778 49.5985C43.5993 50.1264 43.5385 50.6869 43.5996 51.2407L43.6632 55.0471Z"
        fill="white" />
    <path d="M9 20H55V54C55 54.5523 54.5523 55 54 55H10C9.44772 55 9 54.5523 9 54V20Z" class="base" />
    <path d="M4 6H29L34 20H9L4 6Z" class="base" />
    <path d="M60 6H35L30 20H55L60 6Z" class="base" />
    <g class="mix-blend-multiply">
        <path
            d="M20.1883 51.3308C20.2505 50.7811 20.1896 50.2245 20.0101 49.7013C19.8239 49.1762 19.5189 48.7014 19.119 48.3136C18.2033 47.691 17.1045 47.395 16 47.4734V44.4309C17.1141 44.5094 18.2209 44.1989 19.1317 43.5525C19.5104 43.1842 19.8019 42.7357 19.9848 42.2401C20.1676 41.7444 20.2371 41.2141 20.1883 40.6881V36.869C20.1017 35.5678 20.5265 34.2843 21.3722 33.2917C21.8264 32.8243 22.3786 32.4634 22.989 32.2351C23.6089 32.0353 24.2625 31.9617 24.9113 32.0187H29.2778V35.3159H26.9991C26.5084 35.3028 26.0178 35.3412 25.5351 35.4304C25.1838 35.4904 24.857 35.6494 24.593 35.8887C24.3374 36.1329 24.1602 36.4475 24.0838 36.7926C23.9779 37.3031 23.9352 37.8248 23.9565 38.3457V41.7957C23.9993 42.3313 23.9255 42.8699 23.7401 43.3742C23.5692 43.8939 23.2768 44.3652 22.8872 44.7491C22.0936 45.4126 21.1066 45.8012 20.0737 45.8567V46.1495C21.1133 46.1887 22.1055 46.5945 22.8744 47.2952C23.2322 47.6629 23.5172 48.0948 23.7146 48.5683C23.903 49.0766 23.9853 49.6182 23.9565 50.1596V53.6604C23.9416 54.1706 23.9973 54.6804 24.122 55.1753C24.1853 55.5261 24.3593 55.8473 24.6185 56.0919C24.885 56.3326 25.2176 56.4878 25.5733 56.5375C26.0606 56.6246 26.5549 56.6673 27.05 56.6648H29.2651V59.8983H24.9113C24.2811 59.9356 23.6497 59.8491 23.0527 59.6437C22.4559 59.4575 21.902 59.1546 21.4232 58.7526C20.9754 58.2654 20.6368 57.6881 20.4302 57.0594C20.2166 56.4337 20.1343 55.7707 20.1883 55.1117V51.3308Z"
            class="primary" />
    </g>
    <g class="mix-blend-multiply">
        <path
            d="M43.6632 55.0471C43.7108 55.7049 43.6223 56.3654 43.4033 56.9875C43.1843 57.6095 42.8394 58.1798 42.3902 58.6626C41.9206 59.0858 41.3708 59.4105 40.7734 59.6174C40.1764 59.8227 39.545 59.9092 38.9148 59.872H34.561V56.6003H36.827C37.3221 56.6027 37.8164 56.5601 38.3037 56.473C38.6594 56.4233 38.992 56.2681 39.2585 56.0274C39.5169 55.7803 39.6945 55.4608 39.7677 55.1108C39.8601 54.6329 39.8943 54.1456 39.8696 53.6595V50.1968C39.8325 49.6504 39.9095 49.1022 40.0958 48.5872C40.2821 48.0721 40.5736 47.6015 40.9517 47.2052C41.7411 46.4807 42.77 46.0728 43.8415 46.0595V45.7667C42.812 45.713 41.8285 45.324 41.0408 44.6591C40.653 44.3033 40.345 43.8694 40.1369 43.3861C39.9344 42.8899 39.8432 42.3554 39.8696 41.8202V38.383C39.8872 37.8761 39.8271 37.3695 39.6913 36.8808C39.6181 36.5309 39.4406 36.2113 39.1821 35.9642C38.9166 35.7272 38.5905 35.5685 38.2401 35.5059C37.7652 35.423 37.2836 35.3847 36.8015 35.3914H34.561V32.0178H38.9148C39.5641 31.9701 40.216 32.0657 40.8243 32.2979C41.4318 32.5261 41.9831 32.8821 42.4411 33.3418C43.2794 34.3285 43.7036 35.6012 43.625 36.8936V40.7127C43.5778 41.2391 43.6473 41.7694 43.8287 42.2658C44.0136 42.7489 44.3052 43.1841 44.6817 43.5388C45.59 44.1671 46.6867 44.4637 47.7879 44.379V47.3834C46.6834 47.305 45.5846 47.601 44.6689 48.2236C44.272 48.6088 43.9673 49.0789 43.7778 49.5985C43.5993 50.1264 43.5385 50.6869 43.5996 51.2407L43.6632 55.0471Z"
            class="primary" />
    </g>
    <g class="mix-blend-multiply">
        <path d="M4 6H29L34 20H9L4 6Z" class="base" />
    </g>
    <g class="mix-blend-multiply">
        <path d="M60 6H35L30 20H55L60 6Z" class="base" />
    </g>
</svg>