<svg xmlns="http://www.w3.org/2000/svg" viewBox="0 0 64 64">
    <defs>
        <style>
            .base {
                fill: #b7cde1;
            }

            .primary {
                fill: #85b2d3;
            }

            .mix-blend-multiply {
                mix-blend-mode: multiply;
            }

            .secondary {
                fill: #ffb036;
            }
        </style>
    </defs>
    <g id="Layer_1" data-name="Layer 1">
        <path
            d="M7.82 17.0003H56.18C56.6803 16.9989 57.176 17.0962 57.6388 17.2864C58.1015 17.4767 58.5223 17.7562 58.877 18.1091C59.2317 18.462 59.5135 18.8812 59.7062 19.343C59.8988 19.8047 59.9987 20.2999 60 20.8003L59.9 50.3003C59.9082 50.7901 59.8174 51.2766 59.6331 51.7305C59.4488 52.1844 59.1748 52.5965 58.8274 52.9419C58.4801 53.2874 58.0666 53.5592 57.6116 53.7411C57.1567 53.9229 56.6698 54.0111 56.18 54.0003H7.82C7.31966 54.0016 6.82397 53.9043 6.36121 53.7141C5.89846 53.5238 5.47771 53.2443 5.12299 52.8914C4.76827 52.5385 4.48653 52.1193 4.29384 51.6575C4.10116 51.1958 4.00131 50.7006 4 50.2003V20.8003C4.00131 20.2999 4.10116 19.8047 4.29384 19.343C4.48653 18.8812 4.76827 18.462 5.12299 18.1091C5.47771 17.7562 5.89846 17.4767 6.36121 17.2864C6.82397 17.0962 7.31966 16.9989 7.82 17.0003Z"
            fill="white" />
        <path fill-rule="evenodd" clip-rule="evenodd"
            d="M41 12.2702C40.9987 12.1012 40.964 11.9342 40.8978 11.7787C40.8316 11.6233 40.7354 11.4825 40.6145 11.3644C40.4937 11.2463 40.3506 11.1534 40.1937 11.0909C40.0367 11.0283 39.8689 10.9975 39.7 11.0002H24.3C24.1311 10.9975 23.9633 11.0283 23.8063 11.0909C23.6494 11.1534 23.5063 11.2463 23.3855 11.3644C23.2646 11.4825 23.1684 11.6233 23.1022 11.7787C23.036 11.9342 23.0013 12.1012 23 12.2702V18.5302C23.0013 18.6996 23.036 18.8671 23.102 19.0231C23.1681 19.1791 23.2642 19.3205 23.3849 19.4394C23.5056 19.5583 23.6486 19.6522 23.8056 19.7158C23.9626 19.7794 24.1306 19.8115 24.3 19.8102H24.47C24.6394 19.8115 24.8074 19.7794 24.9644 19.7158C25.1214 19.6522 25.2644 19.5583 25.3851 19.4394C25.5058 19.3205 25.6019 19.1791 25.668 19.0231C25.734 18.8671 25.7687 18.6996 25.77 18.5302V15.0002C25.7713 14.8312 25.806 14.6642 25.8722 14.5087C25.9384 14.3533 26.0346 14.2125 26.1555 14.0944C26.2763 13.9763 26.4194 13.8834 26.5763 13.8209C26.7333 13.7583 26.9011 13.7275 27.07 13.7302H36.93C37.0989 13.7275 37.2667 13.7583 37.4237 13.8209C37.5806 13.8834 37.7237 13.9763 37.8445 14.0944C37.9654 14.2125 38.0616 14.3533 38.1278 14.5087C38.194 14.6642 38.2287 14.8312 38.23 15.0002V18.5502C38.2313 18.7196 38.266 18.8871 38.332 19.0431C38.3981 19.1991 38.4942 19.3405 38.6149 19.4594C38.7356 19.5783 38.8786 19.6722 39.0356 19.7358C39.1926 19.7994 39.3606 19.8315 39.53 19.8302H39.7C39.8711 19.8315 40.0407 19.7988 40.1991 19.7339C40.3574 19.6691 40.5012 19.5733 40.6222 19.4524C40.7432 19.3314 40.8389 19.1875 40.9038 19.0292C40.9686 18.8709 41.0013 18.7012 41 18.5302V12.2702Z"
            fill="white" />
        <path d="M19 15H9V19H19V15Z" fill="white" />
        <path d="M55 15H45V19H55V15Z" fill="white" />
        <path class="base"
            d="M7.82,17H56.18a3.84,3.84,0,0,1,1.46.29,3.94,3.94,0,0,1,1.24.82,4,4,0,0,1,.83,1.23A3.84,3.84,0,0,1,60,20.8l-.1,29.5a3.5,3.5,0,0,1-.27,1.43,3.65,3.65,0,0,1-.8,1.21,3.54,3.54,0,0,1-1.22.8,3.66,3.66,0,0,1-1.43.26H7.82a3.84,3.84,0,0,1-1.46-.29,3.94,3.94,0,0,1-1.24-.82,4,4,0,0,1-.83-1.23A3.84,3.84,0,0,1,4,50.2V20.8a3.84,3.84,0,0,1,.29-1.46,4,4,0,0,1,.83-1.23,3.94,3.94,0,0,1,1.24-.82A3.84,3.84,0,0,1,7.82,17Z" />
        <path class="primary mix-blend-multiply"
            d="M7.82,17h48.6a3.4,3.4,0,0,1,1.41.3,3.48,3.48,0,0,1,1.18.82,3.56,3.56,0,0,1,.77,1.22A3.66,3.66,0,0,1,60,20.77l-.1,9.7c0,7.35-55.9,7.35-55.9,0v-9.7A3.81,3.81,0,0,1,7.82,17Z" />
        <g class="mix-blend-multiply">
            <path class="secondary"
                d="M34.79,32.88H29.2a1.27,1.27,0,0,0-1.27,1.27v5.59A1.27,1.27,0,0,0,29.2,41h5.59a1.27,1.27,0,0,0,1.27-1.27V34.15A1.27,1.27,0,0,0,34.79,32.88Z" />
        </g>
        <g class="mix-blend-multiply">
            <path class="secondary"
                d="M41,12.27a1.34,1.34,0,0,0-.1-.49,1.22,1.22,0,0,0-.29-.42,1.32,1.32,0,0,0-.42-.27A1.33,1.33,0,0,0,39.7,11H24.3a1.33,1.33,0,0,0-.49.09,1.32,1.32,0,0,0-.42.27,1.22,1.22,0,0,0-.29.42,1.34,1.34,0,0,0-.1.49v6.26a1.31,1.31,0,0,0,.38.91,1.52,1.52,0,0,0,.43.28,1.33,1.33,0,0,0,.49.09h.17a1.33,1.33,0,0,0,.49-.09,1.52,1.52,0,0,0,.43-.28,1.31,1.31,0,0,0,.38-.91V15a1.34,1.34,0,0,1,.1-.49,1.22,1.22,0,0,1,.29-.42,1.32,1.32,0,0,1,.42-.27,1.33,1.33,0,0,1,.49-.09h9.86a1.33,1.33,0,0,1,.49.09,1.32,1.32,0,0,1,.42.27,1.22,1.22,0,0,1,.29.42,1.34,1.34,0,0,1,.1.49v3.55a1.31,1.31,0,0,0,.38.91,1.52,1.52,0,0,0,.43.28,1.33,1.33,0,0,0,.49.09h.17a1.24,1.24,0,0,0,.5-.1,1.29,1.29,0,0,0,.7-.7,1.24,1.24,0,0,0,.1-.5Z" />
        </g>
        <g class="mix-blend-multiply">
            <path d="M19 15.0002H9V19.0002H19V15.0002Z" class="secondary" />
        </g>
        <g class="mix-blend-multiply">
            <path d="M55 15.0002H45V19.0002H55V15.0002Z" class="secondary" />
        </g>
    </g>
</svg>