<svg viewBox="0 0 64 64" fill="none" xmlns="http://www.w3.org/2000/svg">
    <defs>
        <style>
            .base {
                fill: #b7cde1;
            }

            .mix-blend-multiply {
                mix-blend-mode: multiply;
            }

            .primary {
                fill: #42cacd;
            }
        </style>
    </defs>
    <path
        d="M21.3333 4.00008C21.3333 3.2637 21.9303 2.66675 22.6667 2.66675H42.6667C43.403 2.66675 44 3.2637 44 4.00008V8.00008H21.3333V4.00008Z"
        fill="white"
    />
    <path
        d="M14.6667 9.75765C14.6667 8.05059 16.0505 6.66675 17.7576 6.66675H47.5758C49.2828 6.66675 50.6667 8.0506 50.6667 9.75766V60.0001H14.6667V9.75765Z"
        class="base"
    />
    <g class="mix-blend-multiply">
        <path
            d="M28 55.667C28 55.1147 28.4477 54.667 29 54.667H36.3333C36.8856 54.667 37.3333 55.1147 37.3333 55.667V60.0003H28V55.667Z"
            class="primary"
        />
    </g>
    <g class="mix-blend-multiply">
        <rect x="18.6667" y="12.0002" width="6.66667" height="6.66667" rx="1.33333" class="primary" />
    </g>
    <g class="mix-blend-multiply">
        <rect x="18.6667" y="22.667" width="6.66667" height="6.66667" rx="1.33333" class="primary" />
    </g>
    <g class="mix-blend-multiply">
        <rect x="18.6667" y="33.3335" width="6.66667" height="6.66667" rx="1.33333" class="primary" />
    </g>
    <g class="mix-blend-multiply">
        <rect x="18.6667" y="44.0002" width="6.66667" height="6.66667" rx="1.33333" class="primary" />
    </g>
    <g class="mix-blend-multiply">
        <rect x="29.3333" y="12.0002" width="6.66667" height="6.66667" rx="1.33333" class="primary" />
    </g>
    <g class="mix-blend-multiply">
        <rect x="29.3333" y="22.667" width="6.66667" height="6.66667" rx="1.33333" class="primary" />
    </g>
    <g class="mix-blend-multiply">
        <rect x="29.3333" y="33.3335" width="6.66667" height="6.66667" rx="1.33333" class="primary" />
    </g>
    <g class="mix-blend-multiply">
        <rect x="29.3333" y="44.0002" width="6.66667" height="6.66667" rx="1.33333" class="primary" />
    </g>
    <g class="mix-blend-multiply">
        <rect x="40" y="12.0002" width="6.66667" height="6.66667" rx="1.33333" class="primary" />
    </g>
    <g class="mix-blend-multiply">
        <rect x="40" y="22.667" width="6.66667" height="6.66667" rx="1.33333" class="primary" />
    </g>
    <g class="mix-blend-multiply">
        <rect x="40" y="33.3335" width="6.66667" height="6.66667" rx="1.33333" class="primary" />
    </g>
    <g class="mix-blend-multiply">
        <rect x="40" y="44.0002" width="6.66667" height="6.66667" rx="1.33333" class="primary" />
    </g>
    <g class="mix-blend-multiply">
        <path
            d="M21.3333 4.00008C21.3333 3.2637 21.9303 2.66675 22.6667 2.66675H42.6667C43.403 2.66675 44 3.2637 44 4.00008V8.00008H21.3333V4.00008Z"
            class="base"
        />
    </g>
</svg>
