<svg viewBox="0 0 64 64" fill="none" xmlns="http://www.w3.org/2000/svg">
    <defs>
        <style>
            .base {
                fill: #b7cde1;
            }

            .mix-blend-multiply {
                mix-blend-mode: multiply;
            }

            .primary {
                fill: #42cacd;
            }
        </style>
    </defs>
    <path
        d="M30 24.7698C30.01 24.4884 30.1118 24.218 30.29 23.9998C30.4744 23.7752 30.7273 23.6171 31.01 23.5498L44.64 19.9998C44.8774 19.9499 45.1226 19.9499 45.36 19.9998L59 23.4998C59.2827 23.5671 59.5356 23.7252 59.72 23.9498C59.9001 24.1707 60.0021 24.4449 60.01 24.7298V58.7298C60.0116 58.9016 59.9776 59.0719 59.91 59.2298C59.8432 59.3912 59.7445 59.5374 59.62 59.6598C59.491 59.7858 59.3379 59.8844 59.17 59.9498C59.0031 60.0095 58.8272 60.04 58.65 60.0398H31.36C31.186 60.04 31.0134 60.0096 30.85 59.9498C30.6872 59.8892 30.5377 59.7975 30.41 59.6798C30.2842 59.5641 30.1823 59.4248 30.11 59.2698C30.0392 59.1125 30.0017 58.9423 30 58.7698V24.7698Z"
        fill="white" />
    <g class="mix-blend-multiply">
        <path
            d="M41 53.54C41.005 53.4652 41.0291 53.3929 41.07 53.33C41.1244 53.2576 41.1923 53.1965 41.27 53.15C41.3589 53.0954 41.4573 53.0581 41.56 53.04C41.6728 53.0248 41.7871 53.0248 41.9 53.04H48.1C48.2128 53.0248 48.3271 53.0248 48.44 53.04C48.5427 53.0581 48.6411 53.0954 48.73 53.15C48.8076 53.1965 48.8756 53.2576 48.93 53.33C48.9708 53.3929 48.9949 53.4652 49 53.54V60H41V53.54Z"
            class="primary" />
    </g>
    <g class="mix-blend-multiply">
        <path
            d="M39.44 28H35.56C35.4114 28 35.269 28.059 35.164 28.164C35.059 28.269 35 28.4115 35 28.56V32.44C35 32.5885 35.059 32.731 35.164 32.836C35.269 32.941 35.4114 33 35.56 33H39.44C39.5885 33 39.7309 32.941 39.8359 32.836C39.941 32.731 40 32.5885 40 32.44V28.56C40 28.4115 39.941 28.269 39.8359 28.164C39.7309 28.059 39.5885 28 39.44 28Z"
            class="primary" />
    </g>
    <g class="mix-blend-multiply">
        <path
            d="M47.44 28H43.56C43.4114 28 43.269 28.059 43.164 28.164C43.059 28.269 43 28.4115 43 28.56V32.44C43 32.5885 43.059 32.731 43.164 32.836C43.269 32.941 43.4114 33 43.56 33H47.44C47.5885 33 47.7309 32.941 47.8359 32.836C47.941 32.731 48 32.5885 48 32.44V28.56C48 28.4865 47.9855 28.4136 47.9573 28.3457C47.9292 28.2778 47.8879 28.216 47.8359 28.164C47.7839 28.112 47.7222 28.0708 47.6543 28.0426C47.5863 28.0145 47.5135 28 47.44 28Z"
            class="primary" />
    </g>
    <g class="mix-blend-multiply">
        <path
            d="M55.44 28H51.56C51.4114 28 51.269 28.059 51.164 28.164C51.059 28.269 51 28.4115 51 28.56V32.44C51 32.5885 51.059 32.731 51.164 32.836C51.269 32.941 51.4114 33 51.56 33H55.44C55.5885 33 55.7309 32.941 55.8359 32.836C55.941 32.731 56 32.5885 56 32.44V28.56C56 28.4865 55.9855 28.4136 55.9573 28.3457C55.9292 28.2778 55.8879 28.216 55.8359 28.164C55.7839 28.112 55.7222 28.0708 55.6543 28.0426C55.5863 28.0145 55.5135 28 55.44 28Z"
            class="primary" />
    </g>
    <g class="mix-blend-multiply">
        <path
            d="M39.44 36H35.56C35.4864 36 35.4136 36.0145 35.3457 36.0426C35.2777 36.0708 35.216 36.112 35.164 36.164C35.112 36.216 35.0707 36.2778 35.0426 36.3457C35.0145 36.4136 35 36.4865 35 36.56V40.44C35 40.5885 35.059 40.731 35.164 40.836C35.269 40.941 35.4114 41 35.56 41H39.44C39.5885 41 39.7309 40.941 39.8359 40.836C39.941 40.731 40 40.5885 40 40.44V36.56C40 36.4865 39.9855 36.4136 39.9573 36.3457C39.9292 36.2778 39.8879 36.216 39.8359 36.164C39.7839 36.112 39.7222 36.0708 39.6543 36.0426C39.5863 36.0145 39.5135 36 39.44 36Z"
            class="primary" />
    </g>
    <g class="mix-blend-multiply">
        <path
            d="M47.44 36H43.56C43.4864 36 43.4136 36.0145 43.3457 36.0426C43.2777 36.0708 43.216 36.112 43.164 36.164C43.112 36.216 43.0707 36.2778 43.0426 36.3457C43.0145 36.4136 43 36.4865 43 36.56V40.44C43 40.5885 43.059 40.731 43.164 40.836C43.269 40.941 43.4114 41 43.56 41H47.44C47.5885 41 47.7309 40.941 47.8359 40.836C47.941 40.731 48 40.5885 48 40.44V36.56C48 36.4865 47.9855 36.4136 47.9573 36.3457C47.9292 36.2778 47.8879 36.216 47.8359 36.164C47.7839 36.112 47.7222 36.0708 47.6543 36.0426C47.5863 36.0145 47.5135 36 47.44 36Z"
            class="primary" />
    </g>
    <g class="mix-blend-multiply">
        <path
            d="M55.44 36H51.56C51.4864 36 51.4136 36.0145 51.3457 36.0426C51.2777 36.0708 51.216 36.112 51.164 36.164C51.112 36.216 51.0707 36.2778 51.0426 36.3457C51.0145 36.4136 51 36.4865 51 36.56V40.44C51 40.5885 51.059 40.731 51.164 40.836C51.269 40.941 51.4114 41 51.56 41H55.44C55.5885 41 55.7309 40.941 55.8359 40.836C55.941 40.731 56 40.5885 56 40.44V36.56C56 36.4865 55.9855 36.4136 55.9573 36.3457C55.9292 36.2778 55.8879 36.216 55.8359 36.164C55.7839 36.112 55.7222 36.0708 55.6543 36.0426C55.5863 36.0145 55.5135 36 55.44 36Z"
            class="primary" />
    </g>
    <g class="mix-blend-multiply">
        <path
            d="M39.44 44H35.56C35.4114 44 35.269 44.059 35.164 44.164C35.059 44.269 35 44.4115 35 44.56V48.44C35 48.5885 35.059 48.731 35.164 48.836C35.269 48.941 35.4114 49 35.56 49H39.44C39.5885 49 39.7309 48.941 39.8359 48.836C39.941 48.731 40 48.5885 40 48.44V44.56C40 44.4115 39.941 44.269 39.8359 44.164C39.7309 44.059 39.5885 44 39.44 44Z"
            class="primary" />
    </g>
    <g class="mix-blend-multiply">
        <path
            d="M47.44 44H43.56C43.4114 44 43.269 44.059 43.164 44.164C43.059 44.269 43 44.4115 43 44.56V48.44C43 48.5885 43.059 48.731 43.164 48.836C43.269 48.941 43.4114 49 43.56 49H47.44C47.5885 49 47.7309 48.941 47.8359 48.836C47.941 48.731 48 48.5885 48 48.44V44.56C48 44.4865 47.9855 44.4136 47.9573 44.3457C47.9292 44.2778 47.8879 44.216 47.8359 44.164C47.7839 44.112 47.7222 44.0708 47.6543 44.0426C47.5863 44.0145 47.5135 44 47.44 44Z"
            class="primary" />
    </g>
    <g class="mix-blend-multiply">
        <path
            d="M55.44 44H51.56C51.4114 44 51.269 44.059 51.164 44.164C51.059 44.269 51 44.4115 51 44.56V48.44C51 48.5885 51.059 48.731 51.164 48.836C51.269 48.941 51.4114 49 51.56 49H55.44C55.5885 49 55.7309 48.941 55.8359 48.836C55.941 48.731 56 48.5885 56 48.44V44.56C56 44.4865 55.9855 44.4136 55.9573 44.3457C55.9292 44.2778 55.8879 44.216 55.8359 44.164C55.7839 44.112 55.7222 44.0708 55.6543 44.0426C55.5863 44.0145 55.5135 44 55.44 44Z"
            class="primary" />
    </g>
    <path
        d="M5.35997 4H32.64C33.0163 4.03355 33.3696 4.19604 33.64 4.46C33.7633 4.57706 33.8581 4.72089 33.9171 4.88041C33.976 5.03992 33.9976 5.21085 33.98 5.38V58.62C33.9976 58.7891 33.976 58.9601 33.9171 59.1196C33.8581 59.2791 33.7633 59.4229 33.64 59.54C33.3696 59.804 33.0163 59.9664 32.64 60H5.35997C4.9836 59.9664 4.63036 59.804 4.35997 59.54C4.23301 59.4249 4.13444 59.2819 4.07198 59.1223C4.00952 58.9626 3.98487 58.7907 3.99997 58.62V5.38C3.98238 5.21085 4.00389 5.03992 4.06284 4.88041C4.1218 4.72089 4.21661 4.57706 4.33997 4.46C4.61553 4.19184 4.97656 4.02902 5.35997 4Z"
        class="base" />
    <g class="mix-blend-multiply">
        <path
            d="M18 47.07C17.9995 46.9311 18.0197 46.7929 18.06 46.66C18.0932 46.5333 18.1509 46.4144 18.23 46.31C18.2963 46.213 18.3856 46.134 18.49 46.08C18.58 46.0246 18.6843 45.9967 18.79 46H24.22C24.325 46.0017 24.4281 46.0291 24.52 46.08C24.7268 46.2149 24.8764 46.4215 24.94 46.66C24.9802 46.7929 25.0004 46.9311 25 47.07V60H18V47.07Z"
            class="base" />
    </g>
    <g class="mix-blend-multiply">
        <path
            d="M13 47.07C12.9995 46.9311 13.0198 46.7929 13.06 46.66C13.0932 46.5333 13.1509 46.4144 13.23 46.31C13.2963 46.213 13.3856 46.134 13.49 46.08C13.58 46.0246 13.6843 45.9967 13.79 46H19.22C19.325 46.0017 19.4281 46.0291 19.52 46.08C19.7268 46.2149 19.8764 46.4215 19.94 46.66C19.9802 46.7929 20.0004 46.9311 20 47.07V60H13V47.07Z"
            class="base" />
    </g>
    <g class="mix-blend-multiply">
        <path
            d="M13.5 7.99987H9.5C9.43652 7.9972 9.37322 8.00957 9.31373 8.03627C9.25423 8.06297 9.19971 8.10349 9.15327 8.1555C9.10683 8.20751 9.06939 8.26999 9.04309 8.33938C9.0168 8.40876 9.00215 8.48369 9 8.55987V12.4399C9.00215 12.516 9.0168 12.591 9.04309 12.6604C9.06939 12.7297 9.10683 12.7922 9.15327 12.8442C9.19971 12.8962 9.25423 12.9368 9.31373 12.9635C9.37322 12.9902 9.43652 13.0025 9.5 12.9999H13.5C13.5635 13.0025 13.6268 12.9902 13.6863 12.9635C13.7458 12.9368 13.8003 12.8962 13.8467 12.8442C13.8932 12.7922 13.9306 12.7297 13.9569 12.6604C13.9832 12.591 13.9978 12.516 14 12.4399V8.55987C13.9978 8.48369 13.9832 8.40876 13.9569 8.33938C13.9306 8.26999 13.8932 8.20751 13.8467 8.1555C13.8003 8.10349 13.7458 8.06297 13.6863 8.03627C13.6268 8.00957 13.5635 7.9972 13.5 7.99987Z"
            class="base" />
    </g>
    <g class="mix-blend-multiply">
        <path
            d="M21 7.99987H17C16.9365 7.9972 16.8732 8.00957 16.8137 8.03627C16.7542 8.06297 16.6997 8.10349 16.6533 8.1555C16.6068 8.20751 16.5694 8.26999 16.5431 8.33938C16.5168 8.40876 16.5021 8.48369 16.5 8.55987V12.4399C16.5021 12.516 16.5168 12.591 16.5431 12.6604C16.5694 12.7297 16.6068 12.7922 16.6533 12.8442C16.6997 12.8962 16.7542 12.9368 16.8137 12.9635C16.8732 12.9902 16.9365 13.0025 17 12.9999H21C21.0635 13.0025 21.1268 12.9902 21.1863 12.9635C21.2458 12.9368 21.3003 12.8962 21.3467 12.8442C21.3932 12.7922 21.4306 12.7297 21.4569 12.6604C21.4832 12.591 21.4978 12.516 21.5 12.4399V8.55987C21.4978 8.48369 21.4832 8.40876 21.4569 8.33938C21.4306 8.26999 21.3932 8.20751 21.3467 8.1555C21.3003 8.10349 21.2458 8.06297 21.1863 8.03627C21.1268 8.00957 21.0635 7.9972 21 7.99987Z"
            class="base" />
    </g>
    <g class="mix-blend-multiply">
        <path
            d="M28.5 7.99987H24.5C24.4365 7.9972 24.3732 8.00957 24.3137 8.03627C24.2542 8.06297 24.1997 8.10349 24.1533 8.1555C24.1068 8.20751 24.0694 8.26999 24.0431 8.33938C24.0168 8.40876 24.0022 8.48369 24 8.55987V12.4399C24.0022 12.516 24.0168 12.591 24.0431 12.6604C24.0694 12.7297 24.1068 12.7922 24.1533 12.8442C24.1997 12.8962 24.2542 12.9368 24.3137 12.9635C24.3732 12.9902 24.4365 13.0025 24.5 12.9999H28.5C28.5635 13.0025 28.6268 12.9902 28.6863 12.9635C28.7458 12.9368 28.8003 12.8962 28.8467 12.8442C28.8932 12.7922 28.9306 12.7297 28.9569 12.6604C28.9832 12.591 28.9978 12.516 29 12.4399V8.55987C28.9978 8.48369 28.9832 8.40876 28.9569 8.33938C28.9306 8.26999 28.8932 8.20751 28.8467 8.1555C28.8003 8.10349 28.7458 8.06297 28.6863 8.03627C28.6268 8.00957 28.5635 7.9972 28.5 7.99987Z"
            class="base" />
    </g>
    <g class="mix-blend-multiply">
        <path
            d="M13.5 16.9999H9.5C9.43652 16.9972 9.37322 17.0096 9.31373 17.0363C9.25423 17.063 9.19971 17.1035 9.15327 17.1555C9.10683 17.2075 9.06939 17.27 9.04309 17.3394C9.0168 17.4088 9.00215 17.4837 9 17.5599V21.4399C9.00215 21.516 9.0168 21.591 9.04309 21.6604C9.06939 21.7297 9.10683 21.7922 9.15327 21.8442C9.19971 21.8962 9.25423 21.9368 9.31373 21.9635C9.37322 21.9902 9.43652 22.0025 9.5 21.9999H13.5C13.5635 22.0025 13.6268 21.9902 13.6863 21.9635C13.7458 21.9368 13.8003 21.8962 13.8467 21.8442C13.8932 21.7922 13.9306 21.7297 13.9569 21.6604C13.9832 21.591 13.9978 21.516 14 21.4399V17.5599C13.9978 17.4837 13.9832 17.4088 13.9569 17.3394C13.9306 17.27 13.8932 17.2075 13.8467 17.1555C13.8003 17.1035 13.7458 17.063 13.6863 17.0363C13.6268 17.0096 13.5635 16.9972 13.5 16.9999Z"
            class="base" />
    </g>
    <g class="mix-blend-multiply">
        <path
            d="M21 16.9999H17C16.9365 16.9972 16.8732 17.0096 16.8137 17.0363C16.7542 17.063 16.6997 17.1035 16.6533 17.1555C16.6068 17.2075 16.5694 17.27 16.5431 17.3394C16.5168 17.4088 16.5021 17.4837 16.5 17.5599V21.4399C16.5021 21.516 16.5168 21.591 16.5431 21.6604C16.5694 21.7297 16.6068 21.7922 16.6533 21.8442C16.6997 21.8962 16.7542 21.9368 16.8137 21.9635C16.8732 21.9902 16.9365 22.0025 17 21.9999H21C21.0635 22.0025 21.1268 21.9902 21.1863 21.9635C21.2458 21.9368 21.3003 21.8962 21.3467 21.8442C21.3932 21.7922 21.4306 21.7297 21.4569 21.6604C21.4832 21.591 21.4978 21.516 21.5 21.4399V17.5599C21.4978 17.4837 21.4832 17.4088 21.4569 17.3394C21.4306 17.27 21.3932 17.2075 21.3467 17.1555C21.3003 17.1035 21.2458 17.063 21.1863 17.0363C21.1268 17.0096 21.0635 16.9972 21 16.9999Z"
            class="base" />
    </g>
    <g class="mix-blend-multiply">
        <path
            d="M28.5 16.9999H24.5C24.4365 16.9972 24.3732 17.0096 24.3137 17.0363C24.2542 17.063 24.1997 17.1035 24.1533 17.1555C24.1068 17.2075 24.0694 17.27 24.0431 17.3394C24.0168 17.4088 24.0022 17.4837 24 17.5599V21.4399C24.0022 21.516 24.0168 21.591 24.0431 21.6604C24.0694 21.7297 24.1068 21.7922 24.1533 21.8442C24.1997 21.8962 24.2542 21.9368 24.3137 21.9635C24.3732 21.9902 24.4365 22.0025 24.5 21.9999H28.5C28.5635 22.0025 28.6268 21.9902 28.6863 21.9635C28.7458 21.9368 28.8003 21.8962 28.8467 21.8442C28.8932 21.7922 28.9306 21.7297 28.9569 21.6604C28.9832 21.591 28.9978 21.516 29 21.4399V17.5599C28.9978 17.4837 28.9832 17.4088 28.9569 17.3394C28.9306 17.27 28.8932 17.2075 28.8467 17.1555C28.8003 17.1035 28.7458 17.063 28.6863 17.0363C28.6268 17.0096 28.5635 16.9972 28.5 16.9999Z"
            class="base" />
    </g>
    <g class="mix-blend-multiply">
        <path
            d="M13.5 25.9999H9.5C9.43652 25.9972 9.37322 26.0096 9.31373 26.0363C9.25423 26.063 9.19971 26.1035 9.15327 26.1555C9.10683 26.2075 9.06939 26.27 9.04309 26.3394C9.0168 26.4088 9.00215 26.4837 9 26.5599V30.4399C9.00215 30.516 9.0168 30.591 9.04309 30.6604C9.06939 30.7297 9.10683 30.7922 9.15327 30.8442C9.19971 30.8962 9.25423 30.9368 9.31373 30.9635C9.37322 30.9902 9.43652 31.0025 9.5 30.9999H13.5C13.5635 31.0025 13.6268 30.9902 13.6863 30.9635C13.7458 30.9368 13.8003 30.8962 13.8467 30.8442C13.8932 30.7922 13.9306 30.7297 13.9569 30.6604C13.9832 30.591 13.9978 30.516 14 30.4399V26.5599C13.9978 26.4837 13.9832 26.4088 13.9569 26.3394C13.9306 26.27 13.8932 26.2075 13.8467 26.1555C13.8003 26.1035 13.7458 26.063 13.6863 26.0363C13.6268 26.0096 13.5635 25.9972 13.5 25.9999Z"
            class="base" />
    </g>
    <g class="mix-blend-multiply">
        <path
            d="M21 25.9999H17C16.9365 25.9972 16.8732 26.0096 16.8137 26.0363C16.7542 26.063 16.6997 26.1035 16.6533 26.1555C16.6068 26.2075 16.5694 26.27 16.5431 26.3394C16.5168 26.4088 16.5021 26.4837 16.5 26.5599V30.4399C16.5021 30.516 16.5168 30.591 16.5431 30.6604C16.5694 30.7297 16.6068 30.7922 16.6533 30.8442C16.6997 30.8962 16.7542 30.9368 16.8137 30.9635C16.8732 30.9902 16.9365 31.0025 17 30.9999H21C21.0635 31.0025 21.1268 30.9902 21.1863 30.9635C21.2458 30.9368 21.3003 30.8962 21.3467 30.8442C21.3932 30.7922 21.4306 30.7297 21.4569 30.6604C21.4832 30.591 21.4978 30.516 21.5 30.4399V26.5599C21.4978 26.4837 21.4832 26.4088 21.4569 26.3394C21.4306 26.27 21.3932 26.2075 21.3467 26.1555C21.3003 26.1035 21.2458 26.063 21.1863 26.0363C21.1268 26.0096 21.0635 25.9972 21 25.9999Z"
            class="base" />
    </g>
    <g class="mix-blend-multiply">
        <path
            d="M28.5 25.9999H24.5C24.4365 25.9972 24.3732 26.0096 24.3137 26.0363C24.2542 26.063 24.1997 26.1035 24.1533 26.1555C24.1068 26.2075 24.0694 26.27 24.0431 26.3394C24.0168 26.4088 24.0022 26.4837 24 26.5599V30.4399C24.0022 30.516 24.0168 30.591 24.0431 30.6604C24.0694 30.7297 24.1068 30.7922 24.1533 30.8442C24.1997 30.8962 24.2542 30.9368 24.3137 30.9635C24.3732 30.9902 24.4365 31.0025 24.5 30.9999H28.5C28.5635 31.0025 28.6268 30.9902 28.6863 30.9635C28.7458 30.9368 28.8003 30.8962 28.8467 30.8442C28.8932 30.7922 28.9306 30.7297 28.9569 30.6604C28.9832 30.591 28.9978 30.516 29 30.4399V26.5599C28.9978 26.4837 28.9832 26.4088 28.9569 26.3394C28.9306 26.27 28.8932 26.2075 28.8467 26.1555C28.8003 26.1035 28.7458 26.063 28.6863 26.0363C28.6268 26.0096 28.5635 25.9972 28.5 25.9999Z"
            class="base" />
    </g>
    <g class="mix-blend-multiply">
        <path
            d="M13.5 34.9999H9.5C9.43652 34.9972 9.37322 35.0096 9.31373 35.0363C9.25423 35.063 9.19971 35.1035 9.15327 35.1555C9.10683 35.2075 9.06939 35.27 9.04309 35.3394C9.0168 35.4088 9.00215 35.4837 9 35.5599V39.4399C9.00215 39.516 9.0168 39.591 9.04309 39.6604C9.06939 39.7297 9.10683 39.7922 9.15327 39.8442C9.19971 39.8962 9.25423 39.9368 9.31373 39.9635C9.37322 39.9902 9.43652 40.0025 9.5 39.9999H13.5C13.5635 40.0025 13.6268 39.9902 13.6863 39.9635C13.7458 39.9368 13.8003 39.8962 13.8467 39.8442C13.8932 39.7922 13.9306 39.7297 13.9569 39.6604C13.9832 39.591 13.9978 39.516 14 39.4399V35.5599C13.9978 35.4837 13.9832 35.4088 13.9569 35.3394C13.9306 35.27 13.8932 35.2075 13.8467 35.1555C13.8003 35.1035 13.7458 35.063 13.6863 35.0363C13.6268 35.0096 13.5635 34.9972 13.5 34.9999Z"
            class="base" />
    </g>
    <g class="mix-blend-multiply">
        <path
            d="M21 34.9999H17C16.9365 34.9972 16.8732 35.0096 16.8137 35.0363C16.7542 35.063 16.6997 35.1035 16.6533 35.1555C16.6068 35.2075 16.5694 35.27 16.5431 35.3394C16.5168 35.4088 16.5021 35.4837 16.5 35.5599V39.4399C16.5021 39.516 16.5168 39.591 16.5431 39.6604C16.5694 39.7297 16.6068 39.7922 16.6533 39.8442C16.6997 39.8962 16.7542 39.9368 16.8137 39.9635C16.8732 39.9902 16.9365 40.0025 17 39.9999H21C21.0635 40.0025 21.1268 39.9902 21.1863 39.9635C21.2458 39.9368 21.3003 39.8962 21.3467 39.8442C21.3932 39.7922 21.4306 39.7297 21.4569 39.6604C21.4832 39.591 21.4978 39.516 21.5 39.4399V35.5599C21.4978 35.4837 21.4832 35.4088 21.4569 35.3394C21.4306 35.27 21.3932 35.2075 21.3467 35.1555C21.3003 35.1035 21.2458 35.063 21.1863 35.0363C21.1268 35.0096 21.0635 34.9972 21 34.9999Z"
            class="base" />
    </g>
    <g class="mix-blend-multiply">
        <path
            d="M28.5 34.9999H24.5C24.4365 34.9972 24.3732 35.0096 24.3137 35.0363C24.2542 35.063 24.1997 35.1035 24.1533 35.1555C24.1068 35.2075 24.0694 35.27 24.0431 35.3394C24.0168 35.4088 24.0022 35.4837 24 35.5599V39.4399C24.0022 39.516 24.0168 39.591 24.0431 39.6604C24.0694 39.7297 24.1068 39.7922 24.1533 39.8442C24.1997 39.8962 24.2542 39.9368 24.3137 39.9635C24.3732 39.9902 24.4365 40.0025 24.5 39.9999H28.5C28.5635 40.0025 28.6268 39.9902 28.6863 39.9635C28.7458 39.9368 28.8003 39.8962 28.8467 39.8442C28.8932 39.7922 28.9306 39.7297 28.9569 39.6604C28.9832 39.591 28.9978 39.516 29 39.4399V35.5599C28.9978 35.4837 28.9832 35.4088 28.9569 35.3394C28.9306 35.27 28.8932 35.2075 28.8467 35.1555C28.8003 35.1035 28.7458 35.063 28.6863 35.0363C28.6268 35.0096 28.5635 34.9972 28.5 34.9999Z"
            class="base" />
    </g>
    <g class="mix-blend-multiply">
        <path
            d="M30 24.7701C30.01 24.4886 30.1118 24.2182 30.29 24.0001C30.4744 23.7754 30.7273 23.6174 31.01 23.5501L44.64 20.0001C44.8774 19.9502 45.1226 19.9502 45.36 20.0001L59 23.5001C59.2827 23.5674 59.5356 23.7254 59.72 23.9501C59.9001 24.1709 60.0021 24.4452 60.01 24.7301V58.7301C60.0116 58.9019 59.9776 59.0721 59.91 59.2301C59.8432 59.3914 59.7445 59.5377 59.62 59.6601C59.491 59.786 59.3379 59.8847 59.17 59.9501C59.0031 60.0098 58.8272 60.0402 58.65 60.0401H31.36C31.186 60.0403 31.0134 60.0098 30.85 59.9501C30.6872 59.8894 30.5377 59.7977 30.41 59.6801C30.2842 59.5643 30.1823 59.425 30.11 59.2701C30.0392 59.1128 30.0017 58.9425 30 58.7701V24.7701Z"
            class="primary" />
    </g>
</svg>