<svg viewBox="0 0 64 64" fill="none" xmlns="http://www.w3.org/2000/svg">
    <defs>
        <style>
            .base {
                fill: #b7cde1;
            }

            .mix-blend-multiply {
                mix-blend-mode: multiply;
            }

            .primary {
                fill: #42cacd;
            }

            .secondary {
                fill: #feb452;
            }
        </style>
    </defs>
    <rect x="57" y="13.3335" width="39" height="49" rx="2" transform="rotate(90 57 13.3335)" fill="white" />

    <path
        d="M38.6245 6.69872C39.1679 6.21175 40.049 6.21175 40.5924 6.69872C41.1359 7.1857 41.1359 7.97523 40.5924 8.4622L33.7045 14.6344C33.1611 15.1213 32.28 15.1213 31.7366 14.6344C31.1931 14.1474 31.1931 13.3579 31.7366 12.8709L38.6245 6.69872Z"
        fill="white"
    />
    <path
        d="M27.4076 11.4413C26.8641 10.9543 26.8641 10.1648 27.4076 9.67783C27.951 9.19086 28.8321 9.19086 29.3755 9.67783L33.3115 13.2048C33.8549 13.6918 33.8549 14.4813 33.3115 14.9683C32.768 15.4552 31.8869 15.4552 31.3435 14.9683L27.4076 11.4413Z"
        fill="white"
    />
    <g class="mix-blend-multiply">
        <path
            d="M38.6245 6.69872C39.1679 6.21175 40.049 6.21175 40.5924 6.69872C41.1359 7.1857 41.1359 7.97523 40.5924 8.4622L33.7045 14.6344C33.1611 15.1213 32.28 15.1213 31.7366 14.6344C31.1931 14.1474 31.1931 13.3579 31.7366 12.8709L38.6245 6.69872Z"
            class="secondary"
        />
        <path
            d="M27.4076 11.4413C26.8641 10.9543 26.8641 10.1648 27.4076 9.67784C27.951 9.19086 28.8321 9.19086 29.3755 9.67784L33.3115 13.2048C33.8549 13.6918 33.8549 14.4813 33.3115 14.9683C32.768 15.4552 31.8869 15.4552 31.3435 14.9683L27.4076 11.4413Z"
            class="secondary"
        />
    </g>
    <g class="mix-blend-multiply">
        <rect x="57" y="13.3335" width="39" height="49" rx="2" transform="rotate(90 57 13.3335)" class="base" />
    </g>
    <g class="mix-blend-multiply">
        <g class="mix-blend-multiply">
            <circle cx="51" cy="19.3335" r="2" class="primary" />
        </g>
        <g class="mix-blend-multiply">
            <circle cx="51" cy="26.3335" r="2" class="primary" />
        </g>
    </g>
</svg>
