<svg viewBox="0 0 64 64" fill="none" xmlns="http://www.w3.org/2000/svg">
    <defs>
        <style>
            .base {
                fill: #b7cde1;
            }

            .mix-blend-multiply {
                mix-blend-mode: multiply;
            }

            .primary {
                fill: #fe90a0;
            }
        </style>
    </defs>
    <g clip-path="url(#clip0_654_1311)">
        <rect
            x="6.81699"
            y="32.2188"
            width="1"
            height="7"
            rx="0.5"
            transform="rotate(30 6.81699 32.2188)"
            fill="white"
        />
        <rect x="60.183" y="32.2188" width="1" height="7" rx="0.5" transform="rotate(30 60.183 32.2188)" fill="white" />
        <path
            d="M0 47.6403C0 45.8209 0.722748 44.076 2.00925 42.7895C3.29575 41.503 5.04062 40.7803 6.86 40.7803H9.4C10.3009 40.7803 11.1929 40.9577 12.0252 41.3025C12.8575 41.6472 13.6137 42.1525 14.2508 42.7895C14.8878 43.4265 15.3931 44.1828 15.7378 45.0151C16.0826 45.8474 16.26 46.7394 16.26 47.6403V52.0003H0V47.6403Z"
            fill="white"
        />
        <path
            d="M47.74 47.6403C47.74 45.8209 48.4627 44.076 49.7492 42.7895C51.0357 41.503 52.7806 40.7803 54.6 40.7803H57.14C58.9594 40.7803 60.7042 41.503 61.9907 42.7895C63.2772 44.076 64 45.8209 64 47.6403V52.0003H47.74V47.6403Z"
            fill="white"
        />
        <path
            fill-rule="evenodd"
            clip-rule="evenodd"
            d="M6.86 40.7401V17.6401C6.87261 16.6346 7.15242 15.6505 7.67075 14.7887C8.18907 13.927 8.92727 13.2186 9.80964 12.7362C10.692 12.2538 11.6868 12.0147 12.692 12.0435C13.6972 12.0723 14.6767 12.368 15.53 12.9001L23.62 18.2301H40.38L48.47 12.9001C49.32 12.3509 50.3026 12.0414 51.314 12.0043C52.3253 11.9672 53.328 12.2038 54.216 12.6893C55.104 13.1748 55.8444 13.8911 56.3591 14.7625C56.8737 15.6339 57.1435 16.6281 57.14 17.6401V40.7401C57.1426 42.2179 56.8538 43.6816 56.2902 45.0476C55.7265 46.4137 54.899 47.6551 53.855 48.701C52.811 49.7468 51.571 50.5765 50.206 51.1426C48.841 51.7088 47.3777 52.0001 45.9 52.0001H18.1C16.6223 52.0001 15.159 51.7088 13.794 51.1426C12.429 50.5765 11.189 49.7468 10.145 48.701C9.10105 47.6551 8.27354 46.4137 7.70985 45.0476C7.14616 43.6816 6.85737 42.2179 6.86 40.7401V40.7401ZM45.71 41.7401H18.29V42.8901C18.29 44.1022 18.7715 45.2646 19.6285 46.1216C20.4856 46.9787 21.648 47.4601 22.86 47.4601H41.14C42.352 47.4601 43.5144 46.9787 44.3715 46.1216C45.2285 45.2646 45.71 44.1022 45.71 42.8901V41.7401Z"
            class="base"
        />
        <g class="mix-blend-multiply">
            <rect
                x="50.5"
                y="32.2188"
                width="1"
                height="7"
                rx="0.5"
                transform="rotate(30 50.5 32.2188)"
                class="primary"
            />
        </g>
        <g class="mix-blend-multiply">
            <rect
                x="55.183"
                y="32.2188"
                width="1"
                height="7"
                rx="0.5"
                transform="rotate(30 55.183 32.2188)"
                class="primary"
            />
        </g>
        <g class="mix-blend-multiply">
            <rect
                x="60.183"
                y="32.2188"
                width="1"
                height="7"
                rx="0.5"
                transform="rotate(30 60.183 32.2188)"
                class="primary"
            />
        </g>
        <g class="mix-blend-multiply">
            <path
                d="M28.57 37.1399V35.9999C28.5498 35.8573 28.5607 35.7121 28.6018 35.5741C28.643 35.4361 28.7134 35.3087 28.8084 35.2004C28.9033 35.0922 29.0205 35.0057 29.152 34.947C29.2834 34.8882 29.426 34.8585 29.57 34.8599H33.25C33.394 34.8585 33.5366 34.8882 33.668 34.947C33.7995 35.0057 33.9167 35.0922 34.0116 35.2004C34.1066 35.3087 34.177 35.4361 34.2182 35.5741C34.2593 35.7121 34.2702 35.8573 34.25 35.9999V37.1399C34.282 37.4241 34.2545 37.7119 34.1692 37.9849C34.0839 38.2579 33.9427 38.5101 33.7545 38.7255C33.5664 38.9409 33.3354 39.1148 33.0764 39.2361C32.8174 39.3574 32.5359 39.4234 32.25 39.4299H30.61C30.0513 39.3577 29.5373 39.0864 29.1626 38.6657C28.7878 38.245 28.5774 37.7033 28.57 37.1399Z"
                class="base"
            />
        </g>
        <g class="mix-blend-multiply">
            <path
                d="M0 47.6403C0 45.8209 0.722748 44.076 2.00925 42.7895C3.29575 41.503 5.04062 40.7803 6.86 40.7803H9.4C10.3009 40.7803 11.1929 40.9577 12.0252 41.3025C12.8575 41.6472 13.6137 42.1525 14.2508 42.7895C14.8878 43.4265 15.3931 44.1828 15.7378 45.0151C16.0826 45.8474 16.26 46.7394 16.26 47.6403V52.0003H0V47.6403Z"
                class="primary"
            />
        </g>
        <g class="mix-blend-multiply">
            <path
                d="M47.74 47.6403C47.74 45.8209 48.4627 44.076 49.7492 42.7895C51.0357 41.503 52.7806 40.7803 54.6 40.7803H57.14C58.9594 40.7803 60.7042 41.503 61.9907 42.7895C63.2772 44.076 64 45.8209 64 47.6403V52.0003H47.74V47.6403Z"
                class="primary"
            />
        </g>
        <rect
            x="6.81699"
            y="32.2188"
            width="1"
            height="7"
            rx="0.5"
            transform="rotate(30 6.81699 32.2188)"
            class="primary"
        />
        <rect x="11.5" y="32.2188" width="1" height="7" rx="0.5" transform="rotate(30 11.5 32.2188)" class="primary" />
        <rect x="16.5" y="32.2188" width="1" height="7" rx="0.5" transform="rotate(30 16.5 32.2188)" class="primary" />
    </g>
    <defs>
        <clipPath id="clip0_654_1311">
            <rect width="64" height="64" fill="white" />
        </clipPath>
    </defs>
</svg>
