<svg viewBox="0 0 64 67" fill="none" xmlns="http://www.w3.org/2000/svg">
    <defs>
        <style>
            .base {
                fill: #b7cde1;
            }

            .mix-blend-multiply {
                mix-blend-mode: multiply;
            }

            .primary {
                fill: #42CACD;
            }
        </style>
    </defs>
    <g>
        <rect x="4" y="10.0342" width="28.9655" height="3.90805" rx="1.95402" fill="white" />
        <rect x="27.1724" y="36.1035" width="32.8276" height="3.90805" rx="1.95402" fill="white" />
        <rect x="38.115" y="43.4199" width="21.8851" height="3.90805" rx="1.95402" fill="white" />
        <path fill-rule="evenodd" clip-rule="evenodd"
            d="M53.6079 24H21.3921C21.0763 23.9992 20.7635 24.0748 20.4714 24.2227C20.1818 24.3699 19.9186 24.5862 19.6971 24.8592C19.4756 25.1323 19.3001 25.4566 19.1807 25.8136C19.0607 26.1737 18.9993 26.5593 19 26.9485V49.6879C18.9993 50.0771 19.0607 50.4627 19.1807 50.8227C19.3001 51.1797 19.4756 51.5041 19.6971 51.7771C19.9186 52.0502 20.1818 52.2665 20.4714 52.4136C20.7635 52.5615 21.0763 52.6372 21.3921 52.6364H49.9767L56 59V26.9485C56.0007 26.5593 55.9393 26.1737 55.8193 25.8136C55.6999 25.4566 55.5244 25.1323 55.3029 24.8592C55.0814 24.5862 54.8182 24.3699 54.5286 24.2227C54.2365 24.0748 53.9237 23.9992 53.6079 24Z"
            fill="white" />
        <g class="mix-blend-multiply">
            <rect x="4" y="10" width="28.9655" height="3.90805" rx="1.95402" fill="white" />
        </g>
        <path fill-rule="evenodd" clip-rule="evenodd"
            d="M42.6079 4.00001H10.3921C10.0763 3.99921 9.76349 4.07101 9.4714 4.21133C9.18177 4.35095 8.91861 4.5562 8.6971 4.81527C8.47558 5.07433 8.30008 5.38209 8.1807 5.72082C8.06072 6.06243 7.99932 6.42829 8.00001 6.79759V37L14.0233 30.962H42.6079C42.9237 30.9628 43.2365 30.891 43.5286 30.7507C43.8182 30.6111 44.0814 30.4059 44.3029 30.1468C44.5244 29.8877 44.6999 29.58 44.8193 29.2412C44.9393 28.8996 45.0007 28.5338 45 28.1645V6.79759C45.0007 6.42829 44.9393 6.06243 44.8193 5.72082C44.6999 5.38209 44.5244 5.07433 44.3029 4.81527C44.0814 4.5562 43.8182 4.35095 43.5286 4.21133C43.2365 4.07101 42.9237 3.99921 42.6079 4.00001Z"
            class="base" />
        <g class="mix-blend-multiply">
            <rect x="4" y="10" width="28.9655" height="3.90805" rx="1.95402" class="base" />
        </g>
        <g class="mix-blend-multiply">
            <rect x="27.1724" y="36.1035" width="32.8276" height="3.90805" rx="1.95402" class="primary" />
        </g>
        <g class="mix-blend-multiply">
            <rect x="38.115" y="43.4199" width="21.8851" height="3.90805" rx="1.95402" class="primary" />
        </g>
        <g class="mix-blend-multiply">
            <path fill-rule="evenodd" clip-rule="evenodd"
                d="M53.6079 24H21.3921C21.0763 23.9992 20.7635 24.0748 20.4714 24.2227C20.1818 24.3699 19.9186 24.5862 19.6971 24.8592C19.4756 25.1323 19.3001 25.4566 19.1807 25.8136C19.0607 26.1737 18.9993 26.5593 19 26.9485V49.6879C18.9993 50.0771 19.0607 50.4627 19.1807 50.8227C19.3001 51.1797 19.4756 51.5041 19.6971 51.7771C19.9186 52.0502 20.1818 52.2665 20.4714 52.4136C20.7635 52.5615 21.0763 52.6372 21.3921 52.6364H49.9767L56 59V26.9485C56.0007 26.5593 55.9393 26.1737 55.8193 25.8136C55.6999 25.4566 55.5244 25.1323 55.3029 24.8592C55.0814 24.5862 54.8182 24.3699 54.5286 24.2227C54.2365 24.0748 53.9237 23.9992 53.6079 24Z"
                class="primary" />
        </g>
    </g>
</svg>