<svg viewBox="0 0 64 64" fill="none" xmlns="http://www.w3.org/2000/svg">
    <defs>
        <style>
            .base {
                fill: #b7cde1;
            }

            .mix-blend-multiply {
                mix-blend-mode: multiply;
            }

            .primary {
                fill: #42CACD;
            }

            .secondary {
                fill: #FEB452;
            }
        </style>
    </defs>
    <path
        d="M58.5 36H22.5C21.6716 36 21 36.6716 21 37.5C21 38.3284 21.6716 39 22.5 39H58.5C59.3284 39 60 38.3284 60 37.5C60 36.6716 59.3284 36 58.5 36Z"
        fill="white" />
    <path
        d="M58.5 9H22.5C21.6716 9 21 9.67157 21 10.5C21 11.3284 21.6716 12 22.5 12H58.5C59.3284 12 60 11.3284 60 10.5C60 9.67157 59.3284 9 58.5 9Z"
        fill="white" />
    <path
        d="M53.53 50.4899C53.65 50.2299 53.86 50.2299 53.99 50.4899L55.15 52.8299C55.2273 52.9698 55.3346 53.0908 55.4643 53.1842C55.594 53.2776 55.7428 53.341 55.9 53.3699L58.48 53.7499C58.77 53.7499 58.83 53.9899 58.62 54.1899L56.75 55.9999C56.644 56.1186 56.5643 56.2584 56.516 56.41C56.4677 56.5617 56.4521 56.7218 56.47 56.8799L56.91 59.4599C56.96 59.7399 56.79 59.8699 56.53 59.7299L54.22 58.5199C54.0748 58.4506 53.9159 58.4147 53.755 58.4147C53.5941 58.4147 53.4352 58.4506 53.29 58.5199L51 59.7399C50.75 59.8799 50.58 59.7399 50.63 59.4699L51.07 56.8899C51.0886 56.731 51.0723 56.5699 51.0222 56.4179C50.9721 56.2659 50.8894 56.1267 50.78 56.0099L48.91 54.1899C48.71 53.9899 48.77 53.7899 49.06 53.7499L51.64 53.3699C51.7967 53.3397 51.9449 53.2758 52.0745 53.1825C52.204 53.0893 52.3116 52.9689 52.39 52.8299L53.53 50.4899Z"
        fill="white" />
    <path
        d="M40.42 50.4899C40.55 50.2299 40.76 50.2299 40.89 50.4899L42 52.8299C42.0794 52.9681 42.1874 53.0878 42.3167 53.1809C42.446 53.274 42.5938 53.3385 42.75 53.3699L45.34 53.7499C45.62 53.7499 45.69 53.9899 45.48 54.1899L43.65 55.9999C43.5428 56.1181 43.4615 56.2575 43.4116 56.4091C43.3616 56.5607 43.344 56.7211 43.36 56.8799L43.81 59.4599C43.81 59.7399 43.69 59.8699 43.43 59.7299L41.12 58.5199C40.9748 58.4506 40.8159 58.4147 40.655 58.4147C40.4941 58.4147 40.3352 58.4506 40.19 58.5199L37.88 59.7299C37.62 59.8699 37.46 59.7299 37.5 59.4599L38 56.8899C38.016 56.7311 37.9984 56.5707 37.9484 56.4191C37.8985 56.2675 37.8172 56.1281 37.71 56.0099L35.84 54.1899C35.63 53.9899 35.7 53.7899 35.98 53.7499L38.57 53.3699C38.7262 53.3385 38.874 53.274 39.0033 53.1809C39.1326 53.0878 39.2406 52.9681 39.32 52.8299L40.42 50.4899Z"
        fill="white" />
    <path
        d="M26 50.4899C26.13 50.2299 26.34 50.2299 26.46 50.4899L27.62 52.8299C27.6984 52.9689 27.806 53.0893 27.9355 53.1825C28.065 53.2758 28.2133 53.3397 28.37 53.3699L30.95 53.7499C31.24 53.7499 31.3 53.9899 31.1 54.1899L29.24 55.9999C29.1306 56.1167 29.0479 56.2559 28.9978 56.4079C28.9477 56.5599 28.9314 56.721 28.95 56.8799L29.39 59.4599C29.44 59.7399 29.27 59.8699 29.02 59.7299L26.71 58.5199C26.5648 58.4506 26.4059 58.4147 26.245 58.4147C26.0841 58.4147 25.9252 58.4506 25.78 58.5199L23.47 59.7299C23.21 59.8699 23.04 59.7299 23.09 59.4599L23.53 56.8799C23.5479 56.7218 23.5322 56.5617 23.484 56.41C23.4357 56.2584 23.356 56.1186 23.25 55.9999L21.38 54.1799C21.17 53.9799 21.23 53.7799 21.52 53.7399L24.1 53.3599C24.2572 53.331 24.406 53.2676 24.5357 53.1742C24.6654 53.0808 24.7727 52.9598 24.85 52.8199L26 50.4899Z"
        fill="white" />
    <path
        d="M53.82 31H5.18C4.5283 31 4 31.5283 4 32.18V53.82C4 54.4717 4.5283 55 5.18 55H53.82C54.4717 55 55 54.4717 55 53.82V32.18C55 31.5283 54.4717 31 53.82 31Z"
        class="base" />
    <g class="mix-blend-multiply">
        <path
            d="M58.5 36H22.5C21.6716 36 21 36.6716 21 37.5C21 38.3284 21.6716 39 22.5 39H58.5C59.3284 39 60 38.3284 60 37.5C60 36.6716 59.3284 36 58.5 36Z"
            class="base" />
    </g>
    <g class="mix-blend-multiply">
        <path
            d="M46.5 42H22.5C21.6716 42 21 42.6716 21 43.5C21 44.3284 21.6716 45 22.5 45H46.5C47.3284 45 48 44.3284 48 43.5C48 42.6716 47.3284 42 46.5 42Z"
            class="base" />
    </g>
    <g class="mix-blend-multiply">
        <path
            d="M11 43.02C13.2091 43.02 15 41.2292 15 39.02C15 36.8109 13.2091 35.02 11 35.02C8.79086 35.02 7 36.8109 7 39.02C7 41.2292 8.79086 43.02 11 43.02Z"
            class="base" />
    </g>
    <g class="mix-blend-multiply">
        <path fill-rule="evenodd" clip-rule="evenodd"
            d="M10.19 38.4401C10.2836 38.5416 10.3973 38.6226 10.5238 38.678C10.6503 38.7334 10.7869 38.762 10.925 38.762C11.0631 38.762 11.1997 38.7334 11.3262 38.678C11.4527 38.6226 11.5664 38.5416 11.66 38.4401L15.66 34.2601C15.7311 34.1841 15.817 34.1235 15.9125 34.0821C16.008 34.0407 16.1109 34.0193 16.215 34.0193C16.3191 34.0193 16.422 34.0407 16.5175 34.0821C16.613 34.1235 16.6989 34.1841 16.77 34.2601C16.9185 34.4147 17.0014 34.6207 17.0014 34.8351C17.0014 35.0494 16.9185 35.2555 16.77 35.4101L11.48 41.0001C11.4089 41.0761 11.323 41.1367 11.2275 41.1781C11.132 41.2195 11.0291 41.2409 10.925 41.2409C10.8209 41.2409 10.718 41.2195 10.6225 41.1781C10.527 41.1367 10.4411 41.0761 10.37 41.0001L8 38.4701C7.85524 38.3116 7.77498 38.1047 7.77498 37.8901C7.77498 37.6754 7.85524 37.4686 8 37.3101C8.07109 37.2341 8.15704 37.1735 8.25251 37.1321C8.34797 37.0907 8.45093 37.0693 8.555 37.0693C8.65906 37.0693 8.76202 37.0907 8.85749 37.1321C8.95296 37.1735 9.0389 37.2341 9.11 37.3101L10.19 38.4401Z"
            class="primary" />
    </g>
    <path
        d="M53.82 4H5.18C4.5283 4 4 4.5283 4 5.18V26.82C4 27.4717 4.5283 28 5.18 28H53.82C54.4717 28 55 27.4717 55 26.82V5.18C55 4.5283 54.4717 4 53.82 4Z"
        class="base" />
    <g class="mix-blend-multiply">
        <path
            d="M58.5 9H22.5C21.6716 9 21 9.67157 21 10.5C21 11.3284 21.6716 12 22.5 12H58.5C59.3284 12 60 11.3284 60 10.5C60 9.67157 59.3284 9 58.5 9Z"
            class="base" />
    </g>
    <g class="mix-blend-multiply">
        <path
            d="M46.5 15H22.5C21.6716 15 21 15.6716 21 16.5C21 17.3284 21.6716 18 22.5 18H46.5C47.3284 18 48 17.3284 48 16.5C48 15.6716 47.3284 15 46.5 15Z"
            class="base" />
    </g>
    <g class="mix-blend-multiply">
        <path
            d="M11 16.02C13.2091 16.02 15 14.2292 15 12.02C15 9.81088 13.2091 8.02002 11 8.02002C8.79086 8.02002 7 9.81088 7 12.02C7 14.2292 8.79086 16.02 11 16.02Z"
            class="base" />
    </g>
    <g class="mix-blend-multiply">
        <path fill-rule="evenodd" clip-rule="evenodd"
            d="M10.19 11.4401C10.2836 11.5416 10.3973 11.6226 10.5238 11.678C10.6503 11.7334 10.7869 11.762 10.925 11.762C11.0631 11.762 11.1997 11.7334 11.3262 11.678C11.4527 11.6226 11.5664 11.5416 11.66 11.4401L15.66 7.26008C15.7311 7.18409 15.817 7.1235 15.9125 7.08208C16.008 7.04066 16.1109 7.01929 16.215 7.01929C16.3191 7.01929 16.422 7.04066 16.5175 7.08208C16.613 7.1235 16.6989 7.18409 16.77 7.26008C16.9185 7.41467 17.0014 7.62072 17.0014 7.83508C17.0014 8.04944 16.9185 8.25549 16.77 8.41008L11.48 14.0001C11.4089 14.0761 11.323 14.1367 11.2275 14.1781C11.132 14.2195 11.0291 14.2409 10.925 14.2409C10.8209 14.2409 10.718 14.2195 10.6225 14.1781C10.527 14.1367 10.4411 14.0761 10.37 14.0001L8 11.4701C7.85524 11.3116 7.77498 11.1047 7.77498 10.8901C7.77498 10.6754 7.85524 10.4686 8 10.3101C8.07109 10.2341 8.15704 10.1735 8.25251 10.1321C8.34797 10.0907 8.45093 10.0693 8.555 10.0693C8.65906 10.0693 8.76202 10.0907 8.85749 10.1321C8.95296 10.1735 9.0389 10.2341 9.11 10.3101L10.19 11.4401Z"
            class="primary" />
    </g>
    <g class="mix-blend-multiply">
        <path
            d="M53.53 50.4899C53.65 50.2299 53.86 50.2299 53.99 50.4899L55.15 52.8299C55.2273 52.9698 55.3346 53.0908 55.4643 53.1842C55.594 53.2776 55.7428 53.341 55.9 53.3699L58.48 53.7499C58.77 53.7499 58.83 53.9899 58.62 54.1899L56.75 55.9999C56.644 56.1186 56.5643 56.2584 56.516 56.41C56.4677 56.5617 56.4521 56.7218 56.47 56.8799L56.91 59.4599C56.96 59.7399 56.79 59.8699 56.53 59.7299L54.22 58.5199C54.0748 58.4506 53.9159 58.4147 53.755 58.4147C53.5941 58.4147 53.4352 58.4506 53.29 58.5199L51 59.7399C50.75 59.8799 50.58 59.7399 50.63 59.4699L51.07 56.8899C51.0886 56.731 51.0723 56.5699 51.0222 56.4179C50.9721 56.2659 50.8894 56.1267 50.78 56.0099L48.91 54.1899C48.71 53.9899 48.77 53.7899 49.06 53.7499L51.64 53.3699C51.7967 53.3397 51.9449 53.2758 52.0745 53.1825C52.204 53.0893 52.3116 52.9689 52.39 52.8299L53.53 50.4899Z"
            class="secondary" />
    </g>
    <g class="mix-blend-multiply">
        <path
            d="M40.42 50.4899C40.55 50.2299 40.76 50.2299 40.89 50.4899L42 52.8299C42.0794 52.9681 42.1874 53.0878 42.3167 53.1809C42.446 53.274 42.5938 53.3385 42.75 53.3699L45.34 53.7499C45.62 53.7499 45.69 53.9899 45.48 54.1899L43.65 55.9999C43.5428 56.1181 43.4615 56.2575 43.4116 56.4091C43.3616 56.5607 43.344 56.7211 43.36 56.8799L43.81 59.4599C43.81 59.7399 43.69 59.8699 43.43 59.7299L41.12 58.5199C40.9748 58.4506 40.8159 58.4147 40.655 58.4147C40.4941 58.4147 40.3352 58.4506 40.19 58.5199L37.88 59.7299C37.62 59.8699 37.46 59.7299 37.5 59.4599L38 56.8899C38.016 56.7311 37.9984 56.5707 37.9484 56.4191C37.8985 56.2675 37.8172 56.1281 37.71 56.0099L35.84 54.1899C35.63 53.9899 35.7 53.7899 35.98 53.7499L38.57 53.3699C38.7262 53.3385 38.874 53.274 39.0033 53.1809C39.1326 53.0878 39.2406 52.9681 39.32 52.8299L40.42 50.4899Z"
            class="secondary" />
    </g>
    <g class="mix-blend-multiply">
        <path
            d="M26 50.4899C26.13 50.2299 26.34 50.2299 26.46 50.4899L27.62 52.8299C27.6984 52.9689 27.806 53.0893 27.9355 53.1825C28.065 53.2758 28.2133 53.3397 28.37 53.3699L30.95 53.7499C31.24 53.7499 31.3 53.9899 31.1 54.1899L29.24 55.9999C29.1306 56.1167 29.0479 56.2559 28.9978 56.4079C28.9477 56.5599 28.9314 56.721 28.95 56.8799L29.39 59.4599C29.44 59.7399 29.27 59.8699 29.02 59.7299L26.71 58.5199C26.5648 58.4506 26.4059 58.4147 26.245 58.4147C26.0841 58.4147 25.9252 58.4506 25.78 58.5199L23.47 59.7299C23.21 59.8699 23.04 59.7299 23.09 59.4599L23.53 56.8799C23.5479 56.7218 23.5322 56.5617 23.484 56.41C23.4357 56.2584 23.356 56.1186 23.25 55.9999L21.38 54.1799C21.17 53.9799 21.23 53.7799 21.52 53.7399L24.1 53.3599C24.2572 53.331 24.406 53.2676 24.5357 53.1742C24.6654 53.0808 24.7727 52.9598 24.85 52.8199L26 50.4899Z"
            class="secondary" />
    </g>
</svg>