<svg viewBox="0 0 64 64" fill="none" xmlns="http://www.w3.org/2000/svg">
    <defs>
        <style>
            .base {
                fill: #b92828;
            }

            .primary {
                fill: #fff;
            }
        </style>
    </defs>

    <path
        d="M32 60C47.464 60 60 47.464 60 32C60 16.536 47.464 4 32 4C16.536 4 4 16.536 4 32C4 47.464 16.536 60 32 60Z"
        class="base"
    />
    <path
        d="M36.24 32L44 24.22C44.3261 23.9552 44.593 23.6248 44.7833 23.2504C44.9736 22.8759 45.0832 22.4656 45.1049 22.0461C45.1266 21.6266 45.0599 21.2072 44.9092 20.8151C44.7586 20.4229 44.5272 20.0668 44.2302 19.7698C43.9332 19.4728 43.577 19.2414 43.1849 19.0907C42.7928 18.9401 42.3734 18.8734 41.9539 18.8951C41.5344 18.9168 41.1241 19.0264 40.7496 19.2167C40.3751 19.407 40.0448 19.6739 39.78 20L32 27.76L24.22 20C23.644 19.5322 22.915 19.2945 22.1739 19.3328C21.4328 19.3712 20.7323 19.6828 20.2075 20.2075C19.6828 20.7322 19.3712 21.4328 19.3329 22.1739C19.2945 22.9149 19.5322 23.6439 20 24.22L27.76 32L20 39.78C19.6739 40.0448 19.4071 40.3751 19.2167 40.7496C19.0264 41.1241 18.9168 41.5344 18.8951 41.9539C18.8735 42.3734 18.9401 42.7928 19.0908 43.1849C19.2414 43.577 19.4728 43.9331 19.7698 44.2302C20.0669 44.5272 20.423 44.7585 20.8151 44.9092C21.2072 45.0599 21.6266 45.1265 22.0461 45.1048C22.4656 45.0831 22.8759 44.9736 23.2504 44.7832C23.6249 44.5929 23.9552 44.3261 24.22 44L32 36.24L39.78 44C40.0448 44.3261 40.3751 44.5929 40.7496 44.7832C41.1241 44.9736 41.5344 45.0831 41.9539 45.1048C42.3734 45.1265 42.7928 45.0599 43.1849 44.9092C43.577 44.7585 43.9332 44.5272 44.2302 44.2302C44.5272 43.9331 44.7586 43.577 44.9092 43.1849C45.0599 42.7928 45.1266 42.3734 45.1049 41.9539C45.0832 41.5344 44.9736 41.1241 44.7833 40.7496C44.593 40.3751 44.3261 40.0448 44 39.78L36.24 32Z"
        class="primary"
    />
</svg>
