<svg viewBox="0 0 64 64" fill="none" xmlns="http://www.w3.org/2000/svg">
    <defs>
        <style>
            .base {
                fill: #feb452;
            }

            .primary {
                fill: #fff;
            }
        </style>
    </defs>

    <path
        d="M32 60C47.464 60 60 47.464 60 32C60 16.536 47.464 4 32 4C16.536 4 4 16.536 4 32C4 47.464 16.536 60 32 60Z"
        class="base"
    />
    <path
        fill-rule="evenodd"
        clip-rule="evenodd"
        d="M32.8988 18.0226C33.1777 18.02 33.4486 18.1162 33.6635 18.294C33.8744 18.4707 34.0172 18.7153 34.0671 18.9859L34.6825 22.1644C34.7246 22.3599 34.8109 22.5432 34.9347 22.7003C35.066 22.8491 35.2304 22.9649 35.4146 23.0385C35.9664 23.271 36.4965 23.5519 36.9987 23.8779C37.1545 23.9895 37.3372 24.0575 37.528 24.0749C37.7159 24.1019 37.9076 24.0803 38.0848 24.0122L41.1172 22.8743C41.3784 22.7843 41.6628 22.7885 41.9212 22.8862C42.1845 22.9754 42.408 23.1546 42.5523 23.3922L44.4702 26.4598C44.6202 26.7002 44.6789 26.9864 44.6356 27.2665C44.5885 27.5467 44.442 27.8007 44.223 27.9818L41.8286 29.9568C41.6798 30.0881 41.564 30.2524 41.4904 30.4367C41.4324 30.6034 41.4057 30.7795 41.4118 30.9559C41.4167 31.0189 41.4158 31.0822 41.409 31.1451C41.3873 31.3967 41.3835 31.6496 41.3978 31.9018L41.395 32.0909C41.3908 32.3747 41.3865 32.6703 41.3823 32.9541C41.3617 33.1518 41.3913 33.3515 41.4683 33.5348C41.5498 33.7165 41.6731 33.8763 41.828 34.0013L44.2714 35.9178C44.4912 36.0907 44.6426 36.336 44.6987 36.61C44.7544 36.8882 44.7081 37.1771 44.5684 37.424L42.8069 40.5911C42.6757 40.8356 42.4578 41.0222 42.196 41.1142C41.9313 41.2071 41.6421 41.2029 41.3802 41.1022L38.3097 40.0161C38.124 39.9673 37.9292 39.9644 37.7421 40.0078C37.5514 40.032 37.3706 40.1069 37.2186 40.2247C36.7329 40.562 36.218 40.8552 35.6801 41.1008C35.4984 41.1823 35.3386 41.3056 35.2136 41.4605C35.0898 41.6216 35.0096 41.8118 34.9807 42.0129L34.6284 45.047C34.584 45.3316 34.4372 45.5901 34.2156 45.7741C33.9956 45.9567 33.7169 46.0534 33.4311 46.0464L29.7286 46.11C29.4519 46.1114 29.1834 46.0159 28.97 45.8398C28.7565 45.6638 28.6115 45.4185 28.5602 45.1466L27.9129 41.7312C27.8787 41.5446 27.8002 41.3691 27.6839 41.2193C27.5649 41.0728 27.4125 40.957 27.2395 40.8816C26.7778 40.682 26.3307 40.4501 25.9016 40.1877C25.7449 40.0761 25.5632 40.0044 25.3725 39.9789C25.1798 39.9618 24.9856 39.9872 24.8038 40.0533L21.5567 41.3062C21.2956 41.3963 21.0111 41.3921 20.7527 41.2943C20.4927 41.1992 20.2709 41.0215 20.1216 40.7883L18.2158 37.709C18.0699 37.4672 18.0154 37.1811 18.0621 36.9026C18.1061 36.6239 18.2483 36.3702 18.4629 36.1871L21.2054 33.8624C21.3618 33.7298 21.483 33.5606 21.558 33.3698C21.633 33.1789 21.6597 32.9725 21.6355 32.7689L21.6444 32.1659C21.6475 31.9531 21.6507 31.7403 21.6538 31.5275C21.6572 31.3342 21.6167 31.1427 21.5353 30.9673C21.4539 30.792 21.3337 30.6374 21.1839 30.5153L18.308 28.2614C18.0873 28.0867 17.9362 27.8391 17.8817 27.563C17.8273 27.2869 17.8731 27.0004 18.0109 26.7551L19.7725 23.588C19.9117 23.3456 20.1323 23.1603 20.3951 23.0651C20.6552 22.9686 20.942 22.9728 21.1991 23.0769L24.575 24.3094C24.7607 24.3582 24.9555 24.3611 25.1425 24.3178C25.3333 24.2935 25.5141 24.2186 25.6661 24.1008C26.0401 23.8073 26.4397 23.548 26.8601 23.3261C27.0307 23.2424 27.1785 23.1188 27.2912 22.9658C27.389 22.8181 27.4485 22.6482 27.464 22.4717L27.964 19.0495C28.0084 18.765 28.1552 18.5064 28.3768 18.3224C28.5951 18.1355 28.8741 18.0345 29.1615 18.0383L32.8988 18.0226ZM31.6853 37.7305C30.5753 37.7327 29.4893 37.4066 28.5641 36.7933C27.6389 36.1799 26.9157 35.3066 26.4855 34.2833C26.0468 33.2612 25.9235 32.1314 26.1314 31.0388C26.3392 29.9462 26.8688 28.9406 27.6522 28.151C28.5637 27.2182 29.7709 26.631 31.0674 26.4896C32.3639 26.3481 33.6693 26.6613 34.7605 27.3756C35.8517 28.0899 36.6609 29.161 37.05 30.4058C37.4391 31.6506 37.3838 32.9919 36.8936 34.2005C36.621 34.8935 36.2092 35.5234 35.6837 36.0511C35.1666 36.5858 34.5443 37.0075 33.856 37.2895C33.17 37.5826 32.4314 37.7326 31.6853 37.7305Z"
        class="primary"
    />
</svg>
