<svg viewBox="0 0 64 64" fill="none" xmlns="http://www.w3.org/2000/svg">
    <defs>
        <style>
            .base {
                fill: #36a168;
            }

            .primary {
                fill: #fff;
            }
        </style>
    </defs>
    <path
        d="M32 60C47.464 60 60 47.464 60 32C60 16.536 47.464 4 32 4C16.536 4 4 16.536 4 32C4 47.464 16.536 60 32 60Z"
        class="base"
    />
    <path
        d="M34.5368 34.5369L45.5253 34.5228C45.9431 34.5661 46.3655 34.5212 46.7648 34.391C47.1641 34.2608 47.5318 34.0482 47.8437 33.7669C48.1557 33.4856 48.4051 33.1418 48.5758 32.758C48.7466 32.3742 48.8348 31.9588 48.8348 31.5388C48.8348 31.1187 48.7466 30.7033 48.5759 30.3194C48.4051 29.9357 48.1557 29.592 47.8437 29.3107C47.5318 29.0294 47.1641 28.8168 46.7648 28.6865C46.3654 28.5563 45.9431 28.5114 45.5253 28.5548L34.5368 28.5406L34.5227 17.5522C34.4462 16.8141 34.0988 16.1306 33.5477 15.6336C32.9965 15.1367 32.2808 14.8617 31.5387 14.8617C30.7967 14.8617 30.0809 15.1367 29.5298 15.6337C28.9787 16.1305 28.6313 16.814 28.5547 17.5522L28.5406 28.5406L17.5521 28.5548C17.1343 28.5114 16.7121 28.5563 16.3126 28.6865C15.9133 28.8168 15.5456 29.0294 15.2337 29.3107C14.9218 29.592 14.6723 29.9357 14.5016 30.3195C14.3308 30.7033 14.2427 31.1187 14.2426 31.5388C14.2427 31.9589 14.3309 32.3742 14.5016 32.758C14.6723 33.1418 14.9218 33.4855 15.2337 33.7668C15.5457 34.0481 15.9133 34.2608 16.3127 34.391C16.7121 34.5212 17.1343 34.5661 17.5521 34.5228L28.5406 34.5369L28.5547 45.5253C28.5114 45.9432 28.5563 46.3654 28.6865 46.7648C28.8167 47.1642 29.0294 47.5318 29.3107 47.8437C29.592 48.1557 29.9356 48.4052 30.3194 48.5759C30.7033 48.7466 31.1187 48.8349 31.5387 48.8349C31.9588 48.8348 32.3742 48.7466 32.758 48.5759C33.1418 48.4052 33.4855 48.1558 33.7668 47.8438C34.0481 47.5318 34.2607 47.1642 34.391 46.7648C34.5212 46.3655 34.566 45.9432 34.5227 45.5253L34.5368 34.5369Z"
        class="primary"
    />
</svg>
