<svg viewBox="0 0 64 64" fill="none" xmlns="http://www.w3.org/2000/svg">
    <defs>
        <style>
            .isolate {
                isolation: isolate;
            }

            .base {
                fill: #b7cde1;
            }

            .primary {
                fill: #feb452;
            }

            .mix-blend-multiply {
                mix-blend-mode: multiply;
            }
        </style>
    </defs>
    <path
        d="M32 60C47.464 60 60 47.464 60 32C60 16.536 47.464 4 32 4C16.536 4 4 16.536 4 32C4 47.464 16.536 60 32 60Z"
        class="base"
    />
    <g class="mix-blend-multiply">
        <path
            d="M32 37C32.9889 37 33.9556 36.7068 34.7778 36.1573C35.6001 35.6079 36.241 34.827 36.6194 33.9134C36.9978 32.9998 37.0969 31.9945 36.9039 31.0245C36.711 30.0546 36.2348 29.1637 35.5355 28.4645C34.8363 27.7652 33.9454 27.289 32.9755 27.0961C32.0055 26.9032 31.0002 27.0022 30.0866 27.3806C29.173 27.759 28.3921 28.3999 27.8427 29.2222C27.2932 30.0444 27 31.0111 27 32C27 33.3261 27.5268 34.5979 28.4645 35.5355C29.4021 36.4732 30.6739 37 32 37Z"
            class="primary"
        />
    </g>
    <g class="mix-blend-multiply">
        <path
            d="M31.9644 4C25.0152 4.00885 18.3177 6.60148 13.1738 11.2739C8.0299 15.9462 4.80726 22.3645 4.13241 29.2808C3.45755 36.1971 5.3787 43.1172 9.52236 48.6958C13.666 54.2744 19.7361 58.1129 26.5524 59.4649C33.3688 60.8169 40.4444 59.5859 46.4036 56.0111C52.3628 52.4364 56.7797 46.7734 58.7958 40.1231C60.8118 33.4728 60.2828 26.3105 57.3117 20.0285C54.3406 13.7465 49.1396 8.79385 42.7199 6.13334C39.3096 4.72284 35.6549 3.99793 31.9644 4ZM31.9644 55.9222C26.453 55.9224 21.112 54.0115 16.8515 50.5153C12.5911 47.019 9.67466 42.1537 8.59926 36.7482C7.52387 31.3427 8.35602 25.7316 10.9539 20.8709C13.5518 16.0102 17.7548 12.2007 22.8466 10.0914C27.9384 7.98213 33.604 7.70363 38.8781 9.30336C44.1523 10.9031 48.7085 14.2821 51.7706 18.8645C54.8327 23.447 56.2112 28.9495 55.6711 34.4344C55.131 39.9192 52.7059 45.0472 48.8088 48.9444C44.3394 53.4089 38.2816 55.9183 31.9644 55.9222Z"
            class="base"
        />
    </g>
    <g class="mix-blend-multiply">
        <path
            d="M34 31.7778V22.2222C34 20.9949 32.8807 20 31.5 20C30.1193 20 29 20.9949 29 22.2222V31.7778C29 33.0051 30.1193 34 31.5 34C32.8807 34 34 33.0051 34 31.7778Z"
            class="primary"
        />
    </g>
    <g class="mix-blend-multiply">
        <path
            d="M31.2222 35L40.7778 35C42.0051 35 43 33.8807 43 32.5C43 31.1193 42.0051 30 40.7778 30L31.2222 30C29.9949 30 29 31.1193 29 32.5C29 33.8807 29.9949 35 31.2222 35Z"
            class="primary"
        />
    </g>
    <g class="mix-blend-multiply">
        <rect x="11" y="31" width="6" height="3" rx="1.5" class="base" />
    </g>
    <g class="mix-blend-multiply">
        <rect x="33" y="10" width="6" height="3" rx="1.5" transform="rotate(90 33 10)" class="base" />
    </g>
    <g class="mix-blend-multiply">
        <rect x="33" y="48" width="7" height="3" rx="1.5" transform="rotate(90 33 48)" class="base" />
    </g>
    <g class="mix-blend-multiply">
        <rect x="47" y="31" width="7" height="3" rx="1.5" class="base" />
    </g>
</svg>
