<svg xmlns="http://www.w3.org/2000/svg" viewBox="0 0 64 64">
	<defs>
		<style>
			.isolate{isolation:isolate;}
			.base{fill:#b7cde1;}
			.mix-blend-multiply{mix-blend-mode:multiply;}
			.primary{fill:#fff}
			.secondary{fill:#feb452;}
		</style>
	</defs>
	<g class="isolate">
		<g id="Layer_1" data-name="Layer 1">
			<path class="base mix-blend" d="M27,4A23,23,0,0,0,4,27,25,25,0,0,0,7.83,39.47L4,50.12l10.55-3.94A24.78,24.78,0,0,0,27,50,23,23,0,0,0,27,4Z" />
			<path class="primary" d="M36.46,18.16v2.2H28.81a7,7,0,0,1,1.83,3.82h5.77v2.21H30.53a7,7,0,0,1-3.91,5.12l5.55,9.57H29.52l-5.2-9H18.24V29.9h5.81a4.74,4.74,0,0,0,3.56-1.64,4.62,4.62,0,0,0,1-1.91H18.29V24.18H28.67a4.75,4.75,0,0,0-4.62-3.82H18.24v-2.2Z" />
			<g class="mix-blend-multiply">
				<path class="secondary" d="M59.82,48.34c.28-.19.23-.34-.11-.34H55.77a.53.53,0,0,1-.2-.13.6.6,0,0,1-.14-.21.45.45,0,0,1,0-.23V23.68a.61.61,0,0,0-.61-.61H42.11a.62.62,0,0,0-.43.18.64.64,0,0,0-.18.43V47.43a.45.45,0,0,1,0,.23.57.57,0,0,1-.13.21.86.86,0,0,1-.2.13H37c-.34,0-.4.16-.13.36L48.82,60Z" />
			</g>
		</g>
	</g>
</svg>
