<svg viewBox="0 0 64 64" fill="none" xmlns="http://www.w3.org/2000/svg">
    <defs>
        <style>
            .isolate {
                isolation: isolate;
            }

            .base {
                fill: #cde7d9;
            }

            .primary {
                fill: #1482ff;
            }

            .secondary {
                fill: #d0e6ff;
            }

            .tertiary {
                fill: #36a168;
            }

            .mix-blend-multiply {
                mix-blend-mode: multiply;
            }
        </style>
    </defs>
    <path
        fill-rule="evenodd"
        clip-rule="evenodd"
        d="M13.3812 14.0038H30C31.1046 14.0038 32 14.8992 32 16.0038V47.6033C32 47.6526 31.9855 47.701 31.9581 47.743C31.9307 47.7849 31.8915 47.8188 31.845 47.8409C31.7984 47.863 31.7462 47.8723 31.6943 47.8679C31.6424 47.8634 31.5929 47.8454 31.5512 47.8158L28.5051 45.6163C28.4075 45.5461 28.2883 45.5081 28.1657 45.5081C28.0432 45.5081 27.9239 45.5461 27.8263 45.6163L24.6737 47.8955C24.5761 47.9657 24.4568 48.0038 24.3343 48.0038C24.2117 48.0038 24.0925 47.9657 23.9949 47.8955L20.8422 45.6163C20.7441 45.5448 20.6238 45.506 20.5 45.506C20.3762 45.506 20.2559 45.5448 20.1578 45.6163L17.0051 47.8955C16.9075 47.9657 16.7883 48.0038 16.6657 48.0038C16.5432 48.0038 16.4239 47.9657 16.3263 47.8955L13.1737 45.6163C13.0761 45.5461 12.9568 45.5081 12.8343 45.5081C12.7117 45.5081 12.5925 45.5461 12.4949 45.6163L9.44878 47.8158C9.40711 47.8454 9.35755 47.8634 9.30568 47.8679C9.2538 47.8723 9.20164 47.863 9.15505 47.8409C9.10846 47.8188 9.06927 47.7849 9.04189 47.743C9.0145 47.701 9 47.6526 9 47.6033V18.084C9.00447 17.6135 9.00509 16.7899 9.00434 16.0054C9.00329 14.9001 9.89623 14.0013 11.0015 14.0004C11.8906 13.9996 12.8537 13.9999 13.3812 14.0038Z"
        fill="white"
    />
    <path
        d="M53 4H25C23.8954 4 23 4.89543 23 6V58C23 59.1046 23.8954 60 25 60H53C54.1046 60 55 59.1046 55 58V6C55 4.89543 54.1046 4 53 4Z"
        class="base"
    />
    <path
        d="M41.5 53H37.5C36.6716 53 36 53.6716 36 54.5C36 55.3284 36.6716 56 37.5 56H41.5C42.3284 56 43 55.3284 43 54.5C43 53.6716 42.3284 53 41.5 53Z"
        class="tertiary"
    />
    <g class="mix-blend-multiply">
        <path
            fill-rule="evenodd"
            clip-rule="evenodd"
            d="M13.3812 14.0038H30C31.1046 14.0038 32 14.8992 32 16.0038V47.6033C32 47.6526 31.9855 47.701 31.9581 47.743C31.9307 47.7849 31.8915 47.8188 31.845 47.8409C31.7984 47.863 31.7462 47.8723 31.6943 47.8679C31.6424 47.8634 31.5929 47.8454 31.5512 47.8158L28.5051 45.6163C28.4075 45.5461 28.2883 45.5081 28.1657 45.5081C28.0432 45.5081 27.9239 45.5461 27.8263 45.6163L24.6737 47.8955C24.5761 47.9657 24.4568 48.0038 24.3343 48.0038C24.2117 48.0038 24.0925 47.9657 23.9949 47.8955L20.8422 45.6163C20.7441 45.5448 20.6238 45.506 20.5 45.506C20.3762 45.506 20.2559 45.5448 20.1578 45.6163L17.0051 47.8955C16.9075 47.9657 16.7883 48.0038 16.6657 48.0038C16.5432 48.0038 16.4239 47.9657 16.3263 47.8955L13.1737 45.6163C13.0761 45.5461 12.9568 45.5081 12.8343 45.5081C12.7117 45.5081 12.5925 45.5461 12.4949 45.6163L9.44878 47.8158C9.40711 47.8454 9.35755 47.8634 9.30568 47.8679C9.2538 47.8723 9.20164 47.863 9.15505 47.8409C9.10846 47.8188 9.06927 47.7849 9.04189 47.743C9.0145 47.701 9 47.6526 9 47.6033V18.084C9.00447 17.6135 9.00509 16.7899 9.00434 16.0054C9.00329 14.9001 9.89623 14.0013 11.0015 14.0004C11.8906 13.9996 12.8537 13.9999 13.3812 14.0038Z"
            class="primary"
        />
    </g>
    <path
        d="M20.5 25H5.5C4.67157 25 4 25.6716 4 26.5C4 27.3284 4.67157 28 5.5 28H20.5C21.3284 28 22 27.3284 22 26.5C22 25.6716 21.3284 25 20.5 25Z"
        class="secondary"
    />
    <path
        d="M15.5 31H5.5C4.67157 31 4 31.6716 4 32.5C4 33.3284 4.67157 34 5.5 34H15.5C16.3284 34 17 33.3284 17 32.5C17 31.6716 16.3284 31 15.5 31Z"
        class="secondary"
    />
</svg>
