<svg viewBox="0 0 64 64" fill="none" xmlns="http://www.w3.org/2000/svg">
    <defs>
        <style>
            .base {
                fill: #ffe9cc;
            }

            .primary {
                fill: #feb452;
            }

            .secondary {
                fill: #6d67ce;
            }

            .mix-blend-multiply {
                mix-blend-mode: multiply;
            }
        </style>
    </defs>
    <rect
        x="44.5499"
        width="4.23392"
        height="26.2335"
        rx="2.11696"
        transform="rotate(45 44.5499 0)"
        class="secondary"
    />
    <rect
        x="44.5815"
        y="13.3296"
        width="4.23392"
        height="16.4896"
        rx="2.11696"
        transform="rotate(45 44.5815 13.3296)"
        class="secondary"
    />
    <path
        d="M48.1047 42.4244C48.3438 42.6432 48.5385 42.906 48.6763 43.1958C48.8141 43.4857 48.8919 43.7963 48.9048 44.1076C48.9309 44.7621 48.7172 45.3839 48.3037 45.8562L31.8086 62.3513C31.3363 62.7785 30.7087 63.0039 30.045 62.9846C29.7316 62.9684 29.4195 62.8891 29.1275 62.7515C28.8354 62.6139 28.5694 62.4208 28.3453 62.1838L27.339 61.1775C21.9783 55.8168 22.5484 48.7386 27.3976 43.8894L29.8734 41.4136C34.691 36.5959 41.8008 35.9943 47.1614 41.355L48.1047 42.4244Z"
        fill="white"
    />
    <rect y="33.8672" width="44.8786" height="37.7384" rx="2.15648" transform="rotate(-45 0 33.8672)" class="base" />
    <g class="mix-blend-multiply">
        <g class="mix-blend-multiply">
            <path
                d="M26.0778 39.5447C27.2123 38.4152 27.9848 36.9735 28.2968 35.4031C28.6089 33.8328 28.4464 32.2049 27.83 30.7268C27.2138 29.2526 26.1754 27.9934 24.8456 27.1076C23.5157 26.2219 21.9538 25.749 20.3562 25.7487C18.7587 25.7484 17.1969 26.2205 15.8675 27.1057C14.538 27.9909 13.5002 29.2497 12.8846 30.7236C12.1662 32.4526 12.0701 34.3775 12.6127 36.1699C13.1553 37.9623 14.303 39.5112 15.86 40.5522C17.4169 41.5932 19.2866 42.0618 21.1501 41.8781C23.0135 41.6943 24.7552 40.8696 26.0778 39.5447Z"
                class="primary"
            />
        </g>
    </g>
    <g class="mix-blend-multiply">
        <g class="mix-blend-multiply">
            <path
                d="M48.1047 42.4244C48.3438 42.6432 48.5385 42.906 48.6763 43.1958C48.8141 43.4857 48.8919 43.7963 48.9048 44.1076C48.9309 44.7621 48.7172 45.3839 48.3037 45.8562L31.8086 62.3513C31.3363 62.7785 30.7087 63.0039 30.045 62.9846C29.7316 62.9684 29.4195 62.8891 29.1275 62.7515C28.8354 62.6139 28.5694 62.4208 28.3453 62.1838L27.339 61.1775C21.9783 55.8168 22.5484 48.7386 27.3976 43.8894L29.8734 41.4136C34.691 36.5959 41.8008 35.9943 47.1614 41.355L48.1047 42.4244Z"
                class="primary"
            />
        </g>
    </g>
    <g class="mix-blend-multiply">
        <rect
            x="44.5499"
            width="4.23392"
            height="26.2335"
            rx="2.11696"
            transform="rotate(45 44.5499 0)"
            class="secondary"
        />
    </g>
    <g class="mix-blend-multiply">
        <rect
            x="44.5815"
            y="13.3296"
            width="4.23392"
            height="16.4896"
            rx="2.11696"
            transform="rotate(45 44.5815 13.3296)"
            class="secondary"
        />
    </g>
</svg>
