<svg viewBox="0 0 64 64" fill="none" xmlns="http://www.w3.org/2000/svg">
    <defs>
        <style>
            .base {
                fill: #CCE4FF
            }

            .primary {
                fill: #575cce
            }

            .secondary {
                fill: #1074ff;
            }

            .mix-blend-multiply {
                mix-blend-mode: multiply
            }
        </style>
    </defs>
    <rect x="48" y="18" width="13" height="5" rx="2.5" fill="white" />
    <rect x="48" y="41" width="13" height="5" rx="2.5" fill="white" />
    <rect x="4" y="5" width="53" height="53" rx="2.20833" class="base" />
    <g class="mix-blend-multiply">
        <path fill-rule="evenodd" clip-rule="evenodd"
            d="M26.933 20.5C26.933 19.2574 25.9256 18.25 24.683 18.25C23.4404 18.25 22.433 19.2574 22.433 20.5L22.433 23.8351C20.6297 24.3093 19.052 25.3401 17.8947 26.7327L14.7662 24.9265C13.69 24.3052 12.3139 24.6739 11.6926 25.75C11.0713 26.8262 11.44 28.2023 12.5162 28.8236L15.9941 30.8315C15.9065 31.3304 15.8608 31.8438 15.8608 32.3678C15.8608 33.4445 16.0537 34.4762 16.4068 35.4302L12.5162 37.6764C11.4401 38.2978 11.0713 39.6738 11.6927 40.75C12.314 41.8261 13.6901 42.1949 14.7662 41.5735L19.0093 39.1238C19.9911 39.9492 21.1554 40.5645 22.433 40.9004L22.433 46C22.433 47.2426 23.4404 48.25 24.683 48.25C25.9256 48.25 26.933 47.2426 26.933 46L26.933 40.9004C28.2105 40.5644 29.3748 39.9491 30.3566 39.1237L34.5998 41.5736C35.676 42.1949 37.0521 41.8262 37.6734 40.75C38.2947 39.6739 37.926 38.2978 36.8498 37.6765L32.959 35.4301C33.3122 34.4762 33.5051 33.4445 33.5051 32.3678C33.5051 31.8438 33.4594 31.3305 33.3718 30.8316L36.8499 28.8235C37.926 28.2022 38.2947 26.8262 37.6734 25.75C37.0521 24.6738 35.676 24.3051 34.5999 24.9264L31.4712 26.7328C30.3139 25.3402 28.7363 24.3094 26.933 23.8352L26.933 20.5Z"
            class="primary" />
    </g>
    <g class="mix-blend-multiply">
        <circle cx="24.683" cy="32.5298" r="5.31689" class="secondary" />
    </g>
    <g class="mix-blend-multiply">
        <rect x="48" y="18" width="13" height="5" rx="2.5" class="secondary" />
    </g>
    <g class="mix-blend-multiply">
        <rect x="48" y="41" width="13" height="5" rx="2.5" class="secondary" />
    </g>
</svg>