<svg xmlns="http://www.w3.org/2000/svg" xmlns:xlink="http://www.w3.org/1999/xlink" viewBox="0 0 64 64">
    <defs>
        <style>
            .isolate {
                isolation: isolate;
            }

            .base {
                fill: #b7cde1;
            }

            .mix-blend-multiply {
                mix-blend-mode: multiply;
            }

            .primary {
                fill: #ffab00;
            }
        </style>
    </defs>
    <g class="isolate">
        <g id="Layer_1" data-name="Layer 1">
            <g clip-path="url(#clip-path)">
                <path
                    class="base"
                    d="M22.79.67,7.69,15.33a2.45,2.45,0,0,0-.52.76A2.2,2.2,0,0,0,7,17V61.71a2.25,2.25,0,0,0,.69,1.62A2.42,2.42,0,0,0,9.36,64H47.64a2.42,2.42,0,0,0,1.67-.67A2.25,2.25,0,0,0,50,61.71V2.29A2.25,2.25,0,0,0,49.31.67,2.42,2.42,0,0,0,47.64,0H24.47a2.58,2.58,0,0,0-.91.17A2.49,2.49,0,0,0,22.79.67Z"
                />
                <g class="mix-blend-multiply">
                    <path
                        class="base"
                        d="M22.31,1.14V12.9a1.78,1.78,0,0,1-.16.75,1.81,1.81,0,0,1-.43.63,2.08,2.08,0,0,1-1.42.58H8.18Z"
                    />
                </g>
                <g class="mix-blend-multiply">
                    <path class="base" d="M30.6,25H5.4a1.5,1.5,0,0,0,0,3H30.6a1.5,1.5,0,0,0,0-3Z" />
                </g>
                <g class="mix-blend-multiply">
                    <path class="base" d="M22.5,32H5.5a1.5,1.5,0,0,0,0,3h17a1.5,1.5,0,0,0,0-3Z" />
                </g>
                <g class="mix-blend-multiply">
                    <path
                        class="primary"
                        d="M58.75,30H57.5V27.5a7.5,7.5,0,0,0-15,0V30H41.25A1.26,1.26,0,0,0,40,31.25v15a1.26,1.26,0,0,0,1.25,1.25h17.5A1.26,1.26,0,0,0,60,46.25v-15A1.26,1.26,0,0,0,58.75,30ZM45,30V27.5a5,5,0,1,1,10,0V30Z"
                    />
                </g>
                <g class="mix-blend-multiply">
                    <path
                        class="primary"
                        d="M53.33,38.81a3.33,3.33,0,0,0-1.08-2.16,3.32,3.32,0,0,0-4.5,0,3.33,3.33,0,0,0-1.08,2.16,3.19,3.19,0,0,0,.64,1.83,3.13,3.13,0,0,0,1.59,1.1V43a1.1,1.1,0,1,0,2.2,0V41.74a3.13,3.13,0,0,0,1.59-1.1A3.19,3.19,0,0,0,53.33,38.81Z"
                    />
                </g>
            </g>
        </g>
    </g>
</svg>
