<svg xmlns="http://www.w3.org/2000/svg" xmlns:xlink="http://www.w3.org/1999/xlink" viewBox="0 0 64 64">
	<defs>
		<style>
			.isolate {
				isolation: isolate;
			}

			.base {
				fill: #b7cde1;
			}

			.mix-blend-multiply {
				mix-blend-mode: multiply;
			}

			.primary {
				fill: #0081ff;
			}
		</style>
	</defs>
	<g class="isolate">
		<g id="Layer_1" data-name="Layer 1">
			<g clip-path="url(#clip-path)">
				<path class="base"
					d="M24.79.67,9.69,15.33a2.45,2.45,0,0,0-.52.76A2.2,2.2,0,0,0,9,17V61.71a2.25,2.25,0,0,0,.69,1.62,2.42,2.42,0,0,0,1.67.67H49.64a2.42,2.42,0,0,0,1.67-.67A2.25,2.25,0,0,0,52,61.71V2.29A2.25,2.25,0,0,0,51.31.67,2.42,2.42,0,0,0,49.64,0H26.47a2.58,2.58,0,0,0-.91.17A2.49,2.49,0,0,0,24.79.67Z" />
				<g class="mix-blend-multiply">
					<path class="base"
						d="M24.31,1.14V12.9a1.78,1.78,0,0,1-.16.75,1.81,1.81,0,0,1-.43.63,2.08,2.08,0,0,1-1.42.58H10.18Z" />
				</g>
				<path class="primary"
					d="M8.28,25a2.44,2.44,0,0,1,1.14.13,2.48,2.48,0,0,1,.95.65A2.6,2.6,0,0,1,11,27.67v.67a8.51,8.51,0,0,1-1.1,4,14.26,14.26,0,0,1-3,3.78H4a30,30,0,0,0,2.09-2.67A12.65,12.65,0,0,0,7.3,30.68,2.2,2.2,0,0,1,6,29.79a2.4,2.4,0,0,1-.44-1.56v-.67a2.63,2.63,0,0,1,.66-1.89,2.79,2.79,0,0,1,1-.55A2.94,2.94,0,0,1,8.28,25Z" />
				<path class="primary"
					d="M19.27,25a2.44,2.44,0,0,1,1.14.13,2.48,2.48,0,0,1,.95.65A2.66,2.66,0,0,1,22,27.67v.67a8.51,8.51,0,0,1-1.1,4,14.26,14.26,0,0,1-3,3.78H15a30,30,0,0,0,2.09-2.67,12.73,12.73,0,0,0,1.21-2.78,2.19,2.19,0,0,1-1.3-.88,2.4,2.4,0,0,1-.44-1.56v-.67a2.63,2.63,0,0,1,.66-1.89A2.81,2.81,0,0,1,19.27,25Z" />
				<path class="primary"
					d="M30.25,25a2.44,2.44,0,0,1,1.14.13,2.48,2.48,0,0,1,1,.65A2.63,2.63,0,0,1,33,27.67v.67a8.51,8.51,0,0,1-1.1,4,14.26,14.26,0,0,1-3,3.78H26a30,30,0,0,0,2.09-2.67,12.73,12.73,0,0,0,1.21-2.78,2.19,2.19,0,0,1-1.3-.88,2.4,2.4,0,0,1-.44-1.56v-.67a2.63,2.63,0,0,1,.66-1.89,2.72,2.72,0,0,1,1-.54A2.64,2.64,0,0,1,30.25,25Z" />
			</g>
		</g>
	</g>
</svg>