<svg viewBox="0 0 64 64" fill="none" xmlns="http://www.w3.org/2000/svg">
    <defs>
        <style>
            .isolate {
                isolation: isolate;
            }

            .base {
                fill: #b7cde1;
            }

            .primary {
                fill: #ffb036;
            }

            .secondary {
                fill: #ffffff;
            }

            .mix-blend-multiply {
                mix-blend-mode: multiply;
            }
        </style>
    </defs>
    <path
        d="M42.1187 49C46.1671 48.9997 50.0902 47.5958 53.2196 45.0275C56.349 42.4591 58.4911 38.8853 59.2811 34.9147C60.071 30.9441 59.4599 26.8224 57.5518 23.2519C55.6437 19.6814 52.5567 16.8828 48.8167 15.3331C45.0767 13.7833 40.915 13.5781 37.0407 14.7526C33.1664 15.927 29.8191 18.4084 27.5691 21.7739C25.3191 25.1395 24.3056 29.1811 24.7012 33.2101C25.0968 37.2391 26.8771 41.0063 29.7387 43.87C33.0225 47.153 37.4753 48.9981 42.1187 49Z"
        fill="white"
    />
    <g class="mix-blend-multiply">
        <path
            d="M42.1187 49C46.1671 48.9997 50.0902 47.5958 53.2196 45.0275C56.349 42.4591 58.4911 38.8853 59.2811 34.9147C60.071 30.9441 59.4599 26.8224 57.5518 23.2519C55.6437 19.6814 52.5567 16.8828 48.8167 15.3331C45.0767 13.7833 40.915 13.5781 37.0407 14.7526C33.1664 15.927 29.8191 18.4084 27.5691 21.7739C25.3191 25.1395 24.3056 29.1811 24.7012 33.2101C25.0968 37.2391 26.8771 41.0063 29.7387 43.87C33.0225 47.153 37.4753 48.9981 42.1187 49Z"
            fill="white"
        />
    </g>
    <g class="mix-blend-multiply">
        <path
            fill-rule="evenodd"
            clip-rule="evenodd"
            d="M34.7687 22.0801H52.2687V24.1801H44.8087C45.76 25.187 46.381 26.4605 46.5887 27.8301H52.2087V29.9301H46.5587C46.3267 31.2152 45.7175 32.4023 44.8087 33.3401C44.2367 33.9447 43.5589 34.4395 42.8087 34.8001L48.1887 43.9401H45.5887L40.5887 35.3801H34.7287V33.2901H40.3287C41.3313 33.2919 42.3063 32.9611 43.1007 32.3495C43.8951 31.7378 44.4642 30.8799 44.7187 29.9101H34.7187V27.8101H44.7187C44.5069 26.7867 43.9486 25.8677 43.1379 25.2082C42.3272 24.5487 41.3138 24.1891 40.2687 24.1901H34.7287V22.0801H34.7687Z"
            fill="white"
        />
    </g>
    <path
        d="M39.0487 42.35C39.4587 42.07 39.3787 41.84 38.8787 41.84H33.2187C33.0946 41.8374 32.9723 41.8102 32.8587 41.76C32.7453 41.7161 32.6429 41.6478 32.5587 41.56C32.4685 41.4739 32.4 41.3677 32.3587 41.25C32.3098 41.1364 32.2859 41.0136 32.2887 40.89L32.2287 4.93C32.2261 4.68416 32.1273 4.44912 31.9535 4.27527C31.7796 4.10142 31.5446 4.0026 31.2987 4H12.2387C11.9975 4.01637 11.7703 4.11961 11.5993 4.2906C11.4283 4.46159 11.3251 4.68874 11.3087 4.93L11.3687 40.86C11.3715 40.9836 11.3477 41.1064 11.2987 41.22C11.2575 41.3377 11.1889 41.4439 11.0987 41.53C11.0165 41.6201 10.9135 41.6887 10.7987 41.73C10.6855 41.7812 10.563 41.8085 10.4387 41.81H4.43872C3.93872 41.81 3.84872 42.05 4.25872 42.35L22.3987 60L39.0487 42.35Z"
        class="base"
    />
    <g class="mix-blend-multiply">
        <path
            d="M42.1187 49C46.1671 48.9997 50.0902 47.5958 53.2196 45.0275C56.349 42.4591 58.4911 38.8853 59.2811 34.9147C60.071 30.9441 59.4599 26.8224 57.5518 23.2519C55.6437 19.6814 52.5567 16.8828 48.8167 15.3331C45.0767 13.7833 40.915 13.5781 37.0407 14.7526C33.1664 15.927 29.8191 18.4084 27.5691 21.7739C25.3191 25.1395 24.3056 29.1811 24.7012 33.2101C25.0968 37.2391 26.8771 41.0063 29.7387 43.87C33.0225 47.153 37.4753 48.9981 42.1187 49Z"
            class="primary"
        />
    </g>
    <path
        fill-rule="evenodd"
        clip-rule="evenodd"
        d="M34.7687 22.0801H52.2687V24.1801H44.8087C45.76 25.187 46.381 26.4605 46.5887 27.8301H52.2087V29.9301H46.5587C46.3267 31.2152 45.7175 32.4023 44.8087 33.3401C44.2367 33.9447 43.5589 34.4395 42.8087 34.8001L48.1887 43.9401H45.5887L40.5887 35.3801H34.7287V33.2901H40.3287C41.3313 33.2919 42.3063 32.9611 43.1007 32.3495C43.8951 31.7378 44.4642 30.8799 44.7187 29.9101H34.7187V27.8101H44.7187C44.5069 26.7867 43.9486 25.8677 43.1379 25.2082C42.3272 24.5487 41.3138 24.1891 40.2687 24.1901H34.7287V22.0801H34.7687Z"
        class="secondary"
    />
</svg>
