<svg viewBox="0 0 64 64" fill="none" xmlns="http://www.w3.org/2000/svg">
    <defs>
        <style>
            .mix-blend-multiply {
                mix-blend-mode: multiply;
            }

            .base {
                fill: #b7cde1;
            }

            .primary {
                fill: #42cacd;
            }
        </style>
    </defs>
    <path
        d="M32.1883 43.7307C32.2505 43.1811 32.1896 42.6245 32.0101 42.1013C31.8239 41.5762 31.5189 41.1013 31.119 40.7136C30.2033 40.091 29.1045 39.795 28 39.8734V36.8309C29.1141 36.9093 30.2209 36.5989 31.1317 35.9525C31.5104 35.5842 31.8019 35.1357 31.9848 34.6401C32.1676 34.1444 32.2371 33.6141 32.1883 33.0881V29.269C32.1017 27.9678 32.5265 26.6843 33.3722 25.6917C33.8264 25.2242 34.3786 24.8634 34.989 24.6351C35.6089 24.4353 36.2625 24.3617 36.9113 24.4187H41.2778V27.7159H38.9991C38.5084 27.7028 38.0178 27.7412 37.5351 27.8304C37.1838 27.8904 36.857 28.0494 36.593 28.2887C36.3374 28.5329 36.1602 28.8475 36.0838 29.1926C35.9779 29.7031 35.9352 30.2247 35.9565 30.7457V34.1957C35.9993 34.7313 35.9255 35.2699 35.7401 35.7742C35.5692 36.2939 35.2768 36.7652 34.8872 37.1491C34.0936 37.8126 33.1066 38.2011 32.0737 38.2567V38.5495C33.1133 38.5887 34.1055 38.9945 34.8744 39.6952C35.2322 40.0629 35.5172 40.4948 35.7146 40.9682C35.903 41.4766 35.9853 42.0182 35.9565 42.5595V46.0604C35.9416 46.5706 35.9973 47.0804 36.122 47.5753C36.1853 47.9261 36.3593 48.2473 36.6185 48.4919C36.885 48.7326 37.2176 48.8878 37.5733 48.9375C38.0606 49.0246 38.5549 49.0673 39.05 49.0648H41.2651V52.2983H36.9113C36.2811 52.3356 35.6497 52.2491 35.0527 52.0437C34.4559 51.8575 33.902 51.5546 33.4232 51.1526C32.9754 50.6654 32.6368 50.0881 32.4302 49.4594C32.2166 48.8337 32.1343 48.1707 32.1883 47.5117V43.7307Z"
        fill="white"
    />
    <path
        d="M55.6633 47.4471C55.7109 48.1049 55.6224 48.7654 55.4034 49.3875C55.1843 50.0095 54.8395 50.5797 54.3903 51.0626C53.9207 51.4858 53.3709 51.8105 52.7735 52.0174C52.1765 52.2227 51.5451 52.3092 50.9148 52.272H46.561V49.0003H48.8271C49.3221 49.0027 49.8164 48.9601 50.3038 48.8729C50.6594 48.8233 50.992 48.6681 51.2586 48.4274C51.517 48.1803 51.6945 47.8608 51.7678 47.5108C51.8601 47.0329 51.8943 46.5456 51.8696 46.0595V42.5968C51.8325 42.0504 51.9096 41.5022 52.0959 40.9872C52.2822 40.4721 52.5736 40.0015 52.9517 39.6052C53.7412 38.8807 54.7701 38.4727 55.8415 38.4595V38.1667C54.8121 38.113 53.8285 37.724 53.0408 37.0591C52.6531 36.7033 52.3451 36.2694 52.137 35.7861C51.9345 35.2899 51.8432 34.7554 51.8696 34.2202V30.783C51.8873 30.2761 51.8272 29.7695 51.6914 29.2808C51.6182 28.9309 51.4406 28.6113 51.1822 28.3642C50.9166 28.1272 50.5905 27.9685 50.2401 27.9059C49.7652 27.823 49.2836 27.7847 48.8016 27.7914H46.561V24.4178H50.9148C51.5642 24.3701 52.2161 24.4657 52.8244 24.6979C53.4318 24.9261 53.9832 25.2821 54.4412 25.7418C55.2794 26.7285 55.7037 28.0012 55.6251 29.2935V33.1127C55.5779 33.6391 55.6474 34.1694 55.8288 34.6658C56.0137 35.1489 56.3052 35.5841 56.6817 35.9388C57.59 36.567 58.6868 36.8637 59.788 36.779V39.7834C58.6834 39.705 57.5847 40.001 56.669 40.6236C56.272 41.0088 55.9674 41.4789 55.7779 41.9985C55.5994 42.5264 55.5385 43.0869 55.5996 43.6407L55.6633 47.4471Z"
        fill="white"
    />
    <path
        d="M20 11.4C20 7.534 23.134 4.39999 27 4.39999H29C32.866 4.39999 36 7.534 36 11.4V18.7475C36 19.8342 36.253 20.906 36.739 21.878L50.9347 50.2695C53.2619 54.9238 49.8774 60.4 44.6738 60.4H11.3262C6.12256 60.4 2.73809 54.9238 5.06525 50.2695L19.261 21.878C19.747 20.906 20 19.8342 20 18.7475V11.4Z"
        class="base"
    />
    <rect x="17" y="4.39999" width="22" height="6" rx="2" class="base" />
    <g class="mix-blend-multiply">
        <rect x="17" y="4.39999" width="22" height="6" rx="2" class="base" />
    </g>
    <path
        d="M19.9227 28.7085C20.5799 27.3002 21.9934 26.4 23.5475 26.4H32.4525C34.0066 26.4 35.4201 27.3002 36.0773 28.7085L46.3439 50.7085C47.5815 53.3604 45.6457 56.4 42.7192 56.4H13.2808C10.3543 56.4 8.41849 53.3604 9.65605 50.7085L19.9227 28.7085Z"
        fill="#ffffff"
        opacity="0.5"
    />
    <g class="mix-blend-multiply">
        <path
            d="M32.1883 43.7307C32.2505 43.1811 32.1896 42.6245 32.0101 42.1013C31.8239 41.5762 31.5189 41.1013 31.119 40.7136C30.2033 40.091 29.1045 39.795 28 39.8734V36.8309C29.1141 36.9093 30.2209 36.5989 31.1317 35.9525C31.5104 35.5842 31.8019 35.1357 31.9848 34.6401C32.1676 34.1444 32.2371 33.6141 32.1883 33.0881V29.269C32.1017 27.9678 32.5265 26.6843 33.3722 25.6917C33.8264 25.2242 34.3786 24.8634 34.989 24.6351C35.6089 24.4353 36.2625 24.3617 36.9113 24.4187H41.2778V27.7159H38.9991C38.5084 27.7028 38.0178 27.7412 37.5351 27.8304C37.1838 27.8904 36.857 28.0494 36.593 28.2887C36.3374 28.5329 36.1602 28.8475 36.0838 29.1926C35.9779 29.7031 35.9352 30.2247 35.9565 30.7457V34.1957C35.9993 34.7313 35.9255 35.2699 35.7401 35.7742C35.5692 36.2939 35.2768 36.7652 34.8872 37.1491C34.0936 37.8126 33.1066 38.2011 32.0737 38.2567V38.5495C33.1133 38.5887 34.1055 38.9945 34.8744 39.6952C35.2322 40.0629 35.5172 40.4948 35.7146 40.9682C35.903 41.4766 35.9853 42.0182 35.9565 42.5595V46.0604C35.9416 46.5706 35.9973 47.0804 36.122 47.5753C36.1853 47.9261 36.3593 48.2473 36.6185 48.4919C36.885 48.7326 37.2176 48.8878 37.5733 48.9375C38.0606 49.0246 38.5549 49.0673 39.05 49.0648H41.2651V52.2983H36.9113C36.2811 52.3356 35.6497 52.2491 35.0527 52.0437C34.4559 51.8575 33.902 51.5546 33.4232 51.1526C32.9754 50.6654 32.6368 50.0881 32.4302 49.4594C32.2166 48.8337 32.1343 48.1707 32.1883 47.5117V43.7307Z"
            class="primary"
        />
    </g>
    <g class="mix-blend-multiply">
        <path
            d="M55.6633 47.4471C55.7109 48.1049 55.6224 48.7654 55.4034 49.3875C55.1843 50.0095 54.8395 50.5797 54.3903 51.0626C53.9207 51.4858 53.3709 51.8105 52.7735 52.0174C52.1765 52.2227 51.5451 52.3092 50.9148 52.272H46.561V49.0003H48.8271C49.3221 49.0027 49.8164 48.9601 50.3038 48.8729C50.6594 48.8233 50.992 48.6681 51.2586 48.4274C51.517 48.1803 51.6945 47.8608 51.7678 47.5108C51.8601 47.0329 51.8943 46.5456 51.8696 46.0595V42.5968C51.8325 42.0504 51.9096 41.5022 52.0959 40.9872C52.2822 40.4721 52.5736 40.0015 52.9517 39.6052C53.7412 38.8807 54.7701 38.4727 55.8415 38.4595V38.1667C54.8121 38.113 53.8285 37.724 53.0408 37.0591C52.6531 36.7033 52.3451 36.2694 52.137 35.7861C51.9345 35.2899 51.8432 34.7554 51.8696 34.2202V30.783C51.8873 30.2761 51.8272 29.7695 51.6914 29.2808C51.6182 28.9309 51.4406 28.6113 51.1822 28.3642C50.9166 28.1272 50.5905 27.9685 50.2401 27.9059C49.7652 27.823 49.2836 27.7847 48.8016 27.7914H46.561V24.4178H50.9148C51.5642 24.3701 52.2161 24.4657 52.8244 24.6979C53.4318 24.9261 53.9832 25.2821 54.4412 25.7418C55.2794 26.7285 55.7037 28.0012 55.6251 29.2935V33.1127C55.5779 33.6391 55.6474 34.1694 55.8288 34.6658C56.0137 35.1489 56.3052 35.5841 56.6817 35.9388C57.59 36.567 58.6868 36.8637 59.788 36.779V39.7834C58.6834 39.705 57.5847 40.001 56.669 40.6236C56.272 41.0088 55.9674 41.4789 55.7779 41.9985C55.5994 42.5264 55.5385 43.0869 55.5996 43.6407L55.6633 47.4471Z"
            class="primary"
        />
    </g>
</svg>
