<svg viewBox="0 0 64 64" fill="none" xmlns="http://www.w3.org/2000/svg">
    <defs>
        <style>
            .mix-blend-multiply {
                mix-blend-mode: multiply;
            }

            .base {
                fill: #b7cde1;
            }

            .primary {
                fill: #42CACD;
            }

            .secondary {
                fill: #FEB452;
            }

            .tertiary {
                fill: #1482FF;
            }
        </style>
    </defs>
    <path
        d="M52.5455 31H23.4545C22.6512 31 22 31.6716 22 32.5C22 33.3284 22.6512 34 23.4545 34H52.5455C53.3488 34 54 33.3284 54 32.5C54 31.6716 53.3488 31 52.5455 31Z"
        fill="white" />
    <path
        d="M56.5556 43H33.4444C32.6467 43 32 43.6716 32 44.5C32 45.3284 32.6467 46 33.4444 46H56.5556C57.3533 46 58 45.3284 58 44.5C58 43.6716 57.3533 43 56.5556 43Z"
        fill="white" />
    <path
        d="M58.4167 37H42.5833C41.7089 37 41 37.6716 41 38.5C41 39.3284 41.7089 40 42.5833 40H58.4167C59.2911 40 60 39.3284 60 38.5C60 37.6716 59.2911 37 58.4167 37Z"
        fill="white" />
    <path
        d="M20 11C20 7.13401 23.134 4 27 4H29C32.866 4 36 7.13401 36 11V18.3475C36 19.4342 36.253 20.506 36.739 21.478L50.9347 49.8695C53.2619 54.5238 49.8774 60 44.6738 60H11.3262C6.12256 60 2.73809 54.5238 5.06525 49.8695L19.261 21.478C19.747 20.506 20 19.4342 20 18.3475V11Z"
        class="base" />
    <rect x="17" y="4" width="22" height="6" rx="2" class="base" />
    <g class="mix-blend-multiply">
        <rect x="17" y="4" width="22" height="6" rx="2" class="base" />
    </g>
    <path
        d="M19.9227 28.3085C20.5799 26.9002 21.9934 26 23.5475 26H32.4525C34.0066 26 35.4201 26.9002 36.0773 28.3085L46.3439 50.3085C47.5815 52.9604 45.6457 56 42.7192 56H13.2808C10.3543 56 8.41849 52.9604 9.65605 50.3085L19.9227 28.3085Z"
         fill="#ffffff" opacity="0.5" />
    <path
        d="M52.5455 31H23.4545C22.6512 31 22 31.6716 22 32.5C22 33.3284 22.6512 34 23.4545 34H52.5455C53.3488 34 54 33.3284 54 32.5C54 31.6716 53.3488 31 52.5455 31Z"
        class="primary" />
    <path
        d="M37.5833 37H23.4167C22.6343 37 22 37.6716 22 38.5C22 39.3284 22.6343 40 23.4167 40H37.5833C38.3657 40 39 39.3284 39 38.5C39 37.6716 38.3657 37 37.5833 37Z"
        class="tertiary" />
    <path
        d="M28.4 43H23.6C22.7163 43 22 43.6716 22 44.5C22 45.3284 22.7163 46 23.6 46H28.4C29.2837 46 30 45.3284 30 44.5C30 43.6716 29.2837 43 28.4 43Z"
        class="primary" />
    <path
        d="M56.5556 43H33.4444C32.6467 43 32 43.6716 32 44.5C32 45.3284 32.6467 46 33.4444 46H56.5556C57.3533 46 58 45.3284 58 44.5C58 43.6716 57.3533 43 56.5556 43Z"
        class="tertiary" />
    <path
        d="M46.5556 49H23.4444C22.6467 49 22 49.6716 22 50.5C22 51.3284 22.6467 52 23.4444 52H46.5556C47.3533 52 48 51.3284 48 50.5C48 49.6716 47.3533 49 46.5556 49Z"
        class="secondary" />
    <path
        d="M58.4167 37H42.5833C41.7089 37 41 37.6716 41 38.5C41 39.3284 41.7089 40 42.5833 40H58.4167C59.2911 40 60 39.3284 60 38.5C60 37.6716 59.2911 37 58.4167 37Z"
        class="secondary" />
</svg>