<svg viewBox="0 0 48 48" fill="none" xmlns="http://www.w3.org/2000/svg">
<defs>
<style>
.base{fill:#B7CDE1;}
.primary{fill:#FFFFFF;}
.mix-blend-multiply{mix-blend-mode:multiply;}
</style>
</defs>
<rect class="primary" x="26" y="19" width="16" height="23" rx="1.35356" transform="rotate(90 26 19)"/>
<rect class="primary" x="24" y="22" width="18" height="19" rx="1.35356" transform="rotate(90 24 22)"/>
<rect class="primary" x="25" y="40" width="2" height="21" rx="1" transform="rotate(90 25 40)"/>
<g class="mix-blend-multiply">
<circle class="base" cx="24.4214" cy="39" r="1"/>
</g>
<path class="base" d="M20 4.48607L20 43.5139C20 44.3347 20.6161 45 21.376 45L43.624 45C44.3839 45 45 44.3347 45 43.5139L45 4.48607C45 3.66534 44.384 3 43.624 3L21.376 3C20.6161 3 20 3.66534 20 4.48607Z"/>
<g class="mix-blend-multiply">
<rect class="base" x="35" y="7" width="11" height="2" rx="1" transform="rotate(90 35 7)"/>
</g>
<g class="mix-blend-multiply">
<rect class="base" x="32" y="7" width="8" height="2" rx="1" transform="rotate(90 32 7)"/>
</g>
<g class="mix-blend-multiply">
<rect class="base" x="40" y="3" width="42" height="2" transform="rotate(90 40 3)"/>
</g>
<g class="mix-blend-multiply">
<rect class="base" x="26" y="19" width="16" height="23" rx="1.35356" transform="rotate(90 26 19)"/>
</g>
<g class="mix-blend-multiply">
<rect class="base" x="24" y="26" width="14" height="19" rx="1.35356" transform="rotate(90 24 26)"/>
</g>
<g class="mix-blend-multiply">
<rect class="base" x="25" y="39" width="3" height="21" rx="1" transform="rotate(90 25 39)"/>
</g>
<path class="base" d="M5 42H7V44.2104C7 44.6465 6.64649 45 6.21042 45H5.78958C5.35351 45 5 44.6465 5 44.2104V42Z"/>
<g class="mix-blend-multiply">
<path class="base" d="M22 42H24V44.2104C24 44.6465 23.6465 45 23.2104 45H22.7896C22.3535 45 22 44.6465 22 44.2104V42Z"/>
</g>
<g class="mix-blend-multiply">
<circle class="base" cx="7" cy="37" r="1"/>
</g>
<g class="mix-blend-multiply">
<circle class="base" cx="22" cy="37" r="1"/>
</g>
</svg>
