<svg viewBox="0 0 64 64" fill="none" xmlns="http://www.w3.org/2000/svg">
    <defs>
        <style>
            .isolate {
                isolation: isolate;
            }

            .base {
                fill: #b7cde1;
            }

            .primary {
                fill: #ffab00;
            }

            .mix-blend-multiply {
                mix-blend-mode: multiply;
            }
        </style>
    </defs>

    <path
        d="M29.7 17.1H55.1C55.2937 17.1059 55.485 17.0554 55.6505 16.9547C55.816 16.8539 55.9487 16.7072 56.0324 16.5324C56.1161 16.3576 56.1472 16.1622 56.1219 15.9701C56.0966 15.7779 56.0161 15.5972 55.89 15.45L53.75 12.78C53.5627 12.5367 53.3218 12.3397 53.046 12.2045C52.7703 12.0692 52.4671 11.9992 52.16 12H26.6C26.4044 11.9923 26.2109 12.0422 26.0434 12.1434C25.8759 12.2446 25.7417 12.3928 25.6576 12.5695C25.5735 12.7463 25.5431 12.9438 25.5702 13.1377C25.5973 13.3315 25.6807 13.5131 25.81 13.66L28.11 16.33C28.2984 16.5716 28.5397 16.7666 28.8154 16.9001C29.091 17.0336 29.3937 17.102 29.7 17.1Z"
        class="base" />
    <path
        d="M0 12.3901C0.0052742 11.7862 0.248868 11.2089 0.677756 10.7838C1.10664 10.3586 1.6861 10.1201 2.29 10.1201H19.68C20.0096 10.12 20.3354 10.1905 20.6355 10.3268C20.9356 10.463 21.2031 10.6619 21.42 10.9101L27.3 17.7001C27.73 18.2001 28.84 18.2601 29.51 18.2601H55.17C56.43 18.2601 56.98 19.5001 56.98 20.7501V51.6101C56.9787 51.9095 56.9184 52.2058 56.8026 52.4819C56.6868 52.758 56.5178 53.0086 56.3051 53.2194C56.0925 53.4302 55.8404 53.597 55.5633 53.7104C55.2862 53.8238 54.9894 53.8814 54.69 53.8801H2.29C1.6861 53.8801 1.10664 53.6416 0.677756 53.2165C0.248868 52.7913 0.0052742 52.214 0 51.6101L0 12.3901Z"
        class="base" />
    <g class="mix-blend-multiply">
        <path
            d="M29.7 17.1H55.1C55.2937 17.1059 55.485 17.0554 55.6505 16.9547C55.816 16.8539 55.9487 16.7072 56.0324 16.5324C56.1161 16.3576 56.1472 16.1622 56.1219 15.9701C56.0966 15.7779 56.0161 15.5972 55.89 15.45L53.75 12.78C53.5627 12.5367 53.3218 12.3397 53.046 12.2045C52.7703 12.0692 52.4671 11.9992 52.16 12H26.6C26.4044 11.9923 26.2109 12.0422 26.0434 12.1434C25.8759 12.2446 25.7417 12.3928 25.6576 12.5695C25.5735 12.7463 25.5431 12.9438 25.5702 13.1377C25.5973 13.3315 25.6807 13.5131 25.81 13.66L28.11 16.33C28.2984 16.5716 28.5397 16.7666 28.8154 16.9001C29.091 17.0336 29.3937 17.102 29.7 17.1Z"
            class="base" />
    </g>
    <path fill-rule="evenodd" clip-rule="evenodd"
        d="M53.8841 24.1849C54.4669 23.5962 55.4167 23.5914 56.0054 24.1743L63.0554 31.1543C63.4875 31.5821 63.6185 32.2285 63.3872 32.7908C63.156 33.3532 62.6081 33.7202 62 33.7202H24.42C23.5916 33.7202 22.92 33.0487 22.92 32.2202C22.92 31.3918 23.5916 30.7202 24.42 30.7202H58.353L53.8946 26.3062C53.3059 25.7233 53.3012 24.7736 53.8841 24.1849Z"
        fill="white" />
    <path fill-rule="evenodd" clip-rule="evenodd"
        d="M23.0328 39.7895C23.264 39.2272 23.8119 38.8601 24.42 38.8601H62C62.8284 38.8601 63.5 39.5317 63.5 40.3601C63.5 41.1885 62.8284 41.8601 62 41.8601H28.067L32.5254 46.2742C33.1141 46.857 33.1188 47.8068 32.5359 48.3955C31.9531 48.9842 31.0033 48.9889 30.4146 48.406L23.3646 41.426C22.9325 40.9982 22.8015 40.3519 23.0328 39.7895Z"
        fill="white" />
    <g class="mix-blend-multiply">
        <path fill-rule="evenodd" clip-rule="evenodd"
            d="M53.8841 24.1849C54.4669 23.5962 55.4167 23.5914 56.0054 24.1743L63.0554 31.1543C63.4875 31.5821 63.6185 32.2285 63.3872 32.7908C63.156 33.3532 62.6081 33.7202 62 33.7202H24.42C23.5916 33.7202 22.92 33.0487 22.92 32.2202C22.92 31.3918 23.5916 30.7202 24.42 30.7202H58.353L53.8946 26.3062C53.3059 25.7233 53.3012 24.7736 53.8841 24.1849Z"
            class="primary" />
    </g>
    <g class="mix-blend-multiply">
        <path fill-rule="evenodd" clip-rule="evenodd"
            d="M23.0328 39.7895C23.264 39.2272 23.8119 38.8601 24.42 38.8601H62C62.8284 38.8601 63.5 39.5317 63.5 40.3601C63.5 41.1885 62.8284 41.8601 62 41.8601H28.067L32.5254 46.2742C33.1141 46.857 33.1188 47.8068 32.5359 48.3955C31.9531 48.9842 31.0033 48.9889 30.4146 48.406L23.3646 41.426C22.9325 40.9982 22.8015 40.3519 23.0328 39.7895Z"
            class="primary" />
    </g>
</svg>