<svg xmlns="http://www.w3.org/2000/svg" viewBox="0 0 64 64">
    <defs>
        <style>
            .isolate {
                isolation: isolate;
            }

            .base {
                fill: #b7cde1;
            }

            .primary {
                fill: #00a362;
            }

            .mix-blend-multiply {
                mix-blend-mode: multiply;
            }

            .secondary {
                fill: #ffffff
            }
        </style>
    </defs>
    <g class="isolate">
        <g id="Layer_1" data-name="Layer 1">
            <path class="base"
                d="M0,9.43a2.58,2.58,0,0,1,.21-.95,2.68,2.68,0,0,1,.55-.79,2.6,2.6,0,0,1,.82-.52A2.35,2.35,0,0,1,2.53,7h20.3a2.54,2.54,0,0,1,1.05.22,2.59,2.59,0,0,1,.87.63l6.48,7.29a3.75,3.75,0,0,0,2.44.6H62c1.4,0,2,1.33,2,2.68V51.57a2.58,2.58,0,0,1-.21,1,2.46,2.46,0,0,1-.56.8,2.72,2.72,0,0,1-.82.52,2.62,2.62,0,0,1-1,.16H2.53a2.35,2.35,0,0,1-.95-.17,2.6,2.6,0,0,1-.82-.52,2.68,2.68,0,0,1-.55-.79,2.58,2.58,0,0,1-.21-1Z" />
            <path class="primary"
                d="M58.84,35.49a1.12,1.12,0,0,1,.45.07,1.19,1.19,0,0,1,.38.25,1.05,1.05,0,0,1,.25.37,1.19,1.19,0,0,1,.08.45A28.46,28.46,0,0,1,46.59,59.84,1,1,0,0,1,46,60a1.1,1.1,0,0,1-.55-.16A28.53,28.53,0,0,1,32.08,36.63a1.17,1.17,0,0,1,.09-.45,1,1,0,0,1,.25-.38,1.17,1.17,0,0,1,.38-.24,1,1,0,0,1,.45-.07h.44a25,25,0,0,0,6.15-.73,25.33,25.33,0,0,0,5.64-2.21,1.22,1.22,0,0,1,.56-.14,1.26,1.26,0,0,1,.57.14,24.57,24.57,0,0,0,11.74,3Z" />
            <path class="base"
                d="M34,14H61.42a1,1,0,0,0,.56-.12,1,1,0,0,0,.51-1,1,1,0,0,0-.21-.53L60,9.75a2.32,2.32,0,0,0-.79-.56,2.29,2.29,0,0,0-1-.19H30.62a1,1,0,0,0-.56.12,1,1,0,0,0-.51,1,1,1,0,0,0,.21.53l2.49,2.63a2.35,2.35,0,0,0,.79.57A2.44,2.44,0,0,0,34,14Z" />
            <g class="mix-blend-multiply">
                <path class="base"
                    d="M34,14H61.42a1,1,0,0,0,.56-.12,1,1,0,0,0,.51-1,1,1,0,0,0-.21-.53L60,9.75a2.32,2.32,0,0,0-.79-.56,2.29,2.29,0,0,0-1-.19H30.62a1,1,0,0,0-.56.12,1,1,0,0,0-.51,1,1,1,0,0,0,.21.53l2.49,2.63a2.35,2.35,0,0,0,.79.57A2.44,2.44,0,0,0,34,14Z" />
            </g>
            <path class="secondary"
                d="M43.61,46.1a1.71,1.71,0,0,0,2.4,0l6.49-6.48a1.27,1.27,0,0,1,1.79,0,1.3,1.3,0,0,1,.28.41,1.23,1.23,0,0,1,0,1,1.42,1.42,0,0,1-.28.41L45.71,50a1.26,1.26,0,0,1-.9.37,1.28,1.28,0,0,1-.9-.37l-3.83-3.84a1.34,1.34,0,0,1-.33-.42,1.24,1.24,0,0,1-.13-.5,1.17,1.17,0,0,1,.09-.52,1.2,1.2,0,0,1,.72-.72A1.14,1.14,0,0,1,41,43.9a1.48,1.48,0,0,1,.5.13,1.2,1.2,0,0,1,.41.33Z" />
        </g>
    </g>
</svg>