<svg viewBox="0 0 64 64" fill="none" xmlns="http://www.w3.org/2000/svg">
    <defs>
        <style>
            .isolate {
                isolation: isolate;
            }

            .base {
                fill: #b7cde1;
            }

            .primary {
                fill: #feb452;
            }

            .secondary {
                fill: #42cacd;
            }

            .mix-blend-multiply {
                mix-blend-mode: multiply;
            }
        </style>
    </defs>

    <path
        d="M47 9H14C13.7348 9 13.4804 9.10536 13.2929 9.29289C13.1054 9.48043 13 9.73478 13 10V35C13 35.2652 13.1054 35.5196 13.2929 35.7071C13.4804 35.8946 13.7348 36 14 36H47C47.2652 36 47.5196 35.8946 47.7071 35.7071C47.8946 35.5196 48 35.2652 48 35V10C48 9.73478 47.8946 9.48043 47.7071 9.29289C47.5196 9.10536 47.2652 9 47 9Z"
        fill="white"
    />
    <path
        d="M42 4H9C8.73478 4 8.48043 4.10536 8.29289 4.29289C8.10536 4.48043 8 4.73478 8 5V30C8 30.2652 8.10536 30.5196 8.29289 30.7071C8.48043 30.8946 8.73478 31 9 31H42C42.2652 31 42.5196 30.8946 42.7071 30.7071C42.8946 30.5196 43 30.2652 43 30V5C43 4.73478 42.8946 4.48043 42.7071 4.29289C42.5196 4.10536 42.2652 4 42 4Z"
        fill="white"
    />
    <g class="mix-blend-multiply">
        <path
            d="M42 4H9C8.73478 4 8.48043 4.10536 8.29289 4.29289C8.10536 4.48043 8 4.73478 8 5V30C8 30.2652 8.10536 30.5196 8.29289 30.7071C8.48043 30.8946 8.73478 31 9 31H42C42.2652 31 42.5196 30.8946 42.7071 30.7071C42.8946 30.5196 43 30.2652 43 30V5C43 4.73478 42.8946 4.48043 42.7071 4.29289C42.5196 4.10536 42.2652 4 42 4Z"
            class="secondary"
        />
    </g>
    <g class="mix-blend-multiply">
        <path
            d="M47 9H14C13.7348 9 13.4804 9.10536 13.2929 9.29289C13.1054 9.48043 13 9.73478 13 10V35C13 35.2652 13.1054 35.5196 13.2929 35.7071C13.4804 35.8946 13.7348 36 14 36H47C47.2652 36 47.5196 35.8946 47.7071 35.7071C47.8946 35.5196 48 35.2652 48 35V10C48 9.73478 47.8946 9.48043 47.7071 9.29289C47.5196 9.10536 47.2652 9 47 9Z"
            class="secondary"
        />
    </g>
    <path
        d="M4 24.9098C4.0029 24.6517 4.05729 24.3967 4.16 24.1598C4.26085 23.9242 4.41086 23.7128 4.6 23.5398C4.78699 23.361 5.00804 23.2215 5.25 23.1298C5.48875 23.0366 5.74381 22.9924 6 22.9998H21C21.2832 22.9989 21.5634 23.0582 21.822 23.1737C22.0806 23.2892 22.3117 23.4583 22.5 23.6698L27.5 29.3998C28.0605 29.7793 28.7367 29.9492 29.41 29.8798H51.41C52.53 29.8798 53 30.9298 53 31.9998V58.0998C52.9943 58.3544 52.94 58.6056 52.84 58.8398C52.7322 59.0744 52.5831 59.2878 52.4 59.4698C52.2099 59.6421 51.9895 59.7777 51.75 59.8698C51.5126 59.9677 51.2565 60.012 51 59.9998H6C5.74381 60.0073 5.48875 59.963 5.25 59.8698C5.00804 59.7781 4.78699 59.6387 4.6 59.4598C4.41086 59.2868 4.26085 59.0755 4.16 58.8398C4.05729 58.603 4.0029 58.348 4 58.0898V24.9098Z"
        class="base"
    />
    <path
        d="M19.5 21L39.5 21C40.3284 21 41 20.3284 41 19.5C41 18.6716 40.3284 18 39.5 18L19.5 18C18.6716 18 18 18.6716 18 19.5C18 20.3284 18.6716 21 19.5 21Z"
        class="secondary"
    />
    <path
        d="M19.5 16L39.5 16C40.3284 16 41 15.3284 41 14.5C41 13.6716 40.3284 13 39.5 13L19.5 13C18.6716 13 18 13.6716 18 14.5C18 15.3284 18.6716 16 19.5 16Z"
        class="secondary"
    />
    <path
        fill-rule="evenodd"
        clip-rule="evenodd"
        d="M52.4705 36.198C53.0569 35.6128 54.0066 35.6138 54.5918 36.2002L59.3218 40.9402C59.7501 41.3695 59.8779 42.0144 59.6455 42.5745C59.4132 43.1346 58.8664 43.4998 58.26 43.4998H33C32.1716 43.4998 31.5 42.8282 31.5 41.9998C31.5 41.1713 32.1716 40.4998 33 40.4998H54.6441L52.4682 38.3193C51.8831 37.7329 51.8841 36.7832 52.4705 36.198Z"
        fill="white"
    />
    <path
        fill-rule="evenodd"
        clip-rule="evenodd"
        d="M31.3545 46.4252C31.5868 45.8651 32.1336 45.5 32.74 45.5H58C58.8284 45.5 59.5 46.1716 59.5 47C59.5 47.8284 58.8284 48.5 58 48.5H36.3559L38.5318 50.6805C39.1169 51.2669 39.1159 52.2166 38.5295 52.8018C37.9431 53.3869 36.9934 53.3859 36.4082 52.7995L31.6782 48.0595C31.2499 47.6303 31.1221 46.9854 31.3545 46.4252Z"
        fill="white"
    />
    <g class="mix-blend-multiply">
        <path
            fill-rule="evenodd"
            clip-rule="evenodd"
            d="M52.4705 36.198C53.0569 35.6128 54.0066 35.6138 54.5918 36.2002L59.3218 40.9402C59.7501 41.3695 59.8779 42.0144 59.6455 42.5745C59.4132 43.1346 58.8664 43.4998 58.26 43.4998H33C32.1716 43.4998 31.5 42.8282 31.5 41.9998C31.5 41.1713 32.1716 40.4998 33 40.4998H54.6441L52.4682 38.3193C51.8831 37.7329 51.8841 36.7832 52.4705 36.198Z"
            class="primary"
        />
    </g>
    <g class="mix-blend-multiply">
        <path
            fill-rule="evenodd"
            clip-rule="evenodd"
            d="M31.3545 46.4252C31.5868 45.8651 32.1336 45.5 32.74 45.5H58C58.8284 45.5 59.5 46.1716 59.5 47C59.5 47.8284 58.8284 48.5 58 48.5H36.3559L38.5318 50.6805C39.1169 51.2669 39.1159 52.2166 38.5295 52.8018C37.9431 53.3869 36.9934 53.3859 36.4082 52.7995L31.6782 48.0595C31.2499 47.6303 31.1221 46.9854 31.3545 46.4252Z"
            class="primary"
        />
    </g>
</svg>
