<svg xmlns="http://www.w3.org/2000/svg" viewBox="0 0 64 64">
    <defs>
        <style>
            .isolate {
                isolation: isolate;
            }
            .mix-blend-multiply {
                mix-blend-mode: multiply;
            }
            .base {
                fill: #b7cde1;
            }
            .primary {
                fill: #36a168;
            }
        </style>
    </defs>
    <g class="isolate">
        <g id="Layer_1" data-name="Layer 1">
            <g class="mix-blend-multiply">
                <path
                    class="base"
                    d="M4.5,9.3,25.5,33a3.44,3.44,0,0,1,.7,1.92V57.69c0,.6.33.74.76.32L33.66,52a2.93,2.93,0,0,0,.7-1.85V34.92A3.19,3.19,0,0,1,35.11,33L59.41,9.39a2.08,2.08,0,0,0,.45-.72A2.18,2.18,0,0,0,60,7.83a2.15,2.15,0,0,0-.2-.82,2.1,2.1,0,0,0-.5-.68,2.23,2.23,0,0,0-1.49-.58H6.2A2.18,2.18,0,0,0,4.22,7,2.16,2.16,0,0,0,4,8.18,2.21,2.21,0,0,0,4.5,9.3Z"
                />
            </g>
            <g class="mix-blend-multiply">
                <path
                    class="primary"
                    d="M58,27.28a1.2,1.2,0,0,0-1.19-1.19h-6a1.2,1.2,0,0,1-1.19-1.19V19a1.22,1.22,0,0,0-.09-.46,1.24,1.24,0,0,0-.25-.39,1.27,1.27,0,0,0-.39-.26,1.22,1.22,0,0,0-.46-.09h-6a1.16,1.16,0,0,0-.84.35,1.19,1.19,0,0,0-.35.84v5.95a1.13,1.13,0,0,1-.09.45,1.16,1.16,0,0,1-.26.39,1.15,1.15,0,0,1-.84.35h-6a1.14,1.14,0,0,0-.81.37,1.21,1.21,0,0,0-.33.83v5.95a1.2,1.2,0,0,0,1.19,1.19h6a1.2,1.2,0,0,1,1.19,1.19v6a1.2,1.2,0,0,0,1.14,1.14h6a1.19,1.19,0,0,0,.84-.35,1.16,1.16,0,0,0,.35-.84v-6a1.19,1.19,0,0,1,.35-.84,1.16,1.16,0,0,1,.84-.35h5.95a1.21,1.21,0,0,0,.83-.33,1.14,1.14,0,0,0,.37-.81Z"
                />
            </g>
        </g>
    </g>
</svg>
