<svg viewBox="0 0 64 64" fill="none" xmlns="http://www.w3.org/2000/svg">
    <defs>
        <style>
            .isolate {
                isolation: isolate;
            }

            .primary {
                fill: #1482ff;
            }

            .mix-blend-multiply {
                mix-blend-mode: multiply;
            }

            .base {
                fill: #b7cde1;
            }
        </style>
    </defs>
    <path d="M18 52H11.54C7.37 52 4 48.2211 4 43.5639V37.4361C4 32.7686 7.37 29 11.54 29H18V52Z" fill="white" />
    <path d="M46 29H52.46C56.63 29 60 32.7686 60 37.4361V43.5639C60 48.2211 56.63 52 52.46 52H46V29Z" fill="white" />
    <path
        fill-rule="evenodd"
        clip-rule="evenodd"
        d="M27.29 8.01003C22.5582 8.01003 18 13.0073 18 20.1604V52H14V20.1604C14 11.6744 19.5618 4 27.29 4H36.71C44.5041 4 50 11.6819 50 20.1604V52H46V20.1604C46 12.9998 41.4959 8.01003 36.71 8.01003H27.29Z"
        class="base"
    />
    <g class="mix-blend-multiply">
        <path d="M18 52H11.54C7.37 52 4 48.2211 4 43.5639V37.4361C4 32.7686 7.37 29 11.54 29H18V52Z" class="base" />
    </g>
    <g class="mix-blend-multiply">
        <path
            d="M46 29H52.46C56.63 29 60 32.7686 60 37.4361V43.5639C60 48.2211 56.63 52 52.46 52H46V29Z"
            class="base"
        />
    </g>
    <path
        fill-rule="evenodd"
        clip-rule="evenodd"
        d="M45.77 49.6699H48.77V52.92C48.7884 53.6661 48.6611 54.4087 48.3952 55.1062C48.1266 55.8109 47.7217 56.4558 47.2037 57.0039C46.6858 57.5521 46.0648 57.9928 45.3764 58.3008C44.6881 58.6089 43.9457 58.7783 43.1918 58.7993L43.1709 58.7999H32.85V55.7999H43.1268C43.4803 55.7877 43.8281 55.7071 44.151 55.5626C44.4796 55.4155 44.776 55.2051 45.0233 54.9435C45.2705 54.6818 45.4638 54.374 45.592 54.0376C45.7203 53.7012 45.7809 53.3428 45.7706 52.983L45.77 52.9614V49.6699Z"
        class="primary"
    />
    <path
        d="M36.24 60.0003H27.76C27.0403 60.011 26.3457 59.736 25.8284 59.2355C25.311 58.7351 25.0132 58.05 25 57.3303V56.6703C25.0132 55.9506 25.311 55.2655 25.8284 54.7651C26.3457 54.2646 27.0403 53.9896 27.76 54.0003H36.24C36.9597 53.9896 37.6543 54.2646 38.1716 54.7651C38.689 55.2655 38.9868 55.9506 39 56.6703V57.3303C38.9868 58.05 38.689 58.7351 38.1716 59.2355C37.6543 59.736 36.9597 60.011 36.24 60.0003Z"
        class="primary"
    />
</svg>
