<svg viewBox="0 0 64 64" fill="none" xmlns="http://www.w3.org/2000/svg">
    <defs>
        <style>
            .base {
                fill: #b7cde1;
            }

            .mix-blend-multiply {
                mix-blend-mode: multiply;
            }

            .primary {
                fill: #F05656;
            }
        </style>
    </defs>
    <path
        d="M59 20.9836C58.835 17.4855 57.3143 14.1847 54.7537 11.7669C52.1932 9.34903 48.7896 8 45.25 8C41.7104 8 38.3068 9.34903 35.7463 11.7669C33.1857 14.1847 31.665 17.4855 31.5 20.9836C31.335 17.4855 29.8143 14.1847 27.2537 11.7669C24.6932 9.34903 21.2896 8 17.75 8C14.2104 8 10.8068 9.34903 8.24626 11.7669C5.6857 14.1847 4.16499 17.4855 4 20.9836C4 41.3816 31.5 55 31.5 55C31.5 55 59 41.3816 59 20.9836Z"
        fill="white" />
    <rect x="47" y="34" width="4" height="22" rx="2" class="base" />
    <rect x="60" y="43" width="4" height="22" rx="2" transform="rotate(90 60 43)" class="base" />
    <path
        d="M47 36C47 34.8954 47.8954 34 49 34C50.1046 34 51 34.8954 51 36V54C51 55.1046 50.1046 56 49 56C47.8954 56 47 55.1046 47 54V36Z"
        class="primary" />
    <path
        d="M58 43C59.1046 43 60 43.8954 60 45C60 46.1046 59.1046 47 58 47L40 47C38.8954 47 38 46.1046 38 45C38 43.8954 38.8954 43 40 43H58Z"
        class="primary" />
    <g class="mix-blend-multiply">
        <path
            d="M59 20.9836C58.835 17.4855 57.3143 14.1847 54.7537 11.7669C52.1932 9.34903 48.7896 8 45.25 8C41.7104 8 38.3068 9.34903 35.7463 11.7669C33.1857 14.1847 31.665 17.4855 31.5 20.9836C31.335 17.4855 29.8143 14.1847 27.2537 11.7669C24.6932 9.34903 21.2896 8 17.75 8C14.2104 8 10.8068 9.34903 8.24626 11.7669C5.6857 14.1847 4.16499 17.4855 4 20.9836C4 41.3816 31.5 55 31.5 55C31.5 55 59 41.3816 59 20.9836Z"
            class="base" />
    </g>
</svg>