<svg viewBox="0 0 64 64" fill="none" xmlns="http://www.w3.org/2000/svg">
    <defs>
        <style>
            .base {
                fill: #B7CDE1
            }

            .mix-blend-multiply {
                mix-blend-mode: multiply
            }

            .primary {
                fill: #FEB452
            }
        </style>
    </defs>
    <path
        d="M3.99999 24.4807C3.99999 24.2517 4.06099 24.0267 4.17999 23.8307C4.29599 23.6307 4.46599 23.4687 4.66999 23.3607L31.4 4.15067C31.5845 4.05176 31.7906 4 32 4C32.2094 4 32.4155 4.05176 32.6 4.15067L59.33 23.3607C59.5321 23.4712 59.7012 23.6334 59.82 23.8307C59.938 24.0267 60 24.2517 60 24.4807V30.7307C59.9968 31.067 59.8643 31.3893 59.63 31.6307C59.3904 31.8677 59.067 32.0006 58.73 32.0007H5.26999C5.10284 32.002 4.9371 31.9701 4.78241 31.9067C4.62773 31.8434 4.4872 31.7499 4.369 31.6317C4.2508 31.5135 4.15731 31.3729 4.09395 31.2182C4.0306 31.0636 3.99866 30.8978 3.99999 30.7307V24.4807Z"
        class="base" />
    <path d="M28 32H9V57H28V32ZM36 32H28V42H36V32ZM55 32H36V57H55V32Z" class="base" />
    <path
        d="M39.16 18.5377C39.2086 18.1212 39.1608 17.6991 39.0204 17.3039C38.88 16.9088 38.6506 16.5512 38.35 16.2587C37.6574 15.7956 36.8313 15.5742 36 15.6287V13.3707C36.84 13.4317 37.676 13.1947 38.36 12.7007C38.6457 12.4255 38.866 12.0896 39.0045 11.7178C39.1429 11.346 39.1961 10.9478 39.16 10.5527V7.66473C39.1127 6.69845 39.4304 5.74971 40.05 5.00673C40.3977 4.66176 40.8145 4.3943 41.2729 4.22194C41.7314 4.04959 42.2212 3.97624 42.71 4.00673H46V6.48573H44.29C43.9214 6.48446 43.5534 6.51457 43.19 6.57573C42.929 6.62896 42.6851 6.74574 42.48 6.91573C42.2885 7.10353 42.1563 7.34347 42.1 7.60573C42.0186 7.9793 41.985 8.36169 42 8.74373V11.3227C42.0327 11.7259 41.9771 12.1314 41.8372 12.511C41.6974 12.8906 41.4765 13.2351 41.19 13.5207C40.5911 14.017 39.847 14.3049 39.07 14.3407V14.5707C39.8545 14.5994 40.6029 14.9076 41.18 15.4397C41.4655 15.7348 41.6859 16.0864 41.8271 16.4718C41.9684 16.8573 42.0273 17.2681 42 17.6777V20.2567C41.99 20.6397 42.03 21.0227 42.12 21.3957C42.176 21.6577 42.309 21.8977 42.5 22.0857C42.705 22.2607 42.954 22.3777 43.22 22.4257C43.586 22.4907 43.958 22.5207 44.33 22.5147H46V24.9927H42.71C42.2355 25.0236 41.7595 24.9599 41.3098 24.8054C40.86 24.6509 40.4454 24.4087 40.09 24.0927C39.7579 23.7252 39.5042 23.2938 39.3443 22.825C39.1844 22.3561 39.1217 21.8596 39.16 21.3657V18.5377ZM56.826 21.3637C56.8642 21.8574 56.8019 22.3536 56.6429 22.8225C56.4839 23.2913 56.2315 23.7231 55.901 24.0917C55.5477 24.4073 55.1352 24.6493 54.6875 24.8038C54.2397 24.9584 53.7657 25.0222 53.293 24.9917H50V22.5127H51.702C52.072 22.5187 52.442 22.4887 52.806 22.4227C53.0708 22.3756 53.3181 22.2582 53.522 22.0827C53.7129 21.895 53.8447 21.6555 53.901 21.3937C53.976 21.0187 54.003 20.6367 53.981 20.2547V17.6767C53.9537 17.2675 54.0121 16.8571 54.1524 16.4718C54.2928 16.0864 54.512 15.7346 54.796 15.4387C55.3872 14.8909 56.1601 14.581 56.966 14.5687V14.3387C56.1922 14.303 55.4513 14.0154 54.856 13.5197C54.5703 13.2337 54.3503 12.889 54.2111 12.5094C54.0719 12.1299 54.017 11.7246 54.05 11.3217V8.74373C54.0606 8.3595 54.0169 7.9757 53.92 7.60373C53.8565 7.34274 53.7223 7.10433 53.532 6.91473C53.3283 6.74495 53.0858 6.62815 52.826 6.57473C52.4708 6.51481 52.1112 6.48471 51.751 6.48473H50V4.00873H53.294C53.7856 3.97385 54.2789 4.045 54.7406 4.21735C55.2023 4.38971 55.6215 4.65925 55.97 5.00773C56.594 5.75773 56.91 6.71873 56.856 7.69573V10.5837C56.8203 10.9785 56.8732 11.3762 57.0109 11.7478C57.1486 12.1194 57.3677 12.4556 57.652 12.7317C58.332 13.2267 59.163 13.4637 60 13.4017V15.6597C59.1724 15.6053 58.3502 15.8269 57.662 16.2897C57.3625 16.5824 57.1342 16.9398 56.9944 17.3346C56.8547 17.7293 56.8074 18.1508 56.856 18.5667L56.826 21.3637Z"
        class="primary" />
</svg>