<svg xmlns="http://www.w3.org/2000/svg" xmlns:xlink="http://www.w3.org/1999/xlink" viewBox="0 0 64 64">
    <defs>
        <style>
            .isolate {
                isolation: isolate;
            }

            .base {
                fill: #b7cde1;
            }

            .mix-blend-multiply {
                mix-blend-mode: multiply;
            }

            .primary {
                fill: #f05656;
            }
        </style>
    </defs>
    <g class="isolate">
        <clipPath id="clip-path">
            <rect fill="none" width="64" height="64" />
        </clipPath>
        <clipPath id="clip-path-2">
            <path
                fill="none"
                d="M58.39,52.74V56c0,1-18.83,1-18.83,0V52.74c0-7.77,4.38-11,9.41-11S58.39,44.93,58.39,52.74Z"
            />
        </clipPath>
        <g id="Layer_1" data-name="Layer 1">
            <g clip-path="url(#clip-path)">
                <path
                    class="base"
                    d="M61,56.07H3A3.11,3.11,0,0,1,.8,54.82,4,4,0,0,1,0,52.16V11.91A4,4,0,0,1,.8,9.25,3.11,3.11,0,0,1,3,8H61a3.08,3.08,0,0,1,2.21,1.25A4.05,4.05,0,0,1,64,11.91V52.17a4,4,0,0,1-.8,2.65A3.11,3.11,0,0,1,61,56.07Z"
                />
                <g class="mix-blend-multiply">
                    <path class="base" d="M30.5,24.82H7.5a1.5,1.5,0,0,0,0,3h23a1.5,1.5,0,0,0,0-3Z" />
                </g>
                <path class="primary" d="M40.5,14.82H7.5a1.5,1.5,0,0,0,0,3h33a1.5,1.5,0,0,0,0-3Z" />
                <g class="mix-blend-multiply">
                    <path class="base" d="M21.5,30.82H7.5a1.5,1.5,0,0,0,0,3h14a1.5,1.5,0,0,0,0-3Z" />
                </g>
                <g class="mix-blend-multiply">
                    <path class="base" d="M60.11,27.19H37.88V49.82H60.11Z" />
                </g>
                <path class="base" d="M48.83,41.79A4.87,4.87,0,1,0,44,36.92,4.86,4.86,0,0,0,48.83,41.79Z" />
                <g clip-path="url(#clip-path-2)">
                    <path class="base" d="M60.11,27.19H37.88V49.82H60.11Z" />
                </g>
            </g>
        </g>
    </g>
</svg>
