<svg xmlns="http://www.w3.org/2000/svg" viewBox="0 0 64 64">
	<defs>
		<style>
			.isolate{isolation:isolate;}
            .mix-blend-multiply{mix-blend-mode:multiply;}
            .primary{fill:#fff;}
            .base{fill:#00ccce;}
            .secondary{fill:#ffab00;}
		</style>
	</defs>
	<g class="isolate">
		<g id="Layer_2" data-name="Layer 2">
			<polygon class="secondary" points="54.63 12.57 56.03 10 57.44 12.57 60.02 13.98 57.44 15.39 56.03 17.97 54.63 15.39 52.05 13.98 54.63 12.57" />
			<polygon class="secondary" points="48.98 5.93 50.03 4 51.09 5.93 53.02 6.98 51.09 8.04 50.03 9.97 48.98 8.04 47.05 6.98 48.98 5.93" />
			<polygon class="base" points="59 28 32 59 5 28 16 13 48 13 59 28" />
			<polyline opacity="0.4" class="base mix-blend-multiply" points="18 28 46 28 32 59" />
			<polygon opacity="0.4" class="base mix-blend-multiply" points="59 28 46 28 40 13 48 13 59 28" />
			<polygon class="primary " opacity="0.3" points="5 28 18 28 24 13 16 13 5 28" />
			<polyline opacity="0.1" class="primary" points="5 28 18 28 32 59" />
			<polyline class="base mix-blend-multiply" points="59 28 46 28 32 59" />
		</g>
	</g>
</svg>
