<svg xmlns="http://www.w3.org/2000/svg" viewBox="0 0 64 64">
	<defs>
		<style>
			.isolate{isolation:isolate;}.mix-blend-multiply{mix-blend-mode:multiply;}.base{fill:#00cfcf;}.primary{fill:#b7cde1;}
		</style>
	</defs>
	<g class="isolate">
		<g id="Layer_1" data-name="Layer 1">
			<g class="mix-blend-multiply">
				<path class="base" d="M5.13,60H28.87A1.13,1.13,0,0,0,30,58.87V35.13A1.13,1.13,0,0,0,28.87,34H22.19A6,6,0,0,0,20,25.79,6,6,0,0,0,11.8,28a6,6,0,0,0,0,6H5.13A1.13,1.13,0,0,0,4,35.13V58.87A1.13,1.13,0,0,0,5.13,60Z" />
			</g>
			<g class="mix-blend-multiply">
				<path class="primary" d="M60,58.87V35.13A1.13,1.13,0,0,0,58.87,34H35.13A1.13,1.13,0,0,0,34,35.13v6.68A6,6,0,0,0,25.79,44,6,6,0,0,0,28,52.2a6,6,0,0,0,6,0v6.68A1.13,1.13,0,0,0,35.13,60H58.87A1.13,1.13,0,0,0,60,58.87Z" />
			</g>
			<g class="mix-blend-multiply">
				<path class="base" d="M58.87,4H35.13A1.13,1.13,0,0,0,34,5.13V28.87A1.13,1.13,0,0,0,35.13,30h6.68A6,6,0,0,0,44,38.21,6,6,0,0,0,52.2,36a6,6,0,0,0,0-6h6.68A1.13,1.13,0,0,0,60,28.87V5.13A1.13,1.13,0,0,0,58.87,4Z" />
			</g>
			<g class="mix-blend-multiply">
				<path class="primary" d="M4,5.13V28.87A1.13,1.13,0,0,0,5.13,30H28.87A1.13,1.13,0,0,0,30,28.87V22.19A6,6,0,0,0,38.21,20,6,6,0,0,0,36,11.8a6,6,0,0,0-6,0V5.13A1.13,1.13,0,0,0,28.87,4H5.13A1.13,1.13,0,0,0,4,5.13Z" />
			</g>
		</g>
	</g>
</svg>
