<svg viewBox="0 0 64 64" fill="none" xmlns="http://www.w3.org/2000/svg">
    <defs>
        <style>
            .base {
                fill: #b7cde1;
            }

            .mix-blend-multiply {
                mix-blend-mode: multiply;
            }

            .primary {
                fill: #42cacd;
            }
        </style>
    </defs>
    <path
        d="M25.3333 29.3335V20.6668C25.3333 19.5623 26.2288 18.6668 27.3333 18.6668C28.4379 18.6668 29.3333 19.5623 29.3333 20.6668V29.3335H25.3333Z"
        fill="white"
    />
    <path
        d="M34.6667 29.3335V20.6668C34.6667 19.5623 35.5621 18.6668 36.6667 18.6668C37.7712 18.6668 38.6667 19.5623 38.6667 20.6668V29.3335H34.6667Z"
        fill="white"
    />
    <path
        d="M40.3262 25.9121H23.3351C21.8515 25.9121 20.4872 26.7252 19.7814 28.0302L10.1994 45.7449C9.88004 46.3353 9.71281 46.996 9.71281 47.6672V54.9494C9.71281 57.1808 11.5217 58.9897 13.7531 58.9897H50.2471C52.4785 58.9897 54.2874 57.1808 54.2874 54.9494V47.6972C54.2874 47.0069 54.1105 46.3281 53.7737 45.7256L43.8527 27.9808C43.1386 26.7034 41.7896 25.9121 40.3262 25.9121Z"
        class="base"
    />

    <g class="mix-blend-multiply">
        <circle cx="31.3333" cy="43.3335" r="10" class="primary" />
    </g>
    <g class="mix-blend-multiply">
        <path
            d="M25.3333 29.3335V20.6668C25.3333 19.5623 26.2288 18.6668 27.3333 18.6668C28.4379 18.6668 29.3333 19.5623 29.3333 20.6668V29.3335H25.3333Z"
            class="base"
        />
    </g>
    <g class="mix-blend-multiply">
        <path
            d="M34.6667 29.3335V20.6668C34.6667 19.5623 35.5621 18.6668 36.6667 18.6668C37.7712 18.6668 38.6667 19.5623 38.6667 20.6668V29.3335H34.6667Z"
            class="base"
        />
    </g>
    <path
        d="M14.5141 25.3884C11.6606 26.6508 8.74609 26.3864 6.56106 25.7095C4.90647 25.197 3.9068 23.565 4.069 21.8404C5.30812 8.66564 22.9305 6.21984 32.149 6.72776C54.1605 6.72776 59.7842 15.7614 59.9938 22.0288C60.0485 23.6627 58.9264 25.075 57.3676 25.5677C53.1702 26.8945 50.0261 25.8775 48.1008 24.5154C46.8825 23.6535 47.026 21.6329 46.962 20.1419C46.9188 19.1346 46.2739 18.6349 45.3674 18.1934C33.0553 12.1979 22.8634 15.3571 18.3857 18.2472C17.7489 18.6583 17.1582 19.5149 17.0444 20.2642C16.7295 22.3372 16.4315 24.5402 14.5141 25.3884Z"
        class="base"
    />
</svg>
