<svg viewBox="0 0 64 64" fill="none" xmlns="http://www.w3.org/2000/svg">
    <defs>
        <style>
            .base {
                fill: #cce4ff
            }

            .primary {
                fill: #fea442
            }

            .secondary {
                fill: #4652CE;
            }

            .tertiary {
                fill: #0D68FF;
            }

            .mix-blend-multiply {
                mix-blend-mode: multiply
            }
        </style>
    </defs>
    <path
        d="M46.0009 50C49.0083 49.9998 51.9226 48.9569 54.2473 47.049C56.572 45.1411 58.1633 42.4862 58.7501 39.5366C59.3369 36.587 58.8829 33.5252 57.4655 30.8728C56.0481 28.2204 53.7549 26.1415 50.9766 24.9903C48.1983 23.839 45.1068 23.6866 42.2287 24.559C39.3507 25.4315 36.8641 27.2748 35.1927 29.7749C33.5213 32.2751 32.7684 35.2774 33.0622 38.2703C33.3561 41.2633 34.6786 44.0619 36.8044 46.1891C39.2438 48.6279 42.5515 49.9986 46.0009 50Z"
        fill="white" />
    <rect x="26" y="28" width="3" height="22" rx="1.5" transform="rotate(90 26 28)" fill="white" />
    <rect x="20" y="35" width="3" height="16" rx="1.5" transform="rotate(90 20 35)" fill="white" />
    <path
        d="M24.89 4.67002L9.79 19.33C9.56582 19.5456 9.38876 19.8053 9.26999 20.0927C9.15123 20.3802 9.09335 20.6891 9.1 21V57.71C9.10076 58.0125 9.16222 58.3117 9.28074 58.59C9.39926 58.8683 9.57244 59.1199 9.79 59.33C10.2381 59.7624 10.8373 60.0028 11.46 60H46.74C47.3627 60.0028 47.9619 59.7624 48.41 59.33C48.6276 59.1199 48.8007 58.8683 48.9193 58.59C49.0378 58.3117 49.0992 58.0125 49.1 57.71V6.29002C49.0992 5.98756 49.0378 5.68833 48.9193 5.41006C48.8007 5.13179 48.6276 4.88014 48.41 4.67002C47.9619 4.23766 47.3627 3.99728 46.74 4.00002H26.57C26.2588 4.00024 25.9503 4.05787 25.66 4.17002C25.3746 4.28752 25.1135 4.45707 24.89 4.67002Z"
        fill="white" />
    <g class="mix-blend-multiply">
        <path
            d="M24.89 4.67002L9.79 19.33C9.56582 19.5456 9.38876 19.8053 9.26999 20.0927C9.15123 20.3802 9.09335 20.6891 9.1 21V57.71C9.10076 58.0125 9.16222 58.3117 9.28074 58.59C9.39926 58.8683 9.57244 59.1199 9.79 59.33C10.2381 59.7624 10.8373 60.0028 11.46 60H46.74C47.3627 60.0028 47.9619 59.7624 48.41 59.33C48.6276 59.1199 48.8007 58.8683 48.9193 58.59C49.0378 58.3117 49.0992 58.0125 49.1 57.71V6.29002C49.0992 5.98756 49.0378 5.68833 48.9193 5.41006C48.8007 5.13179 48.6276 4.88014 48.41 4.67002C47.9619 4.23766 47.3627 3.99728 46.74 4.00002H26.57C26.2588 4.00024 25.9503 4.05787 25.66 4.17002C25.3746 4.28752 25.1135 4.45707 24.89 4.67002Z"
            class="base" />
    </g>
    <g class="mix-blend-multiply">
        <path
            d="M24.41 5.14014V16.9001C24.4083 17.1578 24.3552 17.4126 24.2539 17.6495C24.1526 17.8864 24.0051 18.1008 23.82 18.2801C23.4379 18.6473 22.93 18.8548 22.4 18.8601H10.28L24.41 5.14014Z"
            class="tertiary" />
    </g>
    <g class="mix-blend-multiply">
        <rect x="26" y="28" width="3" height="22" rx="1.5" transform="rotate(90 26 28)" class="secondary" />
    </g>
    <g class="mix-blend-multiply">
        <rect x="20" y="35" width="3" height="16" rx="1.5" transform="rotate(90 20 35)" class="secondary" />
    </g>
    <g class="mix-blend-multiply">
        <path
            d="M46.0009 50C49.0083 49.9998 51.9226 48.9569 54.2473 47.049C56.572 45.1411 58.1633 42.4862 58.7501 39.5366C59.3369 36.587 58.8829 33.5252 57.4655 30.8728C56.0481 28.2204 53.7549 26.1415 50.9766 24.9903C48.1983 23.839 45.1068 23.6866 42.2287 24.559C39.3507 25.4315 36.8641 27.2748 35.1927 29.7749C33.5213 32.2751 32.7684 35.2774 33.0622 38.2703C33.3561 41.2633 34.6786 44.0619 36.8044 46.1891C39.2438 48.6279 42.5515 49.9986 46.0009 50Z"
            class="primary" />
    </g>
    <path
        d="M52.3217 30.0669H40.8V31.872H44.4326C46.1263 31.872 47.196 32.6966 47.4857 34.056H40.8V35.6383H47.4857C47.196 36.9978 46.104 37.8 44.4326 37.8H40.8V39.6052H44.6554L47.8868 45.6669H50.2268L46.7503 39.3155C48.3103 38.7583 49.3577 37.3989 49.6028 35.6383H52.3217V34.056H49.6028C49.4691 33.0978 49.0903 32.2955 48.4217 31.6492H52.3217V30.0669Z"
        fill="white" />
</svg>