<svg viewBox="0 0 64 64" fill="none" xmlns="http://www.w3.org/2000/svg">
    <defs>
        <style>
            .mix-blend-multiply {
                mix-blend-mode: multiply;
            }

            .base {
                fill: #B7CDE1
            }

            .primary {
                fill: #36A168
            }
        </style>
    </defs>
    <path fill-rule="evenodd" clip-rule="evenodd"
        d="M17.83 35.4299L19 38.3099C18.765 39.6455 18.2089 40.9039 17.3797 41.977C16.5506 43.05 15.4731 43.9056 14.24 44.4699L21 55.9999H17.8L11.49 45.1999H11.17H4.11V42.5799H11.17C12.4349 42.578 13.6637 42.1584 14.6655 41.3862C15.6674 40.6141 16.3861 39.5326 16.71 38.3099H4.16V35.6699H16.78C16.5094 34.3819 15.8044 33.2259 14.7831 32.3958C13.7618 31.5656 12.4862 31.1116 11.17 31.1099H4.11V28.4799V28.4199H14.83C14.9915 31.0297 16.0516 33.5031 17.83 35.4199V35.4299Z"
        fill="white" />
    <g class="mix-blend-multiply">
        <path fill-rule="evenodd" clip-rule="evenodd"
            d="M20.68 37.43C20.8182 37.1431 20.9417 36.8494 21.05 36.55C21.15 36.28 21.23 36.02 21.3 35.77L16.83 35.43C16.49 34.1 16.16 32.76 15.83 31.43H21.41C21.036 29.6266 20.1427 27.9719 18.84 26.67C18.5245 26.3569 18.1906 26.063 17.84 25.79C16.9297 25.1277 15.916 24.6208 14.84 24.29C15.17 22.68 15.5 21.07 15.84 19.46H36.92V23.8H21.52C23.5062 25.8896 24.7924 28.5459 25.2 31.4H36.92V35.77H25.13C24.8341 37.0345 24.3981 38.2621 23.83 39.43C23.65 39.78 23.47 40.12 23.29 40.43L20.68 37.43Z"
            class="primary" />
    </g>
    <path opacity="0.3"
        d="M31 41.4302C39.8366 41.4302 47 34.2667 47 25.4302C47 16.5936 39.8366 9.43018 31 9.43018C22.1634 9.43018 15 16.5936 15 25.4302C15 34.2667 22.1634 41.4302 31 41.4302Z"
        class="base" />
    <g class="mix-blend-multiply">
        <path fill-rule="evenodd" clip-rule="evenodd"
            d="M17.83 35.4299L19 38.3099C18.765 39.6455 18.2089 40.9039 17.3797 41.977C16.5506 43.05 15.4731 43.9056 14.24 44.4699L21 55.9999H17.8L11.49 45.1999H11.17H4.11V42.5799H11.17C12.4349 42.578 13.6637 42.1584 14.6655 41.3862C15.6674 40.6141 16.3861 39.5326 16.71 38.3099H4.16V35.6699H16.78C16.5094 34.3819 15.8044 33.2259 14.7831 32.3958C13.7618 31.5656 12.4862 31.1116 11.17 31.1099H4.11V28.4799V28.4199H14.83C14.9915 31.0297 16.0516 33.5031 17.83 35.4199V35.4299Z"
            class="primary" />
    </g>
    <path
        d="M58.41 49.77L45.78 37.14C48.7118 33.3836 50.1207 28.6606 49.7262 23.9119C49.3317 19.1632 47.1627 14.7374 43.6513 11.5163C40.1399 8.29518 35.5438 6.51516 30.7788 6.53086C26.0138 6.54657 21.4296 8.35686 17.9395 11.6011C14.4494 14.8453 12.3096 19.2853 11.9464 24.0364C11.5832 28.7876 13.0233 33.5013 15.9798 37.2382C18.9363 40.9752 23.1921 43.4612 27.8993 44.201C32.6066 44.9408 37.4198 43.88 41.38 41.23L54.17 54C54.3557 54.1859 54.5763 54.3335 54.8191 54.4341C55.0619 54.5348 55.3222 54.5866 55.585 54.5866C55.8478 54.5866 56.1081 54.5348 56.3509 54.4341C56.5937 54.3335 56.8143 54.1859 57 54L58.41 52.58C58.7795 52.2057 58.9866 51.7009 58.9866 51.175C58.9866 50.6491 58.7795 50.1443 58.41 49.77ZM15.18 25.43C15.18 22.3347 16.0979 19.3089 17.8175 16.7353C19.5371 14.1617 21.9813 12.1558 24.841 10.9713C27.7007 9.78676 30.8474 9.47684 33.8832 10.0807C36.919 10.6846 39.7075 12.1751 41.8962 14.3638C44.0849 16.5525 45.5754 19.341 46.1793 22.3768C46.7832 25.4126 46.4732 28.5593 45.2887 31.419C44.1042 34.2786 42.0983 36.7228 39.5247 38.4425C36.951 40.1621 33.9253 41.08 30.83 41.08C26.6794 41.08 22.6987 39.4312 19.7638 36.4962C16.8288 33.5613 15.18 29.5806 15.18 25.43Z"
        class="base" />
</svg>