<svg viewBox="0 0 64 64" fill="none" xmlns="http://www.w3.org/2000/svg">
    <defs>
        <style>
            .isolate {
                isolation: isolate;
            }

            .base {
                fill: #b7cde1;
            }

            .tertiary {
                fill: #79b2d6;
            }

            .mix-blend-multiply {
                mix-blend-mode: multiply;
            }

            .primary {
                fill: #36a168;
            }

            .secondary {
                fill: #feb452;
            }
        </style>
    </defs>
    <path d="M21 55.0714L5 59V7.92857L21 4V55.0714Z" class="base" />
    <path d="M52 55.0714L36 59V7.92857L52 4V55.0714Z" class="base" />
    <path d="M36 59L21 55.0714V4L36 7.92857V59Z" class="base" />
    <path
        d="M55 6.99988C54.3513 6.99195 53.7073 7.11189 53.1049 7.35286C52.5025 7.59382 51.9535 7.95108 51.4892 8.40424C51.0249 8.8574 50.6544 9.39758 50.3989 9.99393C50.1434 10.5903 50.0078 11.2311 50 11.8799C50 14.5699 54 19.9999 55 19.9999C56 19.9999 60 14.5699 60 11.8799C59.9922 11.2311 59.8566 10.5903 59.6011 9.99393C59.3456 9.39758 58.9751 8.8574 58.5108 8.40424C58.0465 7.95108 57.4975 7.59382 56.8951 7.35286C56.2927 7.11189 55.6487 6.99195 55 6.99988ZM55 15.1199C54.3604 15.1041 53.7397 14.9 53.2157 14.533C52.6917 14.166 52.2876 13.6525 52.0541 13.0568C51.8207 12.4612 51.7682 11.8099 51.9033 11.1845C52.0384 10.5592 52.3551 9.98765 52.8136 9.54151C53.2721 9.09536 53.8522 8.79447 54.481 8.67655C55.1098 8.55863 55.7594 8.62891 56.3484 8.8786C56.9374 9.12829 57.4397 9.54627 57.7922 10.0802C58.1447 10.6141 58.3318 11.2401 58.33 11.8799C58.3248 12.3115 58.2344 12.7378 58.0641 13.1344C57.8938 13.531 57.6469 13.8901 57.3376 14.1911C57.0282 14.4921 56.6625 14.7291 56.2613 14.8885C55.8602 15.0479 55.4316 15.1265 55 15.1199Z"
        fill="white"
    />
    <g class="mix-blend-multiply">
        <path
            d="M55 6.99988C54.3513 6.99195 53.7073 7.11189 53.1049 7.35286C52.5025 7.59382 51.9535 7.95108 51.4892 8.40424C51.0249 8.8574 50.6544 9.39758 50.3989 9.99393C50.1434 10.5903 50.0078 11.2311 50 11.8799C50 14.5699 54 19.9999 55 19.9999C56 19.9999 60 14.5699 60 11.8799C59.9922 11.2311 59.8566 10.5903 59.6011 9.99393C59.3456 9.39758 58.9751 8.8574 58.5108 8.40424C58.0465 7.95108 57.4975 7.59382 56.8951 7.35286C56.2927 7.11189 55.6487 6.99195 55 6.99988ZM55 15.1199C54.3604 15.1041 53.7397 14.9 53.2157 14.533C52.6917 14.166 52.2876 13.6525 52.0541 13.0568C51.8207 12.4612 51.7682 11.8099 51.9033 11.1845C52.0384 10.5592 52.3551 9.98765 52.8136 9.54151C53.2721 9.09536 53.8522 8.79447 54.481 8.67655C55.1098 8.55863 55.7594 8.62891 56.3484 8.8786C56.9374 9.12829 57.4397 9.54627 57.7922 10.0802C58.1447 10.6141 58.3318 11.2401 58.33 11.8799C58.3248 12.3115 58.2344 12.7378 58.0641 13.1344C57.8938 13.531 57.6469 13.8901 57.3376 14.1911C57.0282 14.4921 56.6625 14.7291 56.2613 14.8885C55.8602 15.0479 55.4316 15.1265 55 15.1199Z"
            class="primary"
        />
    </g>
    <g class="mix-blend-multiply">
        <path
            d="M11.875 34.4463C11.0936 34.4463 10.3441 34.7567 9.79158 35.3093C9.23902 35.8619 8.92859 36.6113 8.92859 37.3927C8.92859 39.0231 11.2857 42.3034 11.875 42.3034C12.4643 42.3034 14.8214 39.0231 14.8214 37.3927C14.8214 36.6113 14.511 35.8619 13.9584 35.3093C13.4059 34.7567 12.6564 34.4463 11.875 34.4463ZM11.875 39.357C11.4865 39.357 11.1068 39.2418 10.7837 39.0259C10.4607 38.8101 10.2089 38.5033 10.0603 38.1444C9.91159 37.7855 9.87268 37.3906 9.94848 37.0095C10.0243 36.6285 10.2113 36.2785 10.4861 36.0038C10.7608 35.7291 11.1108 35.542 11.4918 35.4661C11.8729 35.3904 12.2678 35.4293 12.6267 35.5779C12.9856 35.7266 13.2924 35.9784 13.5082 36.3015C13.7241 36.6245 13.8393 37.0042 13.8393 37.3927C13.8393 37.9136 13.6324 38.4133 13.264 38.7817C12.8956 39.1501 12.3959 39.357 11.875 39.357Z"
            class="secondary"
        />
    </g>
    <g class="mix-blend-multiply">
        <g class="mix-blend-multiply">
            <path
                fill-rule="evenodd"
                clip-rule="evenodd"
                d="M13.3044 42.9319C13.3695 43.1952 13.2089 43.4613 12.9456 43.5264L11.993 43.7622C11.7296 43.8274 11.4635 43.6667 11.3983 43.4035C11.3332 43.1402 11.4937 42.8739 11.757 42.8088L12.7097 42.5731C12.973 42.508 13.2392 42.6685 13.3044 42.9319Z"
                class="tertiary"
            />
        </g>
        <g class="mix-blend-multiply">
            <path
                fill-rule="evenodd"
                clip-rule="evenodd"
                d="M52.6959 21.0706C52.7658 21.3326 52.6102 21.6017 52.3481 21.6717L51.3758 21.9313C51.1138 22.0013 50.8447 21.8457 50.7746 21.5836C50.7047 21.3216 50.8604 21.0524 51.1224 20.9825L52.0947 20.7228C52.3568 20.6529 52.6259 20.8085 52.6959 21.0706ZM19.4108 21.2528C19.4376 20.983 19.6782 20.7859 19.948 20.8128C20.236 20.8414 20.537 20.9066 20.8512 21.0102L21.8008 21.2475C22.064 21.3132 22.2239 21.5799 22.1581 21.843C22.0923 22.1061 21.8257 22.2661 21.5626 22.2003L20.5769 21.9539L20.559 21.9479C20.2991 21.8613 20.0636 21.8113 19.8509 21.7901C19.581 21.7633 19.384 21.5227 19.4108 21.2528ZM18.7138 21.4015C18.8667 21.6255 18.8092 21.931 18.5853 22.084C18.2317 22.3255 17.9463 22.7049 17.731 23.1767C17.6184 23.4234 17.3271 23.5321 17.0804 23.4195C16.8336 23.3069 16.7249 23.0156 16.8375 22.7689C17.1023 22.1887 17.4874 21.6447 18.0313 21.2731C18.2552 21.1201 18.5607 21.1776 18.7138 21.4015ZM49.7789 21.8495C49.8489 22.1115 49.6932 22.3806 49.4312 22.4507L47.4865 22.9699C47.2245 23.04 46.9554 22.8843 46.8854 22.6222C46.8154 22.3602 46.9711 22.091 47.2331 22.0211L49.1778 21.5017C49.4398 21.4318 49.7089 21.5875 49.7789 21.8495ZM23.1401 22.0886C23.2059 21.8254 23.4725 21.6654 23.7357 21.7312L25.6705 22.215C25.9336 22.2807 26.0936 22.5473 26.0278 22.8104C25.962 23.0735 25.6953 23.2335 25.4322 23.1677L23.4974 22.684C23.2343 22.6182 23.0744 22.3517 23.1401 22.0886ZM45.8897 22.8881C45.9596 23.1502 45.8039 23.4193 45.5419 23.4893L43.5972 24.0085C43.3352 24.0786 43.0661 23.9229 42.9961 23.6609C42.9261 23.3988 43.0818 23.1296 43.3438 23.0597L45.2885 22.5403C45.5505 22.4704 45.8196 22.6261 45.8897 22.8881ZM27.0097 23.056C27.0755 22.7928 27.3422 22.6329 27.6053 22.6987L29.5401 23.1824C29.8032 23.2481 29.9632 23.5147 29.8974 23.7778C29.8316 24.041 29.565 24.2009 29.3019 24.1351L27.367 23.6514C27.1039 23.5856 26.944 23.3191 27.0097 23.056ZM42.0004 23.9267C42.0703 24.1888 41.9146 24.4579 41.6526 24.5279L39.708 25.0472C39.4459 25.1172 39.1768 24.9615 39.1068 24.6995C39.0369 24.4374 39.1925 24.1682 39.4546 24.0983L41.3992 23.579C41.6612 23.509 41.9303 23.6647 42.0004 23.9267ZM30.8794 24.0234C30.9452 23.7603 31.2118 23.6003 31.4749 23.6661L33.4098 24.1498C33.6729 24.2155 33.8329 24.4821 33.7671 24.7452C33.7013 25.0084 33.4346 25.1684 33.1715 25.1026L31.2367 24.6188C30.9736 24.553 30.8137 24.2865 30.8794 24.0234ZM16.9053 24.0911C17.1743 24.1265 17.3635 24.3731 17.3282 24.642C17.2931 24.9083 17.2768 25.1684 17.2768 25.4107C17.2768 25.7182 17.2769 26.038 17.2912 26.3686C17.303 26.6396 17.0929 26.8687 16.822 26.8805C16.551 26.8923 16.3218 26.6822 16.31 26.4113C16.2947 26.0577 16.2947 25.7187 16.2947 25.4148V25.4107C16.2947 25.1252 16.3138 24.8223 16.3544 24.514C16.3897 24.245 16.6364 24.0557 16.9053 24.0911ZM38.1111 24.9653C38.181 25.2274 38.0253 25.4965 37.7633 25.5665L36.7822 25.8286C36.55 25.8859 36.3072 25.8858 36.075 25.8285L36.0737 25.8282L35.1063 25.5863C34.8432 25.5205 34.6833 25.2539 34.749 24.9908C34.8148 24.7277 35.0815 24.5677 35.3446 24.6335L36.3107 24.875C36.3109 24.875 36.3106 24.875 36.3107 24.875C36.3867 24.8937 36.4666 24.894 36.5428 24.8759L37.5099 24.6176C37.772 24.5476 38.0411 24.7033 38.1111 24.9653ZM16.9621 27.8509C17.2192 27.7647 17.4976 27.9032 17.5838 28.1605C17.7611 28.6891 18.0393 29.1873 18.4783 29.6194C18.6716 29.8097 18.6741 30.1206 18.4838 30.3139C18.2936 30.5072 17.9828 30.5096 17.7894 30.3194C17.2231 29.7619 16.8708 29.1232 16.6526 28.4726C16.5664 28.2155 16.705 27.9371 16.9621 27.8509ZM19.3237 30.8253C19.4237 30.5732 19.7091 30.4498 19.9612 30.5498C20.2231 30.6537 20.5129 30.7469 20.8334 30.8271L21.8156 31.0726C22.0787 31.1384 22.2387 31.4051 22.1729 31.6682C22.1071 31.9313 21.8404 32.0912 21.5773 32.0255L20.5952 31.7799C20.2359 31.6901 19.9045 31.5839 19.5991 31.4628C19.347 31.3628 19.2237 31.0774 19.3237 30.8253ZM23.1843 31.921C23.2501 31.6579 23.5167 31.4979 23.7799 31.5637L25.7441 32.0547C26.0073 32.1206 26.1672 32.3872 26.1014 32.6503C26.0356 32.9134 25.769 33.0733 25.5059 33.0076L23.5416 32.5166C23.2785 32.4507 23.1186 32.1841 23.1843 31.921ZM27.1129 32.9031C27.1787 32.64 27.4453 32.48 27.7084 32.5458L29.6727 33.0369C29.9358 33.1027 30.0958 33.3693 30.03 33.6325C29.9642 33.8956 29.6976 34.0555 29.4344 33.9898L27.4702 33.4987C27.207 33.4329 27.0472 33.1662 27.1129 32.9031ZM31.0414 33.8853C31.1072 33.6222 31.3739 33.4622 31.637 33.528L33.6013 34.019C33.8644 34.0848 34.0244 34.3515 33.9586 34.6146C33.8928 34.8777 33.6261 35.0376 33.363 34.9719L31.3987 34.4808C31.1356 34.415 30.9757 34.1484 31.0414 33.8853ZM34.97 34.8674C35.0358 34.6043 35.3025 34.4443 35.5656 34.5101L36.5477 34.7556C36.907 34.8455 37.2384 34.9517 37.5438 35.0728C37.7959 35.1728 37.9193 35.4582 37.8193 35.7103C37.7192 35.9624 37.4338 36.0858 37.1817 35.9858C36.9197 35.8819 36.6301 35.7887 36.3094 35.7085L35.3273 35.463C35.0642 35.3972 34.9043 35.1305 34.97 34.8674ZM38.659 36.2217C38.8493 36.0284 39.1602 36.0259 39.3535 36.2162C39.9198 36.7736 40.2721 37.4123 40.4902 38.0629C40.5765 38.3201 40.4379 38.5985 40.1808 38.6846C39.9236 38.7708 39.6453 38.6323 39.5591 38.3751C39.3818 37.8463 39.1035 37.3483 38.6645 36.9162C38.4712 36.7259 38.4688 36.415 38.659 36.2217ZM40.321 39.6551C40.5919 39.6433 40.8211 39.8534 40.8329 40.1243C40.8482 40.4779 40.8482 40.8169 40.8482 41.1208V41.1249C40.8482 41.4103 40.8291 41.7132 40.7885 42.0216C40.7532 42.2905 40.5064 42.4798 40.2375 42.4444C39.9687 42.4091 39.7794 42.1624 39.8148 41.8936C39.8498 41.6273 39.8661 41.3671 39.8661 41.1249C39.8661 40.8173 39.866 40.4975 39.8516 40.167C39.8399 39.896 40.05 39.6667 40.321 39.6551ZM20.8316 41.6604C20.7543 41.6414 20.6736 41.6414 20.5964 41.6606L20.5949 41.661L19.8742 41.8365C19.6107 41.9007 19.345 41.7392 19.2809 41.4757C19.2166 41.2122 19.3782 40.9465 19.6417 40.8822L20.3607 40.7071C20.361 40.707 20.3604 40.7072 20.3607 40.7071C20.5927 40.65 20.836 40.6498 21.0679 40.7071L21.0691 40.7074L22.0366 40.9493C22.2997 41.015 22.4597 41.2817 22.3939 41.5448C22.3281 41.8079 22.0614 41.9679 21.7983 41.9021L20.8316 41.6604C20.8318 41.6605 20.8313 41.6604 20.8316 41.6604ZM18.7938 41.5943C18.8579 41.8578 18.6964 42.1235 18.4329 42.1876L16.9916 42.5387C16.7281 42.603 16.4624 42.4414 16.3983 42.1779C16.334 41.9144 16.4956 41.6487 16.7591 41.5845L18.2004 41.2334C18.4639 41.1692 18.7296 41.3308 18.7938 41.5943ZM23.3758 41.7903C23.4416 41.5272 23.7083 41.3672 23.9714 41.433L25.9062 41.9167C26.1693 41.9824 26.3293 42.2491 26.2635 42.5122C26.1977 42.7753 25.931 42.9353 25.6679 42.8695L23.7331 42.3858C23.47 42.32 23.3101 42.0535 23.3758 41.7903ZM15.9112 42.2965C15.9754 42.56 15.8138 42.8257 15.5503 42.8898L14.8297 43.0655C14.5662 43.1296 14.3005 42.968 14.2363 42.7045C14.1721 42.441 14.3337 42.1754 14.5972 42.1112L15.3178 41.9356C15.5813 41.8715 15.847 42.033 15.9112 42.2965ZM27.2454 42.7577C27.3112 42.4946 27.5779 42.3346 27.841 42.4004L29.7758 42.8841C30.039 42.9499 30.1989 43.2165 30.1331 43.4796C30.0673 43.7427 29.8007 43.9027 29.5376 43.8369L27.6027 43.3532C27.3396 43.2874 27.1797 43.0209 27.2454 42.7577ZM40.0625 43.116C40.3092 43.2287 40.4179 43.52 40.3054 43.7667C40.0406 44.3469 39.6555 44.8909 39.1117 45.2625C38.8878 45.4154 38.5821 45.358 38.4292 45.134C38.2762 44.9101 38.3336 44.6046 38.5576 44.4516C38.9111 44.2099 39.1966 43.8306 39.4118 43.3589C39.5245 43.1122 39.8158 43.0035 40.0625 43.116ZM31.1151 43.7252C31.1809 43.462 31.4475 43.3021 31.7107 43.3679L33.6455 43.8516C33.9086 43.9173 34.0686 44.1839 34.0028 44.447C33.937 44.7102 33.6703 44.8701 33.4072 44.8043L31.4724 44.3206C31.2093 44.2548 31.0494 43.9883 31.1151 43.7252ZM34.9847 44.6926C35.0505 44.4295 35.3172 44.2695 35.5803 44.3353L36.566 44.5817L36.5839 44.5876C36.8437 44.6742 37.0792 44.7243 37.292 44.7454C37.5619 44.7723 37.7589 45.0128 37.7321 45.2827C37.7053 45.5526 37.4647 45.7497 37.1948 45.7227C36.9069 45.6942 36.6059 45.6288 36.2917 45.5254L35.342 45.288C35.0789 45.2222 34.919 44.9557 34.9847 44.6926Z"
                class="tertiary"
            />
        </g>
        <g class="mix-blend-multiply">
            <path
                fill-rule="evenodd"
                clip-rule="evenodd"
                d="M54.7977 20.5691C54.8679 20.8311 54.7125 21.1004 54.4505 21.1706L53.4979 21.426C53.2358 21.4962 52.9666 21.3407 52.8964 21.0788C52.8262 20.8167 52.9815 20.5475 53.2436 20.4773L54.1963 20.222C54.4582 20.1517 54.7275 20.3071 54.7977 20.5691Z"
                class="tertiary"
            />
        </g>
    </g>
</svg>
