<svg width="64" height="64" viewBox="0 0 64 64" fill="none" xmlns="http://www.w3.org/2000/svg">
    <defs>
        <style>
            .mix-blend-multiply {
                mix-blend-mode: multiply;
            }

            .base {
                fill: #B7CDE1;
            }

            .primary {
                fill: #FEB452;
            }
        </style>
    </defs>
    <path
        d="M32 38C41.3888 38 49 30.3888 49 21C49 11.6112 41.3888 4 32 4C22.6112 4 15 11.6112 15 21C15 30.3888 22.6112 38 32 38Z"
        fill="white" />
    <path
        d="M36.24 59.0902C35.94 59.5502 35.61 59.4802 35.52 58.9402L30.94 33.0602C30.9102 32.9375 30.9095 32.8096 30.938 32.6866C30.9664 32.5636 31.0232 32.4489 31.1038 32.3518C31.1845 32.2546 31.2867 32.1777 31.4024 32.127C31.518 32.0764 31.6439 32.0535 31.77 32.0602H42.08C42.3597 32.069 42.628 32.1728 42.8407 32.3546C43.0535 32.5364 43.1978 32.7853 43.25 33.0602L47.83 58.9402C47.92 59.4802 47.62 59.6802 47.16 59.3802L40.22 54.9002C40.1099 54.8275 39.9864 54.7772 39.8568 54.7524C39.7271 54.7276 39.5938 54.7287 39.4646 54.7557C39.3354 54.7826 39.2128 54.8349 39.1039 54.9095C38.9949 54.9841 38.9019 55.0795 38.83 55.1902L36.24 59.0902Z"
        class="base" />
    <path
        d="M27.65 59.1702C28.01 59.5902 28.39 59.4802 28.48 58.9402L33.06 33.0602C33.0898 32.9375 33.0905 32.8096 33.062 32.6866C33.0336 32.5636 32.9768 32.4489 32.8962 32.3518C32.8155 32.2546 32.7133 32.1777 32.5976 32.127C32.482 32.0764 32.3561 32.0535 32.23 32.0602H21.92C21.6403 32.069 21.372 32.1728 21.1593 32.3546C20.9466 32.5364 20.8022 32.7853 20.75 33.0602L16.17 58.9402C16.08 59.4802 16.36 59.6502 16.8 59.3202L22.59 55.0002C22.8072 54.8377 23.0771 54.762 23.3471 54.7879C23.617 54.8138 23.8677 54.9394 24.05 55.1402L27.65 59.1702Z"
        class="base" />
    <g class="mix-blend-multiply">
        <path
            d="M32 38C41.3888 38 49 30.3888 49 21C49 11.6112 41.3888 4 32 4C22.6112 4 15 11.6112 15 21C15 30.3888 22.6112 38 32 38Z"
            class="primary" />
    </g>
    <g class="mix-blend-multiply">
        <path
            d="M31.56 12.3901C31.8 11.8901 32.2 11.8901 32.44 12.3901L34.65 16.8501C34.8022 17.11 35.0088 17.3339 35.2556 17.5065C35.5025 17.6791 35.7837 17.7963 36.08 17.8501L41.01 18.5701C41.55 18.6501 41.68 19.0301 41.28 19.4101L37.72 22.8901C37.5128 23.1141 37.3565 23.3801 37.2615 23.6701C37.1666 23.96 37.1354 24.267 37.17 24.5701L38 29.5201C38.09 30.0701 37.77 30.3001 37.29 30.0501L32.88 27.7301C32.6009 27.6018 32.2972 27.5353 31.99 27.5353C31.6827 27.5353 31.3791 27.6018 31.1 27.7301L26.7 30.0501C26.22 30.3001 25.9 30.0501 25.99 29.5201L26.83 24.6101C26.8646 24.307 26.8334 24 26.7385 23.7101C26.6435 23.4201 26.4872 23.1541 26.28 22.9301L22.72 19.4501C22.32 19.0701 22.45 18.6901 22.99 18.6101L27.92 17.8901C28.2163 17.8363 28.4975 17.7191 28.7444 17.5465C28.9912 17.3739 29.1978 17.15 29.35 16.8901L31.56 12.3901Z"
            class="primary" />
    </g>
</svg>