<svg id="Layer_1" data-name="Layer 1" xmlns="http://www.w3.org/2000/svg" viewBox="0 0 64 64">
    <defs>
        <style>
            .base {
                fill: #b7cde1;
            }

            .primary {
                fill: #42cacd;
            }

            .mix-blend-multiply {
                mix-blend-mode: multiply;
            }
        </style>
    </defs>
    <path
        fill="white"
        d="M46.1,19H1.9a1.74,1.74,0,0,0-1.26.36A1.76,1.76,0,0,0,0,20.5a1.76,1.76,0,0,0,.64,1.14A1.74,1.74,0,0,0,1.9,22H46.1a1.74,1.74,0,0,0,1.26-.36A1.76,1.76,0,0,0,48,20.5a1.76,1.76,0,0,0-.64-1.14A1.74,1.74,0,0,0,46.1,19Z"
    />
    <path
        fill="white"
        d="M34.05,28H2a1.77,1.77,0,0,0-1.31.34A1.8,1.8,0,0,0,0,29.5a1.8,1.8,0,0,0,.69,1.16A1.77,1.77,0,0,0,2,31H34.1A1.76,1.76,0,0,0,36,29.5a1.8,1.8,0,0,0-.67-1.14A1.77,1.77,0,0,0,34.05,28Z"
    />
    <path
        class="base"
        d="M61.73,8.12H6.3a2.4,2.4,0,0,0-1.63.65,2.19,2.19,0,0,0-.49.72,2.09,2.09,0,0,0-.18.85V55.8l15-8.42H61.73a2.32,2.32,0,0,0,1.61-.62A2.19,2.19,0,0,0,64,45.21V10.34a2.26,2.26,0,0,0-.17-.85,2.3,2.3,0,0,0-2.13-1.37Z"
    />
    <path
        class="primary mix-blend-multiply"
        d="M46.1,19H1.9a1.74,1.74,0,0,0-1.26.36A1.76,1.76,0,0,0,0,20.5a1.76,1.76,0,0,0,.64,1.14A1.74,1.74,0,0,0,1.9,22H46.1a1.74,1.74,0,0,0,1.26-.36A1.76,1.76,0,0,0,48,20.5a1.76,1.76,0,0,0-.64-1.14A1.74,1.74,0,0,0,46.1,19Z"
    />
    <path
        class="primary mix-blend-multiply"
        d="M34.05,28H2a1.77,1.77,0,0,0-1.31.34A1.8,1.8,0,0,0,0,29.5a1.8,1.8,0,0,0,.69,1.16A1.77,1.77,0,0,0,2,31H34.1A1.76,1.76,0,0,0,36,29.5a1.8,1.8,0,0,0-.67-1.14A1.77,1.77,0,0,0,34.05,28Z"
    />
</svg>
