<svg viewBox="0 0 64 64" fill="none" xmlns="http://www.w3.org/2000/svg">
    <defs>
        <style>
            .base {
                fill: #b7cde1;
            }

            .mix-blend-multiply {
                mix-blend-mode: multiply;
            }

            .primary {
                fill: #42CACD;
            }

            .secondary {
                fill: #FEB452
            }
        </style>
    </defs>
    <rect x="11" y="59.498" width="10" height="3" rx="1.5" transform="rotate(-58.1885 11 59.498)" fill="white" />
    <rect width="10" height="3" rx="1.5" transform="matrix(-0.527127 -0.849786 -0.849786 0.527127 52.8207 59.498)"
        fill="white" />
    <g class="mix-blend-multiply">
        <rect width="10" height="3" rx="1.5" transform="matrix(-0.527127 -0.849786 -0.849786 0.527127 52.8207 59.498)"
            class="base" />
    </g>
    <g class="mix-blend-multiply">
        <rect x="11" y="59.498" width="10" height="3" rx="1.5" transform="rotate(-58.1885 11 59.498)" class="base" />
    </g>
    <g class="mix-blend-multiply">
        <rect width="10" height="3" rx="1.5" transform="matrix(-0.527127 -0.849786 -0.849786 0.527127 52.8207 59.498)"
            class="base" />
    </g>
    <g class="mix-blend-multiply">
        <rect x="11" y="59.498" width="10" height="3" rx="1.5" transform="rotate(-58.1885 11 59.498)" class="base" />
    </g>
    <path
        d="M10.4317 10.6483C11.0901 6.8076 14.42 4 18.3167 4H45.6833C49.58 4 52.9099 6.8076 53.5683 10.6483L59.3968 44.6483C60.2347 49.5355 56.4704 54 51.5119 54H12.4881C7.52961 54 3.76534 49.5355 4.60315 44.6483L10.4317 10.6483Z"
        class="base" />
    <g class="mix-blend-multiply">
        <path
            d="M14.2261 11.8129C14.3159 11.3412 14.7283 11 15.2084 11H48.7915C49.2717 11 49.684 11.3412 49.7739 11.8129L53.7739 32.8129C53.8913 33.4291 53.4189 34 52.7915 34H11.2085C10.5811 34 10.1087 33.4291 10.2261 32.8129L14.2261 11.8129Z"
            class="primary" />
    </g>
    <g class="mix-blend-multiply">
        <circle cx="44" cy="44" r="4" class="secondary" />
    </g>
    <g class="mix-blend-multiply">
        <circle cx="19" cy="44" r="4" class="secondary" />
    </g>
</svg>