<svg viewBox="0 0 64 64" fill="none" xmlns="http://www.w3.org/2000/svg">
    <defs>
        <style>
            .base {
                fill: #b7cde1;
            }

            .mix-blend-multiply {
                mix-blend-mode: multiply;
            }

            .primary {
                fill: #42cacd;
            }
        </style>
    </defs>
    <rect x="14.6667" y="4" width="36" height="56" rx="2.66667" class="base" />
    <g class="mix-blend-multiply">
        <path
            d="M35.8557 17.3336H29.6632C29.4704 17.3301 29.2826 17.3947 29.1327 17.5161C28.9829 17.6375 28.8807 17.8078 28.8441 17.9971L26.6816 29.2682C26.6584 29.388 26.6623 29.5114 26.6929 29.6296C26.7235 29.7477 26.7802 29.8575 26.8587 29.9509C26.9372 30.0443 27.0356 30.119 27.1467 30.1695C27.2577 30.2201 27.3787 30.2451 27.5007 30.2429H34.3076L32.3908 38.5651C32.3862 38.5838 32.3883 38.6035 32.3967 38.6209C32.4052 38.6382 32.4195 38.6519 32.4371 38.6598C32.4547 38.6676 32.4745 38.669 32.493 38.6636C32.5115 38.6583 32.5275 38.6466 32.5383 38.6306L38.8946 27.5808C38.9667 27.456 39.0045 27.3145 39.0044 27.1704C39.0042 27.0263 38.9661 26.8849 38.8938 26.7602C38.8215 26.6356 38.7177 26.5323 38.5927 26.4606C38.4677 26.389 38.3261 26.3515 38.182 26.3521H33.2018L36.6093 18.4804C36.6638 18.3555 36.6863 18.219 36.6747 18.0833C36.6632 17.9475 36.6179 17.8168 36.5431 17.7029C36.4683 17.589 36.3662 17.4956 36.2462 17.4312C36.1262 17.3667 35.992 17.3332 35.8557 17.3336Z"
            class="primary"
        />
    </g>
    <g class="mix-blend-multiply">
        <circle cx="32" cy="54.6667" r="2.66667" class="base" />
    </g>
    <g class="mix-blend-multiply">
        <circle cx="32" cy="54.6667" r="2.66667" class="base" />
    </g>
</svg>
