<svg xmlns="http://www.w3.org/2000/svg" viewBox="0 0 64 64">
    <defs>
        <style>
            .isolate {
                isolation: isolate;
            }

            .base {
                fill: #b7cde1;
            }

            .mix-blend-multiply {
                mix-blend-mode: multiply;
            }

            .primary {
                fill: #42cacd;
            }

            .secondary {
                fill: #feb452;
            }
        </style>
    </defs>
    <g class="isolate">
        <g id="Layer_1" data-name="Layer 1">
            <rect fill="none" width="64" height="64" />
            <path
                class="mix-blend-multiply base"
                d="M45.5,0h-35A2.64,2.64,0,0,0,8.73.67a2.17,2.17,0,0,0-.54.73A2.26,2.26,0,0,0,8,2.29V61.71a2.26,2.26,0,0,0,.19.89,2.17,2.17,0,0,0,.54.73A2.64,2.64,0,0,0,10.5,64h35a2.64,2.64,0,0,0,1.77-.67,2.17,2.17,0,0,0,.54-.73,2.26,2.26,0,0,0,.19-.89V2.29a2.26,2.26,0,0,0-.19-.89,2.17,2.17,0,0,0-.54-.73A2.64,2.64,0,0,0,45.5,0Z"
            />
            <g class="mix-blend-multiply">
                <path
                    class="base"
                    d="M37,6H13c-.57,0-1,.67-1,1.5v9c0,.83.47,1.5,1,1.5H37c.57,0,1-.67,1-1.5v-9C38,6.67,37.53,6,37,6Z"
                />
            </g>
            <g class="mix-blend-multiply">
                <path
                    class="base"
                    d="M36,38H13c-.55,0-1,.67-1,1.5v9c0,.83.45,1.5,1,1.5H36c.55,0,1-.67,1-1.5v-9C37,38.67,36.55,38,36,38Z"
                />
            </g>
            <g class="mix-blend-multiply">
                <path
                    class="primary"
                    d="M43,22H20c-.55,0-1,.67-1,1.5v9c0,.83.45,1.5,1,1.5H43c.55,0,1-.67,1-1.5v-9C44,22.67,43.55,22,43,22Z"
                />
            </g>
            <g class="mix-blend-multiply">
                <path class="base" d="M30,56H26a2,2,0,0,0,0,4h4a2,2,0,0,0,0-4Z" />
            </g>
            <path
                class="secondary"
                d="M60.23,33H49.35c-1.18,0-.87-1.52.3-1.52l.59-5.5a4.05,4.05,0,0,1,.45-1.52,4.1,4.1,0,0,1,1-1.23A5.38,5.38,0,0,1,54.94,22a5.19,5.19,0,0,1,3.31,1.19,3.79,3.79,0,0,1,1,1.25,3.72,3.72,0,0,1,.4,1.56l.58,5.5a1,1,0,0,1,.55.25.63.63,0,0,1,.16.23.64.64,0,0,1,0,.54.63.63,0,0,1-.16.23A1,1,0,0,1,60.23,33Z"
            />
            <path
                class="secondary"
                d="M54.94,34a1,1,0,0,0,.5-.24,1,1,0,0,0,.29-.48,1.06,1.06,0,0,0,0-.56,1.14,1.14,0,0,0-.31-.47,1,1,0,0,0-.51-.23,1.14,1.14,0,0,0-.55.08,1.09,1.09,0,0,0-.43.37,1,1,0,0,0-.16.53,1.11,1.11,0,0,0,.38.74A1.08,1.08,0,0,0,54.94,34Z"
            />
            <path class="secondary" d="M55.9,21.36a1,1,0,1,0-1.94,0v1.07a1,1,0,0,0,1.94,0Z" />
        </g>
    </g>
</svg>
