<svg xmlns="http://www.w3.org/2000/svg" xmlns:xlink="http://www.w3.org/1999/xlink" viewBox="0 0 64 64">
    <defs>
        <style>
            .isolate {
                isolation: isolate;
            }

            .base {
                fill: #b7cde1;
            }

            .mix-blend-multiply {
                mix-blend-mode: multiply;
            }

            .primary {
                fill: #0081ff;
            }
        </style>
    </defs>
    <g class="isolate">
        <g id="Layer_1" data-name="Layer 1">
            <g clip-path="url(#clip-path)">
                <path
                    class="base"
                    d="M46.5,0h-35A2.64,2.64,0,0,0,9.73.67a2.17,2.17,0,0,0-.54.73A2.26,2.26,0,0,0,9,2.29V61.71a2.26,2.26,0,0,0,.19.89,2.17,2.17,0,0,0,.54.73A2.64,2.64,0,0,0,11.5,64h35a2.64,2.64,0,0,0,1.77-.67,2.17,2.17,0,0,0,.54-.73,2.26,2.26,0,0,0,.19-.89V2.29a2.26,2.26,0,0,0-.19-.89,2.17,2.17,0,0,0-.54-.73A2.64,2.64,0,0,0,46.5,0Z"
                />
                <path
                    opacity="0.4"
                    fill="#ffffff"
                    d="M43.86,4H14.14a1.14,1.14,0,0,0-.8.33,1.1,1.1,0,0,0-.34.8V54.87a1.1,1.1,0,0,0,.34.8,1.14,1.14,0,0,0,.8.33H43.86a1.14,1.14,0,0,0,.8-.33,1.1,1.1,0,0,0,.34-.8V5.13a1.1,1.1,0,0,0-.34-.8A1.14,1.14,0,0,0,43.86,4Z"
                />
                <g class="mix-blend-multiply">
                    <path class="base" d="M27,57h3a2,2,0,0,1,0,4H27a2,2,0,0,1,0-4Z" />
                </g>
                <path
                    d="M33.57 38.3703L24.65 33.2003C24.5019 33.1279 24.3709 33.0249 24.2658 32.898C24.1606 32.7711 24.0837 32.6232 24.0402 32.4643C23.9967 32.3053 23.9875 32.1389 24.0134 31.9761C24.0392 31.8133 24.0994 31.6579 24.19 31.5203C24.3017 31.3355 24.4604 31.1836 24.65 31.0803L33.57 25.8803C33.7634 25.7752 33.9799 25.7202 34.2 25.7202C34.4201 25.7202 34.6366 25.7752 34.83 25.8803C35.0202 25.9689 35.1802 26.1114 35.29 26.2903C35.3916 26.4739 35.4448 26.6804 35.4448 26.8903C35.4448 27.1001 35.3916 27.3066 35.29 27.4903C35.188 27.6791 35.0311 27.8325 34.84 27.9303L26.68 32.6003V31.6003L34.83 36.3303C35.0109 36.4294 35.1626 36.5742 35.27 36.7503C35.3818 36.923 35.4408 37.1245 35.44 37.3303C35.447 37.4769 35.4231 37.6234 35.37 37.7603C35.3114 37.8932 35.2302 38.015 35.13 38.1203C34.9357 38.3283 34.6799 38.4685 34.4 38.5203C34.1143 38.5772 33.8177 38.5236 33.57 38.3703V38.3703Z"
                    class="primary"
                />
                <path
                    fill-rule="evenodd"
                    clip-rule="evenodd"
                    d="M33.7545 26.4871L24.8306 31.6894C24.6993 31.761 24.5893 31.866 24.5119 31.994L24.5082 32.0002L24.5042 32.0062C24.4429 32.0993 24.4022 32.2045 24.3847 32.3147C24.3672 32.4248 24.3734 32.5374 24.4029 32.645C24.4323 32.7526 24.4844 32.8526 24.5555 32.9385C24.6267 33.0244 24.7153 33.0941 24.8155 33.1431L24.8275 33.1489L33.759 38.3256L33.571 38.65L33.7683 38.3312C33.9353 38.4345 34.1352 38.4706 34.3277 38.4323L34.3327 38.4313C34.5337 38.3941 34.7174 38.2934 34.8569 38.1441L34.8593 38.1415C34.9277 38.0697 34.9835 37.9869 35.0243 37.8966C35.0564 37.8108 35.0708 37.7194 35.0664 37.6279L35.0659 37.6182L35.066 37.6085C35.0665 37.4756 35.0283 37.3454 34.9561 37.2337L34.9508 37.2255C34.8775 37.1054 34.7741 37.0065 34.6507 36.9389L34.6427 36.9345L27.5472 32.8164L26.306 33.5267V31.2288L27.5498 31.9507L34.6624 27.8802L34.6702 27.8762C34.7937 27.813 34.8951 27.7139 34.961 27.5918L34.9628 27.5886C35.0336 27.4605 35.0708 27.3165 35.0708 27.17C35.0708 27.0265 35.0351 26.8853 34.967 26.7591C34.8958 26.6463 34.7937 26.5563 34.6726 26.5L34.6622 26.4951L34.652 26.4896C34.5136 26.4144 34.3585 26.375 34.201 26.375C34.0452 26.375 33.8918 26.4135 33.7545 26.4871ZM28.2995 32.3858L35.0155 36.2836C35.2505 36.4134 35.4479 36.6018 35.5885 36.8305C35.7363 37.0607 35.8152 37.3284 35.816 37.6019C35.824 37.7977 35.7915 37.993 35.7206 38.1758L35.7175 38.1837L35.7141 38.1914C35.6382 38.3634 35.5333 38.521 35.4038 38.6573C35.1555 38.9226 34.829 39.1016 34.4718 39.1683C34.0956 39.2426 33.7053 39.1725 33.3786 38.972L24.4736 33.8107C24.2829 33.7154 24.1141 33.5813 23.978 33.417C23.8388 33.2491 23.7371 33.0534 23.6795 32.8431C23.6219 32.6327 23.6098 32.4125 23.644 32.1971C23.6778 31.9841 23.7561 31.7806 23.8738 31.5999C24.0186 31.3627 24.2229 31.1675 24.4664 31.0336L33.3919 25.8304C33.6402 25.6955 33.9184 25.625 34.201 25.625C34.4797 25.625 34.7542 25.6938 34.9999 25.8251C35.2521 25.9451 35.4643 26.1356 35.6105 26.3738L35.615 26.3811L35.6192 26.3886C35.7514 26.6278 35.8208 26.8967 35.8208 27.17C35.8208 27.4428 35.7517 27.7111 35.62 27.9499C35.4835 28.202 35.2745 28.4074 35.0202 28.5396L28.2995 32.3858Z"
                    class="primary"
                />
                <path
                    d="M38.43 42.0001C38.2319 42.0071 38.0354 41.9623 37.86 41.8701C37.6874 41.7722 37.5401 41.6352 37.43 41.4701C37.3112 41.3064 37.2418 41.112 37.23 40.9101C37.2107 40.707 37.2488 40.5026 37.34 40.3201L44.6 22.7001C44.6967 22.4865 44.8574 22.3083 45.06 22.1901C45.2637 22.0628 45.4998 21.9968 45.74 22.0001C45.9344 21.9978 46.1265 22.0424 46.3 22.1301C46.4779 22.2106 46.6302 22.3386 46.74 22.5001C46.8625 22.6711 46.9383 22.871 46.96 23.0801C46.973 23.2861 46.9352 23.4921 46.85 23.6801L39.57 41.3001C39.4853 41.532 39.3179 41.7243 39.1 41.8401C38.8912 41.9424 38.6624 41.997 38.43 42.0001V42.0001Z"
                    class="primary"
                />
                <path
                    fill-rule="evenodd"
                    clip-rule="evenodd"
                    d="M45.7348 22.3751C45.5666 22.3728 45.4014 22.4189 45.2588 22.5081L45.249 22.5142C45.1154 22.5922 45.0089 22.7091 44.944 22.8495L37.6815 40.4755L37.6755 40.4877C37.6157 40.6074 37.5907 40.7415 37.6033 40.8747L37.6046 40.8881C37.6122 41.0186 37.6568 41.1442 37.7336 41.25L37.7379 41.2559L37.7419 41.262C37.8184 41.3767 37.9203 41.4721 38.0396 41.5409C38.156 41.6008 38.2859 41.6299 38.4168 41.6254L38.43 42.0001L38.425 41.6252C38.5997 41.6228 38.7718 41.5822 38.9291 41.5062C39.0628 41.4335 39.1655 41.3145 39.2177 41.1715L39.2204 41.1641L46.5083 23.5251C46.5671 23.3954 46.5939 23.2535 46.5862 23.1113C46.5702 22.9697 46.5182 22.8345 46.4352 22.7185L46.4297 22.711C46.3588 22.6066 46.2605 22.5238 46.1455 22.4718L46.1381 22.4685L46.1308 22.4648C46.0111 22.4043 45.8785 22.3735 45.7444 22.3751L45.7348 22.3751ZM38.4389 42.375C38.1771 42.3835 37.9176 42.3239 37.6856 42.2021L37.6749 42.1965C37.4534 42.0709 37.2642 41.8954 37.122 41.6842C36.9653 41.4656 36.8731 41.2073 36.856 40.9388C36.832 40.6729 36.8812 40.4056 36.998 40.1656L44.2581 22.5454C44.3862 22.2626 44.5986 22.0265 44.866 21.8691C45.1284 21.7064 45.4316 21.6217 45.7404 21.6251C45.9907 21.6229 46.238 21.6801 46.4619 21.7918C46.6982 21.9003 46.9006 22.0709 47.0475 22.2855C47.2063 22.5085 47.3047 22.769 47.333 23.0414L47.3337 23.0489L47.3342 23.0564C47.351 23.3215 47.3029 23.5866 47.1943 23.8288L39.9193 41.4367C39.802 41.7519 39.5731 42.0133 39.276 42.1713L39.2651 42.1771C39.0077 42.3032 38.7255 42.3706 38.4389 42.375Z"
                    class="primary"
                />
                <path
                    d="M50.43 38.3703C50.1837 38.527 49.887 38.5842 49.6 38.5303C49.3202 38.4785 49.0643 38.3383 48.87 38.1303C48.7699 38.025 48.6887 37.9032 48.63 37.7703C48.5769 37.6334 48.553 37.4869 48.56 37.3403C48.5592 37.1345 48.6183 36.933 48.73 36.7603C48.8375 36.5842 48.9892 36.4394 49.17 36.3403L57.32 31.6103V32.6103L49.17 27.9303C48.9789 27.8325 48.822 27.6791 48.72 27.4903C48.6185 27.3066 48.5652 27.1001 48.5652 26.8903C48.5652 26.6804 48.6185 26.4739 48.72 26.2903C48.8298 26.1114 48.9898 25.9689 49.18 25.8803C49.3734 25.7752 49.59 25.7202 49.81 25.7202C50.0301 25.7202 50.2466 25.7752 50.44 25.8803L59.36 31.0803C59.5496 31.1836 59.7083 31.3355 59.82 31.5203C59.9075 31.6588 59.9651 31.8141 59.9892 31.9762C60.0134 32.1383 60.0035 32.3036 59.9602 32.4616C59.9169 32.6197 59.8412 32.767 59.7379 32.8941C59.6346 33.0213 59.5059 33.1256 59.36 33.2003L50.43 38.3703Z"
                    class="primary"
                />
                <path
                    fill-rule="evenodd"
                    clip-rule="evenodd"
                    d="M49.811 26.375C49.6535 26.375 49.4984 26.4144 49.36 26.4896L49.3498 26.4951L49.3393 26.5C49.2183 26.5563 49.1162 26.6463 49.045 26.7591C48.9769 26.8853 48.9412 27.0265 48.9412 27.17C48.9412 27.3165 48.9783 27.4605 49.0492 27.5886L49.051 27.5918C49.1169 27.7139 49.2183 27.813 49.3418 27.8762L49.3499 27.8803L56.4539 31.9597L57.696 31.2388V33.5378L56.4559 32.8257L49.3513 36.949C49.2279 37.0166 49.1244 37.1153 49.0511 37.2354L49.046 37.2438C48.9738 37.3554 48.9355 37.4856 48.936 37.6185L48.936 37.6282L48.9356 37.6379C48.9312 37.7294 48.9455 37.8208 48.9776 37.9066C49.0185 37.9969 49.0743 38.0797 49.1427 38.1515L49.1451 38.1541C49.2846 38.3034 49.4683 38.4041 49.6692 38.4413L49.6703 38.4415C49.8637 38.4779 50.0637 38.4393 50.2297 38.3337L50.2363 38.3295L59.1815 33.1507L59.1901 33.1463C59.2895 33.0953 59.3773 33.0242 59.4478 32.9374C59.5183 32.8507 59.57 32.7502 59.5995 32.6424C59.629 32.5346 59.6358 32.4218 59.6193 32.3112C59.6028 32.2006 59.5635 32.0947 59.5039 32.0002L59.5 31.9941C59.4227 31.8661 59.3128 31.7609 59.1815 31.6893L59.1721 31.6841L50.2574 26.4871C50.1202 26.4135 49.9668 26.375 49.811 26.375ZM55.7049 32.3944L48.9916 28.5394C48.7373 28.4072 48.5285 28.2019 48.3919 27.9499C48.2602 27.7111 48.1912 27.4428 48.1912 27.17C48.1912 26.8967 48.2606 26.6278 48.3928 26.3886L48.397 26.3811L48.4014 26.3738C48.5477 26.1356 48.7598 25.9451 49.0121 25.8251C49.2578 25.6938 49.5322 25.625 49.811 25.625C50.0936 25.625 50.3717 25.6956 50.62 25.8305L50.6299 25.8359L59.5455 31.0336C59.7901 31.1681 59.9951 31.3644 60.1401 31.603C60.2542 31.7848 60.3295 31.9883 60.3611 32.2007C60.3929 32.4143 60.3799 32.6322 60.3229 32.8404C60.2659 33.0487 60.1661 33.2428 60.0299 33.4104C59.8959 33.5753 59.7295 33.711 59.5411 33.8091L50.6252 38.9709C50.3001 39.1753 49.9097 39.2496 49.5321 39.1787C49.1742 39.1123 48.8469 38.9331 48.5981 38.6673C48.4687 38.531 48.3638 38.3734 48.2879 38.2014L48.2845 38.1937L48.2814 38.1858C48.2105 38.003 48.178 37.8077 48.186 37.6119C48.1868 37.3384 48.2657 37.0707 48.4135 36.8405C48.554 36.6118 48.7514 36.4234 48.9864 36.2936L55.7049 32.3944Z"
                    class="primary"
                />
            </g>
        </g>
    </g>
</svg>
