<svg id="Layer_1" data-name="Layer 1" xmlns="http://www.w3.org/2000/svg" viewBox="0 0 64 64">
    <defs>
        <style>
            .isolate {
                isolation: isolate;
            }

            .base {
                fill: #b7cde1
            }

            .primary {
                fill: #fe90a0
            }

            .secondary {
                fill: #feb452
            }

            .tertiary {
                fill: #42cacd
            }

            .mix-blend-multiply {
                mix-blend-mode: multiply
            }

        </style>
    </defs>
    <rect x="21" y="5" width="30" height="54" rx="3.99" class="base" />
    <rect x="22" y="6" width="28" height="49" rx="3.99" fill="#f4f8fb" />
    <rect x="24" y="15" width="24" height="8" rx="1" class="primary" opacity="0.32" />
    <rect x="24" y="25" width="11" height="8" rx="1" class="secondary" opacity="0.32" />
    <rect x="37" y="25" width="11" height="8" rx="1" class="secondary" opacity="0.32" />
    <rect x="24" y="35" width="24" height="16" rx="1" class="primary" opacity="0.32" />
    <path fill-rule="evenodd" clip-rule="evenodd"
        d="M24.0328 25.2959C21.7559 24.73 19.355 24.9429 17.2133 25.9007C15.0715 26.8586 13.3123 28.5061 12.2162 30.5806C11.8292 31.313 10.9217 31.5931 10.1892 31.2061C9.45673 30.819 9.17668 29.9115 9.5637 29.179C10.9729 26.5119 13.2348 24.3936 15.9885 23.1621C18.7422 21.9306 21.829 21.6569 24.7565 22.3845C27.6839 23.1122 30.2833 24.7993 32.1399 27.1768C33.3215 28.6898 34.1589 30.4269 34.6108 32.2677L35.9393 30.9391C36.5251 30.3534 37.4748 30.3534 38.0606 30.9391C38.6464 31.5249 38.6464 32.4747 38.0606 33.0605L34.5606 36.5605C34.1314 36.9897 33.4858 37.1179 32.9251 36.8853C32.3645 36.6527 31.9992 36.1051 32 35.4981C32.0027 33.1519 31.2195 30.8724 29.7755 29.0232C28.3315 27.1741 26.3097 25.8619 24.0328 25.2959Z"
        class="tertiary" />
    <path fill-rule="evenodd" clip-rule="evenodd"
        d="M10.0723 34.1135C10.6325 34.3448 10.9985 34.8903 11 35.4964C11.0057 37.822 11.7833 40.0799 13.2108 41.9158C14.6383 43.7517 16.635 45.0618 18.8875 45.6404C21.1399 46.2191 23.5208 46.0335 25.6564 45.1129C27.792 44.1923 29.5616 42.5888 30.6875 40.5539C31.0886 39.829 32.0013 39.5665 32.7262 39.9675C33.4511 40.3686 33.7136 41.2813 33.3125 42.0062C31.865 44.6225 29.5898 46.6843 26.844 47.8679C24.0981 49.0515 21.0371 49.29 18.141 48.5461C15.245 47.8021 12.6779 46.1178 10.8425 43.7573C9.67762 42.2591 8.84933 40.5424 8.39774 38.7236L7.06066 40.0607C6.47487 40.6465 5.52513 40.6465 4.93934 40.0607C4.35355 39.4749 4.35355 38.5252 4.93934 37.9394L8.43934 34.4394C8.86786 34.0109 9.51215 33.8823 10.0723 34.1135Z"
        class="tertiary" />
</svg>