<svg xmlns="http://www.w3.org/2000/svg" xmlns:xlink="http://www.w3.org/1999/xlink" viewBox="0 0 64 64">
    <defs>
        <style>
            .base {
                fill: #b7cde1;
            }

            .secondary {
                fill: #85b2d3;
            }

            .primary {
                fill: #04a162;
            }

            .tertiary {
                fill: #ffffff;
            }

            .mix-blend-multiply {
                mix-blend-mode: multiply;
            }
        </style>
    </defs>
    <g class="isolate">
        <g id="Layer_1" data-name="Layer 1">
            <g clip-path="url(#clip-path)">
                <path
                    class="base"
                    d="M41.5,0H6.5A2.64,2.64,0,0,0,4.73.67a2.17,2.17,0,0,0-.54.73A2.26,2.26,0,0,0,4,2.29V61.71a2.26,2.26,0,0,0,.19.89,2.17,2.17,0,0,0,.54.73A2.64,2.64,0,0,0,6.5,64h35a2.64,2.64,0,0,0,1.77-.67,2.17,2.17,0,0,0,.54-.73,2.26,2.26,0,0,0,.19-.89V2.29a2.26,2.26,0,0,0-.19-.89,2.17,2.17,0,0,0-.54-.73A2.64,2.64,0,0,0,41.5,0Z"
                />
                <path
                    fill="#fff"
                    opacity="0.4"
                    d="M38.86,4H9.14a1.14,1.14,0,0,0-.8.33,1.1,1.1,0,0,0-.34.8V54.87a1.1,1.1,0,0,0,.34.8,1.14,1.14,0,0,0,.8.33H38.86a1.14,1.14,0,0,0,.8-.33,1.1,1.1,0,0,0,.34-.8V5.13a1.1,1.1,0,0,0-.34-.8A1.14,1.14,0,0,0,38.86,4Z"
                />
                <path class="base" d="M22,57h3a2,2,0,0,1,0,4H22a2,2,0,0,1,0-4Z" />
                <path
                    class="secondary"
                    d="M26,13.24A1.86,1.86,0,0,0,24.41,12a1.86,1.86,0,0,0-1.59,1.24V44.89a1.69,1.69,0,0,0,3.18,0Z"
                />
                <path class="primary" d="M26,38V21H49a1,1,0,0,1,1,1V37a1,1,0,0,1-1,1Z" />
                <path
                    class="primary"
                    d="M38.76,25.51H46v.87H42.93a2.83,2.83,0,0,1,.74,1.52H46v.87H43.65a2.76,2.76,0,0,1-1.56,2l2.22,3.8H43.25L41.17,31H38.74v-.87h2.32a1.9,1.9,0,0,0,1.83-1.4H38.76V27.9h4.15a1.89,1.89,0,0,0-.51-.9,1.93,1.93,0,0,0-1.34-.55H38.74v-.87Z"
                />
                <path
                    class="tertiary"
                    d="M38.76,25.51H46v.87H42.93a2.83,2.83,0,0,1,.74,1.52H46v.87H43.65a2.76,2.76,0,0,1-1.56,2l2.22,3.8H43.25L41.17,31H38.74v-.87h2.32a1.9,1.9,0,0,0,1.83-1.4H38.76V27.9h4.15a1.89,1.89,0,0,0-.51-.9,1.93,1.93,0,0,0-1.34-.55H38.74v-.87Z"
                />
                <path class="base" d="M57.54,27a1,1,0,0,0,0-2H53a1,1,0,0,0,0,2Z" />
                <path class="base" d="M59,31a1,1,0,0,0,0-2H54.45a1,1,0,0,0,0,2Z" />
                <path class="base" d="M57.54,35a1,1,0,0,0,0-2H53a1,1,0,0,0,0,2Z" />
            </g>
            <g class="mix-blend-multiply">
                <path class="base" d="M23,57h3a2,2,0,0,1,0,4H23a2,2,0,0,1,0-4Z" />
            </g>
        </g>
    </g>
</svg>
