<svg xmlns="http://www.w3.org/2000/svg" xmlns:xlink="http://www.w3.org/1999/xlink" viewBox="0 0 64 64">
    <defs>
        <style>
            .isolate {
                isolation: isolate;
            }

            .base {
                fill: #b7cde1;
            }

            .mix-blend-multiply {
                mix-blend-mode: multiply;
            }

            .primary {
                fill: #FEB452;
            }

            .secondary {
                fill: #ffffff;
            }
        </style>
    </defs>
    <g class="isolate">
        <g id="Layer_1" data-name="Layer 1">
            <g clip-path="url(#clip-path)">
                <path class="base"
                    d="M45.5,0h-35A2.59,2.59,0,0,0,8.73.67a2.17,2.17,0,0,0-.54.73A2.26,2.26,0,0,0,8,2.29V61.71a2.26,2.26,0,0,0,.19.89,2.17,2.17,0,0,0,.54.73A2.59,2.59,0,0,0,10.5,64h35a2.64,2.64,0,0,0,1.76-.67,2.17,2.17,0,0,0,.54-.73,2.1,2.1,0,0,0,.2-.89V2.29a2.1,2.1,0,0,0-.2-.89,2.17,2.17,0,0,0-.54-.73A2.64,2.64,0,0,0,45.5,0Z" />
                <path fill="#fff" opacity="0.4"
                    d="M42.05,4H14.12a2.09,2.09,0,0,0-1.41.55,1.56,1.56,0,0,0-.42.56,1.89,1.89,0,0,0-.17.7V53.5a1.94,1.94,0,0,0,.16.72,1.73,1.73,0,0,0,.42.58,2.14,2.14,0,0,0,1.41.54H42.05a2.14,2.14,0,0,0,1.41-.54,1.73,1.73,0,0,0,.42-.58A1.94,1.94,0,0,0,44,53.5V5.81a1.71,1.71,0,0,0-.16-.71,1.67,1.67,0,0,0-.42-.59A2.11,2.11,0,0,0,42.05,4Z" />
                <g class="mix-blend-multiply">
                    <path class="base" d="M30,57H26a2,2,0,0,0,0,4h4a2,2,0,0,0,0-4Z" />
                </g>
                <g class="mix-blend-multiply">
                    <path class="primary" d="M44,46a16,16,0,1,0-11.31-4.69A16,16,0,0,0,44,46Z" />
                </g>
                <path class="secondary"
                    d="M37.27,21.4h16v1.92H46.45a6.09,6.09,0,0,1,1.62,3.33h5.15v1.92H48.05a6.15,6.15,0,0,1-1.6,3.17,6.46,6.46,0,0,1-1.83,1.33l4.92,8.35H47.16L42.59,33.6H37.24v-2h5.11a4,4,0,0,0,4-3.05H37.27V26.67h9.14a4.14,4.14,0,0,0-4.07-3.3h-5.1v-2Z" />
            </g>
        </g>
    </g>
</svg>