<svg viewBox="0 0 64 64" fill="none" xmlns="http://www.w3.org/2000/svg">
    <defs>
        <style>
            .base {
                fill: #b7cde1;
            }

            .mix-blend-multiply {
                mix-blend-mode: multiply;
            }

            .primary {
                fill: #42cacd;
            }
        </style>
    </defs>
    <path
        d="M48 53.3335L49.2762 9.94137C49.308 8.86016 50.1937 8.00016 51.2754 8.00016H51.3913C52.473 8.00016 53.3586 8.86016 53.3904 9.94137L54.6667 53.3335H48Z"
        fill="white"
    />
    <path
        d="M9.33333 53.3335L10.6096 9.94137C10.6414 8.86016 11.527 8.00016 12.6087 8.00016H12.7246C13.8063 8.00016 14.692 8.86016 14.7238 9.94137L16 53.3335H9.33333Z"
        fill="white"
    />
    <rect x="4" y="32" width="56" height="22.6667" rx="3.36" fill="white" />
    <g class="mix-blend-multiply">
        <path
            d="M48 53.3335L49.2762 9.94137C49.308 8.86016 50.1937 8.00016 51.2754 8.00016H51.3913C52.473 8.00016 53.3586 8.86016 53.3904 9.94137L54.6667 53.3335H48Z"
            class="base"
        />
    </g>
    <g class="mix-blend-multiply">
        <path
            d="M9.33333 53.3335L10.6096 9.94137C10.6414 8.86016 11.527 8.00016 12.6087 8.00016H12.7246C13.8063 8.00016 14.692 8.86016 14.7238 9.94137L16 53.3335H9.33333Z"
            class="base"
        />
    </g>
    <rect x="4" y="32" width="56" height="22.6667" rx="3.36" class="base" />
    <g class="mix-blend-multiply">
        <circle cx="12.6933" cy="43.36" r="3.36" class="primary" />
    </g>
    <g class="mix-blend-multiply">
        <rect x="37.3333" y="40" width="6.66667" height="4" rx="2" transform="rotate(90 37.3333 40)" class="primary" />
    </g>
    <g class="mix-blend-multiply">
        <rect x="45.3333" y="40" width="6.66667" height="4" rx="2" transform="rotate(90 45.3333 40)" class="primary" />
    </g>
    <g class="mix-blend-multiply">
        <rect x="53.3333" y="40" width="6.66667" height="4" rx="2" transform="rotate(90 53.3333 40)" class="primary" />
    </g>
    <path
        d="M9.33333 54.6665H16V55.9998C16 56.7362 15.403 57.3332 14.6667 57.3332H10.6667C9.93028 57.3332 9.33333 56.7362 9.33333 55.9998V54.6665Z"
        class="base"
    />
    <path
        d="M48 54.6665H54.6667V55.9998C54.6667 56.7362 54.0697 57.3332 53.3333 57.3332H49.3333C48.597 57.3332 48 56.7362 48 55.9998V54.6665Z"
        class="base"
    />
    <g class="mix-blend-multiply">
        <path
            d="M9.33333 54.6665H16V55.9998C16 56.7362 15.403 57.3332 14.6667 57.3332H10.6667C9.93028 57.3332 9.33333 56.7362 9.33333 55.9998V54.6665Z"
            class="base"
        />
    </g>
    <g class="mix-blend-multiply">
        <path
            d="M48 54.6665H54.6667V55.9998C54.6667 56.7362 54.0697 57.3332 53.3333 57.3332H49.3333C48.597 57.3332 48 56.7362 48 55.9998V54.6665Z"
            class="base"
        />
    </g>
</svg>
