<svg xmlns="http://www.w3.org/2000/svg" viewBox="0 0 64 64">
    <defs>
        <style>
            .isolate {
                isolation: isolate;
            }
            .base {
                fill: #afcbe0;
            }
            .mix-blend-multiply {
                mix-blend-mode: multiply;
            }
            .primary {
                fill: #f2ad3d;
            }
            .secondary {
                fill: #b7cde1;
            }
        </style>
    </defs>
    <g class="isolate">
        <g id="Layer_1" data-name="Layer 1">
            <path
                class="base"
                d="M10.64,21H14V60H8.43A4.34,4.34,0,0,1,5.3,58.62,4.89,4.89,0,0,1,4,55.27V23.36C4,22.18,4,21,6.21,21Z"
            />
            <g class="mix-blend-multiply">
                <path
                    class="base"
                    d="M10.64,21H14V60H8.43A4.34,4.34,0,0,1,5.3,58.62,4.89,4.89,0,0,1,4,55.27V23.36C4,22.18,4,21,6.22,21Z"
                />
            </g>
            <path
                class="base"
                d="M13.94,55.41v-39A3.58,3.58,0,0,1,14.87,14a3,3,0,0,1,1-.74A3,3,0,0,1,17.1,13H51.84a3,3,0,0,1,1.22.26,3,3,0,0,1,1,.74A3.56,3.56,0,0,1,55,16.44v39a5.1,5.1,0,0,1-1.32,3.16A4.33,4.33,0,0,1,50.79,60H9a5.84,5.84,0,0,0,3.73-1.34A4.85,4.85,0,0,0,13.94,55.41Z"
            />
            <g class="mix-blend-multiply">
                <path
                    class="base"
                    d="M48.89,19H20.11a1.14,1.14,0,0,0-.78.32,1.11,1.11,0,0,0-.33.78v8.8a1.11,1.11,0,0,0,.33.78,1.14,1.14,0,0,0,.78.32H48.89a1.14,1.14,0,0,0,.78-.32A1.11,1.11,0,0,0,50,28.9V20.1a1.11,1.11,0,0,0-.33-.78A1.14,1.14,0,0,0,48.89,19Z"
                />
            </g>
            <g class="mix-blend-multiply">
                <path class="primary" d="M51.2,14.42l2.29-4.2,2.3,4.2L60,16.72,55.79,19l-2.3,4.19L51.2,19,47,16.72Z" />
            </g>
            <path class="primary" d="M45.24,6.59,46.65,4l1.42,2.59L50.66,8,48.07,9.42,46.65,12,45.24,9.4,42.65,8Z" />
            <g class="mix-blend-multiply">
                <path
                    class="secondary"
                    d="M20.63,37h11a1.5,1.5,0,0,0,1.06-2.56,1.58,1.58,0,0,0-.48-.33,1.66,1.66,0,0,0-.58-.11h-11a1.56,1.56,0,0,0-.57.11A1.5,1.5,0,0,0,20.63,37Z"
                />
            </g>
            <g class="mix-blend-multiply">
                <path class="secondary" d="M20.63,43h11a1.5,1.5,0,0,0,0-3h-11a1.5,1.5,0,0,0,0,3Z" />
            </g>
            <g class="mix-blend-multiply">
                <path class="secondary" d="M20.63,48.93h11a1.5,1.5,0,0,0,0-3h-11a1.5,1.5,0,0,0,0,3Z" />
            </g>
            <g class="mix-blend-multiply">
                <path
                    class="secondary"
                    d="M37.5,37h11a1.47,1.47,0,0,0,1.06-2.52,1.38,1.38,0,0,0-.48-.35A1.44,1.44,0,0,0,48.5,34h-11a1.66,1.66,0,0,0-.58.11,1.58,1.58,0,0,0-.48.33,1.5,1.5,0,0,0-.33.5,1.39,1.39,0,0,0-.11.6A1.44,1.44,0,0,0,37.5,37Z"
                />
            </g>
            <g class="mix-blend-multiply">
                <path class="secondary" d="M37.5,43h11a1.5,1.5,0,0,0,0-3h-11a1.5,1.5,0,0,0,0,3Z" />
            </g>
            <g class="mix-blend-multiply">
                <path class="secondary" d="M37.5,48.93h11a1.5,1.5,0,0,0,0-3h-11a1.5,1.5,0,0,0,0,3Z" />
            </g>
        </g>
    </g>
</svg>
