<svg xmlns="http://www.w3.org/2000/svg" viewBox="0 0 64 64">
	<defs>
		<style>
			.isolate{isolation:isolate;}.base{fill:#b7cde1;}
			.mix-blend-multiply{mix-blend-mode:multiply;}
			.primary{fill:#00cfcf;}
		</style>
	</defs>
	<g class="isolate">
		<g id="Layer_1" data-name="Layer 1">
			<path class="base mix-blend-multiply" d="M52,4H12A3,3,0,0,0,9,7V61a3,3,0,0,0,3,3H52a3,3,0,0,0,3-3V7A3,3,0,0,0,52,4Z" />
			<g class="mix-blend-multiply">
				<path class="primary" d="M22,2a2,2,0,0,0-4,0V6a2,2,0,0,0,4,0Z" />
			</g>
			<g class="mix-blend-multiply">
				<path class="primary" d="M46,2a2,2,0,0,0-4,0V6a2,2,0,0,0,4,0Z" />
			</g>
			<g class="mix-blend-multiply">
				<path class="base" d="M43.5,38a1.5,1.5,0,0,0,0-3h-23a1.5,1.5,0,0,0,0,3Z" />
			</g>
			<g class="mix-blend-multiply">
				<path class="base" d="M43.5,44a1.5,1.5,0,0,0,0-3h-23a1.5,1.5,0,0,0,0,3Z" />
			</g>
			<g class="mix-blend-multiply">
				<path class="base" d="M35.5,50a1.5,1.5,0,0,0,0-3h-15a1.5,1.5,0,0,0,0,3Z" />
			</g>
			<g class="mix-blend-multiply">
				<path class="primary" d="M32,30a6,6,0,1,0-6-6A6,6,0,0,0,32,30Z" />
			</g>
		</g>
	</g>
</svg>
