<svg viewBox="0 0 64 64" fill="none" xmlns="http://www.w3.org/2000/svg">
    <defs>
        <style>
            .base {
                fill: #B7CDE1
            }

            .mix-blend-multiply {
                mix-blend-mode: multiply
            }

            .primary {
                fill: #42CACD
            }
        </style>
    </defs>
    <path
        d="M7.90839 15.5376C7.80106 14.9958 8.15323 14.4696 8.69498 14.3623L51.8561 5.81119C52.3978 5.70386 52.924 6.05603 53.0313 6.59778L54.4833 13.9267C54.5907 14.4684 54.2385 14.9946 53.6968 15.102L10.5357 23.6531C9.99392 23.7604 9.46773 23.4082 9.3604 22.8665L7.90839 15.5376Z"
        fill="white" />
    <path
        d="M21.0523 51.703C21.1124 51.1712 21.0535 50.6327 20.8799 50.1264C20.6997 49.6185 20.4047 49.159 20.0177 48.7839C19.1317 48.1815 18.0687 47.8951 17 47.9709V45.0272C18.0779 45.1031 19.1488 44.8027 20.03 44.1773C20.3964 43.821 20.6784 43.3871 20.8553 42.9075C21.0322 42.428 21.0995 41.9149 21.0523 41.406V37.7109C20.9685 36.452 21.3795 35.2101 22.1978 34.2498C22.6371 33.7975 23.1714 33.4483 23.762 33.2275C24.3618 33.0342 24.9942 32.963 25.6219 33.0181H29.8466V36.2082H27.6419C27.1672 36.1956 26.6924 36.2327 26.2254 36.319C25.8856 36.3771 25.5694 36.5309 25.314 36.7625C25.0667 36.9987 24.8952 37.3031 24.8213 37.637C24.7189 38.1309 24.6775 38.6356 24.6981 39.1396V42.4776C24.7395 42.9958 24.6681 43.5169 24.4887 44.0049C24.3234 44.5076 24.0405 44.9637 23.6635 45.3351C22.8958 45.977 21.9407 46.353 20.9414 46.4067V46.69C21.9473 46.7279 22.9072 47.1206 23.6512 47.7985C23.9973 48.1542 24.2731 48.5721 24.4641 49.0302C24.6464 49.5221 24.726 50.046 24.6981 50.5698V53.957C24.6837 54.4506 24.7376 54.9439 24.8583 55.4227C24.9195 55.7621 25.0878 56.0729 25.3386 56.3096C25.5965 56.5424 25.9183 56.6926 26.2624 56.7407C26.7339 56.825 27.2122 56.8662 27.6912 56.8638H29.8343V59.9923H25.6219C25.0121 60.0284 24.4012 59.9447 23.8236 59.746C23.2462 59.5658 22.7103 59.2727 22.247 58.8838C21.8138 58.4124 21.4863 57.8539 21.2863 57.2456C21.0797 56.6402 21 55.9987 21.0523 55.3611V51.703Z"
        fill="white" />
    <path
        d="M43.7649 55.2989C43.8109 55.9353 43.7253 56.5744 43.5134 57.1762C43.3015 57.778 42.9678 58.3298 42.5332 58.7969C42.0788 59.2064 41.5469 59.5206 40.9689 59.7207C40.3913 59.9194 39.7804 60.0031 39.1706 59.967H34.9582V56.8016H37.1506C37.6296 56.8039 38.1079 56.7627 38.5794 56.6784C38.9235 56.6303 39.2453 56.4802 39.5032 56.2473C39.7532 56.0083 39.925 55.6991 39.9958 55.3605C40.0852 54.8981 40.1183 54.4266 40.0944 53.9563V50.6061C40.0585 50.0774 40.133 49.547 40.3133 49.0487C40.4935 48.5504 40.7755 48.095 41.1413 47.7116C41.9052 47.0106 42.9007 46.6159 43.9373 46.6031V46.3198C42.9413 46.2679 41.9897 45.8915 41.2276 45.2482C40.8524 44.9039 40.5544 44.4842 40.353 44.0165C40.1571 43.5365 40.0689 43.0193 40.0944 42.5015V39.1759C40.1115 38.6855 40.0533 38.1953 39.9219 37.7225C39.8511 37.3839 39.6793 37.0747 39.4293 36.8357C39.1724 36.6063 38.8568 36.4528 38.5178 36.3923C38.0583 36.3121 37.5924 36.2749 37.126 36.2814H34.9582V33.0174H39.1706C39.7989 32.9713 40.4296 33.0638 41.0182 33.2884C41.6059 33.5092 42.1393 33.8536 42.5824 34.2984C43.3935 35.2531 43.8039 36.4844 43.7279 37.7348V41.4299C43.6822 41.9392 43.7495 42.4523 43.925 42.9326C44.1039 43.4 44.386 43.8211 44.7502 44.1643C45.629 44.7721 46.6902 45.0592 47.7556 44.9772V47.884C46.6869 47.8082 45.6239 48.0946 44.7379 48.697C44.3538 49.0697 44.0591 49.5244 43.8757 50.0272C43.703 50.5379 43.6442 51.0802 43.7033 51.6161L43.7649 55.2989Z"
        fill="white" />
    <path
        d="M9 22C9 21.4477 9.44772 21 10 21H54C54.5523 21 55 21.4477 55 22V51C55 51.5523 54.5523 52 54 52H10C9.44772 52 9 51.5523 9 51V22Z"
        class="base" />
    <g class="mix-blend-multiply">
        <path
            d="M7.90839 15.5376C7.80106 14.9958 8.15323 14.4696 8.69498 14.3623L51.8561 5.81119C52.3978 5.70386 52.924 6.05603 53.0313 6.59778L54.4833 13.9267C54.5907 14.4684 54.2385 14.9946 53.6968 15.102L10.5357 23.6531C9.99392 23.7604 9.46773 23.4082 9.3604 22.8665L7.90839 15.5376Z"
            class="base" />
    </g>
    <g class="mix-blend-multiply">
        <path
            d="M21.0523 51.703C21.1124 51.1712 21.0535 50.6327 20.8799 50.1264C20.6997 49.6185 20.4047 49.159 20.0177 48.7839C19.1317 48.1815 18.0687 47.8951 17 47.9709V45.0272C18.0779 45.1031 19.1488 44.8027 20.03 44.1773C20.3964 43.821 20.6784 43.3871 20.8553 42.9075C21.0322 42.428 21.0995 41.9149 21.0523 41.406V37.7109C20.9685 36.452 21.3795 35.2101 22.1978 34.2498C22.6371 33.7975 23.1714 33.4483 23.762 33.2275C24.3618 33.0342 24.9942 32.963 25.6219 33.0181H29.8466V36.2082H27.6419C27.1672 36.1956 26.6924 36.2327 26.2254 36.319C25.8856 36.3771 25.5694 36.5309 25.314 36.7625C25.0667 36.9987 24.8952 37.3031 24.8213 37.637C24.7189 38.1309 24.6775 38.6356 24.6981 39.1396V42.4776C24.7395 42.9958 24.6681 43.5169 24.4887 44.0049C24.3234 44.5076 24.0405 44.9637 23.6635 45.3351C22.8958 45.977 21.9407 46.353 20.9414 46.4067V46.69C21.9473 46.7279 22.9072 47.1206 23.6512 47.7985C23.9973 48.1542 24.2731 48.5721 24.4641 49.0302C24.6464 49.5221 24.726 50.046 24.6981 50.5698V53.957C24.6837 54.4506 24.7376 54.9439 24.8583 55.4227C24.9195 55.7621 25.0878 56.0729 25.3386 56.3096C25.5965 56.5424 25.9183 56.6926 26.2624 56.7407C26.7339 56.825 27.2122 56.8662 27.6912 56.8638H29.8343V59.9923H25.6219C25.0121 60.0284 24.4012 59.9447 23.8236 59.746C23.2462 59.5658 22.7103 59.2727 22.247 58.8838C21.8138 58.4124 21.4863 57.8539 21.2863 57.2456C21.0797 56.6402 21 55.9987 21.0523 55.3611V51.703Z"
            class="primary" />
    </g>
    <g class="mix-blend-multiply">
        <path
            d="M43.7649 55.2989C43.8109 55.9353 43.7253 56.5744 43.5134 57.1762C43.3015 57.778 42.9678 58.3298 42.5332 58.7969C42.0788 59.2064 41.5469 59.5206 40.9689 59.7207C40.3913 59.9194 39.7804 60.0031 39.1706 59.967H34.9582V56.8016H37.1506C37.6296 56.8039 38.1079 56.7627 38.5794 56.6784C38.9235 56.6303 39.2453 56.4802 39.5032 56.2473C39.7532 56.0083 39.925 55.6991 39.9958 55.3605C40.0852 54.8981 40.1183 54.4266 40.0944 53.9563V50.6061C40.0585 50.0774 40.133 49.547 40.3133 49.0487C40.4935 48.5504 40.7755 48.095 41.1413 47.7116C41.9052 47.0106 42.9007 46.6159 43.9373 46.6031V46.3198C42.9413 46.2679 41.9897 45.8915 41.2276 45.2482C40.8524 44.9039 40.5544 44.4842 40.353 44.0165C40.1571 43.5365 40.0689 43.0193 40.0944 42.5015V39.1759C40.1115 38.6855 40.0533 38.1953 39.9219 37.7225C39.8511 37.3839 39.6793 37.0747 39.4293 36.8357C39.1724 36.6063 38.8568 36.4528 38.5178 36.3923C38.0583 36.3121 37.5924 36.2749 37.126 36.2814H34.9582V33.0174H39.1706C39.7989 32.9713 40.4296 33.0638 41.0182 33.2884C41.6059 33.5092 42.1393 33.8536 42.5824 34.2984C43.3935 35.2531 43.8039 36.4844 43.7279 37.7348V41.4299C43.6822 41.9392 43.7495 42.4523 43.925 42.9326C44.1039 43.4 44.386 43.8211 44.7502 44.1643C45.629 44.7721 46.6902 45.0592 47.7556 44.9772V47.884C46.6869 47.8082 45.6239 48.0946 44.7379 48.697C44.3538 49.0697 44.0591 49.5244 43.8757 50.0272C43.703 50.5379 43.6442 51.0802 43.7033 51.6161L43.7649 55.2989Z"
            class="primary" />
    </g>
</svg>