<svg xmlns="http://www.w3.org/2000/svg" viewBox="0 0 64 64">
	<defs>
		<style>
			.isolate{isolation:isolate;}
            .base{fill:#85b2d3;}
            .mix-blend-multiply{mix-blend-mode:multiply;}
            .primary{fill:#00ccce;}
		</style>
	</defs>
	<g class="isolate">
		<g id="Layer_1" data-name="Layer 1">
			<path class="base mix-blend-multiply" d="M33.67,34H28.33a1.21,1.21,0,0,0-.88.27,1.23,1.23,0,0,0-.45.81V57a3.19,3.19,0,0,0,3,3h2a3.19,3.19,0,0,0,3-3V35.08a1.23,1.23,0,0,0-.45-.81A1.21,1.21,0,0,0,33.67,34Z" />
			<g class="mix-blend-multiply">
				<path class="base" d="M54,13h3a1,1,0,0,1,1,1v9a1,1,0,0,1-1,1L32,28a2,2,0,0,0-2,2v8a1,1,0,1,0,2,0V31a1,1,0,0,1,1-1l25-4a2,2,0,0,0,2-2V13a2,2,0,0,0-2-2H54Z" />
			</g>
			<path class="primary" d="M52.86,4H5.14A1.23,1.23,0,0,0,4,5.3v7a3.2,3.2,0,0,0,5.45,2.26,3.23,3.23,0,0,0,.93-2.26V10.25a2.2,2.2,0,0,1,.68-1.44,2.05,2.05,0,0,1,2.26-.49,2,2,0,0,1,.69.45,2.14,2.14,0,0,1,.63,1.48,18.64,18.64,0,0,0,.12,2.6,4.81,4.81,0,0,0,9.33,0c.08-.33.12-2.24.12-2.6a3.2,3.2,0,0,1,6.39,0v2.08a3.19,3.19,0,1,0,6.38,0V10.25a3.19,3.19,0,1,1,6.38,0v2.08a2.13,2.13,0,1,0,4.26,0V10.25a2.16,2.16,0,0,1,.67-1.41,2.14,2.14,0,0,1,2.91,0,2.16,2.16,0,0,1,.67,1.41v1a2.1,2.1,0,0,0,.16.82,2.11,2.11,0,0,0,1.15,1.15,2.1,2.1,0,0,0,.82.16V5.29a1.19,1.19,0,0,0-.31-.88A1.21,1.21,0,0,0,52.86,4Z" />
			<g class="mix-blend-multiply">
				<path class="primary" d="M54,18.67V5.33A1.25,1.25,0,0,0,52.86,4H5.14A1.25,1.25,0,0,0,4,5.33V18.67A1.25,1.25,0,0,0,5.14,20H52.86A1.25,1.25,0,0,0,54,18.67Z" />
			</g>
		</g>
	</g>
</svg>
