<svg xmlns="http://www.w3.org/2000/svg" viewBox="0 0 64 64">
    <defs>
        <style>
            .isolate {
                isolation: isolate;
            }

            .base {
                fill: #b7cde1;
            }

            .primary {
                fill: #36a168;
            }

            .mix-blend-multiply {
                mix-blend-mode: multiply;
            }

            .secondary {
                fill: #ffffff;
            }

            .tertiary {
                fill: #f2ad3d;
            }
        </style>
    </defs>
    <g class="isolate">
        <g id="Layer_1" data-name="Layer 1">
            <rect fill="none" width="64" height="64" />
            <path class="base" d="M56.12,11H8.05V53H56.12Z" />
            <path class="primary"
                d="M32,32a9,9,0,0,0,8.82-10.75,9,9,0,0,0-1.6-3.61A8.94,8.94,0,0,0,32.42,14,9,9,0,1,0,32,32Z" />
            <path class="secondary"
                d="M27.71,18.56h8.68v1h-3.7a3.34,3.34,0,0,1,.92,1.82h2.81v1H33.61A3.37,3.37,0,0,1,33,23.83a3.3,3.3,0,0,1-1.24,1l2.65,4.56H33.07L30.58,25.1H27.71v-1h2.78a2.14,2.14,0,0,0,.87-.17,2.23,2.23,0,0,0,.73-.49,2.17,2.17,0,0,0,.59-1h-5V21.41h5A2.28,2.28,0,0,0,32,20.23a2.23,2.23,0,0,0-.73-.49,2.27,2.27,0,0,0-.86-.17h-2.7v-1Z" />
            <path class="base"
                d="M58.61,0H5.34A1.21,1.21,0,0,0,4.5.24,1.2,1.2,0,0,0,4.07,1v9a1.15,1.15,0,0,0,1.27,1H58.61a1.21,1.21,0,0,0,.84-.24,1.16,1.16,0,0,0,.43-.76V1a1.16,1.16,0,0,0-.43-.76A1.21,1.21,0,0,0,58.61,0Z" />
            <g class="mix-blend-multiply">
                <path class="base"
                    d="M58.61,0H5.34A1.21,1.21,0,0,0,4.5.24,1.2,1.2,0,0,0,4.07,1v9a1.15,1.15,0,0,0,1.27,1H58.61a1.21,1.21,0,0,0,.84-.24,1.16,1.16,0,0,0,.43-.76V1a1.16,1.16,0,0,0-.43-.76A1.21,1.21,0,0,0,58.61,0Z" />
            </g>
            <path class="base"
                d="M58.61,53H5.34a1.15,1.15,0,0,0-1.27,1v9a1.15,1.15,0,0,0,1.27,1H58.61a1.21,1.21,0,0,0,.84-.24,1.16,1.16,0,0,0,.43-.76V54a1.16,1.16,0,0,0-.43-.76A1.21,1.21,0,0,0,58.61,53Z" />
            <g class="mix-blend-multiply">
                <path class="base"
                    d="M58.61,53H5.34a1.15,1.15,0,0,0-1.27,1v9a1.15,1.15,0,0,0,1.27,1H58.61a1.21,1.21,0,0,0,.84-.24,1.16,1.16,0,0,0,.43-.76V54a1.16,1.16,0,0,0-.43-.76A1.21,1.21,0,0,0,58.61,53Z" />
            </g>
            <g class="mix-blend-multiply">
                <path class="base" d="M49.47,37.17h-35a1.5,1.5,0,0,0,0,3h35a1.5,1.5,0,0,0,0-3Z" />
            </g>
            <g class="mix-blend-multiply">
                <path class="base" d="M49.47,43.09h-35a1.5,1.5,0,0,0,0,3h35a1.5,1.5,0,0,0,0-3Z" />
            </g>
            <path class="tertiary"
                d="M2.53,3H4.07V8.07H2.53A2.53,2.53,0,0,1,0,5.54a2.5,2.5,0,0,1,.19-1A2.53,2.53,0,0,1,1.56,3.19,2.7,2.7,0,0,1,2.53,3Z" />
            <path class="tertiary" d="M2.53,56H4.07v5H2.53A2.53,2.53,0,0,1,0,58.5H0A2.53,2.53,0,0,1,2.53,56Z" />
            <path class="tertiary"
                d="M61.3,8.08H59.76V3H61.3a2.53,2.53,0,0,1,2.53,2.53,2.5,2.5,0,0,1-.19,1,2.53,2.53,0,0,1-1.37,1.38A2.7,2.7,0,0,1,61.3,8.08Z" />
            <path class="tertiary" d="M61.3,61H59.76V56H61.3a2.52,2.52,0,0,1,2.53,2.53A2.53,2.53,0,0,1,61.3,61Z" />
        </g>
    </g>
</svg>