<svg viewBox="0 0 64 64" fill="none" xmlns="http://www.w3.org/2000/svg">
    <defs>
        <style>
            .base {
                fill: #b7cde1;
            }

            .mix-blend-multiply {
                mix-blend-mode: multiply;
            }

            .primary {
                fill: #42cacd;
            }
        </style>
    </defs>
    <circle cx="31.6939" cy="30.4408" r="8.02282" fill="white" />
    <path
        d="M31.1659 38.4875C20.7863 38.3227 18.7649 46.0572 19.0929 51.3468C19.1657 52.5198 20.1926 53.3528 21.3679 53.3528H41.9124C43.0822 53.3528 44.1092 52.5224 44.2306 51.359C45.3697 40.4413 36.1805 38.1925 31.1659 38.4875Z"
        fill="white"
    />
    <circle cx="51.3666" cy="21.3563" r="8.02282" class="base" />
    <circle cx="12.6337" cy="21.3563" r="8.02282" class="base" />
    <path
        d="M50.8385 29.402C40.4589 29.2373 38.4375 36.9717 38.7655 42.2614C38.8383 43.4344 39.8652 44.2673 41.0405 44.2673H61.585C62.7548 44.2673 63.7818 43.437 63.9032 42.2735C65.0423 31.3558 55.8531 29.107 50.8385 29.402Z"
        class="base"
    />
    <path
        d="M12.1055 29.402C1.72591 29.2373 -0.295479 36.9717 0.0325362 42.2614C0.105277 43.4344 1.13224 44.2673 2.30753 44.2673H22.8521C24.0218 44.2673 25.0488 43.437 25.1702 42.2735C26.3093 31.3558 17.1201 29.107 12.1055 29.402Z"
        class="base"
    />
    <g class="mix-blend-multiply">
        <circle cx="31.6939" cy="30.4408" r="8.02282" class="primary" />
    </g>
    <g class="mix-blend-multiply">
        <path
            d="M31.1659 38.4875C20.7863 38.3227 18.7649 46.0572 19.0929 51.3468C19.1657 52.5198 20.1926 53.3528 21.3679 53.3528H41.9124C43.0822 53.3528 44.1092 52.5224 44.2306 51.359C45.3697 40.4413 36.1805 38.1925 31.1659 38.4875Z"
            class="primary"
        />
    </g>
</svg>
