<svg xmlns="http://www.w3.org/2000/svg" viewBox="0 0 64 64">
    <defs>
        <style>
            .isolate {
                isolation: isolate;
            }

            .base {
                fill: #5bc8cb;
            }

            .primary {
                fill: #b7cde1;
            }

            .mix-blend-multiply {
                mix-blend-mode: multiply;
            }

            .secondary {
                fill: #f2ad3d;
            }

            .tertiary {
                fill: #ffffff;
            }
        </style>
    </defs>
    <g class="isolate">
        <g id="Layer_1" data-name="Layer 1">
            <path
                class="base"
                d="M43,45.7a2.18,2.18,0,0,1-.56,1.46,1.76,1.76,0,0,1-.61.44,1.9,1.9,0,0,1-.74.17H21.94a1.86,1.86,0,0,1-.74-.16,1.93,1.93,0,0,1-.61-.45A2.16,2.16,0,0,1,20,45.7V25.53a11.61,11.61,0,0,1,.75-4.17A10.61,10.61,0,0,1,23,17.8a9.78,9.78,0,0,1,3.27-2.36,9.25,9.25,0,0,1,3.87-.82H33a9.25,9.25,0,0,1,3.87.82A9.91,9.91,0,0,1,40.1,17.8a10.65,10.65,0,0,1,2.18,3.53,11.53,11.53,0,0,1,.72,4.2Z"
            />
            <path
                class="base"
                d="M32.05,12.51a6.2,6.2,0,0,0,4.7-2.32A6.21,6.21,0,0,0,38,5.09,6.19,6.19,0,0,0,34.9.86,6.13,6.13,0,0,0,32.33.1a6.19,6.19,0,0,0-2.66.41A6.3,6.3,0,0,0,26.88,2.8a6.17,6.17,0,0,0-1,3.14,6.22,6.22,0,0,0,6.2,6.52Z"
            />
            <path
                class="primary"
                d="M16,15.62a5.8,5.8,0,0,0,3.18-.94,5.68,5.68,0,0,0-2-10.33A5.68,5.68,0,0,0,11,7.22a5.69,5.69,0,0,0,5,8.4Z"
            />
            <g class="mix-blend-multiply">
                <path
                    class="primary"
                    d="M27,45.7a2.18,2.18,0,0,1-.56,1.46,1.85,1.85,0,0,1-1.36.61H5.92a1.85,1.85,0,0,1-1.36-.61A2.18,2.18,0,0,1,4,45.7V28.53a11.6,11.6,0,0,1,.74-4.17A11.24,11.24,0,0,1,6.92,20.8a10,10,0,0,1,3.28-2.36,9.17,9.17,0,0,1,3.86-.82h2.88a9.17,9.17,0,0,1,3.86.82,10,10,0,0,1,3.28,2.36,10.79,10.79,0,0,1,2.17,3.53,11.35,11.35,0,0,1,.75,4.2Z"
                />
            </g>
            <path
                class="primary"
                d="M48,15.62a5.71,5.71,0,0,0,3.63-1.27,5.69,5.69,0,0,0-1.36-9.68,5.7,5.7,0,0,0-3.84-.22,5.76,5.76,0,0,0-3.1,2.27,5.7,5.7,0,0,0,2.5,8.45A5.77,5.77,0,0,0,48,15.62Z"
            />
            <g class="mix-blend-multiply">
                <path
                    class="primary"
                    d="M60,45.7a2.18,2.18,0,0,1-.56,1.46,1.85,1.85,0,0,1-1.36.61H38.92a1.85,1.85,0,0,1-1.36-.61A2.18,2.18,0,0,1,37,45.7V28.53a11.6,11.6,0,0,1,.74-4.17,11.24,11.24,0,0,1,2.18-3.56,10,10,0,0,1,3.28-2.36,9.17,9.17,0,0,1,3.86-.82h2.88a9.17,9.17,0,0,1,3.86.82,10,10,0,0,1,3.28,2.36,11.1,11.1,0,0,1,2.18,3.53,11.55,11.55,0,0,1,.74,4.2Z"
                />
            </g>
            <path class="secondary" d="M32,63.79a16,16,0,1,0-6.15-1.19A16,16,0,0,0,32,63.79Z" />
            <path
                class="tertiary"
                d="M24.15,51.36A2.39,2.39,0,0,0,24,50.3a2.47,2.47,0,0,0-.59-.9,3.37,3.37,0,0,0-2.14-.56v-2a3.3,3.3,0,0,0,2.11-.62,2,2,0,0,0,.71-1.83V41.77a3.45,3.45,0,0,1,.78-2.39A3.06,3.06,0,0,1,26,38.71a3.16,3.16,0,0,1,1.26-.17h2.91v2.18H28.66a6,6,0,0,0-.95.08,1.12,1.12,0,0,0-.64.3,1.09,1.09,0,0,0-.33.6,3.8,3.8,0,0,0-.08,1V45a2.62,2.62,0,0,1-.13,1,2.58,2.58,0,0,1-.58.9,3.27,3.27,0,0,1-1.87.73v.13a2.82,2.82,0,0,1,1.86.78,2.46,2.46,0,0,1,.57.91,2.78,2.78,0,0,1,.15,1.07v2.27a3.34,3.34,0,0,0,.11,1,1.05,1.05,0,0,0,.33.62,1.12,1.12,0,0,0,.65.28,3.54,3.54,0,0,0,1,.08h1.49V57H27.28A3.24,3.24,0,0,1,25,56.21a3.23,3.23,0,0,1-.82-2.47Z"
            />
            <path
                class="tertiary"
                d="M39.76,53.87a2.92,2.92,0,0,1-.16,1.34,2.68,2.68,0,0,1-1.12,1.5,2.72,2.72,0,0,1-1.84.4H33.71V54.87h1.45a6.24,6.24,0,0,0,1-.08,1.18,1.18,0,0,0,.64-.29,1.13,1.13,0,0,0,.34-.61,4.23,4.23,0,0,0,.09-1V50.61a2.89,2.89,0,0,1,.19-1.06,2.4,2.4,0,0,1,.58-.92,2.8,2.8,0,0,1,1.91-.84v-.2A3,3,0,0,1,38,46.86a2.29,2.29,0,0,1-.58-.89,2.48,2.48,0,0,1-.15-1V42.71a4.27,4.27,0,0,0-.09-1,1.31,1.31,0,0,0-.35-.6,1.37,1.37,0,0,0-.63-.3,6,6,0,0,0-.95-.08H33.71V38.54h2.93a3.18,3.18,0,0,1,1.26.17,3.11,3.11,0,0,1,1.08.67,3.36,3.36,0,0,1,.78,2.39V44.3a2.32,2.32,0,0,0,.71,1.89,3.15,3.15,0,0,0,2.1.59v2a3.33,3.33,0,0,0-2.08.56,2.33,2.33,0,0,0-.6.92,2.39,2.39,0,0,0-.13,1.09Z"
            />
        </g>
    </g>
</svg>
