<svg xmlns="http://www.w3.org/2000/svg" viewBox="0 0 64 64">
    <defs>
        <style>
            .isolate {
                isolation: isolate;
            }

            .base {
                fill: #b7cde1;
            }

            .secondary {
                fill: #f2ad3d;
            }

            .primary {
                fill: #b5cbdf;
            }

            .tertiary {
                fill: #5dcbcc;
            }

            .mix-blend-multiply {
                mix-blend-mode: multiply;
            }
        </style>
    </defs>
    <g class="isolate">
        <path
            class="base"
            d="M30.06,22.9h1a14.77,14.77,0,0,1,14.48,15V58.1A2,2,0,0,1,45,59.49a2,2,0,0,1-1.38.61H17.48a2,2,0,0,1-1.94-2V37.9a14.79,14.79,0,0,1,14.52-15Z"
        />
        <path
            class="secondary"
            d="M50.19,23.13l2.47-4.52,2.46,4.52,4.51,2.47-4.51,2.45-2.46,4.52-2.47-4.52L45.68,25.6Z"
        />
        <path class="secondary" d="M7.72,18.17l1.94-3.55,1.93,3.55,3.55,1.94L11.59,22,9.66,25.59,7.72,22,4.17,20.11Z" />
        <path class="primary" d="M30.54,21.9a9,9,0,1,0-6.36-2.64A9,9,0,0,0,30.54,21.9Z" />
        <g class="mix-blend-multiply">
            <path
                fill-rule="evenodd"
                clip-rule="evenodd"
                d="M35.77 11.3999C36.5985 11.3999 37.27 12.0715 37.27 12.8999C37.27 14.6848 36.561 16.3966 35.2989 17.6587C34.0367 18.9209 32.3249 19.6299 30.54 19.6299C29.7116 19.6299 29.04 18.9583 29.04 18.1299C29.04 17.3015 29.7116 16.6299 30.54 16.6299C31.5293 16.6299 32.478 16.2369 33.1775 15.5374C33.8771 14.8379 34.27 13.8892 34.27 12.8999C34.27 12.0715 34.9416 11.3999 35.77 11.3999Z"
                class="base"
            />
            <path class="tertiary" d="M30.54,22.9c18,0,12,21,28,20-4,7-13,15-22,15C16.54,44.9,43.54,29.9,30.54,22.9Z" />
        </g>
        <g class="mix-blend-multiply">
            <path
                fill-rule="evenodd"
                clip-rule="evenodd"
                d="M19.04 9.33008C19.04 8.50165 19.7116 7.83008 20.54 7.83008H30.54C31.3685 7.83008 32.04 8.50165 32.04 9.33008C32.04 10.1585 31.3685 10.8301 30.54 10.8301H20.54C19.7116 10.8301 19.04 10.1585 19.04 9.33008Z"
                class="base"
            />
        </g>
    </g>
</svg>
