<svg viewBox="0 0 64 64" fill="none" xmlns="http://www.w3.org/2000/svg">
    <defs>
        <style>
            .isolate {
                isolation: isolate;
            }

            .base {
                fill: #b7cde1;
            }

            .primary {
                fill: #f05656;
            }

            .mix-blend-multiply {
                mix-blend-mode: multiply;
            }
        </style>
    </defs>
    <path
        d="M37.2899 22.8999H38.2899C42.1968 22.9761 45.9143 24.5975 48.6283 27.4089C51.3422 30.2204 52.8315 33.9927 52.7699 37.8999V58.0999C52.7701 58.6201 52.5677 59.1199 52.2055 59.4933C51.8433 59.8667 51.3499 60.0843 50.8299 60.0999H24.7099C24.1879 60.0845 23.6926 59.8656 23.3299 59.4899C22.9701 59.1167 22.7694 58.6183 22.7699 58.0999V37.8999C22.7084 33.9859 24.2031 30.2076 26.9257 27.395C29.6483 24.5825 33.376 22.9657 37.2899 22.8999V22.8999Z"
        fill="white" />
    <path
        d="M37.7699 21.8999C39.5499 21.8999 41.29 21.3721 42.77 20.3831C44.2501 19.3942 45.4036 17.9886 46.0848 16.3441C46.766 14.6995 46.9442 12.8899 46.597 11.1441C46.2497 9.39826 45.3925 7.79462 44.1339 6.53595C42.8752 5.27727 41.2715 4.42011 39.5257 4.07284C37.7799 3.72557 35.9703 3.9038 34.3257 4.58499C32.6812 5.26618 31.2756 6.41973 30.2867 7.89977C29.2977 9.37982 28.7699 11.1199 28.7699 12.8999C28.7699 15.2869 29.7181 17.576 31.4059 19.2639C33.0938 20.9517 35.3829 21.8999 37.7699 21.8999V21.8999Z"
        fill="white" />

    <path
        d="M37.3199 38.6397C37.2428 36.9621 36.5222 35.3787 35.308 34.2185C34.0938 33.0583 32.4793 32.4105 30.7999 32.4097C29.1205 32.4105 27.506 33.0583 26.2918 34.2185C25.0776 35.3787 24.3571 36.9621 24.2799 38.6397C24.1245 37.0235 23.3725 35.5232 22.1707 34.4315C20.9689 33.3398 19.4036 32.7349 17.7799 32.7349C16.1563 32.7349 14.5909 33.3398 13.3891 34.4315C12.1873 35.5232 11.4354 37.0235 11.2799 38.6397C11.2299 48.4197 24.2799 54.9997 24.2799 54.9997C24.2799 54.9997 37.3199 48.4197 37.3199 38.6397Z"
        fill="white" />
    <g class="mix-blend-multiply">
        <path
            d="M37.2899 22.8999H38.2899C42.1968 22.9761 45.9143 24.5975 48.6283 27.4089C51.3422 30.2204 52.8315 33.9927 52.7699 37.8999V58.0999C52.7701 58.6201 52.5677 59.1199 52.2055 59.4933C51.8433 59.8667 51.3499 60.0843 50.8299 60.0999H24.7099C24.1879 60.0845 23.6926 59.8656 23.3299 59.4899C22.9701 59.1167 22.7694 58.6183 22.7699 58.0999V37.8999C22.7084 33.9859 24.2031 30.2076 26.9257 27.395C29.6483 24.5825 33.376 22.9657 37.2899 22.8999V22.8999Z"
            class="base" />
    </g>
    <g class="mix-blend-multiply">
        <path
            d="M37.7699 21.8999C39.5499 21.8999 41.29 21.3721 42.77 20.3831C44.2501 19.3942 45.4036 17.9886 46.0848 16.3441C46.766 14.6995 46.9442 12.8899 46.597 11.1441C46.2497 9.39826 45.3925 7.79462 44.1339 6.53595C42.8752 5.27727 41.2715 4.42011 39.5257 4.07284C37.7799 3.72557 35.9703 3.9038 34.3257 4.58499C32.6812 5.26618 31.2756 6.41973 30.2867 7.89977C29.2977 9.37982 28.7699 11.1199 28.7699 12.8999C28.7699 15.2869 29.7181 17.576 31.4059 19.2639C33.0938 20.9517 35.3829 21.8999 37.7699 21.8999V21.8999Z"
            class="base" />
    </g>
    <g class="mix-blend-multiply">
        <path fill-rule="evenodd" clip-rule="evenodd"
            d="M42.9999 11.3999C43.8283 11.3999 44.4999 12.0715 44.4999 12.8999C44.4999 14.6848 43.7908 16.3966 42.5287 17.6587C41.2666 18.9209 39.5548 19.6299 37.7699 19.6299C36.9415 19.6299 36.2699 18.9583 36.2699 18.1299C36.2699 17.3015 36.9415 16.6299 37.7699 16.6299C38.7592 16.6299 39.7079 16.2369 40.4074 15.5374C41.1069 14.8379 41.4999 13.8892 41.4999 12.8999C41.4999 12.0715 42.1715 11.3999 42.9999 11.3999Z"
            class="base" />
    </g>
    <g class="mix-blend-multiply">
        <path fill-rule="evenodd" clip-rule="evenodd"
            d="M26.2699 9.33008C26.2699 8.50165 26.9415 7.83008 27.7699 7.83008H37.7699C38.5983 7.83008 39.2699 8.50165 39.2699 9.33008C39.2699 10.1585 38.5983 10.8301 37.7699 10.8301H27.7699C26.9415 10.8301 26.2699 10.1585 26.2699 9.33008Z"
            class="base" />
    </g>
    <g class="mix-blend-multiply">
        <path
            d="M37.3199 38.6397C37.2428 36.9621 36.5222 35.3787 35.308 34.2185C34.0938 33.0583 32.4793 32.4105 30.7999 32.4097C29.1205 32.4105 27.506 33.0583 26.2918 34.2185C25.0776 35.3787 24.3571 36.9621 24.2799 38.6397C24.1245 37.0235 23.3725 35.5232 22.1707 34.4315C20.9689 33.3398 19.4036 32.7349 17.7799 32.7349C16.1563 32.7349 14.5909 33.3398 13.3891 34.4315C12.1873 35.5232 11.4354 37.0235 11.2799 38.6397C11.2299 48.4197 24.2799 54.9997 24.2799 54.9997C24.2799 54.9997 37.3199 48.4197 37.3199 38.6397Z"
            class="primary" />
    </g>
</svg>