<svg viewBox="0 0 64 64" fill="none" xmlns="http://www.w3.org/2000/svg">
    <defs>
        <style>
            .isolate {
                isolation: isolate;
            }

            .base {
                fill: #d7e3ee;
            }

            .primary {
                fill: #42cacd;
            }

            .mix-blend-multiply {
                mix-blend-mode: multiply;
            }
        </style>
    </defs>
    <g clip-path="url(#clip0_621_10287)">
        <circle cx="32" cy="32" r="32" class="base" />
        <mask id="mask0_621_10287" maskUnits="userSpaceOnUse" x="0" y="0">
            <circle cx="32" cy="32" r="32" class="base" />
        </mask>
        <g mask="url(#mask0_621_10287)">
            <g class="mix-blend-multiply">
                <path
                    d="M12 57.1307V63.4749C12 65.5084 52 65.5084 52 63.4749V57.3341C52 42.9782 42.7351 37 31.859 37C20.9829 37 12 42.7749 12 57.1307Z"
                    class="primary"
                />
                <path
                    d="M32.0454 36.9999C30.2541 37.0068 28.5016 36.4864 27.0128 35.5055C25.5421 34.5407 24.3899 33.1737 23.6977 31.5726C23.1619 30.3321 22.9293 28.985 23.0187 27.6398C23.0707 26.2701 23.4251 24.9281 24.0572 23.7069C24.6901 22.5452 25.5776 21.5367 26.6553 20.7544C27.733 19.9722 28.9738 19.4358 30.288 19.1841C32.0308 18.82 33.8453 18.9987 35.4803 19.6954C37.1126 20.3668 38.5036 21.5036 39.4745 22.9597C40.3907 24.3023 40.9157 25.8666 40.9923 27.4824C41.0595 29.1089 40.6874 30.7239 39.9139 32.1625C39.1315 33.5708 37.9747 34.743 36.5675 35.5536C35.1603 36.3642 33.5558 36.7826 31.9256 36.764L32.0454 36.9999Z"
                    class="primary"
                />
            </g>
        </g>
    </g>
</svg>
