<svg width="64" height="64" viewBox="0 0 64 64" fill="none" xmlns="http://www.w3.org/2000/svg">
    <defs>
        <style>
            .base {
                fill: #B7CDE1
            }

            .mix-blend-multiply {
                mix-blend-mode: multiply
            }

            .primary {
                fill: #FEB452
            }

            .secondary {
                fill: #B7CDE1
            }

            .tertiary {
                fill: #F05656
            }
        </style>
    </defs>
    <path
        d="M59.532 38.0819L56.3275 41.2864C55.4184 42.1956 53.9457 42.1956 53.0366 41.2864L52.2138 40.4637C51.3047 39.5546 51.3047 38.0819 52.2138 37.1728L55.4184 33.9682C53.2052 33.2524 50.6794 33.7708 48.9229 35.5273C47.1664 37.2838 46.6481 39.8096 47.3639 42.0228L34.5252 54.8616C33.3898 55.9969 33.3898 57.8399 34.5252 58.9752C35.6605 60.1106 37.5035 60.1106 38.6388 58.9752L51.4775 46.1365C53.6906 46.8522 56.2164 46.3339 57.9729 44.5774C59.7295 42.8208 60.2478 40.295 59.532 38.0819ZM35.7593 57.7411C35.3068 57.2886 35.3068 56.5482 35.7593 56.0957C36.2118 55.6432 36.9522 55.6432 37.4047 56.0957C37.8572 56.5482 37.8572 57.2886 37.4047 57.7411C36.9522 58.1936 36.2118 58.1936 35.7593 57.7411Z"
        fill="white" />
    <path
        d="M43.6743 48.2754L47.8085 44.1411L58.5575 54.8902C59.4708 55.8035 59.4708 57.2843 58.5575 58.1976L57.7306 59.0244C56.8173 59.9377 55.3366 59.9377 54.4233 59.0244L43.6743 48.2754Z"
        fill="white" />
    <g class="mix-blend-multiply">
        <path
            d="M35.0568 33.9119L33.4114 35.5574L35.8795 38.8483L37.1136 39.2597L45.7523 47.8984L47.3977 46.2529L38.7591 37.6142L38.3477 36.3801L35.0568 33.9119Z"
            fill="white" />
    </g>
    <path d="M23.9999 4H30.6665L29.3332 10.6667H25.3332L23.9999 4Z" fill="white" />
    <circle cx="27.3334" cy="19.3327" r="12.6667" class="base" />
    <path
        d="M41.3335 19.333C41.3335 17.4945 40.9714 15.674 40.2678 13.9754C39.5642 12.2769 38.533 10.7335 37.233 9.43351C35.933 8.13349 34.3896 7.10226 32.6911 6.39869C30.9925 5.69513 29.172 5.33301 27.3335 5.33301C25.495 5.33301 23.6745 5.69513 21.9759 6.39869C20.2774 7.10226 18.734 8.13349 17.434 9.43351C16.134 10.7335 15.1027 12.2769 14.3992 13.9754C13.6956 15.674 13.3335 17.4945 13.3335 19.333L27.3335 19.333H41.3335Z"
        class="primary" />
    <g class="mix-blend-multiply">
        <path d="M23.9999 4H30.6665L29.3332 10.6667H25.3332L23.9999 4Z" class="primary" />
    </g>
    <rect x="11.9998" y="17.333" width="30.6667" height="2.66667" class="base" />
    <g class="mix-blend-multiply">
        <rect x="11.9998" y="17.333" width="30.6667" height="2.66667" class="primary" />
    </g>
    <path
        d="M25.7191 32.0462C5.97331 31.7177 3.08674 48.089 4.20822 57.9729C4.34229 59.1544 5.37123 60 6.56037 60H46.5696C47.7534 60 48.7794 59.1554 48.9479 57.9836C52.1165 35.9567 34.9639 31.4762 25.7191 32.0462Z"
        class="base" />
    <g class="mix-blend-multiply">
        <path
            d="M59.532 38.0819L56.3275 41.2864C55.4184 42.1956 53.9457 42.1956 53.0366 41.2864L52.2138 40.4637C51.3047 39.5546 51.3047 38.0819 52.2138 37.1728L55.4184 33.9682C53.2052 33.2524 50.6794 33.7708 48.9229 35.5273C47.1664 37.2838 46.6481 39.8096 47.3639 42.0228L34.5252 54.8616C33.3898 55.9969 33.3898 57.8399 34.5252 58.9752C35.6605 60.1106 37.5035 60.1106 38.6388 58.9752L51.4775 46.1365C53.6906 46.8522 56.2164 46.3339 57.9729 44.5774C59.7295 42.8208 60.2478 40.295 59.532 38.0819ZM35.7593 57.7411C35.3068 57.2886 35.3068 56.5482 35.7593 56.0957C36.2118 55.6432 36.9522 55.6432 37.4047 56.0957C37.8572 56.5482 37.8572 57.2886 37.4047 57.7411C36.9522 58.1936 36.2118 58.1936 35.7593 57.7411Z"
            class="secondary" />
    </g>
    <path
        d="M43.6748 48.2754L47.809 44.1411L58.558 54.8902C59.4713 55.8035 59.4713 57.2843 58.558 58.1976L57.7311 59.0244C56.8178 59.9377 55.3371 59.9377 54.4237 59.0244L43.6748 48.2754Z"
        class="tertiary" />
    <g class="mix-blend-multiply">
        <path
            d="M35.0568 33.9119L33.4114 35.5574L35.8795 38.8483L37.1136 39.2597L45.7523 47.8984L47.3977 46.2529L38.7591 37.6142L38.3477 36.3801L35.0568 33.9119Z"
            class="base" />
    </g>
</svg>