<svg xmlns="http://www.w3.org/2000/svg" xmlns:xlink="http://www.w3.org/1999/xlink" viewBox="0 0 64 64">
    <defs>
        <style>
            .isolate {
                isolation: isolate;
            }

            .base {
                fill: #b7cde1;
            }

            .primary {
                fill: #42cacd;
            }

            .mix-blend-multiply {
                mix-blend-mode: multiply;
            }
        </style>
    </defs>
    <g class="isolate">
        <mask id="a" x="6.89" y="19.73" width="20.11" height="20.27" maskUnits="userSpaceOnUse">
            <path d="M17,39.84A10.06,10.06,0,1,1,27,29.79,10.08,10.08,0,0,1,17,39.84Z" class="base" />
        </mask>
        <g class="mix-blend-multiply">
            <path
                d="M57.38,44H6.61A2.66,2.66,0,0,1,4,41.31V13.69A2.66,2.66,0,0,1,6.61,11H57.39A2.66,2.66,0,0,1,60,13.69V41.32A2.67,2.67,0,0,1,57.38,44Z"
                class="base" />
        </g>
        <g class="mix-blend-multiply">
            <path d="M17,39.84A10.06,10.06,0,1,0,6.89,29.79,10.05,10.05,0,0,0,17,39.84Z" class="base" />
        </g>
        <g class="mix-blend-multiply">
            <g mask="url(#a)">
                <path
                    d="M23.81,39.35a.65.65,0,0,1-.66.65h-12a.65.65,0,0,1-.65-.65V34.57c0-2.21,2.57-4,5.81-4H18c3.24,0,5.82,1.75,5.82,4Z"
                    class="base" />
            </g>
        </g>
        <g class="mix-blend-multiply">
            <circle cx="17.16" cy="26.38" r="3.02" class="base" />
        </g>
        <rect x="32" y="20" width="21" height="3" rx="1.5" class="base mix-blend-multiply" />
        <rect x="32" y="26" width="15" height="3" rx="1.5" class="base mix-blend-multiply" />
        <g class="mix-blend-multiply">
            <path
                d="M45.64,36.17a1,1,0,0,1,.65.22,1,1,0,0,1,.35.58l.56,2.68a1.11,1.11,0,0,0,.22.45,1.07,1.07,0,0,0,.41.28,8.58,8.58,0,0,1,1.35.69.91.91,0,0,0,.45.16.94.94,0,0,0,.47-.06l2.55-1a1,1,0,0,1,.68,0,1,1,0,0,1,.54.42l1.66,2.57a1,1,0,0,1,.15.68,1,1,0,0,1-.34.61l-2,1.7a1.07,1.07,0,0,0-.28.41A1.21,1.21,0,0,0,53,47a.86.86,0,0,1,0,.16,4.49,4.49,0,0,0,0,.64l0,.16c0,.24,0,.49,0,.73a1,1,0,0,0,.08.49,1.07,1.07,0,0,0,.31.39l2.09,1.59a1,1,0,0,1,.37.58,1,1,0,0,1-.1.69l-1.45,2.7a.94.94,0,0,1-.51.45,1,1,0,0,1-.69,0l-2.61-.88a1,1,0,0,0-.48,0,.91.91,0,0,0-.44.19,8.39,8.39,0,0,1-1.29.76,1.07,1.07,0,0,0-.39.31,1,1,0,0,0-.19.47L47.44,59a1,1,0,0,1-.34.62,1,1,0,0,1-.66.24l-3.13.1a1,1,0,0,1-1-.8l-.59-2.88a1,1,0,0,0-.2-.43,1,1,0,0,0-.38-.28A9.06,9.06,0,0,1,40,55a1,1,0,0,0-.45-.17,1.12,1.12,0,0,0-.48.07L36.34,56a1,1,0,0,1-.68,0,1.07,1.07,0,0,1-.54-.42L33.47,53a1,1,0,0,1-.14-.68,1,1,0,0,1,.33-.61l2.29-2a1.05,1.05,0,0,0,.35-.93l0-.51c0-.18,0-.36,0-.54a1.08,1.08,0,0,0-.41-.85l-2.46-1.87a1,1,0,0,1-.27-1.27l1.45-2.7a1,1,0,0,1,.52-.45.94.94,0,0,1,.68,0l2.87,1a1,1,0,0,0,.48,0,.91.91,0,0,0,.44-.19,6.71,6.71,0,0,1,1-.67,1,1,0,0,0,.36-.31A.9.9,0,0,0,41.1,40l.38-2.9a1,1,0,0,1,.34-.62,1,1,0,0,1,.66-.25Zm-.78,16.68A4.76,4.76,0,0,1,40.42,50a4.72,4.72,0,0,1,.91-5.2,4.76,4.76,0,0,1,7.89,5,4.61,4.61,0,0,1-1,1.58,4.55,4.55,0,0,1-1.53,1.07A4.64,4.64,0,0,1,44.86,52.85Z"
                class="primary" fill-rule="evenodd" />
        </g>
    </g>
</svg>