<svg viewBox="0 0 64 64" fill="none" xmlns="http://www.w3.org/2000/svg">
    <defs>
        <style>
            .base {
                fill: #b7cde1;
            }

            .mix-blend-multiply {
                mix-blend-mode: multiply;
            }

            .primary {
                fill: #42cacd;
            }
        </style>
    </defs>
    <rect x="8" y="9" width="14" height="3" rx="1.5" fill="white" />
    <path
        d="M20.4561 25.6123H21.5893C26.0165 25.6984 30.2292 27.529 33.3046 30.7032C36.3801 33.8774 38.0677 38.1365 37.9979 42.5478V58C37.9982 58.5873 37.7688 59.1516 37.3583 59.5732C36.9479 59.9948 36.3887 60.2404 35.7995 60.2581H6.20047C5.60894 60.2407 5.04769 59.9935 4.63666 59.5694C4.22898 59.148 4.00147 58.5853 4.00207 58V42.5478C3.93237 38.1288 5.62618 33.8629 8.71139 30.6874C11.7966 27.512 16.0208 25.6866 20.4561 25.6123Z"
        class="base"
    />
    <path
        d="M20.9369 24.3176C22.9461 24.3176 24.9102 23.7218 26.5808 22.6055C28.2514 21.4893 29.5535 19.9027 30.3224 18.0464C31.0913 16.1901 31.2924 14.1475 30.9005 12.1769C30.5085 10.2063 29.5409 8.39618 28.1202 6.97545C26.6995 5.55471 24.8894 4.58718 22.9187 4.1952C20.9481 3.80322 18.9055 4.0044 17.0493 4.7733C15.193 5.54219 13.6064 6.84427 12.4901 8.51487C11.3739 10.1855 10.7781 12.1496 10.7781 14.1588C10.7781 16.8531 11.8484 19.437 13.7535 21.3421C15.6587 23.2473 18.2426 24.3176 20.9369 24.3176Z"
        class="base"
    />
    <g class="mix-blend-multiply">
        <rect x="8" y="9" width="14" height="3" rx="1.5" class="base" />
    </g>
    <g class="mix-blend-multiply">
        <path
            d="M27.5292 18.2897C27.8605 17.7157 27.6656 16.9699 27.0406 16.7495C26.4383 16.5371 25.8058 16.414 25.1634 16.3858C24.1198 16.3402 23.0804 16.5467 22.1335 16.988C21.1866 17.4293 20.36 18.0923 19.7237 18.9209C19.3321 19.4309 19.0197 19.9944 18.795 20.5922C18.5617 21.2125 19.0075 21.8415 19.6601 21.9569C20.3128 22.0723 20.9207 21.6228 21.2195 21.0313C21.3345 20.8036 21.4709 20.5863 21.6273 20.3826C22.0286 19.8599 22.55 19.4417 23.1473 19.1634C23.7446 18.885 24.4002 18.7548 25.0585 18.7836C25.3151 18.7948 25.5692 18.8301 25.8175 18.8885C26.4626 19.0402 27.1978 18.8637 27.5292 18.2897Z"
            class="base"
        />
    </g>
    <path
        d="M43.5 56C46.7634 56 49.9535 55.0323 52.6669 53.2192C55.3803 51.4062 57.4952 48.8293 58.744 45.8143C59.9928 42.7993 60.3196 39.4817 59.6829 36.281C59.0463 33.0803 57.4748 30.1403 55.1673 27.8327C52.8597 25.5252 49.9197 23.9537 46.719 23.317C43.5183 22.6804 40.2007 23.0071 37.1857 24.256C34.1707 25.5048 31.5938 27.6197 29.7808 30.3331C27.9677 33.0465 27 36.2366 27 39.5C27 43.8761 28.7384 48.0729 31.8327 51.1673C34.9271 54.2616 39.1239 56 43.5 56Z"
        class="primary"
    />
    <g class="mix-blend-multiply">
        <path
            d="M41.5648 43.05C41.1148 38.7 46.1648 39.025 46.1648 36.15C46.1648 34.925 45.2398 34.1 43.8898 34.1C42.2148 34.1 41.2398 35.275 41.4898 37.075L38.0148 36.775C37.7898 33.3 40.1398 31 43.8898 31C47.5148 31 49.9148 33 49.9148 36.15C49.9148 40.65 44.8648 40.275 45.0398 43.05H41.5648ZM43.4148 48.9C42.1898 48.9 41.2648 47.975 41.2648 46.775C41.2648 45.55 42.1898 44.625 43.4148 44.625C44.6398 44.625 45.5898 45.55 45.5898 46.775C45.5898 47.975 44.6398 48.9 43.4148 48.9Z"
            class="primary"
        />
    </g>
</svg>
