<svg xmlns="http://www.w3.org/2000/svg" viewBox="0 0 64 64">
	<defs>
		<style>
			.isolate {
				isolation: isolate;
			}

			.base {
				fill: #b7cde1;
			}

			.primary {
				fill: #42cacd;
			}

			.mix-blend-multiply {
				mix-blend-mode: multiply;
			}

			.secondary {
				fill: #1482ff;
			}
		</style>
	</defs>
	<g class="isolate">
		<g id="Layer_1" data-name="Layer 1">
			<path class="base"
				d="M32.21,25.33a10.67,10.67,0,0,0,9.86-6.59A10.68,10.68,0,0,0,28.13,4.8a10.67,10.67,0,0,0,4.08,20.53Z" />
			<path class="base"
				d="M31.35,28.44H32.8c12,0,21.79,8,21.79,17.78v15.4A2.68,2.68,0,0,1,51.69,64H12.47a2.72,2.72,0,0,1-1.94-.59,2.69,2.69,0,0,1-1-1.78V46.22C9.56,36.4,19.31,28.44,31.35,28.44Z" />
			<g class="mix-blend-multiply">
				<path fill-rule="evenodd" clip-rule="evenodd"
					d="M16.67 21.7998C17.4985 21.7998 18.17 22.4714 18.17 23.2998V30.9898H26.27C27.0985 30.9898 27.77 31.6614 27.77 32.4898C27.77 33.3182 27.0985 33.9898 26.27 33.9898H16.67C15.8416 33.9898 15.17 33.3182 15.17 32.4898V23.2998C15.17 22.4714 15.8416 21.7998 16.67 21.7998Z"
					class="primary" />
			</g>
			<g class="mix-blend-multiply">
				<path fill-rule="evenodd" clip-rule="evenodd"
					d="M47.68 21.7998C48.5085 21.7998 49.18 22.4714 49.18 23.2998V32.4898C49.18 33.3182 48.5085 33.9898 47.68 33.9898H37.15C36.3216 33.9898 35.65 33.3182 35.65 32.4898C35.65 31.6614 36.3216 30.9898 37.15 30.9898H46.18V23.2998C46.18 22.4714 46.8516 21.7998 47.68 21.7998Z"
					class="primary" />
			</g>
			<g class="mix-blend-multiply">
				<path fill-rule="evenodd" clip-rule="evenodd"
					d="M35.53 1.47998C35.53 0.651553 36.2016 -0.0200195 37.03 -0.0200195H47.68C48.5085 -0.0200195 49.18 0.651553 49.18 1.47998V11.04C49.18 11.8684 48.5085 12.54 47.68 12.54C46.8516 12.54 46.18 11.8684 46.18 11.04V2.97998H37.03C36.2016 2.97998 35.53 2.30841 35.53 1.47998Z"
					class="primary" />
			</g>
			<g class="mix-blend-multiply">
				<path fill-rule="evenodd" clip-rule="evenodd"
					d="M15.17 1.47998C15.17 0.651553 15.8416 -0.0200195 16.67 -0.0200195H26.27C27.0985 -0.0200195 27.77 0.651553 27.77 1.47998C27.77 2.30841 27.0985 2.97998 26.27 2.97998H18.17V11.04C18.17 11.8684 17.4985 12.54 16.67 12.54C15.8416 12.54 15.17 11.8684 15.17 11.04V1.47998Z"
					class="primary" />
			</g>
			<g class="mix-blend-multiply">
				<path fill-rule="evenodd" clip-rule="evenodd"
					d="M13.79 17.2598C13.79 16.4313 14.4616 15.7598 15.29 15.7598H48.71C49.5385 15.7598 50.21 16.4313 50.21 17.2598C50.21 18.0882 49.5385 18.7598 48.71 18.7598H15.29C14.4616 18.7598 13.79 18.0882 13.79 17.2598Z"
					class="secondary" />
			</g>
		</g>
	</g>
</svg>