<svg viewBox="0 0 64 64" fill="none" xmlns="http://www.w3.org/2000/svg">
    <defs>
        <style>
            .base {
                fill: #b7cde1;
            }

            .mix-blend-multiply {
                mix-blend-mode: multiply;
            }

            .primary {
                fill: #feb452;
            }

            .secondary {
                fill: #42cacd;
            }
        </style>
    </defs>
    <path d="M24 4H30.6667L29.3333 10.6667H25.3333L24 4Z" fill="white" />
    <path
        fill-rule="evenodd"
        clip-rule="evenodd"
        d="M49.2385 32C49.483 32.0024 49.7203 32.0798 49.9159 32.2209C50.0996 32.3737 50.2283 32.5787 50.2833 32.8062L50.8688 35.5011C50.9051 35.668 50.984 35.8237 51.0984 35.9539C51.2154 36.0796 51.3607 36.1778 51.5232 36.2411C52.0162 36.4285 52.4892 36.6615 52.9353 36.9369C53.0755 37.0271 53.2378 37.0804 53.406 37.0915C53.5728 37.112 53.7423 37.0931 53.8997 37.0363L56.5633 36.0312C56.7927 35.9482 57.0457 35.9482 57.2751 36.0312C57.5108 36.098 57.7117 36.2479 57.8376 36.4509L59.5712 39.0353C59.712 39.2361 59.7655 39.4818 59.7205 39.7201C59.6887 39.96 59.5661 40.1802 59.3761 40.3386L57.2866 42.0173C57.1586 42.1342 57.0604 42.2778 56.9995 42.437C56.9462 42.5706 56.9265 42.7144 56.9421 42.8567C56.9421 42.8567 56.9421 42.9672 56.9421 43.0224C56.9197 43.2354 56.9197 43.45 56.9421 43.663C56.9421 43.7182 56.9421 43.7624 56.9421 43.8176C56.9593 44.064 56.9593 44.3112 56.9421 44.5576C56.9342 44.7241 56.9656 44.8903 57.034 45.0435C57.1039 45.2004 57.2146 45.3373 57.3554 45.4411L59.5368 47.0426C59.7468 47.1762 59.8989 47.379 59.9644 47.6129C60.0299 47.8468 60.0044 48.0956 59.8927 48.3127L58.3772 51.0296C58.26 51.2382 58.0684 51.3991 57.8376 51.4825C57.6042 51.5653 57.3478 51.5653 57.1143 51.4825L54.3934 50.621C54.2282 50.5767 54.0535 50.5767 53.8882 50.621C53.7207 50.6437 53.5623 50.7085 53.429 50.8087C53.0059 51.1042 52.5564 51.3629 52.0858 51.5819C51.921 51.6463 51.7779 51.7533 51.6725 51.8911C51.5697 52.0326 51.5029 52.1952 51.4773 52.366L51.1214 55.0388C51.0876 55.2806 50.9606 55.5014 50.7655 55.6573C50.5724 55.8132 50.3287 55.8991 50.0766 55.9002L46.8046 55.9996C46.5587 56.0059 46.3185 55.9276 46.1272 55.7788C45.9343 55.6336 45.8035 55.4253 45.7598 55.1934L45.1399 52.2998C45.1031 52.1429 45.0291 51.9965 44.9235 51.8719C44.8179 51.7473 44.6837 51.648 44.5314 51.5819C44.1344 51.4055 43.7507 51.2025 43.3833 50.9744C43.2441 50.8807 43.0818 50.8236 42.9126 50.8087C42.7411 50.7863 42.5665 50.8092 42.4075 50.875L39.5143 51.9795C39.2838 52.0569 39.0329 52.0569 38.8025 51.9795C38.5735 51.9004 38.3765 51.7535 38.2399 51.5598L36.5178 48.9312C36.3983 48.7466 36.3458 48.5291 36.3686 48.3127C36.405 48.0774 36.527 47.8621 36.713 47.7052L39.1125 45.7062C39.2464 45.5887 39.3495 45.4424 39.4133 45.2792C39.4772 45.1161 39.5 44.9407 39.4798 44.7674C39.4684 44.5982 39.4684 44.4285 39.4798 44.2594C39.4798 44.0716 39.4798 43.8949 39.4798 43.7182C39.4804 43.5532 39.4426 43.3902 39.3691 43.2411C39.2956 43.092 39.1883 42.9607 39.0551 42.8567L36.4948 40.9792C36.3756 40.9137 36.272 40.8248 36.1909 40.7182C36.1098 40.6117 36.0529 40.4898 36.0241 40.3607C35.9704 40.1243 36.0071 39.8773 36.1275 39.6649L37.6429 36.9479C37.768 36.7455 37.9571 36.5868 38.1825 36.4951C38.4119 36.412 38.6649 36.412 38.8943 36.4951L41.9023 37.5001C42.0649 37.5346 42.2334 37.5346 42.396 37.5001C42.5636 37.4709 42.7213 37.4026 42.8552 37.3013C43.1843 37.0504 43.5336 36.8251 43.9 36.6276C44.0531 36.5595 44.184 36.4526 44.2788 36.3184C44.3768 36.1867 44.4434 36.0359 44.474 35.8766L44.8643 32.9609C44.9006 32.7167 45.0269 32.4933 45.2202 32.3313C45.3127 32.2491 45.4211 32.1852 45.5394 32.1435C45.6576 32.1018 45.7833 32.0831 45.9091 32.0884L49.2385 32ZM48.4234 48.7766C47.4403 48.7974 46.473 48.5359 45.645 48.0255C44.821 47.5126 44.1706 46.7795 43.7737 45.916C43.2696 44.8301 43.2042 43.6024 43.5904 42.4726C43.9765 41.3427 44.7864 40.3919 45.862 39.8055C46.9376 39.2192 48.2018 39.0394 49.4077 39.3013C50.6136 39.5633 51.6749 40.2481 52.3843 41.2221C52.9573 41.99 53.2773 42.9058 53.3027 43.8507C53.3287 44.4839 53.2193 45.1154 52.9813 45.7062C52.7526 46.3008 52.3967 46.8427 51.9365 47.2966C51.4884 47.7656 50.9453 48.1414 50.3407 48.4011C49.7332 48.6455 49.0818 48.7731 48.4234 48.7766V48.7766Z"
        fill="white"
    />
    <g class="mix-blend-multiply">
        <path
            fill-rule="evenodd"
            clip-rule="evenodd"
            d="M49.2385 32C49.483 32.0024 49.7203 32.0798 49.9159 32.2209C50.0996 32.3737 50.2283 32.5787 50.2833 32.8062L50.8688 35.5011C50.9051 35.668 50.984 35.8237 51.0984 35.9539C51.2154 36.0796 51.3607 36.1778 51.5232 36.2411C52.0162 36.4285 52.4892 36.6615 52.9353 36.9369C53.0755 37.0271 53.2378 37.0804 53.406 37.0915C53.5728 37.112 53.7423 37.0931 53.8997 37.0363L56.5633 36.0312C56.7927 35.9482 57.0457 35.9482 57.2751 36.0312C57.5108 36.098 57.7117 36.2479 57.8376 36.4509L59.5712 39.0353C59.712 39.2361 59.7655 39.4818 59.7205 39.7201C59.6887 39.96 59.5661 40.1802 59.3761 40.3386L57.2866 42.0173C57.1586 42.1342 57.0604 42.2778 56.9995 42.437C56.9462 42.5706 56.9265 42.7144 56.9421 42.8567C56.9421 42.8567 56.9421 42.9672 56.9421 43.0224C56.9197 43.2354 56.9197 43.45 56.9421 43.663C56.9421 43.7182 56.9421 43.7624 56.9421 43.8176C56.9593 44.064 56.9593 44.3112 56.9421 44.5576C56.9342 44.7241 56.9656 44.8903 57.034 45.0435C57.1039 45.2004 57.2146 45.3373 57.3554 45.4411L59.5368 47.0426C59.7468 47.1762 59.8989 47.379 59.9644 47.6129C60.0299 47.8468 60.0044 48.0956 59.8927 48.3127L58.3772 51.0296C58.26 51.2382 58.0684 51.3991 57.8376 51.4825C57.6042 51.5653 57.3478 51.5653 57.1143 51.4825L54.3934 50.621C54.2282 50.5767 54.0535 50.5767 53.8882 50.621C53.7207 50.6437 53.5623 50.7085 53.429 50.8087C53.0059 51.1042 52.5564 51.3629 52.0858 51.5819C51.921 51.6463 51.7779 51.7533 51.6725 51.8911C51.5697 52.0326 51.5029 52.1952 51.4773 52.366L51.1214 55.0388C51.0876 55.2806 50.9606 55.5014 50.7655 55.6573C50.5724 55.8132 50.3287 55.8991 50.0766 55.9002L46.8046 55.9996C46.5587 56.0059 46.3185 55.9276 46.1272 55.7788C45.9343 55.6336 45.8035 55.4253 45.7598 55.1934L45.1399 52.2997C45.1031 52.1429 45.0291 51.9965 44.9235 51.8719C44.8179 51.7473 44.6837 51.648 44.5314 51.5819C44.1344 51.4055 43.7507 51.2025 43.3833 50.9744C43.2441 50.8807 43.0818 50.8236 42.9126 50.8087C42.7411 50.7863 42.5665 50.8092 42.4075 50.875L39.5143 51.9795C39.2838 52.0569 39.0329 52.0569 38.8025 51.9795C38.5735 51.9004 38.3765 51.7535 38.2399 51.5598L36.5178 48.9312C36.3983 48.7466 36.3458 48.5291 36.3686 48.3127C36.405 48.0774 36.527 47.8621 36.713 47.7052L39.1125 45.7062C39.2464 45.5887 39.3495 45.4424 39.4133 45.2792C39.4772 45.1161 39.5 44.9407 39.4798 44.7674C39.4684 44.5982 39.4684 44.4285 39.4798 44.2594C39.4798 44.0716 39.4798 43.8949 39.4798 43.7182C39.4804 43.5532 39.4426 43.3902 39.3691 43.2411C39.2956 43.092 39.1883 42.9607 39.0551 42.8567L36.4948 40.9792C36.3756 40.9137 36.272 40.8248 36.1909 40.7182C36.1098 40.6117 36.0529 40.4898 36.0241 40.3607C35.9704 40.1243 36.0071 39.8773 36.1275 39.6649L37.6429 36.9479C37.768 36.7455 37.9571 36.5868 38.1825 36.4951C38.4119 36.412 38.6649 36.412 38.8943 36.4951L41.9023 37.5001C42.0649 37.5346 42.2334 37.5346 42.396 37.5001C42.5636 37.4709 42.7213 37.4026 42.8552 37.3013C43.1843 37.0504 43.5336 36.8251 43.9 36.6276C44.0531 36.5595 44.184 36.4526 44.2788 36.3184C44.3768 36.1867 44.4434 36.0359 44.474 35.8766L44.8643 32.9609C44.9006 32.7167 45.0269 32.4933 45.2202 32.3313C45.3127 32.2491 45.4211 32.1852 45.5394 32.1435C45.6576 32.1018 45.7833 32.0831 45.9091 32.0884L49.2385 32ZM48.4234 48.7766C47.4403 48.7974 46.473 48.5359 45.645 48.0255C44.821 47.5126 44.1706 46.7795 43.7737 45.916C43.2696 44.8301 43.2042 43.6024 43.5904 42.4726C43.9765 41.3427 44.7864 40.3919 45.862 39.8055C46.9376 39.2192 48.2018 39.0394 49.4077 39.3013C50.6136 39.5633 51.6749 40.2481 52.3843 41.2221C52.9573 41.99 53.2773 42.9058 53.3027 43.8507C53.3287 44.4839 53.2193 45.1154 52.9813 45.7062C52.7526 46.3008 52.3967 46.8427 51.9365 47.2966C51.4884 47.7656 50.9453 48.1414 50.3407 48.4011C49.7332 48.6455 49.0818 48.7731 48.4234 48.7766Z"
            fill="white"
        />
    </g>
    <circle cx="27.3334" cy="19.3337" r="12.6667" class="base" />
    <path
        d="M41.3333 19.333C41.3333 17.4945 40.9712 15.674 40.2676 13.9754C39.5641 12.2769 38.5328 10.7335 37.2328 9.43351C35.9328 8.13349 34.3894 7.10226 32.6909 6.39869C30.9923 5.69513 29.1718 5.33301 27.3333 5.33301C25.4948 5.33301 23.6743 5.69513 21.9757 6.39869C20.2772 7.10226 18.7338 8.13349 17.4338 9.43351C16.1338 10.7335 15.1026 12.2769 14.399 13.9754C13.6954 15.674 13.3333 17.4945 13.3333 19.333L27.3333 19.333H41.3333Z"
        class="primary"
    />
    <g class="mix-blend-multiply">
        <path d="M24 4H30.6667L29.3333 10.6667H25.3333L24 4Z" class="primary" />
    </g>
    <rect x="12" y="17.333" width="30.6667" height="2.66667" class="base" />
    <g class="mix-blend-multiply">
        <rect x="12" y="17.333" width="30.6667" height="2.66667" class="primary" />
    </g>
    <path
        d="M25.7193 32.0462C5.96689 31.7176 3.08504 48.1 4.2096 57.9829C4.34338 59.1585 5.36718 60 6.5504 60H46.58C47.7579 60 48.7788 59.1593 48.9468 57.9934C52.1219 35.9581 34.9655 31.4762 25.7193 32.0462Z"
        class="base"
    />
    <g class="mix-blend-multiply">
        <path
            fill-rule="evenodd"
            clip-rule="evenodd"
            d="M49.2385 32C49.483 32.0024 49.7203 32.0798 49.9159 32.2209C50.0996 32.3737 50.2283 32.5787 50.2833 32.8062L50.8688 35.5011C50.9051 35.668 50.984 35.8237 51.0984 35.9539C51.2154 36.0796 51.3607 36.1778 51.5232 36.2411C52.0162 36.4285 52.4892 36.6615 52.9353 36.9369C53.0755 37.0271 53.2378 37.0804 53.406 37.0915C53.5728 37.112 53.7423 37.0931 53.8997 37.0363L56.5633 36.0312C56.7927 35.9482 57.0457 35.9482 57.2751 36.0312C57.5108 36.098 57.7117 36.2479 57.8376 36.4509L59.5712 39.0353C59.712 39.2361 59.7655 39.4818 59.7205 39.7201C59.6887 39.96 59.5661 40.1802 59.3761 40.3386L57.2866 42.0173C57.1586 42.1342 57.0604 42.2778 56.9995 42.437C56.9462 42.5706 56.9265 42.7144 56.9421 42.8567C56.9421 42.8567 56.9421 42.9672 56.9421 43.0224C56.9197 43.2354 56.9197 43.45 56.9421 43.663C56.9421 43.7182 56.9421 43.7624 56.9421 43.8176C56.9593 44.064 56.9593 44.3112 56.9421 44.5576C56.9342 44.7241 56.9656 44.8903 57.034 45.0435C57.1039 45.2004 57.2146 45.3373 57.3554 45.4411L59.5368 47.0426C59.7468 47.1762 59.8989 47.379 59.9644 47.6129C60.0299 47.8468 60.0044 48.0956 59.8927 48.3127L58.3772 51.0296C58.26 51.2382 58.0684 51.3991 57.8376 51.4825C57.6042 51.5653 57.3478 51.5653 57.1143 51.4825L54.3934 50.621C54.2282 50.5767 54.0535 50.5767 53.8882 50.621C53.7207 50.6437 53.5623 50.7085 53.429 50.8087C53.0059 51.1042 52.5564 51.3629 52.0858 51.5819C51.921 51.6463 51.7779 51.7533 51.6725 51.8911C51.5697 52.0326 51.5029 52.1952 51.4773 52.366L51.1214 55.0388C51.0876 55.2806 50.9606 55.5014 50.7655 55.6573C50.5724 55.8132 50.3287 55.8991 50.0766 55.9002L46.8046 55.9996C46.5587 56.0059 46.3185 55.9276 46.1272 55.7788C45.9343 55.6336 45.8035 55.4253 45.7598 55.1934L45.1399 52.2997C45.1031 52.1429 45.0291 51.9965 44.9235 51.8719C44.8179 51.7473 44.6837 51.648 44.5314 51.5819C44.1344 51.4055 43.7507 51.2025 43.3833 50.9744C43.2441 50.8807 43.0818 50.8236 42.9126 50.8087C42.7411 50.7863 42.5665 50.8092 42.4075 50.875L39.5143 51.9795C39.2838 52.0569 39.0329 52.0569 38.8025 51.9795C38.5735 51.9004 38.3765 51.7535 38.2399 51.5598L36.5178 48.9312C36.3983 48.7466 36.3458 48.5291 36.3686 48.3127C36.405 48.0774 36.527 47.8621 36.713 47.7052L39.1125 45.7062C39.2464 45.5887 39.3495 45.4424 39.4133 45.2792C39.4772 45.1161 39.5 44.9407 39.4798 44.7674C39.4684 44.5982 39.4684 44.4285 39.4798 44.2594C39.4798 44.0716 39.4798 43.8949 39.4798 43.7182C39.4804 43.5532 39.4426 43.3902 39.3691 43.2411C39.2956 43.092 39.1883 42.9607 39.0551 42.8567L36.4948 40.9792C36.3756 40.9137 36.272 40.8248 36.1909 40.7182C36.1098 40.6117 36.0529 40.4898 36.0241 40.3607C35.9704 40.1243 36.0071 39.8773 36.1275 39.6649L37.6429 36.9479C37.768 36.7455 37.9571 36.5868 38.1825 36.4951C38.4119 36.412 38.6649 36.412 38.8943 36.4951L41.9023 37.5001C42.0649 37.5346 42.2334 37.5346 42.396 37.5001C42.5636 37.4709 42.7213 37.4026 42.8552 37.3013C43.1843 37.0504 43.5336 36.8251 43.9 36.6276C44.0531 36.5595 44.184 36.4526 44.2788 36.3184C44.3768 36.1867 44.4434 36.0359 44.474 35.8766L44.8643 32.9609C44.9006 32.7167 45.0269 32.4933 45.2202 32.3313C45.3127 32.2491 45.4211 32.1852 45.5394 32.1435C45.6576 32.1018 45.7833 32.0831 45.9091 32.0884L49.2385 32ZM48.4234 48.7766C47.4403 48.7974 46.473 48.5359 45.645 48.0255C44.821 47.5126 44.1706 46.7795 43.7737 45.916C43.2696 44.8301 43.2042 43.6024 43.5904 42.4726C43.9765 41.3427 44.7864 40.3919 45.862 39.8055C46.9376 39.2192 48.2018 39.0394 49.4077 39.3013C50.6136 39.5633 51.6749 40.2481 52.3843 41.2221C52.9573 41.99 53.2773 42.9058 53.3027 43.8507C53.3287 44.4839 53.2193 45.1154 52.9813 45.7062C52.7526 46.3008 52.3967 46.8427 51.9365 47.2966C51.4884 47.7656 50.9453 48.1414 50.3407 48.4011C49.7332 48.6455 49.0818 48.7731 48.4234 48.7766Z"
            class="secondary"
        />
    </g>
</svg>
