<svg xmlns="http://www.w3.org/2000/svg" viewBox="0 0 64 64">
	<defs>
		<style>
			.isolate{isolation:isolate;}
            .mix-blend-multiply{mix-blend-mode:multiply;}
            .primary{fill:#36a168;}
            .base{fill:#b7cde1;}
		</style>
	</defs>
	<g class="isolate">
		<g id="Layer_1" data-name="Layer 1">
			<g class="mix-blend-multiply">
				<path class="primary" d="M34.85,31.56c3-3,1.79-9.14-2.74-13.67s-10.65-5.75-13.67-2.73-1.79,9.14,2.74,13.67S31.83,34.58,34.85,31.56Z" />
			</g>
			<g class="mix-blend-multiply">
				<path class="primary" d="M32.49,32c4.27,0,7.73-6.27,7.73-14S36.76,4,32.49,4s-7.73,6.27-7.73,14S28.22,32,32.49,32Z" />
			</g>
			<g class="mix-blend-multiply">
				<path class="primary" d="M43.07,28.83c4.53-4.53,5.76-10.65,2.74-13.67s-9.14-1.8-13.67,2.73S26.38,28.54,29.4,31.56,38.54,33.36,43.07,28.83Z" />
			</g>
			<path class="base" d="M43.1,60H21a3.62,3.62,0,0,1-3.41-3.16L12,33.77c-.43-2.43,1.22-4.71,3.41-4.71H48.67c2.19,0,3.84,2.28,3.41,4.71L46.51,56.84A3.62,3.62,0,0,1,43.1,60Z" />
			<g class="mix-blend-multiply">
				<path class="base" d="M50.87,39.3H13.26l-1.34-5.53c-.43-2.43,1.22-4.71,3.41-4.71H48.61c2.19,0,3.84,2.28,3.41,4.71L50.68,39.3" />
			</g>
			<g class="mix-blend-multiply">
				<path class="base" d="M12.15,32h39.9a4.16,4.16,0,0,0-.9-1.82A3.3,3.3,0,0,0,48.67,29H15.39a3.23,3.23,0,0,0-1.26.26,3.51,3.51,0,0,0-1.05.74A4,4,0,0,0,12,32" />
			</g>
		</g>
	</g>
</svg>
