<svg xmlns="http://www.w3.org/2000/svg" viewBox="0 0 64 64">
	<defs>
		<style>
			.isolate{isolation:isolate;}
			.base{fill:#b7cde1;}
			.mix-blend-multiply{mix-blend-mode:multiply;}
			.primary{fill:#09cdcd;}
		</style>
	</defs>
	<g class="isolate">
		<g id="Layer_1" data-name="Layer 1">
			<path class="base" d="M25.09,4.71,9.71,20.09a2.76,2.76,0,0,0-.53.78A2.48,2.48,0,0,0,9,21.8V58l7.2-2.4,9.6,4.8,12-4.8,10.8,4.8L57,58V6.4a2.39,2.39,0,0,0-.18-.92,2.39,2.39,0,0,0-1.3-1.3A2.39,2.39,0,0,0,54.6,4H26.8a2.48,2.48,0,0,0-.93.18A2.76,2.76,0,0,0,25.09,4.71Z" />
			<g class="mix-blend-multiply">
				<path class="primary" d="M24.6,5.2V17.55a1.94,1.94,0,0,1-.14.79,2.09,2.09,0,0,1-1.12,1.12,1.94,1.94,0,0,1-.79.14H10.2Z" />
			</g>
			<g class="mix-blend-multiply">
				<path class="primary" d="M41.6,30H6.4a1.5,1.5,0,0,0,0,3H41.6a1.5,1.5,0,0,0,0-3Z" />
			</g>
			<g class="mix-blend-multiply">
				<path class="primary" d="M32.58,37H6.42a1.5,1.5,0,0,0,0,3H32.58a1.5,1.5,0,0,0,0-3Z" />
			</g>
		</g>
	</g>
</svg>
