<svg width="64" height="64" viewBox="0 0 64 64" fill="none" xmlns="http://www.w3.org/2000/svg">
    <defs>
        <style>
            .isolate {
                isolation: isolate;
            }

            .base {
                fill: #b7cde1;
            }

            .mix-blend-multiply {
                mix-blend-mode: multiply;
            }

            .primary {
                fill: #ffab00;
            }

            .secondary {
                fill: #ffffff;
            }
        </style>
    </defs>
    <path
        d="M34.5 21H5.5C4.67157 21 4 21.6716 4 22.5C4 23.3284 4.67157 24 5.5 24H34.5C35.3284 24 36 23.3284 36 22.5C36 21.6716 35.3284 21 34.5 21Z"
        fill="white"
    />
    <path
        d="M34.5 28H8.5C7.67157 28 7 28.6716 7 29.5C7 30.3284 7.67157 31 8.5 31H34.5C35.3284 31 36 30.3284 36 29.5C36 28.6716 35.3284 28 34.5 28Z"
        fill="white"
    />
    <path
        fill-rule="evenodd"
        clip-rule="evenodd"
        d="M44.19 60.0002H11V4.13024C11 4.03738 11.0259 3.94636 11.0747 3.86737C11.1235 3.78839 11.1933 3.72455 11.2764 3.68303C11.3594 3.6415 11.4524 3.62392 11.5449 3.63226C11.6374 3.6406 11.7257 3.67453 11.8 3.73024L17.23 7.87024C17.404 8.00244 17.6165 8.07401 17.835 8.07401C18.0535 8.07401 18.266 8.00244 18.44 7.87024L24.06 3.58024C24.234 3.44804 24.4465 3.37646 24.665 3.37646C24.8835 3.37646 25.096 3.44804 25.27 3.58024L30.89 7.87024C31.0649 8.00485 31.2793 8.07784 31.5 8.07784C31.7207 8.07784 31.9351 8.00485 32.11 7.87024L37.73 3.58024C37.904 3.44804 38.1165 3.37646 38.335 3.37646C38.5535 3.37646 38.766 3.44804 38.94 3.58024L44.56 7.87024C44.734 8.00244 44.9465 8.07401 45.165 8.07401C45.3835 8.07401 45.596 8.00244 45.77 7.87024L51.2 3.73024C51.2743 3.67453 51.3626 3.6406 51.4551 3.63226C51.5476 3.62392 51.6406 3.6415 51.7236 3.68303C51.8067 3.72455 51.8765 3.78839 51.9253 3.86737C51.9741 3.94636 52 4.03738 52 4.13024V52.3202C51.9815 54.3739 51.1486 56.3363 49.6842 57.7763C48.2198 59.2164 46.2437 60.0162 44.19 60.0002Z"
        class="base"
    />
    <path
        fill-rule="evenodd"
        clip-rule="evenodd"
        d="M35.68 52V46H5.00002C4.7348 46 4.48045 46.1054 4.29291 46.2929C4.10537 46.4804 4.00002 46.7348 4.00002 47V52C3.97879 53.0296 4.16062 54.0533 4.53513 55.0127C4.90964 55.972 5.46948 56.8481 6.18268 57.591C6.89587 58.334 7.74845 58.9291 8.6917 59.3424C9.63495 59.7558 10.6504 59.9792 11.68 60H43.36C42.3304 59.9792 41.3149 59.7558 40.3717 59.3424C39.4284 58.9291 38.5759 58.334 37.8627 57.591C37.1495 56.8481 36.5896 55.972 36.2151 55.0127C35.8406 54.0533 35.6588 53.0296 35.68 52Z"
        class="base"
    />
    <g class="mix-blend-multiply">
        <path
            fill-rule="evenodd"
            clip-rule="evenodd"
            d="M35.68 52V47C35.68 46.7348 35.5746 46.4804 35.3871 46.2929C35.1996 46.1054 34.9452 46 34.68 46H11V60H43.36C42.3304 59.9792 41.3149 59.7558 40.3717 59.3424C39.4284 58.9291 38.5759 58.334 37.8627 57.591C37.1495 56.8481 36.5896 55.972 36.2151 55.0127C35.8406 54.0533 35.6588 53.0296 35.68 52Z"
            class="base"
        />
    </g>
    <g class="mix-blend-multiply">
        <path
            d="M34.5 21H5.5C4.67157 21 4 21.6716 4 22.5C4 23.3284 4.67157 24 5.5 24H34.5C35.3284 24 36 23.3284 36 22.5C36 21.6716 35.3284 21 34.5 21Z"
            class="base"
        />
    </g>
    <g class="mix-blend-multiply">
        <path
            d="M34.5 28H8.5C7.67157 28 7 28.6716 7 29.5C7 30.3284 7.67157 31 8.5 31H34.5C35.3284 31 36 30.3284 36 29.5C36 28.6716 35.3284 28 34.5 28Z"
            class="base"
        />
    </g>
    <path
        d="M50 41C51.9778 41 53.9112 40.4135 55.5557 39.3147C57.2002 38.2159 58.4819 36.6541 59.2388 34.8268C59.9957 32.9996 60.1937 30.9889 59.8079 29.0491C59.422 27.1093 58.4696 25.3275 57.0711 23.9289C55.6725 22.5304 53.8907 21.578 51.9509 21.1922C50.0111 20.8063 48.0004 21.0043 46.1732 21.7612C44.3459 22.5181 42.7841 23.7998 41.6853 25.4443C40.5865 27.0888 40 29.0222 40 31C40 32.3132 40.2587 33.6136 40.7612 34.8268C41.2638 36.0401 42.0003 37.1425 42.9289 38.0711C44.8043 39.9464 47.3478 41 50 41Z"
        class="primary"
    />
    <path
        fill-rule="evenodd"
        clip-rule="evenodd"
        d="M45.8 25.6104H55.8V26.8104H51.55C52.0937 27.3813 52.4436 28.1091 52.55 28.8904H55.77V30.0904H52.54C52.4154 30.8424 52.0669 31.5394 51.54 32.0904C51.2056 32.4381 50.8087 32.7196 50.37 32.9203L53.43 38.1504H52L49.14 33.2603H45.77V32.0004H49C49.5742 31.9964 50.1314 31.8047 50.5865 31.4544C51.0415 31.1041 51.3694 30.6145 51.52 30.0604H45.8V28.8604H51.52C51.3895 28.2878 51.0698 27.776 50.6126 27.4077C50.1553 27.0393 49.5872 26.8359 49 26.8304H45.8V25.6304V25.6104Z"
        class="secondary"
    />
</svg>
