<svg xmlns="http://www.w3.org/2000/svg" viewBox="0 0 64 64">
	<defs>
		<style>
			.isolate {
				isolation: isolate;
			}

			.base {
				fill: #b7cde1;
			}

			.mix-blend-multiply {
				mix-blend-mode: multiply;
			}

			.secondary {
				fill: #f05656;
			}

			.tertiary {
				fill: #36a168;
			}

			.primary {
				fill: #42cacd;
			}
		</style>
	</defs>
	<g class="isolate">
		<g id="Layer_1" data-name="Layer 1">
			<path fill="#8fb2d1" d="M55.91,58H44v2H55.91Z" />
			<path fill="#8fb2d1" d="M23,58H11v2H23Z" />
			<path class="base mix-blend-multiply"
				d="M58.85,4H8A1.36,1.36,0,0,0,6.87,5.51v13a1.35,1.35,0,0,0,.27,1A1.41,1.41,0,0,0,8,20H58.85a1.37,1.37,0,0,0,.88-.52,1.41,1.41,0,0,0,.27-1v-13a1.34,1.34,0,0,0-.28-1A1.32,1.32,0,0,0,58.85,4Z" />
			<path class="secondary"
				d="M53.36,13.9a1.52,1.52,0,0,0,.85-.26,1.54,1.54,0,0,0,.56-.68,1.51,1.51,0,0,0,.09-.89,1.54,1.54,0,0,0-1.2-1.2,1.51,1.51,0,0,0-.89.09,1.49,1.49,0,0,0-.68.56,1.52,1.52,0,0,0-.26.85,1.71,1.71,0,0,0,.11.59,1.68,1.68,0,0,0,.83.83,1.71,1.71,0,0,0,.59.11Z" />
			<path class="tertiary"
				d="M48.25,13.9a1.52,1.52,0,0,0,.85-.26,1.54,1.54,0,0,0,.56-.68,1.51,1.51,0,0,0,.09-.89,1.54,1.54,0,0,0-1.2-1.2,1.51,1.51,0,0,0-.89.09,1.49,1.49,0,0,0-.68.56,1.52,1.52,0,0,0-.26.85,1.71,1.71,0,0,0,.11.59,1.68,1.68,0,0,0,.83.83,1.71,1.71,0,0,0,.59.11Z" />
			<g class="mix-blend-multiply">
				<path class="primary"
					d="M33.43,10.41H4.83a1,1,0,0,0-1,1v2a1,1,0,0,0,1,1h28.6a1,1,0,0,0,1-1v-2a1,1,0,0,0-1-1Z" />
			</g>
			<path class="base mix-blend-multiply"
				d="M58.85,23H8a1.37,1.37,0,0,0-.88.52,1.41,1.41,0,0,0-.27,1v13a1.34,1.34,0,0,0,.28,1A1.32,1.32,0,0,0,8,39H58.85a1.37,1.37,0,0,0,.88-.52,1.41,1.41,0,0,0,.27-1v-13a1.34,1.34,0,0,0-.28-1A1.32,1.32,0,0,0,58.85,23Z" />
			<path class="secondary"
				d="M53.47,32.58A1.53,1.53,0,0,0,55,30.75a1.48,1.48,0,0,0-.41-.78,1.49,1.49,0,0,0-1.66-.36,1.52,1.52,0,0,0-.7.55,1.48,1.48,0,0,0-.28.84,1.36,1.36,0,0,0,.11.6,1.32,1.32,0,0,0,.33.51,1.46,1.46,0,0,0,.5.35A1.53,1.53,0,0,0,53.47,32.58Z" />
			<path class="tertiary"
				d="M48.36,32.58a1.52,1.52,0,0,0,1.52-1.82,1.49,1.49,0,0,0-.4-.79,1.55,1.55,0,0,0-.78-.43,1.5,1.5,0,0,0-.89.07,1.56,1.56,0,0,0-.7.54,1.62,1.62,0,0,0-.28.85,1.52,1.52,0,0,0,.1.6,1.6,1.6,0,0,0,.33.51,1.46,1.46,0,0,0,.5.35A1.53,1.53,0,0,0,48.36,32.58Z" />
			<g class="mix-blend-multiply">
				<path class="primary"
					d="M33.54,29.09H4.93a1,1,0,0,0-1,1v2a1,1,0,0,0,1,1H33.54a1,1,0,0,0,1-1v-2a1,1,0,0,0-1-1Z" />
			</g>
			<path class="base mix-blend-multiply"
				d="M59,43H8.22a1.3,1.3,0,0,0-.86.47,1.28,1.28,0,0,0-.29.94V56.59a1.28,1.28,0,0,0,.29.94,1.3,1.3,0,0,0,.86.47H59a1.31,1.31,0,0,0,.87-.47,1.28,1.28,0,0,0,.29-.94V44.41a1.28,1.28,0,0,0-.29-.94A1.31,1.31,0,0,0,59,43Z" />
			<path class="secondary"
				d="M53.55,52.49a1.56,1.56,0,0,0,.86-.27,1.53,1.53,0,0,0,.63-1.6,1.51,1.51,0,0,0-.43-.78,1.54,1.54,0,0,0-2.38.29A1.56,1.56,0,0,0,52,51a1.53,1.53,0,0,0,.47,1.06,1.55,1.55,0,0,0,1.08.43Z" />
			<path class="tertiary"
				d="M48.45,52.49a1.53,1.53,0,0,0,.86-.26,1.54,1.54,0,0,0-.59-2.8,1.57,1.57,0,0,0-1.58.7,1.56,1.56,0,0,0-.23.87,1.53,1.53,0,0,0,.47,1.06A1.58,1.58,0,0,0,48.45,52.49Z" />
			<g class="mix-blend-multiply">
				<path class="primary"
					d="M33.63,49H5a1,1,0,0,0-1,1v2a1,1,0,0,0,1,1H33.63a1,1,0,0,0,1-1V50a1,1,0,0,0-1-1Z" />
			</g>
		</g>
	</g>
</svg>