<svg viewBox="0 0 32 32" fill="none" xmlns="http://www.w3.org/2000/svg">
    <defs>
        <style>
            .base {
                fill: #b7cde1;
            }

            .primary {
                fill: #36a168;
            }

            .secondary {
                fill: #ffffff;
            }

            .mix-blend-multiply {
                mix-blend-mode: multiply;
            }
        </style>
    </defs>
    <g class="mix-blend-multiply">
        <path
            d="M24.5 24C23.4122 24 22.3488 23.6774 21.4444 23.0731C20.5399 22.4687 19.8349 21.6098 19.4187 20.6048C19.0024 19.5998 18.8935 18.4939 19.1057 17.427C19.3179 16.3601 19.8417 15.3801 20.6109 14.6109C21.3801 13.8417 22.3601 13.3179 23.427 13.1057C24.4939 12.8935 25.5998 13.0024 26.6048 13.4187C27.6098 13.8349 28.4687 14.5399 29.0731 15.4444C29.6774 16.3488 30 17.4122 30 18.5C30 19.9587 29.4205 21.3576 28.3891 22.3891C27.3576 23.4205 25.9587 24 24.5 24V24Z"
            class="secondary"
        />
    </g>
    <path
        d="M28.8301 5.16129C28.9848 5.15573 29.139 5.18202 29.2831 5.23854C29.4273 5.29505 29.5583 5.38058 29.668 5.48982C29.7777 5.59906 29.8638 5.72967 29.9209 5.87356C29.978 6.01745 30.005 6.17155 30.0001 6.32629C29.5351 16.4563 24.2401 25.1613 16.5501 29.8263C16.3843 29.9269 16.194 29.9801 16.0001 29.9801C15.8061 29.9801 15.6159 29.9269 15.4501 29.8263C7.76008 25.1413 2.45008 16.4363 2.00008 6.32629C1.99518 6.17155 2.02214 6.01745 2.07927 5.87356C2.1364 5.72967 2.22249 5.59906 2.33219 5.48982C2.4419 5.38058 2.57288 5.29505 2.71702 5.23854C2.86115 5.18202 3.01536 5.15573 3.17008 5.16129H3.61508C5.69691 5.1655 7.77062 4.90166 9.78508 4.37629C11.7537 3.86546 13.6527 3.11661 15.4401 2.14629C15.6111 2.05037 15.804 2 16.0001 2C16.1962 2 16.389 2.05037 16.5601 2.14629C18.3355 3.11215 20.2207 3.86087 22.1751 4.37629C24.1893 4.90335 26.263 5.16886 28.3451 5.16629L28.8301 5.16129Z"
        class="base"
    />
    <g class="mix-blend-multiply">
        <g class="mix-blend-multiply">
            <path
                d="M24.5 24C23.4122 24 22.3488 23.6774 21.4444 23.0731C20.5399 22.4687 19.8349 21.6098 19.4187 20.6048C19.0024 19.5998 18.8935 18.4939 19.1057 17.427C19.3179 16.3601 19.8417 15.3801 20.6109 14.6109C21.3801 13.8417 22.3601 13.3179 23.427 13.1057C24.4939 12.8935 25.5998 13.0024 26.6048 13.4187C27.6098 13.8349 28.4687 14.5399 29.0731 15.4444C29.6774 16.3488 30 17.4122 30 18.5C30 19.9587 29.4205 21.3576 28.3891 22.3891C27.3576 23.4205 25.9587 24 24.5 24V24Z"
                class="primary"
            />
        </g>
    </g>
    <path
        fill-rule="evenodd"
        clip-rule="evenodd"
        d="M23.34 18.9227C23.3911 18.9741 23.4518 19.0149 23.5188 19.0427C23.5857 19.0705 23.6575 19.0849 23.73 19.0849C23.8024 19.0849 23.8742 19.0705 23.9411 19.0427C24.0081 19.0149 24.0688 18.9741 24.12 18.9227L26.225 16.8177C26.3044 16.7501 26.4064 16.7149 26.5106 16.7191C26.6148 16.7233 26.7136 16.7666 26.7873 16.8403C26.8611 16.914 26.9043 17.0129 26.9085 17.1171C26.9127 17.2213 26.8775 17.3232 26.81 17.4027L24 20.1877C23.9619 20.2258 23.9167 20.256 23.8669 20.2766C23.8172 20.2972 23.7638 20.3078 23.71 20.3078C23.6561 20.3078 23.6028 20.2972 23.553 20.2766C23.5032 20.256 23.458 20.2258 23.42 20.1877L22.17 18.9427C22.1024 18.8632 22.0672 18.7613 22.0714 18.6571C22.0756 18.5529 22.1189 18.454 22.1926 18.3803C22.2663 18.3066 22.3651 18.2633 22.4694 18.2591C22.5736 18.2549 22.6755 18.2901 22.755 18.3577L23.34 18.9227Z"
        class="secondary"
    />
</svg>
