<svg viewBox="0 0 64 64" fill="none" xmlns="http://www.w3.org/2000/svg">
    <defs>
        <style>
            .base {
                fill: #b7cde1;
            }

            .mix-blend-multiply {
                mix-blend-mode: multiply;
            }

            .primary {
                fill: #42cacd;
            }
        </style>
    </defs>
    <path
        d="M9.79298 5.22038C18.8598 10.8762 27.5345 7.51046 31.3338 4.55734C31.7345 4.24593 32.2951 4.21846 32.7165 4.50126C41.0355 10.0846 49.6314 7.66883 54.114 5.0114C54.8981 4.54658 56 5.08817 56 5.99966V35.9997C56 46.5737 48.1386 53.2169 32.4156 59.8259C32.1524 59.9366 31.8477 59.9366 31.5845 59.8259C15.8618 53.2169 8.02029 46.5764 8.02029 36.3077V6.15003C8.02029 5.26605 9.04296 4.75253 9.79298 5.22038Z"
        class="base"
    />
    <g class="mix-blend-multiply">
        <path
            d="M38.8206 23.3158C39.7004 22.4501 41.127 22.4501 42.0068 23.3158C42.8867 24.1815 42.8867 25.5851 42.0068 26.4509L30.855 37.4236C29.9752 38.2893 28.5486 38.2893 27.6688 37.4236C26.7889 36.5579 26.7889 35.1543 27.6688 34.2885L38.8206 23.3158Z"
            class="primary"
        />
        <path
            d="M20.6599 31.7471C19.7801 30.8813 19.7801 29.4777 20.6599 28.612C21.5398 27.7463 22.9663 27.7463 23.8461 28.612L30.2186 34.8821C31.0985 35.7479 31.0985 37.1515 30.2186 38.0172C29.3388 38.8829 27.9122 38.8829 27.0324 38.0172L20.6599 31.7471Z"
            class="primary"
        />
    </g>
</svg>
