<svg xmlns="http://www.w3.org/2000/svg" viewBox="0 0 64 64">
    <defs>
        <style>
            .isolate {
                isolation: isolate;
            }

            .base {
                fill: #b7cde1;
            }

            .primary {
                fill: #00a362;
            }

            .secondary {
                fill: #ffffff;
            }

            .mix-blend-multiply {
                mix-blend-mode: multiply;
            }
        </style>
    </defs>
    <g class="isolate">
        <g id="Layer_1" data-name="Layer 1">
            <path
                class="base"
                d="M57.66,10.32a2.35,2.35,0,0,1,.91.15,2.46,2.46,0,0,1,.77.51,2.23,2.23,0,0,1,.5.76,2.19,2.19,0,0,1,.16.91c-.93,20.26-11.52,37.67-26.9,47a2.11,2.11,0,0,1-2.2,0c-15.38-9.37-26-26.78-26.9-47a2.19,2.19,0,0,1,.16-.91,2.23,2.23,0,0,1,.5-.76,2.46,2.46,0,0,1,.77-.51,2.35,2.35,0,0,1,.91-.15h.89A48.5,48.5,0,0,0,19.57,8.75,49.87,49.87,0,0,0,30.88,4.29a2.31,2.31,0,0,1,2.24,0A50.39,50.39,0,0,0,44.35,8.75a48.51,48.51,0,0,0,12.34,1.58Z"
            />
            <path class="primary" d="M44,50.93a16,16,0,1,1,11.31-4.68A16.07,16.07,0,0,1,44,50.93Z" />
            <path
                class="secondary"
                d="M40.63,36.15a1.54,1.54,0,0,0,.52.35,1.59,1.59,0,0,0,.61.13,1.68,1.68,0,0,0,.62-.13,1.64,1.64,0,0,0,.52-.35L49,30a1.21,1.21,0,0,1,.83-.29,1.26,1.26,0,0,1,.81.36,1.2,1.2,0,0,1,.06,1.63l-8.17,8.1a1.27,1.27,0,0,1-.39.26,1.22,1.22,0,0,1-.46.09,1.2,1.2,0,0,1-.84-.35l-3.64-3.62a1.2,1.2,0,0,1-.28-.83,1.16,1.16,0,0,1,.35-.8,1.21,1.21,0,0,1,.8-.36,1.19,1.19,0,0,1,.83.29Z"
            />
        </g>
    </g>
</svg>
