<svg viewBox="0 0 64 64" fill="none" xmlns="http://www.w3.org/2000/svg">
    <defs>
        <style>
            .base {
                fill: #b7cde1;
            }

            .primary {
                fill: #42cacd;
            }

            .secondary {
                fill: #feb452;
            }

            .mix-blend-multiply {
                mix-blend-mode: multiply;
            }
        </style>
    </defs>

    <path d="M14 17H17V26.5C17 27.3284 16.3284 28 15.5 28C14.6716 28 14 27.3284 14 26.5V17Z" fill="white" />
    <path d="M31 17H34V26.5C34 27.3284 33.3284 28 32.5 28C31.6716 28 31 27.3284 31 26.5V17Z" fill="white" />
    <path
        fill-rule="evenodd"
        clip-rule="evenodd"
        d="M33.2388 13.1732C33.7413 14.3864 34 15.6868 34 17H31C31 16.0807 30.8189 15.1705 30.4672 14.3212C30.1154 13.4719 29.5998 12.7003 28.9497 12.0503C28.2997 11.4002 27.5281 10.8846 26.6788 10.5328C25.8295 10.1811 24.9193 10 24 10C23.0807 10 22.1705 10.1811 21.3212 10.5328C20.4719 10.8846 19.7003 11.4002 19.0503 12.0503C18.4002 12.7003 17.8846 13.4719 17.5328 14.3212C17.1811 15.1705 17 16.0807 17 17H14C14 15.6868 14.2587 14.3864 14.7612 13.1732C15.2638 11.9599 16.0003 10.8575 16.9289 9.92893C17.8575 9.00035 18.9599 8.26375 20.1732 7.7612C21.3864 7.25866 22.6868 7 24 7C25.3132 7 26.6136 7.25866 27.8268 7.7612C29.0401 8.26375 30.1425 9.00035 31.0711 9.92893C31.9997 10.8575 32.7362 11.9599 33.2388 13.1732Z"
        fill="white"
    />
    <path
        d="M8.24676 21.7791C8.3593 20.7663 9.21543 20 10.2345 20H37.7655C38.7846 20 39.6407 20.7663 39.7532 21.7791L43.7532 57.7791C43.8849 58.9639 42.9575 60 41.7655 60H6.23453C5.04251 60 4.11513 58.9639 4.24676 57.7791L8.24676 21.7791Z"
        class="base"
    />
    <path
        d="M38.469 37.7791C38.5815 36.7663 39.4377 36 40.4568 36H55.5433C56.5623 36 57.4185 36.7663 57.531 37.7791L59.7532 57.7791C59.8849 58.9639 58.9575 60 57.7655 60H38.2345C37.0425 60 36.1151 58.9639 36.2468 57.7791L38.469 37.7791Z"
        class="primary"
    />
    <g class="mix-blend-multiply">
        <path d="M14 17H17V26.5C17 27.3284 16.3284 28 15.5 28C14.6716 28 14 27.3284 14 26.5V17Z" class="secondary" />
    </g>
    <g class="mix-blend-multiply">
        <path
            d="M53 44L52 44L52 39.5C52 39.2239 52.2239 39 52.5 39C52.7761 39 53 39.2239 53 39.5L53 44Z"
            class="primary"
        />
    </g>
    <g class="mix-blend-multiply">
        <path
            d="M44 44L43 44L43 39.5C43 39.2239 43.2239 39 43.5 39C43.7761 39 44 39.2239 44 39.5L44 44Z"
            class="primary"
        />
    </g>
    <g class="mix-blend-multiply">
        <path d="M31 17H34V26.5C34 27.3284 33.3284 28 32.5 28C31.6716 28 31 27.3284 31 26.5V17Z" class="secondary" />
    </g>
    <g class="mix-blend-multiply">
        <path
            fill-rule="evenodd"
            clip-rule="evenodd"
            d="M33.2388 13.1732C33.7413 14.3864 34 15.6868 34 17H31C31 16.0807 30.8189 15.1705 30.4672 14.3212C30.1154 13.4719 29.5998 12.7003 28.9497 12.0503C28.2997 11.4002 27.5281 10.8846 26.6788 10.5328C25.8295 10.1811 24.9193 10 24 10C23.0807 10 22.1705 10.1811 21.3212 10.5328C20.4719 10.8846 19.7003 11.4002 19.0503 12.0503C18.4002 12.7003 17.8846 13.4719 17.5328 14.3212C17.1811 15.1705 17 16.0807 17 17H14C14 15.6868 14.2587 14.3864 14.7612 13.1732C15.2638 11.9599 16.0003 10.8575 16.9289 9.92893C17.8575 9.00035 18.9599 8.26375 20.1732 7.7612C21.3864 7.25866 22.6868 7 24 7C25.3132 7 26.6136 7.25866 27.8268 7.7612C29.0401 8.26375 30.1425 9.00035 31.0711 9.92893C31.9997 10.8575 32.7362 11.9599 33.2388 13.1732Z"
            class="secondary"
        />
    </g>
    <g class="mix-blend-multiply">
        <path
            fill-rule="evenodd"
            clip-rule="evenodd"
            d="M43.3806 45.9134C43.1293 45.3068 43 44.6566 43 44L44 44C44 44.5253 44.1035 45.0454 44.3045 45.5307C44.5055 46.016 44.8001 46.457 45.1716 46.8284C45.543 47.1999 45.984 47.4945 46.4693 47.6955C46.9546 47.8965 47.4747 48 48 48C48.5253 48 49.0454 47.8965 49.5307 47.6955C50.016 47.4945 50.457 47.1999 50.8284 46.8284C51.1999 46.457 51.4945 46.016 51.6955 45.5307C51.8965 45.0454 52 44.5253 52 44L53 44C53 44.6566 52.8707 45.3068 52.6194 45.9134C52.3681 46.52 51.9998 47.0712 51.5355 47.5355C51.0712 47.9998 50.52 48.3681 49.9134 48.6194C49.3068 48.8707 48.6566 49 48 49C47.3434 49 46.6932 48.8707 46.0866 48.6194C45.48 48.3681 44.9288 47.9998 44.4645 47.5355C44.0002 47.0712 43.6319 46.52 43.3806 45.9134Z"
            class="primary"
        />
    </g>
    <g class="mix-blend-multiply">
        <path
            d="M53 44L52 44L52 39.5C52 39.2239 52.2239 39 52.5 39C52.7761 39 53 39.2239 53 39.5L53 44Z"
            class="primary"
        />
    </g>
    <g class="mix-blend-multiply">
        <path
            d="M44 44L43 44L43 39.5C43 39.2239 43.2239 39 43.5 39C43.7761 39 44 39.2239 44 39.5L44 44Z"
            class="primary"
        />
    </g>
    <g class="mix-blend-multiply">
        <path
            fill-rule="evenodd"
            clip-rule="evenodd"
            d="M43.3806 45.9134C43.1293 45.3068 43 44.6566 43 44L44 44C44 44.5253 44.1035 45.0454 44.3045 45.5307C44.5055 46.016 44.8001 46.457 45.1716 46.8284C45.543 47.1999 45.984 47.4945 46.4693 47.6955C46.9546 47.8965 47.4747 48 48 48C48.5253 48 49.0454 47.8965 49.5307 47.6955C50.016 47.4945 50.457 47.1999 50.8284 46.8284C51.1999 46.457 51.4945 46.016 51.6955 45.5307C51.8965 45.0454 52 44.5253 52 44L53 44C53 44.6566 52.8707 45.3068 52.6194 45.9134C52.3681 46.52 51.9998 47.0712 51.5355 47.5355C51.0712 47.9998 50.52 48.3681 49.9134 48.6194C49.3068 48.8707 48.6566 49 48 49C47.3434 49 46.6932 48.8707 46.0866 48.6194C45.48 48.3681 44.9288 47.9998 44.4645 47.5355C44.0002 47.0712 43.6319 46.52 43.3806 45.9134Z"
            class="primary"
        />
    </g>
</svg>
