<svg xmlns="http://www.w3.org/2000/svg" viewBox="0 0 64 64">
    <defs>
        <style>
            .isolate {
                isolation: isolate;
            }
            .mix-blend-multiply {
                mix-blend-mode: multiply;
            }
            .base {
                fill: #b7cde1;
            }
            .primary {
                fill: #42cacd;
            }
            .secondary {
                fill: #36a168;
            }
        </style>
    </defs>
    <g class="isolate">
        <g id="Layer_1" data-name="Layer 1">
            <g class="mix-blend-multiply">
                <path class="base" d="M34,4a2,2,0,0,0-4,0V55.71a2,2,0,1,0,4,0Z" />
            </g>
            <g class="mix-blend-multiply">
                <path
                    class="primary"
                    d="M49.37,33a1.72,1.72,0,0,1,.9.32l5.34,4.36a.53.53,0,0,1,.12.14.42.42,0,0,1,0,.36.53.53,0,0,1-.12.14l-5.34,4.36a1.72,1.72,0,0,1-.9.32H24.51a.49.49,0,0,1-.36-.15.48.48,0,0,1-.15-.36v-9a.48.48,0,0,1,.15-.36.49.49,0,0,1,.36-.15Z"
                />
            </g>
            <g class="mix-blend-multiply">
                <path
                    class="base"
                    d="M49.37,5a1.72,1.72,0,0,1,.9.32l5.34,4.36a.53.53,0,0,1,.12.14.42.42,0,0,1,0,.36.53.53,0,0,1-.12.14l-5.34,4.36a1.72,1.72,0,0,1-.9.32H24.51a.49.49,0,0,1-.36-.15.48.48,0,0,1-.15-.36v-9a.52.52,0,0,1,.16-.35A.5.5,0,0,1,24.51,5Z"
                />
            </g>
            <g class="mix-blend-multiply">
                <path
                    class="base"
                    d="M11.63,29a1.72,1.72,0,0,1-.9-.32L5.39,24.32a.53.53,0,0,1-.12-.14.43.43,0,0,1,0-.36.53.53,0,0,1,.12-.14l5.34-4.36a1.72,1.72,0,0,1,.9-.32H36.49a.48.48,0,0,1,.2,0,.53.53,0,0,1,.27.27.48.48,0,0,1,0,.2v9a.49.49,0,0,1-.15.36.48.48,0,0,1-.36.15Z"
                />
            </g>
            <path
                class="secondary"
                d="M37.7,53.35a23.13,23.13,0,0,0-8-1.24,9.71,9.71,0,0,1,1.8-3.71,12.49,12.49,0,0,0-2.84,1.93,8.09,8.09,0,0,0-1.33,1.79h-2a10,10,0,0,0-2.56-3.84,15.06,15.06,0,0,0-3.62-2.34s3,3.56,2.37,6.66a8.63,8.63,0,0,0-2.37.76c-1.55.84-3.3,2.93-3.71,8.65H46.36a14.91,14.91,0,0,0-8.66-8.66Z"
            />
        </g>
    </g>
</svg>
