<svg viewBox="0 0 64 64" fill="none" xmlns="http://www.w3.org/2000/svg">
    <defs>
        <style>
            .base {
                fill: #b7cde1;
            }

            .primary {
                fill: #ffffff;
            }

            .secondary {
                fill: #feb452;
            }

            .mix-blend-multiply {
                mix-blend-mode: multiply;
            }
        </style>
    </defs>
    <path
        d="M12 57.9999V6C12 4.89543 12.8954 4 14 4L39.0913 4C39.6686 4 40.2178 4.2495 40.5976 4.68435L51.5062 17.174C51.8245 17.5384 51.9999 18.0058 51.9999 18.4897V57.9999C51.9999 59.1044 51.1044 59.9999 49.9999 59.9999H14C12.8954 59.9999 12 59.1044 12 57.9999Z"
        class="base"
    />
    <g class="mix-blend-multiply">
        <rect width="13" height="28" rx="1.57428" transform="matrix(0 1 1 0 18 41)" class="secondary" />
    </g>
    <rect x="18" y="14" width="5" height="12" rx="1.33333" class="primary" />
    <rect x="27" y="14" width="5" height="12" rx="1.33333" class="primary" />
    <rect x="36" y="14" width="5" height="12" rx="1.33333" class="primary" />
</svg>
