<svg xmlns="http://www.w3.org/2000/svg" viewBox="0 0 64 64">
    <defs>
        <style>
            .isolate {
                isolation: isolate;
            }

            .base {
                fill: #b7cde1;
            }

            .mix-blend-multiply {
                mix-blend-mode: multiply;
            }

            .primary {
                fill: #42cacd;
            }

            .secondary {
                fill: #ffffff;
            }
        </style>
    </defs>
    <g class="isolate">
        <g id="Layer_1" data-name="Layer 1">
            <rect fill="none" width="64" height="64" />
            <path
                class="base mix-blend-multiply"
                d="M52.05,48H9.73a1,1,0,0,0-1,1v10.9a1,1,0,0,0,1,1H52.05a1,1,0,0,0,1-1V49A1,1,0,0,0,52.05,48Z"
            />
            <path
                class="primary mix-blend-multiply"
                d="M46.75,58H15a.43.43,0,0,0-.43.43v5.14A.43.43,0,0,0,15,64H46.75a.43.43,0,0,0,.43-.43V58.43A.43.43,0,0,0,46.75,58Z"
            />
            <path
                class="base mix-blend-multiply"
                d="M38.45,7,35.61,52.44a1.16,1.16,0,0,1-.36.78,1.18,1.18,0,0,1-.8.31H27.33a1.18,1.18,0,0,1-1.16-1.09L23.33,7v.58a7.56,7.56,0,1,1,15.12,0"
            />
            <path
                class="primary mix-blend-multiply"
                d="M44.5,41A12.53,12.53,0,0,1,33,33.28,12.5,12.5,0,0,1,54.89,21.56,12.51,12.51,0,0,1,44.5,41Z"
            />
            <path
                class="secondary"
                d="M41.87,29.79a1.18,1.18,0,0,0,.4.27,1.2,1.2,0,0,0,1,0,1.18,1.18,0,0,0,.4-.27L48.42,25a.79.79,0,0,1,.31-.2.85.85,0,0,1,.35-.08.86.86,0,0,1,.36.08.79.79,0,0,1,.31.2h0a.79.79,0,0,1,.2.31.86.86,0,0,1,.08.36A.94.94,0,0,1,50,26a.83.83,0,0,1-.2.3l-6.34,6.33a1,1,0,0,1-.3.21,1,1,0,0,1-.72,0,1,1,0,0,1-.3-.21l-2.84-2.83a.83.83,0,0,1-.2-.3.94.94,0,0,1-.08-.36.86.86,0,0,1,.08-.36.79.79,0,0,1,.2-.31h0a.79.79,0,0,1,.31-.2.86.86,0,0,1,.36-.08.94.94,0,0,1,.36.08.83.83,0,0,1,.3.2Z"
            />
        </g>
    </g>
</svg>
