<svg viewBox="0 0 64 64" fill="none" xmlns="http://www.w3.org/2000/svg">
    <defs>
        <style>
            .base {
                fill: #feb452;
            }

            .primary {
                fill: #b7cde1;
            }

            .secondary {
                fill: #ffffff;
            }

            .mix-blend-multiply {
                mix-blend-mode: multiply;
            }
        </style>
    </defs>
    <path
        fill-rule="evenodd"
        clip-rule="evenodd"
        d="M18.5549 38H46.445C49.8498 34.4976 51.9464 29.7168 51.9464 24.4464C51.9464 13.7065 43.24 5 32.5 5C21.76 5 13.0536 13.7065 13.0536 24.4464C13.0536 29.7168 15.1502 34.4976 18.5549 38Z"
        class="base"
    />
    <path
        d="M58 36H6C4.89543 36 4 36.8954 4 38C4 39.1046 4.89543 40 6 40H58C59.1046 40 60 39.1046 60 38C60 36.8954 59.1046 36 58 36Z"
        class="primary"
    />
    <path
        d="M50 44H14C12.8954 44 12 44.8954 12 46C12 47.1046 12.8954 48 14 48H50C51.1046 48 52 47.1046 52 46C52 44.8954 51.1046 44 50 44Z"
        class="primary"
    />
    <path
        d="M42 52H22C20.8954 52 20 52.8954 20 54C20 55.1046 20.8954 56 22 56H42C43.1046 56 44 55.1046 44 54C44 52.8954 43.1046 52 42 52Z"
        class="primary"
    />
    <g class="mix-blend-multiply">
        <path
            d="M58 36H6C4.89543 36 4 36.8954 4 38C4 39.1046 4.89543 40 6 40H58C59.1046 40 60 39.1046 60 38C60 36.8954 59.1046 36 58 36Z"
            class="primary"
        />
    </g>
    <g class="mix-blend-multiply">
        <path
            fill-rule="evenodd"
            clip-rule="evenodd"
            d="M20.6678 36H44.3322C47.221 33.0282 49 28.9719 49 24.5C49 15.3873 41.6127 8 32.5 8C23.3873 8 16 15.3873 16 24.5C16 28.9719 17.779 33.0282 20.6678 36Z"
            class="base"
        />
    </g>
    <path
        fill-rule="evenodd"
        clip-rule="evenodd"
        d="M25.0441 16H39V17.7322H33.1238C33.9155 18.5492 34.4304 19.6052 34.5929 20.7448H39V22.4619H34.4753C34.2692 23.5295 33.7578 24.5101 33.0063 25.2787C32.5448 25.7819 31.9906 26.1863 31.3757 26.4686L35.6653 34H33.6967L29.6863 26.9808H25V25.2184H29.4806C30.4458 25.2155 31.3704 24.82 32.0514 24.1188C32.5145 23.6568 32.8448 23.0732 33.0063 22.4318H25.0441V20.7146H33.1238C32.953 19.8704 32.5059 19.1114 31.8566 18.5634C31.2073 18.0155 30.3949 17.7116 29.554 17.7021H25V16.0452L25.0441 16Z"
        class="secondary"
    />
</svg>
