<svg xmlns="http://www.w3.org/2000/svg" viewBox="0 0 64 64">
    <defs>
        <style>
            .isolate {
                isolation: isolate;
            }

            .base {
                fill: #b7cde1;
            }

            .mix-blend-multiply {
                mix-blend-mode: multiply;
            }

            .primary {
                fill: #1482ff;
            }
        </style>
    </defs>
    <g class="isolate">
        <g id="Layer_1" data-name="Layer 1">
            <rect fill="none" width="64" height="64" />
            <path class="base"
                d="M0,10.68V47.31a2.52,2.52,0,0,0,.62,1.78,2.44,2.44,0,0,0,1.67.83H61.71a2.44,2.44,0,0,0,1.67-.83A2.52,2.52,0,0,0,64,47.31V10.68a2.55,2.55,0,0,0-.62-1.79,2.44,2.44,0,0,0-1.67-.83H2.29a2.44,2.44,0,0,0-1.67.83A2.55,2.55,0,0,0,0,10.68Z" />
            <g class="mix-blend-multiply">
                <path class="base"
                    d="M60.61,29a2,2,0,0,0-.18-.87,1.94,1.94,0,0,0-.54-.7,2.09,2.09,0,0,0-.78-.41,2.06,2.06,0,0,0-.89,0,2,2,0,0,0-1.58,1.57,2,2,0,0,0,.12,1.15A2,2,0,0,0,58.61,31,2,2,0,0,0,60,30.41a2.06,2.06,0,0,0,.45-.64A2.08,2.08,0,0,0,60.61,29Z" />
            </g>
            <path fill="#fff" opacity="0.4"
                d="M3.87,13.28V44.72a1,1,0,0,0,.09.42,1.24,1.24,0,0,0,.25.35,1.25,1.25,0,0,0,.37.22,1,1,0,0,0,.42.06H52.85a1.14,1.14,0,0,0,.41-.07,1,1,0,0,0,.35-.23,1.16,1.16,0,0,0,.24-.34,1,1,0,0,0,.09-.41V13.28a1.11,1.11,0,0,0-.34-.72,1.09,1.09,0,0,0-.75-.28H5a1,1,0,0,0-.77.27,1.07,1.07,0,0,0-.36.73Z" />
            <path class="base" d="M54.46,54a2,2,0,0,1-2,2h-38V52h38a2,2,0,0,1,2,2Z" />
            <path class="primary"
                d="M50.31,55a1,1,0,0,0-.57.16,1,1,0,0,0-.38.47,2,2,0,0,1-.72,1,2.18,2.18,0,0,1-1.18.38h-4a1,1,0,0,0-.7.29,1,1,0,0,0-.22.32,1.09,1.09,0,0,0-.08.39,1,1,0,0,0,1,1h4a4,4,0,0,0,3.8-2.76,1.14,1.14,0,0,0,0-.45,1.12,1.12,0,0,0-.18-.42,1,1,0,0,0-.35-.29,1,1,0,0,0-.42-.09Z" />
            <g class="mix-blend-multiply">
                <path class="base" d="M54.46,54a2,2,0,0,1-2,2h-4V52h4a2,2,0,0,1,2,2Z" />
            </g>
            <path class="mix-blend-multiply base"
                d="M11.36,53.57,14.46,52v4l-3.1-1.55a.61.61,0,0,1-.2-.19.5.5,0,0,1-.08-.26.5.5,0,0,1,.08-.27.45.45,0,0,1,.2-.16Z" />
            <g class="mix-blend-multiply">
                <path class="base"
                    d="M11.36,53.57,14.46,52v4l-3.1-1.55a.61.61,0,0,1-.2-.19.5.5,0,0,1-.08-.26.5.5,0,0,1,.08-.27.45.45,0,0,1,.2-.16Z" />
            </g>
            <g class="mix-blend-multiply">
                <path class="base" d="M37.58,18h-27a1.5,1.5,0,0,0,0,3h27a1.5,1.5,0,0,0,0-3Z" />
            </g>
            <g class="mix-blend-multiply">
                <path class="base" d="M27.58,24h-17a1.5,1.5,0,0,0,0,3h17a1.5,1.5,0,0,0,0-3Z" />
            </g>
        </g>
    </g>
</svg>