<svg xmlns="http://www.w3.org/2000/svg" xmlns:xlink="http://www.w3.org/1999/xlink" viewBox="0 0 64 64">
    <defs>
        <style>
            .isolate {
                isolation: isolate;
            }

            .base {
                fill: #b7cde1;
            }

            .primary {
                fill: #42cacd;
            }

            .mix-blend-multiply {
                mix-blend-mode: multiply;
            }
        </style>
    </defs>
    <g class="isolate">
        <g id="Layer_1" data-name="Layer 1">
            <g clip-path="url(#clip-path)">
                <path class="primary"
                    d="M47.42,53.63a2.25,2.25,0,0,1-.18.89,2.31,2.31,0,0,1-.51.76,2.36,2.36,0,0,1-1.67.69H19a2.4,2.4,0,0,1-1.68-.69,2.31,2.31,0,0,1-.51-.76,2.25,2.25,0,0,1-.18-.89V37a13.43,13.43,0,0,1,8.21-12.69A13.78,13.78,0,0,1,30.1,23.2H34a13.42,13.42,0,0,1,12.5,8.6,13.37,13.37,0,0,1,.92,5.2Z" />
                <g class="mix-blend-multiply">
                    <path class="base"
                        d="M64,53.63a2.25,2.25,0,0,1-.18.89,2.31,2.31,0,0,1-.51.76,2.4,2.4,0,0,1-1.68.69H38a2.3,2.3,0,0,1-.9-.18,2.35,2.35,0,0,1-.77-.51,2.3,2.3,0,0,1-.52-.75,2.33,2.33,0,0,1-.18-.9V39.05a12.19,12.19,0,0,1,.92-4.73A12.45,12.45,0,0,1,48,26.71h3.55a12.36,12.36,0,0,1,4.77.93A12.21,12.21,0,0,1,64,39.05Z" />
                </g>
                <path class="primary"
                    d="M32,22a7.21,7.21,0,0,0,4-1.19A6.92,6.92,0,0,0,37,10a7.15,7.15,0,0,0-10.94,1.06A7,7,0,0,0,27,20,7.17,7.17,0,0,0,32,22Z" />
                <g class="mix-blend-multiply">
                    <path class="base"
                        d="M50.33,25.54a6.54,6.54,0,0,0,3.61-1.09,6.39,6.39,0,0,0,2.4-2.89,6.32,6.32,0,0,0,.37-3.72,6.5,6.5,0,0,0-1.79-3.3,6.42,6.42,0,0,0-3.32-1.75,6.55,6.55,0,0,0-6.69,2.73,6.37,6.37,0,0,0,.81,8.13A6.57,6.57,0,0,0,50.33,25.54Z" />
                </g>
                <g class="mix-blend-multiply">
                    <path class="base"
                        d="M28.42,53.63a2.25,2.25,0,0,1-.18.89,2.21,2.21,0,0,1-.51.76,2.4,2.4,0,0,1-1.68.69H2.37a2.4,2.4,0,0,1-1.68-.69,2.21,2.21,0,0,1-.51-.76A2.25,2.25,0,0,1,0,53.63V39A12.24,12.24,0,0,1,7.62,27.65a12.49,12.49,0,0,1,4.75-.94h3.56a12.48,12.48,0,0,1,8.86,3.58A12.15,12.15,0,0,1,28.42,39Z" />
                </g>
                <g class="mix-blend-multiply">
                    <path class="base"
                        d="M13.62,25.54a6.55,6.55,0,0,0,3.62-1.09A6.47,6.47,0,0,0,20,17.84a6.53,6.53,0,0,0-5.14-5A6.53,6.53,0,0,0,8.2,15.52,6.42,6.42,0,0,0,9,23.65,6.55,6.55,0,0,0,13.62,25.54Z" />
                </g>
            </g>
        </g>
    </g>
</svg>