<svg xmlns="http://www.w3.org/2000/svg" viewBox="0 0 64 64">
    <defs>
        <style>
            .isolate {
                isolation: isolate;
            }

            .secondary {
                fill: #5bc8cb;
            }

            .base {
                fill: #afcbe0;
            }

            .mix-blend-multiply {
                mix-blend-mode: multiply;
            }

            .primary {
                fill: #f2ad3d;
            }
        </style>
    </defs>
    <g class="isolate">
        <g id="Layer_1" data-name="Layer 1">
            <path class="secondary" d="M50.77,7.8l2.12-3.87L55,7.8l3.89,2.13L55,12.05l-2.11,3.88-2.12-3.88L46.89,9.93Z" />
            <path class="secondary" d="M9.74,9.58,11.15,7l1.42,2.58L15.16,11l-2.59,1.41L11.15,15,9.74,12.41,7.16,11Z" />
            <path class="base"
                d="M60.13,27.47a7.9,7.9,0,0,0-7.91-7.87,9,9,0,0,0-2,.26,8,8,0,0,0-4.43-5.56,7.88,7.88,0,0,0-7.1.21,7.92,7.92,0,0,0-4.92-4.25A7.88,7.88,0,0,0,30.46,10a8,8,0,0,0-3.13,1.13,7.83,7.83,0,0,0-3,3.27A8.95,8.95,0,0,0,12,19.61,7.85,7.85,0,0,0,9.09,34.82,7.72,7.72,0,0,0,9,36a7.91,7.91,0,0,0,13.85,5.18,11,11,0,0,0,8.49,5.11,10.71,10.71,0,0,0,5-.82,10.94,10.94,0,0,0,4.12-3A7.91,7.91,0,0,0,52.9,36v-.63a7.88,7.88,0,0,0,7.2-7.89ZM35.41,24.94l-.4-.1c.1,0,1.12.64.28-.13Z" />
            <g class="mix-blend-multiply">
                <path class="base"
                    d="M43.86,32a4,4,0,0,0,2.22-.67,4.07,4.07,0,0,0,1.48-1.8,4,4,0,0,0-5.23-5.23,4.07,4.07,0,0,0-1.8,1.48A4,4,0,0,0,43.86,32Z" />
            </g>
            <g class="mix-blend-multiply">
                <path class="base"
                    d="M31.94,32a4,4,0,0,0,2.22-.67,4.07,4.07,0,0,0,1.48-1.8,4,4,0,0,0-5.23-5.23,4.07,4.07,0,0,0-1.8,1.48A4,4,0,0,0,31.94,32Z" />
            </g>
            <g class="mix-blend-multiply">
                <path class="base"
                    d="M20.48,32a4,4,0,0,0,2.22-.67,4.07,4.07,0,0,0,1.48-1.8A4,4,0,0,0,19,24.3a4.07,4.07,0,0,0-1.8,1.48A4,4,0,0,0,20.48,32Z" />
            </g>
            <path class="base"
                d="M14.34,54a4,4,0,0,0,2.22-.67A4.07,4.07,0,0,0,18,51.53a4,4,0,0,0-5.23-5.23A4.07,4.07,0,0,0,11,47.78,4,4,0,0,0,14.34,54Z" />
            <path class="base"
                d="M7,60a3,3,0,0,0,1.67-.51,3,3,0,0,0,1.1-1.34,3,3,0,0,0-3.92-3.92,3,3,0,0,0-1.34,1.1A3,3,0,0,0,4,57a3,3,0,0,0,3,3Z" />
            <g class="mix-blend-multiply">
                <path class="primary"
                    d="M45.18,45.28,48,40.1l2.83,5.18L56,48.09l-5.18,2.83L48,56.1l-2.81-5.18L40,48.09Z" />
            </g>
        </g>
    </g>
</svg>