<svg viewBox="0 0 64 64" fill="none" xmlns="http://www.w3.org/2000/svg">
    <defs>
        <style>
            .base {
                fill: #afcbe0;
            }

            .primary {
                fill: #3480f6;
            }

            .tertiary {
                fill: #ef8d9e;
            }

            .secondary {
                fill: #f2ad3d;
            }
        </style>
    </defs>
    <g clip-path="url(#clip0_2917_4061)">
        <path fill-rule="evenodd" clip-rule="evenodd"
            d="M16.18 10.5801H25.05V19.4501H16.18V10.5801ZM18.18 12.5801V17.4501H23.05V12.5801H18.18Z"
            class="primary" />
        <path fill-rule="evenodd" clip-rule="evenodd" d="M21.63 17.2998V48.0998H19.63V17.2998H21.63Z" class="primary" />
        <path
            d="M42.38 7C42.9874 7 43.5698 7.24127 43.9993 7.67073C44.4288 8.10018 44.67 8.68265 44.67 9.29V52.79H40.09V9.29C40.09 8.68265 40.3313 8.10018 40.7608 7.67073C41.1902 7.24127 41.7727 7 42.38 7V7Z"
            class="base" />
        <path
            d="M43.52 11.6898C43.5094 11.9327 43.5721 12.1732 43.7 12.3798C43.8271 12.5863 44.0161 12.7472 44.24 12.8398C44.6964 12.9878 45.0942 13.2765 45.3762 13.6646C45.6583 14.0526 45.8102 14.5201 45.81 14.9998V19.5798C45.8089 19.7344 45.8396 19.8876 45.9 20.0298C45.9618 20.1719 46.05 20.3008 46.16 20.4098C46.2715 20.519 46.4043 20.6041 46.55 20.6598C46.6932 20.7161 46.8462 20.7433 47 20.7398C47.1513 20.7399 47.3009 20.7092 47.44 20.6498C47.5785 20.5915 47.7042 20.5066 47.81 20.3998C47.9189 20.2959 48.0042 20.1697 48.06 20.0298C48.1115 19.8888 48.1386 19.74 48.14 19.5898V14.9998C48.1404 14.0386 47.8397 13.1014 47.28 12.3198C46.7061 11.548 45.9109 10.969 45 10.6598C44.8324 10.6199 44.6577 10.6199 44.49 10.6598C44.3235 10.6909 44.1663 10.7593 44.03 10.8598C43.8923 10.9554 43.7792 11.0822 43.7 11.2298C43.6053 11.3672 43.5437 11.5247 43.52 11.6898V11.6898Z"
            class="primary" />
        <path
            d="M42.38 7C42.9874 7 43.5698 7.24127 43.9993 7.67073C44.4288 8.10018 44.67 8.68265 44.67 9.29V13.87H40.09V9.29C40.09 8.68265 40.3313 8.10018 40.7608 7.67073C41.1902 7.24127 41.7727 7 42.38 7V7Z"
            class="base" />
        <path
            d="M41.86 56.29L40.09 52.79H44.67L42.89 56.35C42.8356 56.4428 42.7603 56.5216 42.67 56.58C42.5809 56.6385 42.4766 56.6697 42.37 56.67C42.2601 56.6711 42.1523 56.6398 42.06 56.58C41.9604 56.5108 41.8893 56.4078 41.86 56.29V56.29Z"
            class="base" />
        <path
            d="M41.86 56.29L40.09 52.79H44.67L42.89 56.35C42.8356 56.4428 42.7603 56.5216 42.67 56.58C42.5809 56.6385 42.4766 56.6697 42.37 56.67C42.2601 56.6711 42.1523 56.6398 42.06 56.58C41.9604 56.5108 41.8893 56.4078 41.86 56.29V56.29Z"
            class="base" />
        <path
            d="M30.93 7H33.22C33.3712 6.99998 33.5209 7.0306 33.66 7.09C33.7985 7.14836 33.9242 7.23329 34.03 7.34C34.1379 7.44548 34.2235 7.57149 34.2819 7.71061C34.3403 7.84972 34.3702 7.99913 34.37 8.15V52.79H29.79V8.15C29.7914 7.99985 29.8185 7.85105 29.87 7.71C29.9258 7.57017 30.0111 7.44398 30.12 7.34C30.2258 7.23329 30.3515 7.14836 30.49 7.09C30.6291 7.0306 30.7787 6.99998 30.93 7V7Z"
            class="base" />
        <path
            d="M30.93 7H33.22C33.3712 6.99998 33.5209 7.0306 33.66 7.09C33.7985 7.14836 33.9242 7.23329 34.03 7.34C34.1379 7.44548 34.2235 7.57149 34.2819 7.71061C34.3403 7.84972 34.3702 7.99913 34.37 8.15V10.44H29.79V8.15C29.7914 7.99985 29.8185 7.85105 29.87 7.71C29.9258 7.57017 30.0111 7.44398 30.12 7.34C30.2258 7.23329 30.3515 7.14836 30.49 7.09C30.6291 7.0306 30.7787 6.99998 30.93 7V7Z"
            class="tertiary" />
        <path d="M33.21 10.4399H30.89V52.7899H33.21V10.4399Z" class="base" />
        <path
            d="M4.00002 36.68C4.05892 36.1571 4.00086 35.6277 3.83002 35.13C3.65152 34.6384 3.36832 34.1914 3.00002 33.82C2.14502 33.2294 1.11747 32.9409 0.0800171 33V30.19C1.12028 30.2616 2.15294 29.9681 3.00002 29.36C3.36031 29.0172 3.63738 28.5964 3.81002 28.13C3.98752 27.6616 4.0526 27.1581 4.00002 26.66V23C3.91868 21.7471 4.33152 20.5121 5.15002 19.56C5.58885 19.1532 6.10606 18.8401 6.67002 18.64C7.23788 18.4426 7.8411 18.3676 8.44002 18.42H12.58V21.53H10.46C10.0007 21.5298 9.54229 21.57 9.09002 21.65C8.76072 21.7066 8.45305 21.8518 8.20002 22.07C7.96037 22.3028 7.79656 22.6026 7.73002 22.93C7.62038 23.3985 7.56999 23.8789 7.58002 24.36V27.58C7.61926 28.0852 7.5511 28.593 7.38002 29.07C7.2044 29.5472 6.93203 29.983 6.58002 30.35C5.81843 30.951 4.8889 31.3004 3.92002 31.35V31.62C4.91174 31.6771 5.85093 32.0847 6.57002 32.77C6.92275 33.1383 7.19817 33.5736 7.38002 34.05C7.55258 34.5338 7.62736 35.0471 7.60002 35.56V38.79C7.58001 39.2714 7.63054 39.7532 7.75002 40.22C7.81886 40.5466 7.98232 40.8457 8.22002 41.08C8.47807 41.3024 8.79335 41.4479 9.13002 41.5C9.58768 41.5899 10.0537 41.6302 10.52 41.62H12.64V44.72H8.48002C7.28615 44.8001 6.10849 44.4087 5.20002 43.63C4.78498 43.1667 4.46891 42.6234 4.27117 42.0336C4.07342 41.4439 3.99817 40.8199 4.05002 40.2L4.00002 36.68Z"
            class="secondary" />
        <path
            d="M60.13 40.1998C60.1824 40.8086 60.1075 41.4216 59.91 41.9998C59.7491 42.5937 59.4353 43.135 59 43.5698C58.5691 44.0095 58.0316 44.3299 57.44 44.4998C56.8754 44.6978 56.2774 44.7827 55.68 44.7498H51.54V41.6598H53.68C54.1458 41.6683 54.6113 41.6315 55.07 41.5498C55.4053 41.4933 55.7194 41.3483 55.98 41.1298C56.2152 40.8921 56.3811 40.5948 56.46 40.2698C56.5615 39.8001 56.6084 39.3203 56.6 38.8398V35.6198C56.5586 35.1058 56.6263 34.5889 56.7986 34.103C56.971 33.617 57.2441 33.1729 57.6 32.7998C58.3224 32.121 59.2604 31.7175 60.25 31.6598V31.3798C59.2761 31.3397 58.3406 30.9893 57.58 30.3798C57.2307 30.0183 56.9585 29.5897 56.78 29.1198C56.6088 28.6463 56.5406 28.1417 56.58 27.6398V24.3898C56.5918 23.923 56.5482 23.4564 56.45 22.9998C56.3745 22.6719 56.1999 22.3751 55.95 22.1498C55.699 21.9207 55.3859 21.7711 55.05 21.7198C54.6078 21.6397 54.1593 21.5996 53.71 21.5998H51.54V18.4498H55.69C56.2943 18.4068 56.9009 18.492 57.47 18.6998C58.0437 18.9237 58.5647 19.2642 59 19.6998C59.8185 20.6519 60.2313 21.8869 60.15 23.1398V26.7498C60.1024 27.2479 60.1673 27.7502 60.34 28.2198C60.5189 28.683 60.7951 29.1025 61.15 29.4498C62.0211 30.0718 63.0825 30.369 64.15 30.2898V33.1298C63.0897 33.05 62.0334 33.3281 61.15 33.9198C60.7755 34.2881 60.4884 34.7358 60.31 35.2298C60.1377 35.7272 60.083 36.2577 60.15 36.7798L60.13 40.1998Z"
            class="secondary" />
        <path
            d="M31.56 56.35L29.79 52.79H34.37L32.59 56.35C32.5463 56.448 32.4745 56.5307 32.3837 56.5877C32.2929 56.6447 32.1872 56.6734 32.08 56.67C31.9716 56.6696 31.865 56.6421 31.77 56.59C31.6799 56.5301 31.6075 56.4472 31.56 56.35V56.35Z"
            class="base" />
        <path
            d="M31.56 56.35L29.79 52.79H34.37L32.59 56.35C32.5463 56.448 32.4745 56.5307 32.3837 56.5877C32.2929 56.6447 32.1872 56.6734 32.08 56.67C31.9716 56.6696 31.865 56.6421 31.77 56.59C31.6799 56.5301 31.6075 56.4472 31.56 56.35V56.35Z"
            class="base" />
        <path
            d="M20.62 53.94C21.4188 53.9398 22.1927 53.6624 22.8098 53.1552C23.4268 52.648 23.8488 51.9423 24.0036 51.1587C24.1584 50.3751 24.0365 49.562 23.6587 48.8583C23.2809 48.1545 22.6706 47.6036 21.9319 47.2996C21.1933 46.9957 20.372 46.9574 19.6083 47.1914C18.8446 47.4254 18.1857 47.9172 17.7441 48.5828C17.3026 49.2484 17.1056 50.0466 17.1869 50.8413C17.2683 51.6359 17.6228 52.3777 18.19 52.94C18.5088 53.2592 18.8877 53.5119 19.3048 53.6835C19.7219 53.8552 20.169 53.9424 20.62 53.94Z"
            class="primary" />
    </g>
</svg>