<svg xmlns="http://www.w3.org/2000/svg" viewBox="0 0 64 64">
    <defs>
        <style>
            .isolate {
                isolation: isolate;
            }

            .primary {
                fill: #42cacd;
            }

            .mix-blend-multiply {
                mix-blend-mode: multiply;
            }

            .base {
                fill: #b7cde1;
            }
        </style>
    </defs>
    <g class="isolate">
        <g id="Layer_1" data-name="Layer 1">
            <path
                class="primary"
                d="M46.93,60H41.56V21h9.66V56.57a2.94,2.94,0,0,1-.33,1.36A3,3,0,0,1,50,59a4.91,4.91,0,0,1-3.07,1Z"
            />
            <path class="primary" d="M59.81,25.43V45.82l-4.29-4.29-4.3,4.29V21.13h4.3a4.3,4.3,0,0,1,4.29,4.3Z" />
            <g class="mix-blend-multiply">
                <path
                    class="primary"
                    d="M51.22,21H41.56V60h5.37a4.92,4.92,0,0,0,3-1,3,3,0,0,0,.9-1,3,3,0,0,0,.35-1.34V24.37A3,3,0,0,1,51.56,23a3.06,3.06,0,0,1,.92-1,4.92,4.92,0,0,1,3-1Z"
                />
            </g>
            <path
                class="base"
                d="M41.69,55.81V9.14A3,3,0,0,0,40.74,7a3,3,0,0,0-1-.7A3.27,3.27,0,0,0,38.46,6H7.23A3.57,3.57,0,0,0,6,6.25a3.34,3.34,0,0,0-1,.7A3.05,3.05,0,0,0,4,9.14V56.85a3,3,0,0,0,.94,2.2,3.34,3.34,0,0,0,1,.7A3.57,3.57,0,0,0,7.23,60H46a4.52,4.52,0,0,1-1.63-.33A4.25,4.25,0,0,1,43,58.78a4.34,4.34,0,0,1-1-1.36A3.9,3.9,0,0,1,41.69,55.81Z"
            />
            <g class="mix-blend-multiply">
                <path
                    class="base"
                    d="M26,14a1.5,1.5,0,0,0-1.5-1.5H1.5A1.5,1.5,0,0,0,0,14H0a1.5,1.5,0,0,0,1.5,1.5h23A1.5,1.5,0,0,0,26,14Z"
                />
            </g>
            <g class="mix-blend-multiply">
                <path
                    class="base"
                    d="M21,21.1v-.24a1.37,1.37,0,0,0-1.38-1.38H1.38a1.42,1.42,0,0,0-1,.4,1.42,1.42,0,0,0-.4,1v.24a1.42,1.42,0,0,0,.4,1,1.42,1.42,0,0,0,1,.4H19.62A1.37,1.37,0,0,0,21,21.1Z"
                />
            </g>
            <g class="mix-blend-multiply">
                <path
                    class="base"
                    d="M26,28a1.5,1.5,0,0,0-1.5-1.5H1.5A1.5,1.5,0,0,0,0,28H0a1.5,1.5,0,0,0,1.5,1.5h23A1.5,1.5,0,0,0,26,28Z"
                />
            </g>
            <g class="mix-blend-multiply">
                <path
                    class="base"
                    d="M19,35.15v-.34a1.33,1.33,0,0,0-1.33-1.33H1.33A1.33,1.33,0,0,0,0,34.81v.34a1.33,1.33,0,0,0,1.33,1.33H17.67A1.33,1.33,0,0,0,19,35.15Z"
                />
            </g>
        </g>
    </g>
</svg>
