<svg viewBox="0 0 64 64" fill="none" xmlns="http://www.w3.org/2000/svg">
    <defs>
        <style>
            .base {
                fill: #D7ECE1
            }

            .primary {
                fill: #36A168
            }

            .secondary {
                fill: #1482FF
            }

            .mix-blend-multiply {
                mix-blend-mode: multiply;
            }
        </style>
    </defs>

    <path fill-rule="evenodd" clip-rule="evenodd"
        d="M32.8572 11.8283V21.9496H59.044C59.2703 21.9496 59.4874 21.8597 59.6475 21.6996C59.8076 21.5395 59.8975 21.3224 59.8975 21.0961V11.8283C59.9156 10.9495 59.7604 10.0757 59.4408 9.25691C59.1211 8.43808 58.6433 7.69025 58.0345 7.05614C57.4258 6.42203 56.6981 5.91407 55.8929 5.56127C55.0878 5.20847 54.2211 5.01775 53.3423 5H26.302C27.1808 5.01775 28.0476 5.20847 28.8527 5.56127C29.6578 5.91407 30.3855 6.42203 30.9942 7.05614C31.603 7.69025 32.0808 8.43808 32.4005 9.25691C32.7201 10.0757 32.8753 10.9495 32.8572 11.8283Z"
        class="primary" />
    <path fill-rule="evenodd" clip-rule="evenodd"
        d="M47.0959 11.8283V16.9496H20.6374C20.4111 16.9496 20.194 16.8597 20.0339 16.6996C19.8738 16.5395 19.7839 16.3224 19.7839 16.0961V11.8283C19.7658 10.9495 19.921 10.0757 20.2406 9.25691C20.5603 8.43808 21.0381 7.69025 21.6469 7.05614C22.2556 6.42204 22.9833 5.91407 23.7884 5.56127C24.5936 5.20847 25.4603 5.01775 26.3391 5H53.6511C52.7723 5.01775 51.9056 5.20847 51.1004 5.56127C50.2953 5.91407 49.5676 6.42204 48.9589 7.05614C48.3501 7.69025 47.8723 8.43808 47.5526 9.25691C47.233 10.0757 47.0778 10.9495 47.0959 11.8283Z"
        class="base" />
    <path fill-rule="evenodd" clip-rule="evenodd"
        d="M18.7653 5.0002H47.0945V58.9806C47.0945 59.0599 47.0724 59.1376 47.0307 59.205C46.9891 59.2724 46.9295 59.3269 46.8586 59.3624C46.7877 59.3978 46.7083 59.4128 46.6294 59.4057C46.5504 59.3986 46.4751 59.3696 46.4116 59.3221L41.7769 55.7884C41.6284 55.6755 41.447 55.6145 41.2605 55.6145C41.074 55.6145 40.8926 55.6755 40.7441 55.7884L35.9472 59.4501C35.7987 59.5629 35.6173 59.624 35.4308 59.624C35.2443 59.624 35.0629 59.5629 34.9144 59.4501L30.1175 55.7884C29.9682 55.6735 29.7852 55.6112 29.5968 55.6112C29.4085 55.6112 29.2254 55.6735 29.0762 55.7884L24.2792 59.4501C24.1307 59.5629 23.9494 59.624 23.7628 59.624C23.5763 59.624 23.395 59.5629 23.2465 59.4501L18.4495 55.7884C18.301 55.6755 18.1197 55.6145 17.9331 55.6145C17.7466 55.6145 17.5653 55.6755 17.4167 55.7884L12.782 59.3221C12.7186 59.3696 12.6432 59.3986 12.5643 59.4057C12.4853 59.4128 12.406 59.3978 12.3351 59.3624C12.2642 59.3269 12.2046 59.2724 12.1629 59.205C12.1212 59.1376 12.0992 59.0599 12.0992 58.9806V11.5554C12.1149 9.8025 12.8259 8.12751 14.0758 6.8984C15.3257 5.66928 17.0124 4.98656 18.7653 5.0002Z"
        class="base" />
    <path
        d="M6.848 33.8569C6.89367 33.4576 6.85111 33.0527 6.72355 32.6731C6.596 32.2935 6.38683 31.9492 6.112 31.6666C5.48931 31.2351 4.74587 31.0328 4 31.092V28.91C4.75639 28.9672 5.50771 28.7429 6.12 28.277C6.38284 28.0153 6.58288 27.693 6.704 27.3359C6.83174 26.9828 6.88097 26.6041 6.848 26.2283V23.5133C6.79098 22.5885 7.07736 21.6762 7.648 20.9649C7.9566 20.635 8.33064 20.3792 8.744 20.2154C9.1559 20.0471 9.59853 19.9759 10.04 20.0072H13V22.364H11.464C11.1314 22.3542 10.7988 22.3821 10.472 22.4473C10.2339 22.4917 10.0123 22.6041 9.832 22.7721C9.65556 22.9464 9.53538 23.1734 9.488 23.4217C9.41478 23.7885 9.38522 24.1633 9.4 24.5377V27.0361C9.43278 27.4201 9.38361 27.8069 9.256 28.1688C9.12917 28.5277 8.93005 28.8543 8.672 29.1265C8.13571 29.6022 7.46362 29.8803 6.76 29.9177V30.1259C7.47013 30.1565 8.14596 30.4521 8.664 30.9587C8.91383 31.2424 9.10933 31.5731 9.24 31.9331C9.36064 32.297 9.41491 32.6811 9.4 33.0657V35.5142C9.38972 35.8787 9.4274 36.243 9.512 36.5969C9.5535 36.8456 9.67141 37.0735 9.848 37.2465C10.0292 37.4178 10.2543 37.5306 10.496 37.5713C10.826 37.6324 11.1609 37.6603 11.496 37.6545H13V39.9948H10.04C9.61843 40.0198 9.19641 39.9546 8.8 39.8032C8.38904 39.67 8.00811 39.4519 7.68 39.1619C7.37777 38.8124 7.1489 38.4012 7.008 37.9544C6.86317 37.5043 6.80871 37.0281 6.848 36.5552V33.8569Z"
        class="base" />
    <g class="mix-blend-multiply">
        <path
            d="M6.848 33.8569C6.89367 33.4576 6.85111 33.0527 6.72355 32.6731C6.596 32.2935 6.38683 31.9492 6.112 31.6666C5.48931 31.2351 4.74587 31.0328 4 31.092V28.91C4.75639 28.9672 5.50771 28.7429 6.12 28.277C6.38284 28.0153 6.58288 27.693 6.704 27.3359C6.83174 26.9828 6.88097 26.6041 6.848 26.2283V23.5133C6.79098 22.5885 7.07736 21.6762 7.648 20.9649C7.9566 20.635 8.33064 20.3792 8.744 20.2154C9.1559 20.0471 9.59853 19.9759 10.04 20.0072H13V22.364H11.464C11.1314 22.3542 10.7988 22.3821 10.472 22.4473C10.2339 22.4917 10.0123 22.6041 9.832 22.7721C9.65556 22.9464 9.53538 23.1734 9.488 23.4217C9.41478 23.7885 9.38522 24.1633 9.4 24.5377V27.0361C9.43278 27.4201 9.38361 27.8069 9.256 28.1688C9.12917 28.5277 8.93005 28.8543 8.672 29.1265C8.13571 29.6022 7.46362 29.8803 6.76 29.9177V30.1259C7.47013 30.1565 8.14596 30.4521 8.664 30.9587C8.91383 31.2424 9.10933 31.5731 9.24 31.9331C9.36064 32.297 9.41491 32.6811 9.4 33.0657V35.5142C9.38972 35.8787 9.4274 36.243 9.512 36.5969C9.5535 36.8456 9.67141 37.0735 9.848 37.2465C10.0292 37.4178 10.2543 37.5306 10.496 37.5713C10.826 37.6324 11.1609 37.6603 11.496 37.6545H13V39.9948H10.04C9.61843 40.0198 9.19641 39.9546 8.8 39.8032C8.38904 39.67 8.00811 39.4519 7.68 39.1619C7.37777 38.8124 7.1489 38.4012 7.008 37.9544C6.86317 37.5043 6.80871 37.0281 6.848 36.5552V33.8569Z"
            class="secondary" />
    </g>
    <g class="mix-blend-multiply">
        <path
            d="M35.176 36.5104C35.2088 36.9782 35.1517 37.4481 35.008 37.8927C34.7995 38.5442 34.3879 39.1044 33.8386 39.4846C33.2893 39.8648 32.6338 40.0431 31.976 39.9912H29V37.6179H30.536C30.8711 37.6237 31.206 37.5958 31.536 37.5346C31.7777 37.494 32.0028 37.3812 32.184 37.2099C32.3604 37.0356 32.4806 36.8087 32.528 36.5604C32.5997 36.2047 32.6239 35.8404 32.6 35.4778V33.0296C32.5779 32.6392 32.6323 32.2482 32.76 31.8805C32.8855 31.5154 33.0816 31.181 33.336 30.8978C33.8654 30.3734 34.5653 30.0761 35.296 30.0651V29.8569C34.5904 29.806 33.9208 29.5132 33.392 29.0242C33.1272 28.7593 32.9199 28.4384 32.784 28.0832C32.6437 27.7272 32.5809 27.3433 32.6 26.9591V24.4609C32.6085 24.096 32.5681 23.7316 32.48 23.3783C32.4242 23.1291 32.3022 22.9011 32.128 22.7205C31.9488 22.5556 31.7307 22.4435 31.496 22.3957C31.1736 22.3387 30.847 22.3109 30.52 22.3125H29V20.0058H31.976C32.4166 19.9787 32.8579 20.0467 33.272 20.2057C33.686 20.373 34.0619 20.6283 34.376 20.9551C34.9374 21.6716 35.2226 22.5799 35.176 23.5033V26.2512C35.145 26.629 35.1914 27.0093 35.312 27.3671C35.4325 27.7317 35.6323 28.0623 35.896 28.3331C36.5072 28.7862 37.2519 29.0013 38 28.9409V31.0894C37.2514 31.0382 36.508 31.2493 35.888 31.6889C35.615 31.9663 35.407 32.3054 35.28 32.6799C35.154 33.0565 35.1103 33.4576 35.152 33.854L35.176 36.5104Z"
            class="secondary" />
    </g>
    <path d="M24.243 20L29 29.5013L19 39L24.243 20Z" fill="#36A168" />
    <path d="M20.2484 20L25 29.5013L15 39L20.2484 20Z" fill="#F05656" />
</svg>