<svg viewBox="0 0 64 64" fill="none" xmlns="http://www.w3.org/2000/svg">
    <defs>
        <style>
            .base {
                fill: #b7cde1;
            }

            .primary {
                fill: #36a168;
            }

            .secondary {
                fill: #feb452;
            }

            .tertiary {
                fill: #ffffff;
            }

            .mix-blend-multiply {
                mix-blend-mode: multiply;
            }
        </style>
    </defs>
    <rect x="31" y="26" width="2" height="34" rx="1" class="base" />
    <g class="mix-blend-multiply">
        <rect x="31" y="26" width="2" height="34" rx="1" class="base" />
    </g>
    <path
        d="M17.0286 56.6367V41.0043C17.0286 40.8103 17.1038 40.6244 17.2378 40.4872C17.3717 40.3501 17.5534 40.2731 17.7429 40.2731H56.2857C56.4752 40.2731 56.6568 40.3501 56.7908 40.4872C56.9247 40.6244 57 40.8103 57 41.0043V56.6367H17H17.0286Z"
        fill="white"
    />
    <g class="mix-blend-multiply">
        <path
            d="M17.0286 60V40.8937C17.0286 40.6566 17.1038 40.4293 17.2378 40.2617C17.3717 40.0942 17.5534 40 17.7429 40H56.2857C56.4752 40 56.6568 40.0942 56.7908 40.2617C56.9247 40.4293 57 40.6566 57 40.8937V60H17H17.0286Z"
            class="primary"
        />
    </g>
    <path
        d="M17 58.7639V56.636H57V58.7639C57 58.9229 56.9247 59.0753 56.7908 59.1877C56.6568 59.3001 56.4752 59.3633 56.2857 59.3633H17.7357C17.5463 59.3633 17.3646 59.3001 17.2306 59.1877C17.0967 59.0753 17.0214 58.9229 17.0214 58.7639H17Z"
        fill="white"
    />
    <g class="mix-blend-multiply">
        <path
            d="M17 58.7639V56.636H57V58.7639C57 58.9229 56.9247 59.0753 56.7908 59.1877C56.6568 59.3001 56.4752 59.3633 56.2857 59.3633H17.7357C17.5463 59.3633 17.3646 59.3001 17.2306 59.1877C17.0967 59.0753 17.0214 58.9229 17.0214 58.7639H17Z"
            class="primary"
        />
    </g>
    <g class="mix-blend-multiply">
        <path
            d="M17 59.3407V57H57V59.3407C57 59.5155 56.9247 59.6832 56.7908 59.8069C56.6568 59.9305 56.4752 60 56.2857 60H17.7357C17.5463 60 17.3646 59.9305 17.2306 59.8069C17.0967 59.6832 17.0214 59.5155 17.0214 59.3407H17Z"
            class="primary"
        />
    </g>
    <path opacity="0.5" d="M25 40H21V60H25V40Z" fill="white" />
    <circle cx="15" cy="52" r="8" class="secondary" />
    <g>
        <path
            fill-rule="evenodd"
            clip-rule="evenodd"
            d="M12.022 48H19V48.8661H16.0619C16.4577 49.2746 16.7152 49.8026 16.7964 50.3724H19V51.231H16.7377C16.6346 51.7648 16.3789 52.255 16.0031 52.6393C15.7724 52.891 15.4953 53.0932 15.1878 53.2343L17.3326 57H16.3484L14.3431 53.4904H12V52.6092H14.2403C14.7229 52.6078 15.1852 52.41 15.5257 52.0594C15.7572 51.8284 15.9224 51.5366 16.0031 51.2159H12.022V50.3573H16.0619C15.9765 49.9352 15.7529 49.5557 15.4283 49.2817C15.1037 49.0078 14.6974 48.8558 14.277 48.851H12V48.0226L12.022 48Z"
            class="secondary"
        />
    </g>
    <path
        fill-rule="evenodd"
        clip-rule="evenodd"
        d="M46.022 44H53V44.8661H50.0619C50.4577 45.2746 50.7152 45.8026 50.7964 46.3724H53V47.231H50.7377C50.6346 47.7648 50.3789 48.255 50.0031 48.6393C49.7724 48.891 49.4953 49.0932 49.1878 49.2343L51.3326 53H50.3484L48.3431 49.4904H46V48.6092H48.2403C48.7229 48.6078 49.1852 48.41 49.5257 48.0594C49.7572 47.8284 49.9224 47.5366 50.0031 47.2159H46.022V46.3573H50.0619C49.9765 45.9352 49.7529 45.5557 49.4283 45.2817C49.1037 45.0078 48.6974 44.8558 48.277 44.851H46V44.0226L46.022 44Z"
        class="tertiary"
    />
    <path
        fill-rule="evenodd"
        clip-rule="evenodd"
        d="M40.9317 31.1631C41.4114 31.7584 42.3908 31.7584 42.8705 31.1631C44.972 28.5552 48.1922 26.8867 51.8022 26.8867C53.9904 26.8867 56.0355 27.4998 57.775 28.5635C58.5816 29.0568 59.7615 28.4442 59.5726 27.5178C59.2142 25.7601 58.6877 24.0365 57.9979 22.3713C56.5838 18.9572 54.511 15.855 51.898 13.242C49.2849 10.629 46.1828 8.55619 42.7687 7.14203C39.3546 5.72786 35.6954 5 32 5C28.3046 5 24.6454 5.72786 21.2313 7.14203C17.8172 8.55619 14.7151 10.629 12.102 13.242C9.489 15.855 7.41622 18.9572 6.00206 22.3713C5.31228 24.0365 4.78578 25.7601 4.42739 27.5178C4.23849 28.4442 5.41844 29.0568 6.22503 28.5635C7.9645 27.4998 10.0096 26.8867 12.1978 26.8867C15.8078 26.8867 19.028 28.5552 21.1295 31.1631C21.6092 31.7584 22.5886 31.7584 23.0683 31.1631C25.1698 28.5552 28.39 26.8867 32 26.8867C35.61 26.8867 38.8302 28.5552 40.9317 31.1631Z"
        class="base"
    />
    <g class="mix-blend-multiply">
        <path
            fill-rule="evenodd"
            clip-rule="evenodd"
            d="M32.0275 5C21.2263 5 21.9843 29.3153 22.0259 30.4584C22.0273 30.4949 22.0233 30.5175 22.0165 30.5534C21.9666 30.8158 21.8082 31.937 22.8627 31.426C24.9563 28.6679 28.2702 26.8867 32 26.8867C35.6816 26.8867 38.9579 28.6221 41.0555 31.3196C42.3471 31.8896 42.0832 29.8612 42.0342 29.5418C42.0338 29.539 42.0334 29.5364 42.033 29.534C42.0294 29.5108 42.0276 29.4989 42.0286 29.4727C42.0641 28.5591 42.8743 5 32.0275 5Z"
            class="base"
        />
    </g>
</svg>
