<svg viewBox="0 0 64 64" fill="none" xmlns="http://www.w3.org/2000/svg">
    <defs>
        <style>
            .base {
                fill: #b7cde1;
            }

            .primary {
                fill: #36a168;
            }

            .mix-blend-multiply {
                mix-blend-mode: multiply;
            }
        </style>
    </defs>

    <g clip-path="url(#clip0_5208_183)">
        <g clip-path="url(#clip1_5208_183)">
            <path
                d="M45.5 5.05056e-05H10.5C9.8473 -0.0039924 9.21642 0.234816 8.73 0.670051C8.50188 0.87408 8.31905 1.12366 8.19332 1.40269C8.06758 1.68172 8.00173 1.984 8 2.29005V61.71C8.00173 62.0161 8.06758 62.3184 8.19332 62.5974C8.31905 62.8764 8.50188 63.126 8.73 63.3301C9.21642 63.7653 9.8473 64.0041 10.5 64.0001H45.5C46.1527 64.0041 46.7836 63.7653 47.27 63.3301C47.4981 63.126 47.6809 62.8764 47.8067 62.5974C47.9324 62.3184 47.9983 62.0161 48 61.71V2.29005C47.9983 1.984 47.9324 1.68172 47.8067 1.40269C47.6809 1.12366 47.4981 0.87408 47.27 0.670051C46.7836 0.234816 46.1527 -0.0039924 45.5 5.05056e-05V5.05056e-05Z"
                class="base"
            />
            <g class="mix-blend-multiply">
                <path
                    d="M37 6H13C12.43 6 12 6.67 12 7.5V16.5C12 17.33 12.47 18 13 18H37C37.57 18 38 17.33 38 16.5V7.5C38 6.67 37.53 6 37 6Z"
                    class="base"
                />
            </g>
            <g class="mix-blend-multiply">
                <path
                    d="M36 38H13C12.45 38 12 38.67 12 39.5V48.5C12 49.33 12.45 50 13 50H36C36.55 50 37 49.33 37 48.5V39.5C37 38.67 36.55 38 36 38Z"
                    class="base"
                />
            </g>
            <path
                d="M49.51 34.0002H55.51C55.7417 34.0003 55.9696 33.9416 56.1725 33.8297C56.3753 33.7178 56.5465 33.5562 56.67 33.3602L59.57 28.7302C59.7022 28.5096 59.772 28.2573 59.772 28.0002C59.772 27.743 59.7022 27.4907 59.57 27.2702L56.67 22.6402C56.5447 22.4412 56.3704 22.2778 56.1637 22.1657C55.9571 22.0536 55.7251 21.9966 55.49 22.0002H49.49C49.2583 22 49.0303 22.0587 48.8275 22.1706C48.6246 22.2825 48.4534 22.4441 48.33 22.6402L45.43 27.2702C45.2978 27.4907 45.228 27.743 45.228 28.0002C45.228 28.2573 45.2978 28.5096 45.43 28.7302L48.33 33.3602C48.4552 33.5591 48.6296 33.7225 48.8362 33.8346C49.0429 33.9467 49.2749 34.0037 49.51 34.0002Z"
                class="primary"
            />
            <path
                fill-rule="evenodd"
                clip-rule="evenodd"
                d="M49.5 25H55.5V25.72H53C53.3178 26.0764 53.5139 26.5247 53.56 27H55.5V27.73H53.56C53.4928 28.0921 53.3397 28.4328 53.1135 28.7234C52.8873 29.014 52.5946 29.2461 52.26 29.4L54.1 32.5H53.22L51.51 29.5H49.51V28.78H51.43C51.8443 28.7794 52.2422 28.6181 52.54 28.33C52.7313 28.1294 52.8718 27.8859 52.95 27.62H49.5V26.91H53C52.9418 26.6107 52.7956 26.3356 52.58 26.12C52.4358 25.9721 52.262 25.8562 52.07 25.78C51.8801 25.7 51.676 25.6592 51.47 25.66H49.5V25Z"
                fill="white"
            />
            <g class="mix-blend-multiply">
                <path
                    d="M43 22H20C19.45 22 19 22.67 19 23.5V32.5C19 33.33 19.45 34 20 34H43C43.55 34 44 33.33 44 32.5V23.5C44 22.67 43.55 22 43 22Z"
                    class="primary"
                />
            </g>
            <g class="mix-blend-multiply">
                <path
                    d="M30 56H26C24.8954 56 24 56.8954 24 58C24 59.1046 24.8954 60 26 60H30C31.1046 60 32 59.1046 32 58C32 56.8954 31.1046 56 30 56Z"
                    class="base"
                />
            </g>
        </g>
    </g>
    <defs>
        <clipPath id="clip0_5208_183">
            <rect width="64" height="64" fill="white" />
        </clipPath>
        <clipPath id="clip1_5208_183">
            <rect width="64" height="64" fill="white" />
        </clipPath>
    </defs>
</svg>
