<svg viewBox="0 0 64 64" fill="none" xmlns="http://www.w3.org/2000/svg">
    <defs>
        <style>
            .base {
                fill: #b7cde1;
            }

            .primary {
                fill: #36a168;
            }

            .mix-blend-multiply {
                mix-blend-mode: multiply;
            }
        </style>
    </defs>
    <g clip-path="url(#clip0_5206_70)">
        <path
            d="M34.4999 21H5.49994C4.67151 21 3.99994 21.6716 3.99994 22.5C3.99994 23.3284 4.67151 24 5.49994 24H34.4999C35.3284 24 35.9999 23.3284 35.9999 22.5C35.9999 21.6716 35.3284 21 34.4999 21Z"
            fill="white"
        />
        <path
            d="M34.4999 28H8.49994C7.67151 28 6.99994 28.6716 6.99994 29.5C6.99994 30.3284 7.67151 31 8.49994 31H34.4999C35.3284 31 35.9999 30.3284 35.9999 29.5C35.9999 28.6716 35.3284 28 34.4999 28Z"
            fill="white"
        />
        <path
            fill-rule="evenodd"
            clip-rule="evenodd"
            d="M44.1899 60.0007H10.9999V6.13073C10.9999 6.03787 11.0258 5.94685 11.0746 5.86786C11.1234 5.78887 11.1933 5.72504 11.2763 5.68351C11.3594 5.64199 11.4524 5.62441 11.5448 5.63275C11.6373 5.64109 11.7257 5.67501 11.7999 5.73073L17.2299 9.87073C17.4039 10.0029 17.6164 10.0745 17.8349 10.0745C18.0535 10.0745 18.266 10.0029 18.4399 9.87073L24.0599 5.58073C24.2339 5.44853 24.4464 5.37695 24.6649 5.37695C24.8835 5.37695 25.096 5.44853 25.2699 5.58073L30.8899 9.87073C31.0648 10.0053 31.2793 10.0783 31.4999 10.0783C31.7206 10.0783 31.9351 10.0053 32.1099 9.87073L37.7299 5.58073C37.9039 5.44853 38.1164 5.37695 38.3349 5.37695C38.5535 5.37695 38.766 5.44853 38.9399 5.58073L44.5599 9.87073C44.7339 10.0029 44.9464 10.0745 45.1649 10.0745C45.3835 10.0745 45.596 10.0029 45.7699 9.87073L51.1999 5.73073C51.2742 5.67501 51.3626 5.64109 51.455 5.63275C51.5475 5.62441 51.6405 5.64199 51.7235 5.68351C51.8066 5.72504 51.8764 5.78887 51.9253 5.86786C51.9741 5.94685 51.9999 6.03787 51.9999 6.13073V52.3207C51.9815 54.3744 51.1485 56.3368 49.6841 57.7768C48.2198 59.2168 46.2437 60.0167 44.1899 60.0007V60.0007Z"
            class="base"
        />
        <path
            fill-rule="evenodd"
            clip-rule="evenodd"
            d="M35.68 52V46H4.99996C4.73474 46 4.48039 46.1054 4.29285 46.2929C4.10531 46.4804 3.99996 46.7348 3.99996 47V52C3.97873 53.0296 4.16056 54.0533 4.53507 55.0127C4.90958 55.972 5.46942 56.8481 6.18261 57.591C6.89581 58.334 7.74839 58.9291 8.69164 59.3424C9.63489 59.7558 10.6503 59.9792 11.68 60H43.36C42.3303 59.9792 41.3149 59.7558 40.3716 59.3424C39.4284 58.9291 38.5758 58.334 37.8626 57.591C37.1494 56.8481 36.5896 55.972 36.2151 55.0127C35.8406 54.0533 35.6587 53.0296 35.68 52V52Z"
            class="base"
        />
        <g class="mix-blend-multiply">
            <path
                fill-rule="evenodd"
                clip-rule="evenodd"
                d="M35.6799 52V47C35.6799 46.7348 35.5746 46.4804 35.387 46.2929C35.1995 46.1054 34.9452 46 34.6799 46H10.9999V60H43.3599C42.3303 59.9792 41.3149 59.7558 40.3716 59.3424C39.4284 58.9291 38.5758 58.334 37.8626 57.591C37.1494 56.8481 36.5896 55.972 36.2151 55.0127C35.8405 54.0533 35.6587 53.0296 35.6799 52V52Z"
                class="base"
            />
        </g>
        <g class="mix-blend-multiply">
            <path
                d="M34.4999 21H5.49994C4.67151 21 3.99994 21.6716 3.99994 22.5C3.99994 23.3284 4.67151 24 5.49994 24H34.4999C35.3284 24 35.9999 23.3284 35.9999 22.5C35.9999 21.6716 35.3284 21 34.4999 21Z"
                class="base"
            />
        </g>
        <g class="mix-blend-multiply">
            <path
                d="M34.4999 28H8.49994C7.67151 28 6.99994 28.6716 6.99994 29.5C6.99994 30.3284 7.67151 31 8.49994 31H34.4999C35.3284 31 35.9999 30.3284 35.9999 29.5C35.9999 28.6716 35.3284 28 34.4999 28Z"
                class="base"
            />
        </g>
        <path
            d="M50 43C51.9778 43 53.9112 42.4135 55.5557 41.3147C57.2002 40.2159 58.4819 38.6541 59.2388 36.8268C59.9957 34.9996 60.1937 32.9889 59.8079 31.0491C59.422 29.1093 58.4696 27.3275 57.0711 25.9289C55.6725 24.5304 53.8907 23.578 51.9509 23.1922C50.0111 22.8063 48.0004 23.0043 46.1732 23.7612C44.3459 24.5181 42.7841 25.7998 41.6853 27.4443C40.5865 29.0888 40 31.0222 40 33C40 34.3132 40.2587 35.6136 40.7612 36.8268C41.2638 38.0401 42.0003 39.1425 42.9289 40.0711C44.8043 41.9464 47.3478 43 50 43V43Z"
            class="primary"
        />
        <path
            fill-rule="evenodd"
            clip-rule="evenodd"
            d="M45.8 27.6104H55.8V28.8104H51.55C52.0937 29.3813 52.4436 30.1091 52.55 30.8904H55.77V32.0904H52.54C52.4154 32.8424 52.0669 33.5394 51.54 34.0904C51.2056 34.4381 50.8087 34.7196 50.37 34.9203L53.43 40.1504H52L49.14 35.2603H45.77V34.0004H49C49.5743 33.9964 50.1314 33.8047 50.5865 33.4544C51.0415 33.1041 51.3694 32.6145 51.52 32.0604H45.8V30.8604H51.52C51.3896 30.2878 51.0699 29.776 50.6126 29.4077C50.1553 29.0393 49.5872 28.8359 49 28.8304H45.8V27.6304V27.6104Z"
            fill="white"
        />
    </g>
    <defs>
        <clipPath id="clip0_5206_70">
            <rect width="64" height="64" fill="white" />
        </clipPath>
    </defs>
</svg>
