<svg viewBox="0 0 64 64" fill="none" xmlns="http://www.w3.org/2000/svg">
    <defs>
        <style>
            .base {
                fill: #b7cde1
            }

            .primary {
                fill: #36a168
            }

            .mix-blend-multiply {
                mix-blend-mode: multiply;
            }
        </style>
    </defs>
    <path d="M18 28H13V47H18V28Z" fill="white" />
    <path d="M29 28H24V47H29V28Z" fill="white" />
    <path d="M40 28H35V47H40V28Z" fill="white" />
    <path d="M51 28H46V47H51V28Z" fill="white" />
    <path
        d="M54.3214 45H10.6786C9.75152 45 9 45.7835 9 46.75V50.25C9 51.2165 9.75152 52 10.6786 52H54.3214C55.2485 52 56 51.2165 56 50.25V46.75C56 45.7835 55.2485 45 54.3214 45Z"
        class="base" />
    <path
        d="M54.3214 30H10.6786C10.2334 30 9.80644 29.8187 9.49164 29.496C9.17685 29.1733 9 28.7356 9 28.2793V25.6982C8.9999 25.4238 9.06384 25.1533 9.18648 24.9093C9.30912 24.6654 9.48691 24.455 9.705 24.2958L31.5264 8.31899C31.8107 8.1115 32.151 8 32.5 8C32.849 8 33.1893 8.1115 33.4736 8.31899L55.295 24.2958C55.5131 24.455 55.6909 24.6654 55.8135 24.9093C55.9362 25.1533 56.0001 25.4238 56 25.6982V28.2793C56 28.7356 55.8232 29.1733 55.5084 29.496C55.1936 29.8187 54.7666 30 54.3214 30Z"
        class="base" />
    <g class="mix-blend-multiply">
        <path d="M18 28H13V47H18V28Z" class="base" />
    </g>
    <g class="mix-blend-multiply">
        <path d="M29 28H24V47H29V28Z" class="base" />
    </g>
    <g class="mix-blend-multiply">
        <path d="M40 28H35V47H40V28Z" class="base" />
    </g>
    <g class="mix-blend-multiply">
        <path d="M51 28H46V47H51V28Z" class="base" />
    </g>
    <path fill-rule="evenodd" clip-rule="evenodd"
        d="M14 3.5C14 2.67157 13.3284 2 12.5 2H4C2.89543 2 2 2.89543 2 4V12.5C2 13.3284 2.67157 14 3.5 14C4.32843 14 5 13.3284 5 12.5V7C5 5.89543 5.89543 5 7 5H12.5C13.3284 5 14 4.32843 14 3.5Z"
        class="primary" />
    <path fill-rule="evenodd" clip-rule="evenodd"
        d="M50 60.5C50 61.3284 50.6716 62 51.5 62L60 62C61.1046 62 62 61.1046 62 60L62 51.5C62 50.6716 61.3284 50 60.5 50C59.6716 50 59 50.6716 59 51.5L59 57C59 58.1046 58.1046 59 57 59L51.5 59C50.6716 59 50 59.6716 50 60.5Z"
        class="primary" />
    <path fill-rule="evenodd" clip-rule="evenodd"
        d="M3.5 50C2.67157 50 2 50.6716 2 51.5L2 60C2 61.1046 2.89543 62 4 62L12.5 62C13.3284 62 14 61.3284 14 60.5C14 59.6716 13.3284 59 12.5 59L7 59C5.89543 59 5 58.1046 5 57L5 51.5C5 50.6716 4.32843 50 3.5 50Z"
        class="primary" />
    <path fill-rule="evenodd" clip-rule="evenodd"
        d="M60.5 14C61.3284 14 62 13.3284 62 12.5L62 4C62 2.89543 61.1046 2 60 2L51.5 2C50.6716 2 50 2.67157 50 3.5C50 4.32843 50.6716 5 51.5 5L57 5C58.1046 5 59 5.89543 59 7L59 12.5C59 13.3284 59.6716 14 60.5 14Z"
        class="primary" />
</svg>