<svg xmlns="http://www.w3.org/2000/svg" viewBox="0 0 64 64">
    <defs>
        <style>
            .isolate {
                isolation: isolate;
            }

            .primary {
                fill: #feb452;
            }

            .base {
                fill: #b7cde1;
            }

            .mix-blend-multiply {
                mix-blend-mode: multiply;
            }

            .secondary {
                fill: #42cacd;
            }
        </style>
    </defs>
    <g class="isolate">
        <g id="Layer_1" data-name="Layer 1">
            <path class="primary" d="M45,27a9,9,0,1,0-9-9A9,9,0,0,0,45,27Z" />
            <g class="mix-blend-multiply">
                <path class="base"
                    d="M4,57H60V38.86H59c-10.93,0-15-5.86-17-17S31.84,7,23,7,7,13,7,21.86v1a5.81,5.81,0,0,1,6-5.57,6,6,0,0,1,6,5.57C19,25,19,31,6,31H4Z" />
            </g>
            <g class="mix-blend-multiply">
                <path class="secondary" d="M60,52H4v5H60Z" />
            </g>
            <g class="mix-blend-multiply">
                <path class="secondary"
                    d="M7,31c6.63,0,18,0,18-10C25,10,7,6,7,21.86v1a5.81,5.81,0,0,1,6-5.57,6,6,0,0,1,6,5.57C19,25,19,31,6,31" />
            </g>
        </g>
    </g>
</svg>