<svg xmlns="http://www.w3.org/2000/svg" viewBox="0 0 64 64">
    <defs>
        <style>
            .isolate {
                isolation: isolate;
            }

            .base {
                fill: #b7cde1;
            }

            .mix-blend-multiply {
                mix-blend-mode: multiply;
            }

            .primary {
                fill: #1482ff;
            }
        </style>
    </defs>
    <g class="isolate">
        <g id="Layer_1" data-name="Layer 1">
            <rect fill="none" width="64" height="64" />
            <path
                class="base"
                d="M61.71,55H2.29a2.21,2.21,0,0,1-1.62-.7A2.49,2.49,0,0,1,0,52.6V9.4A2.49,2.49,0,0,1,.67,7.7,2.21,2.21,0,0,1,2.29,7H61.71a2.21,2.21,0,0,1,1.62.7A2.49,2.49,0,0,1,64,9.4V52.6a2.49,2.49,0,0,1-.67,1.7,2.21,2.21,0,0,1-1.62.7Z"
            />
            <g class="mix-blend-multiply">
                <path
                    class="base"
                    d="M5.5,12.89a1.53,1.53,0,0,0,1.28-.73A1.39,1.39,0,0,0,7,11.53a1.44,1.44,0,0,0-.08-.65,1.47,1.47,0,0,0-.35-.55,1.45,1.45,0,0,0-.77-.41,1.49,1.49,0,0,0-.86.08,1.66,1.66,0,0,0-.68.55,1.56,1.56,0,0,0-.25.84,1.5,1.5,0,0,0,1.5,1.5Z"
                />
            </g>
            <g class="mix-blend-multiply">
                <path
                    class="base"
                    d="M10.5,12.89a1.53,1.53,0,0,0,1.28-.73,1.39,1.39,0,0,0,.21-.63,1.44,1.44,0,0,0-.08-.65,1.47,1.47,0,0,0-.35-.55,1.45,1.45,0,0,0-.77-.41,1.49,1.49,0,0,0-.86.08,1.66,1.66,0,0,0-.68.55,1.56,1.56,0,0,0-.25.84,1.5,1.5,0,0,0,1.5,1.5Z"
                />
            </g>
            <g class="mix-blend-multiply">
                <path
                    class="base"
                    d="M15.5,12.89a1.53,1.53,0,0,0,1.28-.73,1.39,1.39,0,0,0,.21-.63,1.44,1.44,0,0,0-.08-.65,1.47,1.47,0,0,0-.35-.55,1.45,1.45,0,0,0-.77-.41,1.49,1.49,0,0,0-.86.08,1.66,1.66,0,0,0-.68.55,1.56,1.56,0,0,0-.25.84,1.5,1.5,0,0,0,1.5,1.5Z"
                />
            </g>
            <path
                fill="#fff"
                opacity="0.4"
                d="M57.93,51H6.07A2.31,2.31,0,0,1,4,48.52v-31A2.3,2.3,0,0,1,6.07,15H57.93A2.31,2.31,0,0,1,60,17.48v31A2.3,2.3,0,0,1,57.93,51Z"
            />
            <path
                class="primary"
                d="M39.15,34a1.79,1.79,0,0,0,.62-.66,1.84,1.84,0,0,0,0-1.78,1.79,1.79,0,0,0-.62-.66L26.67,23.25a1.72,1.72,0,0,0-.88-.25,1.78,1.78,0,0,0-.9.24,1.87,1.87,0,0,0-.65.66,1.83,1.83,0,0,0-.24.92V40.19a1.87,1.87,0,0,0,.25.92,1.74,1.74,0,0,0,.66.66,1.65,1.65,0,0,0,.89.23,1.84,1.84,0,0,0,.89-.26Z"
            />
        </g>
    </g>
</svg>
