<svg xmlns="http://www.w3.org/2000/svg" viewBox="0 0 64 64">
    <defs>
        <style>
            .isolate {
                isolation: isolate;
            }

            .base {
                fill: #b7cde1;
            }

            .mix-blend-multiply {
                mix-blend-mode: multiply;
            }

            .primary {
                fill: #42cacd;
            }

            .secondary {
                fill: #f05656;
            }

            .tertiary {
                fill: #22282d;
            }
        </style>
    </defs>
    <g clip-path="url(#clip0_3558_3834)">
        <path
            d="M61.71 53H2.29003C1.98658 52.9997 1.6864 52.9374 1.40784 52.8171C1.12929 52.6967 0.878226 52.5208 0.670032 52.3C0.236719 51.8404 -0.00318111 51.2317 3.18613e-05 50.6V7.4C-0.00318111 6.76833 0.236719 6.15963 0.670032 5.7C0.878226 5.47924 1.12929 5.30329 1.40784 5.18293C1.6864 5.06257 1.98658 5.00032 2.29003 5H61.71C62.0135 5.00032 62.3137 5.06257 62.5922 5.18293C62.8708 5.30329 63.1218 5.47924 63.33 5.7C63.7633 6.15963 64.0032 6.76833 64 7.4V50.6C64.0032 51.2317 63.7633 51.8404 63.33 52.3C63.1218 52.5208 62.8708 52.6967 62.5922 52.8171C62.3137 52.9374 62.0135 52.9997 61.71 53Z"
            class="base"
        />
        <g class="mix-blend-multiply">
            <path
                d="M5.50007 10.9999C5.79123 11 6.07596 10.9139 6.31858 10.7523C6.56365 10.5863 6.75548 10.3524 6.87084 10.0791C6.99026 9.8124 7.02802 9.51604 6.97931 9.22771C6.92712 8.92915 6.78457 8.65398 6.57106 8.43964C6.35756 8.22529 6.08346 8.08219 5.78606 8.02979C5.50177 7.97155 5.20667 7.99911 4.93796 8.10899C4.66572 8.22479 4.43278 8.41738 4.26737 8.6634C4.11119 8.88741 4.01964 9.15035 4.00282 9.42325C3.986 9.69616 4.04456 9.96843 4.17204 10.2101C4.29952 10.4517 4.49098 10.6533 4.72531 10.7926C4.95963 10.932 5.22774 11.0037 5.50007 10.9999V10.9999Z"
                class="base"
            />
        </g>
        <g class="mix-blend-multiply">
            <path
                d="M10.5104 10.9999C10.8036 11 11.0903 10.9139 11.3346 10.7523C11.5814 10.5863 11.7745 10.3524 11.8907 10.0791C12.0009 9.80937 12.0285 9.51311 11.9701 9.22771C11.9195 8.93322 11.7803 8.661 11.5711 8.44709C11.3619 8.23318 11.0924 8.08765 10.7984 8.02979C10.5122 7.97155 10.215 7.99911 9.94444 8.10899C9.67033 8.22479 9.43578 8.41738 9.26922 8.6634C9.11196 8.88741 9.01978 9.15035 9.00284 9.42325C8.98591 9.69616 9.04487 9.96843 9.17323 10.2101C9.30159 10.4517 9.49437 10.6533 9.73032 10.7926C9.96627 10.932 10.2362 11.0037 10.5104 10.9999V10.9999Z"
                class="base"
            />
        </g>
        <g class="mix-blend-multiply">
            <path
                d="M15.5104 10.9999C15.8036 11 16.0903 10.9139 16.3346 10.7523C16.5814 10.5863 16.7745 10.3524 16.8907 10.0791C17.0009 9.80937 17.0285 9.51311 16.9701 9.22771C16.9195 8.93322 16.7803 8.661 16.5711 8.44709C16.3619 8.23318 16.0924 8.08765 15.7984 8.02979C15.5122 7.97155 15.215 7.99911 14.9444 8.10899C14.6703 8.22479 14.4358 8.41738 14.2692 8.6634C14.112 8.88741 14.0198 9.15035 14.0028 9.42325C13.9859 9.69616 14.0449 9.96843 14.1732 10.2101C14.3016 10.4517 14.4944 10.6533 14.7303 10.7926C14.9663 10.932 15.2362 11.0037 15.5104 10.9999Z"
                class="base"
            />
        </g>
        <path
            opacity="0.5"
            fill-rule="evenodd"
            clip-rule="evenodd"
            d="M6.15003 13H57.85C58.4532 13.0336 59.0185 13.3052 59.4216 13.7552C59.8247 14.2051 60.0328 14.7967 60 15.4V46.6C60.0328 47.2033 59.8247 47.7949 59.4216 48.2448C59.0185 48.6948 58.4532 48.9664 57.85 49H6.15003C5.54681 48.9664 4.98157 48.6948 4.57845 48.2448C4.17533 47.7949 3.96729 47.2033 4.00003 46.6V29.2422C4.71507 29.7209 5.57494 30 6.5 30C8.98528 30 11 27.9853 11 25.5C11 23.0148 8.98538 21.0001 6.50018 21C6.81403 20.5822 7 20.0628 7 19.5C7 18.1193 5.88071 17 4.5 17C4.32878 17 4.16157 17.0172 4.00003 17.05V15.4C3.96729 14.7967 4.17533 14.2051 4.57845 13.7552C4.98157 13.3052 5.54681 13.0336 6.15003 13Z"
            fill="white"
        />
        <circle cx="10.7279" cy="28.7133" r="2.5" transform="rotate(-33.2153 10.7279 28.7133)" class="tertiary" />
        <circle cx="15.2805" cy="35.3038" r="4" transform="rotate(-33.2153 15.2805 35.3038)" class="tertiary" />
        <path
            d="M19.8126 37.8522C20.6608 36.6082 21.0513 35.1086 20.9177 33.6089C20.7841 32.1092 20.1347 30.7023 19.08 29.6277C18.0254 28.5532 16.6308 27.8776 15.1339 27.7161C13.6369 27.5545 12.1303 27.917 10.8707 28.7418C9.61107 29.5665 8.67638 30.8025 8.2259 32.2392C7.77542 33.6758 7.837 35.2242 8.40017 36.6205C8.96334 38.0168 9.99323 39.1747 11.3144 39.8968C12.6355 40.6189 14.1662 40.8606 15.6456 40.5806L14.4356 34.1863L19.8126 37.8522Z"
            fill="white"
        />
        <g class="mix-blend-multiply">
            <path
                d="M19.7954 37.8455C20.6425 36.603 21.0326 35.1052 20.8991 33.6073C20.7657 32.1095 20.1171 30.7042 19.0637 29.631C18.0103 28.5577 16.6174 27.8829 15.1222 27.7216C13.6271 27.5602 12.1223 27.9223 10.8642 28.746C9.60605 29.5698 8.67249 30.8043 8.22255 32.2392C7.7726 33.6742 7.83411 35.2207 8.39661 36.6153C8.9591 38.01 9.98776 39.1665 11.3073 39.8877C12.6269 40.6089 14.1557 40.8503 15.6333 40.5707L14.4248 34.1841L19.7954 37.8455Z"
                class="secondary"
            />
        </g>
        <path
            fill-rule="evenodd"
            clip-rule="evenodd"
            d="M46.7987 46.5141C43.9371 48.6723 40.3634 49.6637 36.7993 49.2882C33.2353 48.9126 29.9465 47.1981 27.5974 44.4908C25.2483 41.7836 24.0139 38.2855 24.1436 34.7032C24.2733 31.1208 25.7574 27.7212 28.2961 25.191C30.8348 22.6608 34.2389 21.1887 37.8208 21.072C41.4027 20.9552 44.8954 22.2026 47.5934 24.5622C50.2913 26.9217 51.9935 30.2175 52.356 33.7838C52.7186 37.3501 51.7144 40.9212 49.5464 43.7756L59.8108 54.0227C59.9312 54.1449 59.9991 54.3093 60 54.4808C59.9986 54.6493 59.9306 54.8104 59.8108 54.9289L57.9391 56.8111C57.817 56.9315 57.6527 56.9994 57.4812 57.0003C57.3127 56.9989 57.1516 56.9309 57.0332 56.8111L46.7987 46.5141ZM48.1825 35.1915C48.1889 37.166 47.6084 39.0979 46.5146 40.7416C45.4209 42.3853 43.8633 43.6667 42.0398 44.4229C40.2149 45.1707 38.2111 45.368 36.2754 44.9905C34.4315 44.614 32.732 43.7224 31.374 42.4191C30.016 41.1158 29.0551 39.4542 28.6027 37.6269C28.1504 35.7996 28.2251 33.8815 28.8183 32.0949C29.4114 30.3084 30.4986 28.7266 31.9539 27.5329C33.4092 26.3393 35.1729 25.5827 37.0406 25.3509C38.9083 25.119 40.8034 25.4215 42.5062 26.2231C44.209 27.0247 45.6498 28.2927 46.6615 29.8801C47.6732 31.4674 48.2144 33.3091 48.2223 35.1915H48.1825Z"
            fill="white"
        />
        <path
            fill-rule="evenodd"
            clip-rule="evenodd"
            d="M52.4336 35.1907C52.4395 38.0049 51.6105 40.7576 50.0515 43.1003C48.4925 45.443 46.2736 47.2703 43.6758 48.3509C41.0779 49.4315 38.2179 49.7168 35.4579 49.1707C32.6979 48.6246 30.1619 47.2716 28.1711 45.283C26.1802 43.2944 24.824 40.7597 24.2742 37.9997C23.7243 35.2397 24.0055 32.3786 25.0822 29.7786C26.1589 27.1786 27.9826 24.9566 30.3225 23.3939C32.6624 21.8312 35.4132 20.9981 38.2267 21C40.0912 20.9964 41.938 21.3605 43.6616 22.0713C45.3853 22.7821 46.952 23.8258 48.2721 25.1427C50.934 27.8051 52.4307 31.4154 52.4336 35.1807V35.1907Z"
            class="primary"
        />
        <path
            d="M43.9214 34.6028C44.5813 34.6028 45.1273 34.0635 45.0062 33.4149C44.8895 32.7896 44.6809 32.1827 44.3853 31.6146C43.9052 30.6918 43.2097 29.8983 42.3579 29.3014C41.5061 28.7044 40.5229 28.3217 39.4918 28.1856C38.8572 28.1018 38.2158 28.1129 37.5885 28.2167C36.9375 28.3245 36.6171 29.022 36.8425 29.6422V29.6422C37.0679 30.2625 37.7583 30.5631 38.4173 30.5263C38.6707 30.5121 38.9257 30.5216 39.1791 30.555C39.8295 30.6409 40.4496 30.8823 40.9869 31.2588C41.5242 31.6354 41.9629 32.1359 42.2658 32.718C42.3839 32.9449 42.4799 33.1817 42.5532 33.4251C42.7435 34.0568 43.2616 34.6028 43.9214 34.6028V34.6028Z"
            fill="#E2EBF3"
        />
        <g class="mix-blend-multiply">
            <path
                fill-rule="evenodd"
                clip-rule="evenodd"
                d="M46.7987 46.5141C43.9371 48.6723 40.3634 49.6637 36.7993 49.2882C33.2353 48.9126 29.9465 47.1981 27.5974 44.4908C25.2483 41.7836 24.0139 38.2855 24.1436 34.7032C24.2733 31.1208 25.7574 27.7212 28.2961 25.191C30.8348 22.6608 34.2389 21.1887 37.8208 21.072C41.4027 20.9552 44.8954 22.2026 47.5934 24.5622C50.2913 26.9217 51.9935 30.2175 52.356 33.7838C52.7186 37.3501 51.7144 40.9212 49.5464 43.7756L59.8108 54.0227C59.9312 54.1449 59.9991 54.3093 60 54.4808C59.9986 54.6493 59.9306 54.8104 59.8108 54.9289L57.9391 56.8111C57.817 56.9315 57.6527 56.9994 57.4812 57.0003C57.3127 56.9989 57.1516 56.9309 57.0332 56.8111L46.7987 46.5141ZM48.1825 35.1915C48.1889 37.166 47.6084 39.0979 46.5146 40.7416C45.4209 42.3853 43.8633 43.6667 42.0398 44.4229C40.2149 45.1707 38.2111 45.368 36.2754 44.9905C34.4315 44.614 32.732 43.7224 31.374 42.4191C30.016 41.1158 29.0551 39.4542 28.6027 37.6269C28.1504 35.7996 28.2251 33.8815 28.8183 32.0949C29.4114 30.3084 30.4986 28.7266 31.9539 27.5329C33.4092 26.3393 35.1729 25.5827 37.0406 25.3509C38.9083 25.119 40.8034 25.4215 42.5062 26.2231C44.209 27.0247 45.6498 28.2927 46.6615 29.8801C47.6732 31.4674 48.2144 33.3091 48.2223 35.1915H48.1825Z"
                class="primary"
            />
        </g>
    </g>
    <defs>
        <clipPath id="clip0_3558_3834">
            <rect width="64" height="64" fill="white" />
        </clipPath>
    </defs>
</svg>
