<svg xmlns="http://www.w3.org/2000/svg" viewBox="0 0 64 64">
    <defs>
        <style>
            .isolate {
                isolation: isolate;
            }

            .base {
                fill: #b7cde1;
            }

            .primary {
                fill: #42cacd;
            }

            .secondary {
                fill: #feb452;
            }

            .mix-blend-multiply {
                mix-blend-mode: multiply;
            }
        </style>
    </defs>
    <g class="isolate">
        <g id="Layer_1" data-name="Layer 1">
            <rect fill="none" width="64" height="64" />
            <path class="base mix-blend-multiply"
                d="M61.71,55H2.29a2.21,2.21,0,0,1-1.62-.7A2.49,2.49,0,0,1,0,52.6V9.4A2.49,2.49,0,0,1,.67,7.7,2.21,2.21,0,0,1,2.29,7H61.71a2.21,2.21,0,0,1,1.62.7A2.49,2.49,0,0,1,64,9.4V52.6a2.49,2.49,0,0,1-.67,1.7,2.21,2.21,0,0,1-1.62.7Z" />
            <g class="mix-blend-multiply">
                <path class="base"
                    d="M5.5,13a1.53,1.53,0,0,0,.83-.25,1.55,1.55,0,0,0,.56-.68A1.5,1.5,0,0,0,7,11.21,1.47,1.47,0,0,0,5.79,10a1.49,1.49,0,0,0-.86.08,1.55,1.55,0,0,0-.68.56,1.52,1.52,0,0,0-.27.77,1.45,1.45,0,0,0,.17.79,1.52,1.52,0,0,0,.56.59A1.56,1.56,0,0,0,5.5,13Z" />
            </g>
            <g class="mix-blend-multiply">
                <path class="base"
                    d="M10.5,13a1.53,1.53,0,0,0,.83-.25,1.55,1.55,0,0,0,.56-.68,1.58,1.58,0,0,0-.32-1.65,1.53,1.53,0,0,0-.78-.42,1.49,1.49,0,0,0-.86.08,1.55,1.55,0,0,0-.68.56,1.52,1.52,0,0,0-.27.77,1.45,1.45,0,0,0,.17.79,1.52,1.52,0,0,0,.56.59,1.56,1.56,0,0,0,.79.21Z" />
            </g>
            <g class="mix-blend-multiply">
                <path class="base"
                    d="M15.5,13a1.53,1.53,0,0,0,.83-.25,1.55,1.55,0,0,0,.56-.68,1.58,1.58,0,0,0-.32-1.65,1.53,1.53,0,0,0-.78-.42,1.49,1.49,0,0,0-.86.08,1.55,1.55,0,0,0-.68.56,1.52,1.52,0,0,0-.27.77,1.45,1.45,0,0,0,.17.79,1.52,1.52,0,0,0,.56.59A1.56,1.56,0,0,0,15.5,13Z" />
            </g>
            <path fill="#fff" opacity="0.4"
                d="M57.85,15H6.15a2.27,2.27,0,0,0-1.57.76A2.3,2.3,0,0,0,4,17.4V48.6a2.3,2.3,0,0,0,.58,1.64A2.27,2.27,0,0,0,6.15,51h51.7a2.27,2.27,0,0,0,1.57-.76A2.3,2.3,0,0,0,60,48.6V17.4a2.3,2.3,0,0,0-.58-1.64A2.27,2.27,0,0,0,57.85,15Z" />
            <g class="mix-blend-multiply">
                <path class="secondary"
                    d="M47.08,41.12a18.41,18.41,0,0,1,1.69,3.73,6.47,6.47,0,0,1,0,11.15,18.94,18.94,0,0,1-1.68,3.73,9,9,0,0,0,7.38-9.3,9,9,0,0,0-7.39-9.31ZM14,44.85a18.9,18.9,0,0,1,1.67-3.73,9,9,0,0,0-7.32,9.31,9,9,0,0,0,7.34,9.3A18.41,18.41,0,0,1,14,56a6.48,6.48,0,0,1,0-11.17Z" />
            </g>
            <g class="mix-blend-multiply">
                <path class="primary"
                    d="M45.49,56.92A6.42,6.42,0,0,0,48.77,56a18.59,18.59,0,0,1-1.68,3.72,8.58,8.58,0,0,1-1.6.14c-4.84,0-11.36-5.18-13.94-7.41-4.77,3.83-9.66,7.4-14.26,7.4a10.69,10.69,0,0,1-1.6-.14A18,18,0,0,1,14,56a6.31,6.31,0,0,0,3.28.88c3.45,0,7.63-3,11.8-6.27C25.44,47.73,19.87,44,17.28,44a6.32,6.32,0,0,0-3.28.89,17.42,17.42,0,0,1,1.67-3.71A8.83,8.83,0,0,1,17.29,41c4.29,0,11.73,5.75,14.18,7.76,5-4,9.69-7.78,14-7.78a9.49,9.49,0,0,1,1.59.14,18.08,18.08,0,0,1,1.69,3.72,6.42,6.42,0,0,0-3.28-.9c-3.14,0-7.38,3.28-11.56,6.66C36.85,53.13,42.16,56.92,45.49,56.92Z" />
            </g>
        </g>
    </g>
</svg>