<svg xmlns="http://www.w3.org/2000/svg" viewBox="0 0 64 64">
    <defs>
        <style>
            .isolate {
                isolation: isolate;
            }

            .base {
                fill: #b7cde1;
            }

            .mix-blend-multiply {
                mix-blend-mode: multiply;
            }
        </style>
    </defs>
    <g class="isolate">
        <g id="Layer_1" data-name="Layer 1">
            <path
                class="base"
                d="M62,56H2a1.76,1.76,0,0,1-.78-.19,1.84,1.84,0,0,1-.63-.51A2.63,2.63,0,0,1,0,53.55V10.4A2.63,2.63,0,0,1,.59,8.7a1.84,1.84,0,0,1,.63-.51A1.76,1.76,0,0,1,2,8l60,.05a1.76,1.76,0,0,1,.78.19,1.84,1.84,0,0,1,.63.51,2.63,2.63,0,0,1,.59,1.7V53.6a2.63,2.63,0,0,1-.59,1.7,1.84,1.84,0,0,1-.63.51A1.76,1.76,0,0,1,62,56Z"
            />
            <path
                class="base mix-blend-multiply"
                d="M5.52,14.11a1.55,1.55,0,0,0,.83-.25,1.47,1.47,0,0,0,.55-.68,1.41,1.41,0,0,0,.1-.86,1.47,1.47,0,0,0-.4-.78,1.53,1.53,0,0,0-.78-.42,1.62,1.62,0,0,0-.87.09,1.55,1.55,0,0,0-.67.57,1.36,1.36,0,0,0-.25.83,1.66,1.66,0,0,0,.11.58,1.58,1.58,0,0,0,.33.48A1.49,1.49,0,0,0,5.52,14.11Z"
            />
            <path
                class="base mix-blend-multiply"
                d="M10.52,14.11a1.55,1.55,0,0,0,.83-.25,1.47,1.47,0,0,0,.55-.68,1.41,1.41,0,0,0,.09-.86,1.47,1.47,0,0,0-.4-.78,1.53,1.53,0,0,0-.78-.42,1.62,1.62,0,0,0-.87.09,1.55,1.55,0,0,0-.67.57,1.36,1.36,0,0,0-.25.83,1.66,1.66,0,0,0,.11.58,1.58,1.58,0,0,0,.33.48A1.5,1.5,0,0,0,10.52,14.11Z"
            />
            <path
                class="base mix-blend-multiply"
                d="M15.52,14.11a1.55,1.55,0,0,0,.83-.25,1.47,1.47,0,0,0,.55-.68,1.41,1.41,0,0,0,.09-.86,1.47,1.47,0,0,0-.4-.78,1.53,1.53,0,0,0-.78-.42,1.62,1.62,0,0,0-.87.09,1.55,1.55,0,0,0-.67.57,1.36,1.36,0,0,0-.25.83,1.66,1.66,0,0,0,.11.58,1.58,1.58,0,0,0,.33.48A1.5,1.5,0,0,0,15.52,14.11Z"
            />
            <g class="isolate">
                <path
                    fill="#fff"
                    opacity="0.4"
                    d="M58.68,17.11H5.29a1.28,1.28,0,0,0-.51.13,1.22,1.22,0,0,0-.43.31,1.33,1.33,0,0,0-.27.46,1.29,1.29,0,0,0-.08.52v32a1.24,1.24,0,0,0,.06.54,1.16,1.16,0,0,0,.27.47,1.37,1.37,0,0,0,.43.33,1.42,1.42,0,0,0,.53.13H58.68a1.35,1.35,0,0,0,1-.44,1.36,1.36,0,0,0,.28-.46,1.44,1.44,0,0,0,.07-.54v-32a1.41,1.41,0,0,0-.07-.54,1.34,1.34,0,0,0-.28-.47,1.43,1.43,0,0,0-.44-.32A1.24,1.24,0,0,0,58.68,17.11Z"
                />
            </g>
        </g>
    </g>
</svg>
