<svg xmlns="http://www.w3.org/2000/svg" viewBox="0 0 64 64">
    <defs>
        <style>
            .isolate {
                isolation: isolate;
            }

            .base {
                fill: #b7cde1;
            }

            .mix-blend-multiply {
                mix-blend-mode: multiply;
            }

            .primary {
                fill: #00ccce;
            }

            .secondary {
                fill: #ffb036;
            }
        </style>
    </defs>
    <g class="isolate">
        <g id="Layer_1" data-name="Layer 1">
            <path
                class="base"
                d="M61.71,53.93H2.29a2.21,2.21,0,0,1-1.62-.7A2.49,2.49,0,0,1,0,51.53V8.33a2.49,2.49,0,0,1,.67-1.7,2.21,2.21,0,0,1,1.62-.7H61.71a2.21,2.21,0,0,1,1.62.7A2.49,2.49,0,0,1,64,8.33v43.2a2.49,2.49,0,0,1-.67,1.7,2.21,2.21,0,0,1-1.62.7Z"
            />
            <path
                class="base mix-blend-multiply"
                d="M5.52,14.11a1.55,1.55,0,0,0,.83-.25,1.47,1.47,0,0,0,.55-.68,1.41,1.41,0,0,0,.1-.86,1.47,1.47,0,0,0-.4-.78,1.53,1.53,0,0,0-.78-.42,1.62,1.62,0,0,0-.87.09,1.55,1.55,0,0,0-.67.57,1.36,1.36,0,0,0-.25.83,1.66,1.66,0,0,0,.11.58,1.58,1.58,0,0,0,.33.48A1.49,1.49,0,0,0,5.52,14.11Z"
            />
            <path
                class="base mix-blend-multiply"
                d="M10.52,14.11a1.55,1.55,0,0,0,.83-.25,1.47,1.47,0,0,0,.55-.68,1.41,1.41,0,0,0,.09-.86,1.47,1.47,0,0,0-.4-.78,1.53,1.53,0,0,0-.78-.42,1.62,1.62,0,0,0-.87.09,1.55,1.55,0,0,0-.67.57,1.36,1.36,0,0,0-.25.83,1.66,1.66,0,0,0,.11.58,1.58,1.58,0,0,0,.33.48A1.5,1.5,0,0,0,10.52,14.11Z"
            />
            <path
                class="base mix-blend-multiply"
                d="M15.52,14.11a1.55,1.55,0,0,0,.83-.25,1.47,1.47,0,0,0,.55-.68,1.41,1.41,0,0,0,.09-.86,1.47,1.47,0,0,0-.4-.78,1.53,1.53,0,0,0-.78-.42,1.62,1.62,0,0,0-.87.09,1.55,1.55,0,0,0-.67.57,1.36,1.36,0,0,0-.25.83,1.66,1.66,0,0,0,.11.58,1.58,1.58,0,0,0,.33.48A1.5,1.5,0,0,0,15.52,14.11Z"
            />
            <g class="isolate">
                <path
                    fill="#fff"
                    opacity="0.4"
                    d="M58.68,17.11H5.29a1.28,1.28,0,0,0-.51.13,1.22,1.22,0,0,0-.43.31,1.33,1.33,0,0,0-.27.46,1.29,1.29,0,0,0-.08.52v32a1.24,1.24,0,0,0,.06.54,1.16,1.16,0,0,0,.27.47,1.37,1.37,0,0,0,.43.33,1.42,1.42,0,0,0,.53.13H58.68a1.35,1.35,0,0,0,1-.44,1.36,1.36,0,0,0,.28-.46,1.44,1.44,0,0,0,.07-.54v-32a1.41,1.41,0,0,0-.07-.54,1.34,1.34,0,0,0-.28-.47,1.43,1.43,0,0,0-.44-.32A1.24,1.24,0,0,0,58.68,17.11Z"
                />
            </g>
            <path
                class="primary mix-blend-multiply"
                fill-rule="evenodd"
                d="M48.62,37.1a1,1,0,0,1,.65.22,1.1,1.1,0,0,1,.36.58l.56,2.7a1.11,1.11,0,0,0,.22.45,1.22,1.22,0,0,0,.41.29,7.9,7.9,0,0,1,1.36.69.91.91,0,0,0,.45.16,1,1,0,0,0,.48-.06l2.56-1a.89.89,0,0,1,.68,0,.87.87,0,0,1,.54.42l1.67,2.58a.94.94,0,0,1,.15.69.92.92,0,0,1-.34.61l-2,1.68a1.17,1.17,0,0,0-.27.42A1,1,0,0,0,56,48v.17a3.42,3.42,0,0,0,0,.64v.15a4.57,4.57,0,0,1,0,.74,1.33,1.33,0,0,0,.09.49,1.11,1.11,0,0,0,.31.4l2.1,1.6a1,1,0,0,1,.41.57,1,1,0,0,1-.07.7l-1.46,2.71a1,1,0,0,1-.52.46,1,1,0,0,1-.69,0l-2.62-.86a.79.79,0,0,0-.48,0,.9.9,0,0,0-.45.18,8,8,0,0,1-1.29.78A.93.93,0,0,0,51,57a1.12,1.12,0,0,0-.18.47l-.35,2.67a.92.92,0,0,1-.34.62,1.06,1.06,0,0,1-.66.25l-3.15.09a1,1,0,0,1-.65-.22.91.91,0,0,1-.35-.58l-.6-2.9a1.11,1.11,0,0,0-.21-.42.9.9,0,0,0-.38-.29,9.06,9.06,0,0,1-1.1-.61,1,1,0,0,0-.45-.17.91.91,0,0,0-.49.07l-2.78,1.1A1.06,1.06,0,0,1,38,56.65L36.39,54a1,1,0,0,1-.15-.62,1,1,0,0,1,.33-.61l2.31-2a1.06,1.06,0,0,0,.29-.43,1.09,1.09,0,0,0,.06-.51,4.34,4.34,0,0,1,0-.51v-.54a1,1,0,0,0-.1-.47,1.27,1.27,0,0,0-.3-.39l-2.47-1.88a.89.89,0,0,1-.29-.26.93.93,0,0,1-.16-.35,1,1,0,0,1,.1-.7L37.47,42a1.09,1.09,0,0,1,.52-.45,1,1,0,0,1,.68,0l2.9,1a1.24,1.24,0,0,0,.47,0,1,1,0,0,0,.44-.2,7.76,7.76,0,0,1,1-.68.89.89,0,0,0,.36-.31A1,1,0,0,0,44,41l.37-2.91a1,1,0,0,1,.35-.63.8.8,0,0,1,.3-.19,1.13,1.13,0,0,1,.36-.06Zm-.78,16.77a4.74,4.74,0,0,1-2.67-.75,4.79,4.79,0,0,1,3.62-8.72,4.73,4.73,0,0,1,2.86,1.92A4.69,4.69,0,0,1,52.53,49a4.78,4.78,0,0,1-1.31,3.44,4.7,4.7,0,0,1-1.54,1.11A4.84,4.84,0,0,1,47.84,53.87Z"
            />
            <path
                class="secondary mix-blend-multiply"
                d="M7.75,53.56a3.18,3.18,0,0,0-.16-1.4A3.11,3.11,0,0,0,6.83,51a4.22,4.22,0,0,0-2.69-.72V47.63a4.14,4.14,0,0,0,2.7-.76,3.06,3.06,0,0,0,.73-1.13,3,3,0,0,0,.18-1.33V41.13a4.31,4.31,0,0,1,1-3.08,3.94,3.94,0,0,1,1.4-.91A4.38,4.38,0,0,1,11.81,37h3.75v2.84h-2a6,6,0,0,0-1.26.1,1.66,1.66,0,0,0-.81.39,1.47,1.47,0,0,0-.43.78A5.48,5.48,0,0,0,11,42.4v3a3.3,3.3,0,0,1-.19,1.36,3,3,0,0,1-.73,1.18,4.06,4.06,0,0,1-2.42,1v.26a3.79,3.79,0,0,1,2.41,1,3.67,3.67,0,0,1,.72,1.1A3.51,3.51,0,0,1,11,52.56v3a4.43,4.43,0,0,0,.14,1.3,1.38,1.38,0,0,0,.43.79,1.56,1.56,0,0,0,.82.38,6.74,6.74,0,0,0,1.27.11h1.9v2.78H11.81a4.47,4.47,0,0,1-3-1A4,4,0,0,1,8,58.49a4.16,4.16,0,0,1-.2-1.68Z"
            />
            <path
                class="secondary mix-blend-multiply"
                d="M27.94,56.76a4.13,4.13,0,0,1-.23,1.67,4.18,4.18,0,0,1-.87,1.44,4.1,4.1,0,0,1-3,1H20.11V58.1h1.95A7.78,7.78,0,0,0,23.33,58a1.61,1.61,0,0,0,.82-.39,1.55,1.55,0,0,0,.44-.79,5.75,5.75,0,0,0,.08-1.24v-3a3.48,3.48,0,0,1,.2-1.39A3.44,3.44,0,0,1,25.6,50a3.72,3.72,0,0,1,2.49-1v-.25a4.09,4.09,0,0,1-2.41-1,3.06,3.06,0,0,1-1-2.45v-3a4,4,0,0,0-.15-1.29,1.52,1.52,0,0,0-.44-.79,1.67,1.67,0,0,0-.81-.4A6.41,6.41,0,0,0,22,39.86H20.11V37h3.74a3.82,3.82,0,0,1,1.64.25,3.77,3.77,0,0,1,1.39.89,4.28,4.28,0,0,1,1,3.06v3.28a3.07,3.07,0,0,0,.18,1.34,3,3,0,0,0,.73,1.09,4.1,4.1,0,0,0,2.67.72v2.59a4.25,4.25,0,0,0-2.68.72A3.31,3.31,0,0,0,28,52.07a3.42,3.42,0,0,0-.15,1.42Z"
            />
        </g>
    </g>
</svg>
