<svg viewBox="0 0 64 64" fill="none" xmlns="http://www.w3.org/2000/svg">
    <defs>
        <style>
            .base {
                fill: #b7cde1;
            }

            .mix-blend-multiply {
                mix-blend-mode: multiply;
            }

            .primary {
                fill: #42CACD;
            }

            .secondary {
                fill: #FE90A0;
            }

            .tertiary {
                fill: #FEB452;
            }
        </style>
    </defs>
    <g clip-path="url(#clip0_3645_3808)">
        <path
            d="M61.71 53H2.29003C1.98658 52.9997 1.6864 52.9374 1.40784 52.8171C1.12929 52.6967 0.878226 52.5208 0.670032 52.3C0.236719 51.8404 -0.00318111 51.2317 3.18613e-05 50.6V7.4C-0.00318111 6.76833 0.236719 6.15963 0.670032 5.7C0.878226 5.47924 1.12929 5.30329 1.40784 5.18293C1.6864 5.06257 1.98658 5.00032 2.29003 5H61.71C62.0135 5.00032 62.3137 5.06257 62.5922 5.18293C62.8708 5.30329 63.1218 5.47924 63.33 5.7C63.7633 6.15963 64.0032 6.76833 64 7.4V50.6C64.0032 51.2317 63.7633 51.8404 63.33 52.3C63.1218 52.5208 62.8708 52.6967 62.5922 52.8171C62.3137 52.9374 62.0135 52.9997 61.71 53Z"
            class="base" />
        <g class="mix-blend-multiply">
            <path
                d="M5.5 10.9998C5.79524 11 6.08397 10.913 6.33 10.7498C6.57851 10.5821 6.77303 10.3459 6.89 10.0698C7.01111 9.80039 7.04939 9.50105 7 9.20981C6.94708 8.90824 6.80253 8.6303 6.58602 8.41379C6.36952 8.19729 6.09158 8.05274 5.79 7.99981C5.50173 7.94099 5.20248 7.96882 4.93 8.07981C4.65395 8.19679 4.41774 8.39131 4.25 8.63981C4.09163 8.86608 3.9988 9.13167 3.98175 9.40732C3.96469 9.68298 4.02407 9.95799 4.15334 10.2021C4.28261 10.4461 4.47675 10.6497 4.71437 10.7905C4.95198 10.9313 5.22385 11.0037 5.5 10.9998Z"
                class="base" />
        </g>
        <g class="mix-blend-multiply">
            <path
                d="M10.5 10.9998C10.7952 11 11.084 10.913 11.33 10.7498C11.5785 10.5821 11.773 10.3459 11.89 10.0698C12.001 9.79733 12.0288 9.49809 11.97 9.20981C11.919 8.91235 11.7789 8.63739 11.5682 8.42132C11.3574 8.20525 11.0861 8.05826 10.79 7.99981C10.5017 7.94099 10.2025 7.96882 9.93 8.07981C9.65395 8.19679 9.41774 8.39131 9.25 8.63981C9.09163 8.86608 8.9988 9.13167 8.98175 9.40732C8.96469 9.68298 9.02407 9.95799 9.15334 10.2021C9.28261 10.4461 9.47675 10.6497 9.71436 10.7905C9.95198 10.9313 10.2238 11.0037 10.5 10.9998Z"
                class="base" />
        </g>
        <g class="mix-blend-multiply">
            <path
                d="M15.5 10.9998C15.7952 11 16.084 10.913 16.33 10.7498C16.5785 10.5821 16.773 10.3459 16.89 10.0698C17.001 9.79733 17.0288 9.49809 16.97 9.20981C16.919 8.91235 16.7789 8.63739 16.5682 8.42132C16.3575 8.20525 16.0861 8.05826 15.79 7.99981C15.5017 7.94099 15.2025 7.96882 14.93 8.07981C14.6539 8.19679 14.4177 8.39131 14.25 8.63981C14.0916 8.86608 13.9988 9.13167 13.9817 9.40732C13.9647 9.68298 14.0241 9.95799 14.1533 10.2021C14.2826 10.4461 14.4767 10.6497 14.7144 10.7905C14.952 10.9313 15.2238 11.0037 15.5 10.9998Z"
                class="base" />
        </g>
        <path opacity="0.5"
            d="M57.8501 13H6.15006C5.54684 13.0336 4.9816 13.3052 4.57848 13.7552C4.17536 14.2051 3.96733 14.7967 4.00006 15.4V46.6C3.96733 47.2033 4.17536 47.7949 4.57848 48.2448C4.9816 48.6948 5.54684 48.9664 6.15006 49H57.8501C58.4533 48.9664 59.0185 48.6948 59.4216 48.2448C59.8247 47.7949 60.0328 47.2033 60.0001 46.6V15.4C60.0328 14.7967 59.8247 14.2051 59.4216 13.7552C59.0185 13.3052 58.4533 13.0336 57.8501 13Z"
            fill="white" />
        <rect x="10" y="47" width="22" height="12" rx="1" class="primary" />
        <rect x="13" y="45" width="7" height="2" class="primary" />
        <rect x="22" y="45" width="7" height="2" class="primary" />
        <g class="mix-blend-multiply">
            <rect x="13" y="45" width="7" height="2" class="primary" />
        </g>
        <g class="mix-blend-multiply">
            <rect x="22" y="45" width="7" height="2" class="primary" />
        </g>
        <rect x="32" y="47" width="22" height="12" rx="1" class="secondary" />
        <rect x="35" y="45" width="7" height="2" class="secondary" />
        <rect x="44" y="45" width="7" height="2" class="secondary" />
        <g class="mix-blend-multiply">
            <rect x="35" y="45" width="7" height="2" class="secondary" />
        </g>
        <g class="mix-blend-multiply">
            <rect x="44" y="45" width="7" height="2" class="secondary" />
        </g>
        <rect x="20.4283" y="30.6641" width="22" height="12" rx="1" transform="rotate(-12.3657 20.4283 30.6641)"
            class="tertiary" />
        <rect x="22.9304" y="28.0684" width="7" height="2" transform="rotate(-12.3657 22.9304 28.0684)"
            class="tertiary" />
        <rect x="31.7216" y="26.1416" width="7" height="2" transform="rotate(-12.3657 31.7216 26.1416)"
            class="tertiary" />
        <g class="mix-blend-multiply">
            <rect x="22.9304" y="28.0684" width="7" height="2" transform="rotate(-12.3657 22.9304 28.0684)"
                class="tertiary" />
        </g>
        <g class="mix-blend-multiply">
            <rect x="31.7216" y="26.1416" width="7" height="2" transform="rotate(-12.3657 31.7216 26.1416)"
                class="tertiary" />
        </g>
    </g>
    <defs>
        <clipPath id="clip0_3645_3808">
            <rect width="64" height="64" fill="white" />
        </clipPath>
    </defs>
</svg>