<svg xmlns="http://www.w3.org/2000/svg" viewBox="0 0 64 64">
    <defs>
        <style>
            .isolate {
                isolation: isolate;
            }

            .base {
                fill: #b1cde2;
            }

            .mix-blend-multiply {
                mix-blend-mode: multiply;
            }

            .primary {
                fill: #00cfcf;
            }

            .tertiary {
                fill: #0081ff;
            }

            .secondary {
                fill: #ffb036;
            }
        </style>
    </defs>
    <g class="isolate">
        <g id="Layer_1" data-name="Layer 1">
            <path
                class="base"
                d="M61.71,55H2.29a2.21,2.21,0,0,1-1.62-.7A2.49,2.49,0,0,1,0,52.6V9.4A2.49,2.49,0,0,1,.67,7.7,2.21,2.21,0,0,1,2.29,7H61.71a2.21,2.21,0,0,1,1.62.7A2.49,2.49,0,0,1,64,9.4V52.6a2.49,2.49,0,0,1-.67,1.7,2.21,2.21,0,0,1-1.62.7Z"
            />
            <path
                class="base mix-blend-multiply"
                d="M5.52,14.11a1.55,1.55,0,0,0,.83-.25,1.47,1.47,0,0,0,.55-.68,1.41,1.41,0,0,0,.1-.86,1.47,1.47,0,0,0-.4-.78,1.53,1.53,0,0,0-.78-.42,1.62,1.62,0,0,0-.87.09,1.55,1.55,0,0,0-.67.57,1.36,1.36,0,0,0-.25.83,1.66,1.66,0,0,0,.11.58,1.58,1.58,0,0,0,.33.48A1.49,1.49,0,0,0,5.52,14.11Z"
            />
            <path
                class="base mix-blend-multiply"
                d="M10.52,14.11a1.55,1.55,0,0,0,.83-.25,1.47,1.47,0,0,0,.55-.68,1.41,1.41,0,0,0,.09-.86,1.47,1.47,0,0,0-.4-.78,1.53,1.53,0,0,0-.78-.42,1.62,1.62,0,0,0-.87.09,1.55,1.55,0,0,0-.67.57,1.36,1.36,0,0,0-.25.83,1.66,1.66,0,0,0,.11.58,1.58,1.58,0,0,0,.33.48A1.5,1.5,0,0,0,10.52,14.11Z"
            />
            <path
                class="base mix-blend-multiply"
                d="M15.52,14.11a1.55,1.55,0,0,0,.83-.25,1.47,1.47,0,0,0,.55-.68,1.41,1.41,0,0,0,.09-.86,1.47,1.47,0,0,0-.4-.78,1.53,1.53,0,0,0-.78-.42,1.62,1.62,0,0,0-.87.09,1.55,1.55,0,0,0-.67.57,1.36,1.36,0,0,0-.25.83,1.66,1.66,0,0,0,.11.58,1.58,1.58,0,0,0,.33.48A1.5,1.5,0,0,0,15.52,14.11Z"
            />
            <g class="isolate">
                <path
                    fill="#fff"
                    opacity="0.4"
                    d="M58.68,17.11H5.29a1.28,1.28,0,0,0-.51.13,1.22,1.22,0,0,0-.43.31,1.33,1.33,0,0,0-.27.46,1.29,1.29,0,0,0-.08.52v32a1.24,1.24,0,0,0,.06.54,1.16,1.16,0,0,0,.27.47,1.37,1.37,0,0,0,.43.33,1.42,1.42,0,0,0,.53.13H58.68a1.35,1.35,0,0,0,1-.44,1.36,1.36,0,0,0,.28-.46,1.44,1.44,0,0,0,.07-.54v-32a1.41,1.41,0,0,0-.07-.54,1.34,1.34,0,0,0-.28-.47,1.43,1.43,0,0,0-.44-.32A1.24,1.24,0,0,0,58.68,17.11Z"
                />
            </g>
            <path class="primary" d="M29,21H9a1,1,0,0,0,0,2H29a1,1,0,0,0,0-2Z" />
            <path class="tertiary" d="M19,25H9a1,1,0,0,0,0,2H19a1,1,0,0,0,0-2Z" />
            <path class="secondary" d="M12,29H9a1,1,0,0,0,0,2h3a1,1,0,0,0,0-2Z" />
            <path class="tertiary" d="M32,29H16a1,1,0,0,0,0,2H32a1,1,0,0,0,0-2Z" />
            <path class="primary" d="M25,33H9a1,1,0,0,0,0,2H25a1,1,0,0,0,0-2Z" />
            <path class="secondary" d="M40,29H36a1,1,0,0,0,0,2h4a1,1,0,0,0,0-2Z" />
            <path class="secondary" d="M33,25H23a1,1,0,0,0,0,2H33a1,1,0,0,0,0-2Z" />
            <path
                class="primary mix-blend-multiply"
                d="M35.56,54.63a3.11,3.11,0,0,0-.16-1.42A3.19,3.19,0,0,0,34.64,52,4.19,4.19,0,0,0,32,51.31V48.69a4,4,0,0,0,2.65-.76,2.83,2.83,0,0,0,.73-1.13,3,3,0,0,0,.18-1.33V42.21a4.36,4.36,0,0,1,1-3.06,3.8,3.8,0,0,1,1.37-.9A3.73,3.73,0,0,1,39.55,38h3.7v2.83H41.33a5.72,5.72,0,0,0-1.24.1,1.63,1.63,0,0,0-.8.39,1.47,1.47,0,0,0-.43.78,5.48,5.48,0,0,0-.11,1.34v3a3.14,3.14,0,0,1-.18,1.36A3.31,3.31,0,0,1,37.84,49a4,4,0,0,1-2.39.95v.25a3.71,3.71,0,0,1,2.38,1,3.63,3.63,0,0,1,.72,1.17,3.71,3.71,0,0,1,.2,1.36v2.94a4.76,4.76,0,0,0,.14,1.3,1.4,1.4,0,0,0,.42.78,1.58,1.58,0,0,0,.81.39,6.52,6.52,0,0,0,1.25.1h1.88V62h-3.7A3.9,3.9,0,0,1,38,61.77,4,4,0,0,1,36.6,61a4.06,4.06,0,0,1-.84-1.45,4.16,4.16,0,0,1-.2-1.68Z"
            />
            <path
                class="primary mix-blend-multiply"
                d="M55.47,57.82a4.24,4.24,0,0,1-.21,1.66,3.75,3.75,0,0,1-1.46,1.91,3.71,3.71,0,0,1-2.33.61H47.75V59.15h1.92a6.52,6.52,0,0,0,1.25-.1,1.58,1.58,0,0,0,.81-.39,1.47,1.47,0,0,0,.43-.78,4.72,4.72,0,0,0,.09-1.3V53.64a3.46,3.46,0,0,1,.92-2.56,3.62,3.62,0,0,1,2.45-1v-.25a4,4,0,0,1-2.38-1,3.22,3.22,0,0,1-.76-1.13,3.13,3.13,0,0,1-.23-1.35v-3a4.72,4.72,0,0,0-.15-1.3,1.64,1.64,0,0,0-.44-.79,1.68,1.68,0,0,0-.79-.39,7.09,7.09,0,0,0-1.22-.1h-1.9V38h3.72a4.07,4.07,0,0,1,1.62.24,4,4,0,0,1,1.38.9,4.47,4.47,0,0,1,1,3.06v3.3a3.22,3.22,0,0,0,.17,1.34A3,3,0,0,0,56.37,48a4,4,0,0,0,2.63.73v2.58a4.18,4.18,0,0,0-2.64.72,3.11,3.11,0,0,0-.76,1.19,3.21,3.21,0,0,0-.16,1.41Z"
            />
        </g>
    </g>
</svg>
