<svg xmlns="http://www.w3.org/2000/svg" viewBox="0 0 64 64">
    <defs>
        <style>
            .isolate {
                isolation: isolate;
            }

            .base {
                fill: #b7cde1;
            }

            .mix-blend-multiply {
                mix-blend-mode: multiply;
            }

            .primary {
                fill: #feb452;
            }
        </style>
    </defs>
    <g id="Layer_1" data-name="Layer 1">
        <rect fill="none" width="64" height="64" />
        <path
            fill="white"
            d="M33.91,52a3.45,3.45,0,0,0-.17-1.53,3.33,3.33,0,0,0-.83-1.29A4.68,4.68,0,0,0,30,48.44V45.61a4.6,4.6,0,0,0,2.92-.83,3.16,3.16,0,0,0,.8-1.23,3.26,3.26,0,0,0,.2-1.45V38.56A4.68,4.68,0,0,1,35,35.25a4.53,4.53,0,0,1,1.51-1A4.35,4.35,0,0,1,38.3,34h4.08v3.07H40.26a6.87,6.87,0,0,0-1.36.11,1.81,1.81,0,0,0-.88.42,1.66,1.66,0,0,0-.47.86,5,5,0,0,0-.12,1.44v3.22a3.5,3.5,0,0,1-.2,1.47,3.46,3.46,0,0,1-.81,1.25,4.41,4.41,0,0,1-2.62,1v.27a4.08,4.08,0,0,1,2.61,1.08,3.57,3.57,0,0,1,.79,1.27A3.85,3.85,0,0,1,37.43,51v3.18a5.16,5.16,0,0,0,.14,1.41,1.67,1.67,0,0,0,.47.85,1.79,1.79,0,0,0,.9.42,7,7,0,0,0,1.37.11h2.07v3H38.3a4.46,4.46,0,0,1-3.24-1.13,4.68,4.68,0,0,1-.93-1.58,4.5,4.5,0,0,1-.22-1.82Z"
        />
        <path
            fill="white"
            d="M55.82,55.51a4.54,4.54,0,0,1-1.15,3.38,4.41,4.41,0,0,1-1.51.88,4.3,4.3,0,0,1-1.74.24H47.33V57h2.11a7.14,7.14,0,0,0,1.38-.11,1.75,1.75,0,0,0,.89-.42,1.67,1.67,0,0,0,.47-.85,5.55,5.55,0,0,0,.1-1.41V51a3.49,3.49,0,0,1,.21-1.5,3.66,3.66,0,0,1,.79-1.29A4,4,0,0,1,56,47.12v-.28a4.54,4.54,0,0,1-2.62-1,3.45,3.45,0,0,1-.85-1.22,3.37,3.37,0,0,1-.24-1.47V39.91a5.13,5.13,0,0,0-.16-1.41,1.78,1.78,0,0,0-.49-.85,1.72,1.72,0,0,0-.88-.42,6.58,6.58,0,0,0-1.33-.11h-2.1V34.05h4.09a4.31,4.31,0,0,1,1.78.26,4.16,4.16,0,0,1,1.51,1,4.72,4.72,0,0,1,1.11,3.32v3.54A3.26,3.26,0,0,0,56,43.59a3.2,3.2,0,0,0,.8,1.22,4.49,4.49,0,0,0,2.89.8V48.4a4.76,4.76,0,0,0-2.91.78,3.57,3.57,0,0,0-.83,1.3A3.42,3.42,0,0,0,55.79,52Z"
        />

        <path
            class="base"
            d="M61.71,56H2.29a2.21,2.21,0,0,1-1.62-.7A2.49,2.49,0,0,1,0,53.6V10.4A2.49,2.49,0,0,1,.67,8.7,2.21,2.21,0,0,1,2.29,8H61.71a2.21,2.21,0,0,1,1.62.7A2.49,2.49,0,0,1,64,10.4V53.6a2.49,2.49,0,0,1-.67,1.7,2.21,2.21,0,0,1-1.62.7Z"
        />
        <path
            class="base mix-blend-multiply"
            d="M5.52,14.11a1.55,1.55,0,0,0,.83-.25,1.47,1.47,0,0,0,.55-.68,1.41,1.41,0,0,0,.1-.86,1.47,1.47,0,0,0-.4-.78,1.53,1.53,0,0,0-.78-.42,1.62,1.62,0,0,0-.87.09,1.55,1.55,0,0,0-.67.57,1.36,1.36,0,0,0-.25.83,1.66,1.66,0,0,0,.11.58,1.58,1.58,0,0,0,.33.48A1.49,1.49,0,0,0,5.52,14.11Z"
        />
        <path
            class="base mix-blend-multiply"
            d="M10.52,14.11a1.55,1.55,0,0,0,.83-.25,1.47,1.47,0,0,0,.55-.68,1.41,1.41,0,0,0,.09-.86,1.47,1.47,0,0,0-.4-.78,1.53,1.53,0,0,0-.78-.42,1.62,1.62,0,0,0-.87.09,1.55,1.55,0,0,0-.67.57,1.36,1.36,0,0,0-.25.83,1.66,1.66,0,0,0,.11.58,1.58,1.58,0,0,0,.33.48A1.5,1.5,0,0,0,10.52,14.11Z"
        />
        <path
            class="base mix-blend-multiply"
            d="M15.52,14.11a1.55,1.55,0,0,0,.83-.25,1.47,1.47,0,0,0,.55-.68,1.41,1.41,0,0,0,.09-.86,1.47,1.47,0,0,0-.4-.78,1.53,1.53,0,0,0-.78-.42,1.62,1.62,0,0,0-.87.09,1.55,1.55,0,0,0-.67.57,1.36,1.36,0,0,0-.25.83,1.66,1.66,0,0,0,.11.58,1.58,1.58,0,0,0,.33.48A1.5,1.5,0,0,0,15.52,14.11Z"
        />
        <path
            fill="#fff"
            opacity="0.4"
            d="M58.68,17.11H5.29a1.28,1.28,0,0,0-.51.13,1.22,1.22,0,0,0-.43.31,1.33,1.33,0,0,0-.27.46,1.29,1.29,0,0,0-.08.52v32a1.24,1.24,0,0,0,.06.54,1.16,1.16,0,0,0,.27.47,1.37,1.37,0,0,0,.43.33,1.42,1.42,0,0,0,.53.13H58.68a1.35,1.35,0,0,0,1-.44,1.36,1.36,0,0,0,.28-.46,1.44,1.44,0,0,0,.07-.54v-32a1.41,1.41,0,0,0-.07-.54,1.34,1.34,0,0,0-.28-.47,1.43,1.43,0,0,0-.44-.32A1.24,1.24,0,0,0,58.68,17.11Z"
        />
        <path
            class="primary mix-blend-multiply"
            d="M33.91,52a3.45,3.45,0,0,0-.17-1.53,3.33,3.33,0,0,0-.83-1.29A4.68,4.68,0,0,0,30,48.44V45.61a4.6,4.6,0,0,0,2.92-.83,3.16,3.16,0,0,0,.8-1.23,3.26,3.26,0,0,0,.2-1.45V38.56A4.68,4.68,0,0,1,35,35.25a4.53,4.53,0,0,1,1.51-1A4.35,4.35,0,0,1,38.3,34h4.08v3.07H40.26a6.87,6.87,0,0,0-1.36.11,1.81,1.81,0,0,0-.88.42,1.66,1.66,0,0,0-.47.86,5,5,0,0,0-.12,1.44v3.22a3.5,3.5,0,0,1-.2,1.47,3.46,3.46,0,0,1-.81,1.25,4.41,4.41,0,0,1-2.62,1v.27a4.08,4.08,0,0,1,2.61,1.08,3.57,3.57,0,0,1,.79,1.27A3.85,3.85,0,0,1,37.43,51v3.18a5.16,5.16,0,0,0,.14,1.41,1.67,1.67,0,0,0,.47.85,1.79,1.79,0,0,0,.9.42,7,7,0,0,0,1.37.11h2.07v3H38.3a4.46,4.46,0,0,1-3.24-1.13,4.68,4.68,0,0,1-.93-1.58,4.5,4.5,0,0,1-.22-1.82Z"
        />
        <path
            class="primary mix-blend-multiply"
            d="M55.82,55.51a4.54,4.54,0,0,1-1.15,3.38,4.41,4.41,0,0,1-1.51.88,4.3,4.3,0,0,1-1.74.24H47.33V57h2.11a7.14,7.14,0,0,0,1.38-.11,1.75,1.75,0,0,0,.89-.42,1.67,1.67,0,0,0,.47-.85,5.55,5.55,0,0,0,.1-1.41V51a3.49,3.49,0,0,1,.21-1.5,3.66,3.66,0,0,1,.79-1.29A4,4,0,0,1,56,47.12v-.28a4.54,4.54,0,0,1-2.62-1,3.45,3.45,0,0,1-.85-1.22,3.37,3.37,0,0,1-.24-1.47V39.91a5.13,5.13,0,0,0-.16-1.41,1.78,1.78,0,0,0-.49-.85,1.72,1.72,0,0,0-.88-.42,6.58,6.58,0,0,0-1.33-.11h-2.1V34.05h4.09a4.31,4.31,0,0,1,1.78.26,4.16,4.16,0,0,1,1.51,1,4.72,4.72,0,0,1,1.11,3.32v3.54A3.26,3.26,0,0,0,56,43.59a3.2,3.2,0,0,0,.8,1.22,4.49,4.49,0,0,0,2.89.8V48.4a4.76,4.76,0,0,0-2.91.78,3.57,3.57,0,0,0-.83,1.3A3.42,3.42,0,0,0,55.79,52Z"
        />
    </g>
</svg>
