<svg viewBox=" 0 0 64 64" fill="none" xmlns="http://www.w3.org/2000/svg">
    <defs>
        <style>
            .base {
                fill: #b7cde1;
            }

            .mix-blend-multiply {
                mix-blend-mode: multiply;
            }

            .primary {
                fill: #f05656;
            }
        </style>
    </defs>
    <g clip-path="url(#clip0_3370_3825)">
        <path
            d="M9.93615 6.57773L6.64524 9.86867L11.5816 16.4505L14.0498 17.2733L32.9725 36.1962L36.2635 32.9052L17.3407 13.9823L16.518 11.5141L9.93615 6.57773Z"
            fill="white"
        />
        <path
            d="M58.0636 14.8278L51.6545 21.237C49.8363 23.0552 46.8909 23.0552 45.0727 21.237L43.4272 19.5915C41.609 17.7732 41.609 14.8278 43.4272 13.0096L49.8363 6.6005C45.41 5.16894 40.3585 6.20559 36.8454 9.71867C33.3324 13.2317 32.2957 18.2833 33.7273 22.7096L8.04993 48.3872C5.7792 50.6579 5.7792 54.3438 8.04993 56.6145C10.3207 58.8853 14.0065 58.8853 16.2772 56.6145L41.9546 30.937C46.3808 32.3686 51.4324 31.3319 54.9454 27.8188C58.4585 24.3058 59.4951 19.2542 58.0636 14.8278ZM10.5181 54.1463C9.61312 53.2413 9.61312 51.7604 10.5181 50.8554C11.4231 49.9504 12.904 49.9504 13.809 50.8554C14.714 51.7604 14.714 53.2413 13.809 54.1463C12.904 55.0513 11.4231 55.0513 10.5181 54.1463Z"
            class="base"
        />
        <path
            d="M27.2134 35.375L35.4407 27.1477L56.8317 48.5387C58.6492 50.3563 58.6492 53.3031 56.8317 55.1206L55.1862 56.7661C53.3687 58.5836 50.4219 58.5836 48.6044 56.7661L27.2134 35.375Z"
            class="primary"
        />
        <g class="mix-blend-multiply">
            <rect
                width="2.32704"
                height="24.4339"
                rx="1.16352"
                transform="matrix(0.707104 -0.70711 0.707104 0.70711 32.1498 37.0186)"
                class="primary"
            />
        </g>
        <g class="mix-blend-multiply">
            <rect
                width="2.32704"
                height="24.4339"
                rx="1.16352"
                transform="matrix(0.707104 -0.70711 0.707104 0.70711 35.4407 33.7275)"
                class="primary"
            />
        </g>
        <g class="mix-blend-multiply">
            <path
                d="M9.93615 6.57773L6.64524 9.86867L11.5816 16.4505L14.0498 17.2733L31.3271 34.5507L34.618 31.2598L17.3407 13.9823L16.518 11.5141L9.93615 6.57773Z"
                class="base"
            />
        </g>
    </g>
    <defs>
        <clipPath id="clip0_3370_3825">
            <rect width="64" height="64" fill="white" />
        </clipPath>
    </defs>
</svg>
