<svg id="Layer_1" data-name="Layer 1" xmlns="http://www.w3.org/2000/svg" viewBox="0 0 24 24">
	<defs>
		<style>
			.stroke {
				stroke: #000;
			}
		</style>
	</defs>
	<path stroke-width="2" fill="none" class="stroke" stroke-linecap="round" stroke-linejoin="round"
		d="M15,4h1a2,2,0,0,1,2,2V9a3,3,0,0,0,3,3h0a3,3,0,0,0-3,3v3a2,2,0,0,1-2,2H15" />
	<path stroke-width="2" fill="none" class=" stroke " stroke-linecap="round" stroke-linejoin="round"
		d="M9,4H8A2,2,0,0,0,6,6V9a3,3,0,0,1-3,3H3a3,3,0,0,1,3,3v3a2,2,0,0,0,2,2H9" />
</svg>