<svg viewBox="0 0 24 24" fill="none" xmlns="http://www.w3.org/2000/svg">
   <defs>
        <style>
            .stroke {
                stroke: #000;
            }
        </style>
    </defs> 
    <path
        d="M20 10H4C3.44772 10 3 10.4477 3 11V16C3 16.5523 3.44772 17 4 17H20C20.5523 17 21 16.5523 21 16V11C21 10.4477 20.5523 10 20 10Z"
       class="stroke" stroke-width="2" stroke-linecap="round" stroke-linejoin="round" />
    <path
        d="M5 9V8C5 7.73478 5.10536 7.48043 5.29289 7.29289C5.48043 7.10536 5.73478 7 6 7H9C9.26522 7 9.51957 7.10536 9.70711 7.29289C9.89464 7.48043 10 7.73478 10 8V9"
       class="stroke" stroke-width="2" stroke-linecap="round" stroke-linejoin="round" />
    <path
        d="M14 9V8C14 7.73478 14.1054 7.48043 14.2929 7.29289C14.4804 7.10536 14.7348 7 15 7H18C18.2652 7 18.5196 7.10536 18.7071 7.29289C18.8946 7.48043 19 7.73478 19 8V9"
       class="stroke" stroke-width="2" stroke-linecap="round" stroke-linejoin="round" />
</svg>