<svg viewBox="0 0 24 24" xmlns="http://www.w3.org/2000/svg">
    <defs>
        <style>
            .stroke {
                stroke: #000;
            }
        </style>
    </defs>
    <path
        d="M12.75 20.25V2.99998C12.7499 2.86424 12.713 2.73107 12.6432 2.61467C12.5734 2.49827 12.4733 2.40299 12.3536 2.339C12.2339 2.27501 12.099 2.24471 11.9635 2.25132C11.8279 2.25793 11.6967 2.30121 11.5838 2.37654L4.08375 7.37623C3.98088 7.44486 3.89658 7.53787 3.83835 7.64697C3.78012 7.75607 3.74977 7.87787 3.75 8.00154V20.25"
        class="stroke"
        fill="none"
        stroke-width="2"
        stroke-linecap="round"
        stroke-linejoin="round"
    />
    <path
        d="M12.75 8.25H19.5C19.6989 8.25 19.8897 8.32902 20.0303 8.46967C20.171 8.61032 20.25 8.80109 20.25 9V20.25"
        class="stroke"
        stroke-width="2"
        fill="none"
        stroke-linecap="round"
        stroke-linejoin="round"
    />
    <path d="M1.5 20.25H22.5" class="stroke" stroke-width="2" stroke-linecap="round" stroke-linejoin="round" />
    <path d="M9.75 10.5V12" class="stroke" stroke-width="2" stroke-linecap="round" stroke-linejoin="round" />
    <path d="M6.75 10.5V12" class="stroke" stroke-width="2" stroke-linecap="round" stroke-linejoin="round" />
    <path d="M6.75 15.75V17.25" class="stroke" stroke-width="2" stroke-linecap="round" stroke-linejoin="round" />
    <path d="M9.75 15.75V17.25" class="stroke" stroke-width="2" stroke-linecap="round" stroke-linejoin="round" />
</svg>
