<svg id="Layer_1" data-name="Layer 1" xmlns="http://www.w3.org/2000/svg" viewBox="0 0 24 24">
	<defs>
		<style>
			.stroke {
				stroke: #000;
			}
		</style>
	</defs>
	<rect stroke-width="2" fill="none" class="stroke" stroke-linecap="round" stroke-linejoin="round" x="3" y="10"
		width="18" height="8" rx="1" />
	<path stroke-width="2" fill="none" class="stroke" stroke-linecap="round" stroke-linejoin="round"
		d="M7,18v2a1,1,0,0,1-1,1H5a1,1,0,0,1-1-1V18" />
	<path stroke-width="2" fill="none" class="stroke" stroke-linecap="round" stroke-linejoin="round"
		d="M20,18v2a1,1,0,0,1-1,1H18a1,1,0,0,1-1-1V18" />
	<circle stroke-width="2" fill="none" class="stroke" stroke-linecap="round" stroke-linejoin="round" cx="6.75"
		cy="14.21" r="1.25" />
	<circle stroke-width="2" fill="none" class="stroke" stroke-linecap="round" stroke-linejoin="round" cx="16.75"
		cy="14.21" r="1.25" />
	<path stroke-width="2" fill="none" class="stroke" stroke-linecap="round" stroke-linejoin="round"
		d="M4,10,5.77,4.68a1,1,0,0,1,1-.68H17.28a1,1,0,0,1,.95.68L20,10" />
</svg>