<svg viewBox="0 0 24 24" fill="none" xmlns="http://www.w3.org/2000/svg">
    <defs>
        <style>
            .stroke {
                stroke: #000;
            }
        </style>
    </defs>
    <path
        d="M18 8H3C2.44772 8 2 8.44772 2 9V17C2 17.5523 2.44772 18 3 18H18C18.5523 18 19 17.5523 19 17V9C19 8.44772 18.5523 8 18 8Z"
        class="stroke"
        stroke-width="2"
        stroke-linecap="round"
        stroke-linejoin="round"
    />
    <path
        d="M15.5 18C15.5 17.0717 15.8687 16.1815 16.5251 15.5251C17.1815 14.8687 18.0717 14.5 19 14.5"
        class="stroke"
        stroke-width="2"
        stroke-linecap="round"
        stroke-linejoin="round"
    />
    <path
        d="M15.5 8.5C15.5 9.42826 15.8687 10.3185 16.5251 10.9749C17.1815 11.6313 18.0717 12 19 12"
        class="stroke"
        stroke-width="2"
        stroke-linecap="round"
        stroke-linejoin="round"
    />
    <path
        d="M6 8.5C6 9.42826 5.63125 10.3185 4.97487 10.9749C4.3185 11.6313 3.42826 12 2.5 12"
        class="stroke"
        stroke-width="2"
        stroke-linecap="round"
        stroke-linejoin="round"
    />
    <path
        d="M5 8V6C5 5.73478 5.10536 5.48043 5.29289 5.29289C5.48043 5.10536 5.73478 5 6 5H21C21.2652 5 21.5196 5.10536 21.7071 5.29289C21.8946 5.48043 22 5.73478 22 6V14C22 14.2652 21.8946 14.5196 21.7071 14.7071C21.5196 14.8946 21.2652 15 21 15H19"
        class="stroke"
        stroke-width="2"
        stroke-linecap="round"
        stroke-linejoin="round"
    />
</svg>
