<svg id="Layer_1" data-name="Layer 1" xmlns="http://www.w3.org/2000/svg" viewBox="0 0 24 24">
    <defs>
        <style>
            .stroke {
                stroke: #000;
            }
        </style>
    </defs>
    <path
        stroke-width="2"
        fill="none"
        class="stroke"
        stroke-linecap="round"
        stroke-linejoin="round"
        d="M21,16V8a2,2,0,0,0-1-1.73l-7-4a2,2,0,0,0-2,0l-7,4A2,2,0,0,0,3,8v8a2,2,0,0,0,1,1.73l7,4a2,2,0,0,0,2,0l7-4A2,2,0,0,0,21,16Z"
    />
    <polyline
        stroke-width="2"
        fill="none"
        class="stroke"
        stroke-linecap="round"
        stroke-linejoin="round"
        points="3.27 6.96 12 12.01 20.73 6.96"
    />
    <line
        stroke-width="2"
        fill="none"
        class="stroke"
        stroke-linecap="round"
        stroke-linejoin="round"
        x1="12"
        y1="21.08"
        x2="12"
        y2="12"
    />
    <polyline
        stroke-width="2"
        fill="none"
        class="stroke"
        stroke-linecap="round"
        stroke-linejoin="round"
        points="3.27 11.96 12 17.01 20.73 11.96"
    />
</svg>
