<svg viewBox="0 0 24 24" xmlns="http://www.w3.org/2000/svg">
    <defs>
        <style>
            .stroke {
                stroke : #000;
            }
        </style>
    </defs>
<path d="M3.94699 10.3922C4.20589 11.0172 4.58535 11.5851 5.06373 12.0635L11.6207 18.6205C12.0991 19.0988 12.667 19.4783 13.292 19.7372C13.9171 19.9961 14.587 20.1294 15.2635 20.1294C15.94 20.1294 16.6099 19.9961 17.2349 19.7372C17.86 19.4783 18.4279 19.0988 18.9062 18.6205L20.3634 17.1634C20.7657 16.761 20.7657 16.1086 20.3634 15.7063L17.4491 12.792C17.0468 12.3897 16.3944 12.3897 15.992 12.792L14.5349 14.2491C14.1326 14.6515 13.4802 14.6515 13.0778 14.2491L9.43505 10.6064C9.03268 10.204 9.03268 9.55164 9.43505 9.14927L10.8922 7.69216C11.2945 7.28979 11.2945 6.63742 10.8922 6.23505L7.97794 3.32084C7.57557 2.91847 6.92321 2.91847 6.52084 3.32084L5.06373 4.77795C4.58535 5.25632 4.20588 5.82424 3.94699 6.44926C3.6881 7.07429 3.55484 7.74419 3.55484 8.42072C3.55484 9.09724 3.6881 9.76714 3.94699 10.3922Z" class="stroke" stroke-width="2" fill="none"  />
</svg>
