<svg viewBox="0 0 24 24" fill="none" xmlns="http://www.w3.org/2000/svg">
    <defs>
        <style>
            .stroke {
                stroke: #000;
            }
        </style>
    </defs>
    <path
        d="M6 10C7.65685 10 9 8.65685 9 7C9 5.34315 7.65685 4 6 4C4.34315 4 3 5.34315 3 7C3 8.65685 4.34315 10 6 10Z"
        class="stroke"
        stroke-width="2"
        stroke-linecap="round"
        stroke-linejoin="round"
    />
    <path
        d="M6 20C7.65685 20 9 18.6569 9 17C9 15.3431 7.65685 14 6 14C4.34315 14 3 15.3431 3 17C3 18.6569 4.34315 20 6 20Z"
        class="stroke"
        stroke-width="2"
        stroke-linecap="round"
        stroke-linejoin="round"
    />
    <path d="M13 7H21" class="stroke" stroke-width="2" stroke-linecap="round" stroke-linejoin="round" />
    <path d="M13 17H21" class="stroke" stroke-width="2" stroke-linecap="round" stroke-linejoin="round" />
    <path
        d="M6 7.5C6.27614 7.5 6.5 7.27614 6.5 7C6.5 6.72386 6.27614 6.5 6 6.5C5.72386 6.5 5.5 6.72386 5.5 7C5.5 7.27614 5.72386 7.5 6 7.5Z"
        class="stroke"
        stroke-linecap="round"
        stroke-linejoin="round"
    />
</svg>
