<svg viewBox="0 0 24 24" xmlns="http://www.w3.org/2000/svg">
    <defs>
        <style>
            .stroke {
                stroke: #000;
            }
        </style>
    </defs>
    <path
        d="M12 15.75C14.0711 15.75 15.75 14.0711 15.75 12C15.75 9.92893 14.0711 8.25 12 8.25C9.92893 8.25 8.25 9.92893 8.25 12C8.25 14.0711 9.92893 15.75 12 15.75Z"
        class="stroke"
        fill="none"
        stroke-width="2"
        stroke-linecap="round"
        stroke-linejoin="round"
    />
    <path
        d="M12.192 19.3228C12.0664 19.3228 11.9398 19.3228 11.817 19.3228L8.81234 21C7.64265 20.6065 6.55772 19.9959 5.61453 19.2L5.60328 15.825C5.53672 15.72 5.4739 15.6141 5.41578 15.5053L2.42797 13.8038C2.19263 12.6134 2.19263 11.3885 2.42797 10.1981L5.41297 8.50125C5.4739 8.39344 5.53672 8.28656 5.60047 8.18156L5.61547 4.80656C6.55781 4.00842 7.64245 3.39548 8.81234 3L11.8123 4.67719C11.938 4.67719 12.0645 4.67719 12.1873 4.67719L15.1873 3C16.357 3.39346 17.442 4.00414 18.3852 4.8L18.3964 8.175C18.463 8.28 18.5258 8.38594 18.5839 8.49469L21.5698 10.1953C21.8052 11.3857 21.8052 12.6106 21.5698 13.8009L18.5848 15.4978C18.5239 15.6056 18.4611 15.7125 18.3973 15.8175L18.3823 19.1925C17.4406 19.9908 16.3566 20.604 15.1873 21L12.192 19.3228Z"
        class="stroke"
        stroke-width="2"
        fill="none"
        stroke-linecap="round"
        stroke-linejoin="round"
    />
</svg>
