<svg viewBox="0 0 24 24" fill="none" xmlns="http://www.w3.org/2000/svg">
    <defs>
        <style>
            .stroke {
                stroke: #000;
            }
        </style>
    </defs>
    <path
        d="M20 7H4C3.44772 7 3 7.44772 3 8V18C3 18.5523 3.44772 19 4 19H20C20.5523 19 21 18.5523 21 18V8C21 7.44772 20.5523 7 20 7Z"
        class="stroke" stroke-width="2" stroke-linecap="round" stroke-linejoin="round" />
    <path
        d="M8 6V5C8 4.73478 8.10536 4.48043 8.29289 4.29289C8.48043 4.10536 8.73478 4 9 4H15C15.2652 4 15.5196 4.10536 15.7071 4.29289C15.8946 4.48043 16 4.73478 16 5V6"
        class="stroke" stroke-width="2" stroke-linecap="round" stroke-linejoin="round" />
    <path d="M4 11H20" class="stroke" stroke-width="2" stroke-linecap="round" stroke-linejoin="round" />
    <path d="M9 13.6602V9.66016" class="stroke" stroke-width="2" stroke-linecap="round" stroke-linejoin="round" />
    <path d="M15 13.6602V9.66016" class="stroke" stroke-width="2" stroke-linecap="round" stroke-linejoin="round" />
</svg>