<svg id="Layer_1" data-name="Layer 1" xmlns="http://www.w3.org/2000/svg" viewBox="0 0 24 24">
    <defs>
        <style>
            .stroke {
                stroke: #000;
            }
        </style>
    </defs>
    <path
        stroke-width="2"
        fill="none"
        class="stroke"
        stroke-linecap="round"
        stroke-linejoin="round"
        d="M17.5,8.5A2.5,2.5,0,0,1,15,11"
    />
    <path
        stroke-width="2"
        fill="none"
        class="stroke"
        stroke-linecap="round"
        stroke-linejoin="round"
        d="M15,6a2.5,2.5,0,0,1,2.5,2.5"
    />
    <path
        stroke-width="2"
        fill="none"
        class="stroke"
        stroke-linecap="round"
        stroke-linejoin="round"
        d="M12.5,8.5A2.5,2.5,0,0,1,15,6"
    />
    <path
        stroke-width="2"
        fill="none"
        class="stroke"
        stroke-linecap="round"
        stroke-linejoin="round"
        d="M15,11a2.5,2.5,0,0,1-2.5-2.5"
    />
    <path
        stroke-width="2"
        fill="none"
        class="stroke"
        stroke-linecap="round"
        stroke-linejoin="round"
        d="M9,18a6,6,0,0,1,6-6"
    />
    <path
        stroke-width="2"
        fill="none"
        class="stroke"
        stroke-linecap="round"
        stroke-linejoin="round"
        d="M9,18H21a6,6,0,0,0-6-6"
    />
    <path
        stroke-width="2"
        fill="none"
        class="stroke"
        stroke-linecap="round"
        stroke-linejoin="round"
        d="M9,10a2,2,0,0,1-2,2"
    />
    <path
        stroke-width="2"
        fill="none"
        class="stroke"
        stroke-linecap="round"
        stroke-linejoin="round"
        d="M7,8a2,2,0,0,1,2,2"
    />
    <path
        stroke-width="2"
        fill="none"
        class="stroke"
        stroke-linecap="round"
        stroke-linejoin="round"
        d="M5,10A2,2,0,0,1,7,8"
    />
    <path
        stroke-width="2"
        fill="none"
        class="stroke"
        stroke-linecap="round"
        stroke-linejoin="round"
        d="M7,12a2,2,0,0,1-2-2"
    />
    <path
        stroke-width="2"
        fill="none"
        class="stroke"
        stroke-linecap="round"
        stroke-linejoin="round"
        d="M3,17a4,4,0,0,1,4-4"
    />
    <path
        stroke-width="2"
        fill="none"
        class="stroke"
        stroke-linecap="round"
        stroke-linejoin="round"
        d="M10,14.35A4,4,0,0,0,7,13"
    />
    <line
        stroke-width="2"
        fill="none"
        class="stroke"
        stroke-linecap="round"
        stroke-linejoin="round"
        x1="3"
        y1="17"
        x2="9"
        y2="17"
    />
</svg>
